<svg viewBox="0 0 40 40" xmlns="http://www.w3.org/2000/svg" xmlns:xlink="http://www.w3.org/1999/xlink" width="40.000000" height="40.000000" fill="none">
	<defs>
		<linearGradient id="paint_linear_11" x1="5.90461063" x2="34.0953941" y1="26.2638397" y2="31.7361641" gradientUnits="userSpaceOnUse">
			<stop stop-color="rgb(117.482,236.938,160.618)" offset="0" stop-opacity="1" />
			<stop stop-color="rgb(52.1599,145.562,85.8886)" offset="1" stop-opacity="1" />
		</linearGradient>
		<linearGradient id="paint_linear_12" x1="2.85714149" x2="40.3571472" y1="22.454546" y2="39.1818199" gradientUnits="userSpaceOnUse">
			<stop stop-color="rgb(255,255,255)" offset="0" stop-opacity="1" />
			<stop stop-color="rgb(255,255,255)" offset="1" stop-opacity="0" />
		</linearGradient>
		<linearGradient id="paint_linear_13" x1="10.6030731" x2="29.3969288" y1="7.92181778" y2="14.078186" gradientUnits="userSpaceOnUse">
			<stop stop-color="rgb(117.482,236.938,160.618)" offset="0" stop-opacity="1" />
			<stop stop-color="rgb(52.1599,145.562,85.8886)" offset="1" stop-opacity="1" />
		</linearGradient>
		<linearGradient id="paint_linear_14" x1="8.57142639" x2="33.5714264" y1="3.63636398" y2="22.4545498" gradientUnits="userSpaceOnUse">
			<stop stop-color="rgb(255,255,255)" offset="0" stop-opacity="1" />
			<stop stop-color="rgb(255,255,255)" offset="1" stop-opacity="0" />
		</linearGradient>
		<linearGradient id="paint_linear_15" x1="18" x2="22" y1="6" y2="6" gradientUnits="userSpaceOnUse">
			<stop stop-color="rgb(255,255,255)" offset="0" stop-opacity="0.899999976" />
			<stop stop-color="rgb(255,255,255)" offset="1" stop-opacity="0.300000012" />
		</linearGradient>
		<linearGradient id="paint_linear_16" x1="17.7142849" x2="22.7142868" y1="4.36363649" y2="8.54545498" gradientUnits="userSpaceOnUse">
			<stop stop-color="rgb(255,255,255)" offset="0" stop-opacity="1" />
			<stop stop-color="rgb(255,255,255)" offset="1" stop-opacity="0" />
		</linearGradient>
		<linearGradient id="paint_linear_17" x1="18.2928467" x2="21.7071533" y1="23.5" y2="23.5" gradientUnits="userSpaceOnUse">
			<stop stop-color="rgb(255,255,255)" offset="0" stop-opacity="0.899999976" />
			<stop stop-color="rgb(255,255,255)" offset="1" stop-opacity="0.300000012" />
		</linearGradient>
		<linearGradient id="paint_linear_18" x1="18.0489674" x2="22.3168507" y1="22.272728" y2="25.4090919" gradientUnits="userSpaceOnUse">
			<stop stop-color="rgb(255,255,255)" offset="0" stop-opacity="1" />
			<stop stop-color="rgb(255,255,255)" offset="1" stop-opacity="0" />
		</linearGradient>
		<linearGradient id="paint_linear_19" x1="17.1109619" x2="22.8890381" y1="30.3217163" y2="30.3217163" gradientUnits="userSpaceOnUse">
			<stop stop-color="rgb(255,255,255)" offset="0" stop-opacity="0.899999976" />
			<stop stop-color="rgb(255,255,255)" offset="1" stop-opacity="0.300000012" />
		</linearGradient>
		<linearGradient id="paint_linear_20" x1="16.6982422" x2="23.9208374" y1="25.9675865" y2="37.0948105" gradientUnits="userSpaceOnUse">
			<stop stop-color="rgb(255,255,255)" offset="0" stop-opacity="1" />
			<stop stop-color="rgb(255,255,255)" offset="1" stop-opacity="0" />
		</linearGradient>
		<linearGradient id="paint_linear_21" x1="14.2857132" x2="26.7857132" y1="9.090909" y2="10.136364" gradientUnits="userSpaceOnUse">
			<stop stop-color="rgb(255,255,255)" offset="0" stop-opacity="1" />
			<stop stop-color="rgb(255,255,255)" offset="1" stop-opacity="0" />
		</linearGradient>
	</defs>
	<rect id="Icon/Alpha/soldier" width="40.000004" height="40.000004" x="0.000000" y="0.000000" fill="rgb(255,255,255)" fill-opacity="0" />
	<path id="矢量 380" d="M11 37L29 37C32.3137 37 35 34.1346 35 30.6C35 25.2981 30.9706 21 26 21C21.6143 21 18.3857 21 14 21C9.02942 21 5 25.2981 5 30.6C5 34.1346 7.68628 37 11 37Z" fill="url(#paint_linear_11)" fill-rule="evenodd" />
	<path id="矢量 380" d="M29 37L11 37C7.68628 37 5 34.1346 5 30.6C5 25.2981 9.02942 21 14 21L26 21C30.9706 21 35 25.2981 35 30.6C35 34.1346 32.3137 37 29 37ZM30.1277 36.6839C29.7599 36.7613 29.384 36.8 29 36.8L11 36.8C10.616 36.8 10.2402 36.7613 9.87247 36.6839C9.48835 36.6031 9.11312 36.48 8.74677 36.3148C8.52815 36.2161 8.31739 36.1047 8.11448 35.9804C7.67366 35.7104 7.26992 35.3798 6.90326 34.9887C6.70415 34.7763 6.52172 34.5522 6.35597 34.3164C6.07529 33.917 5.84244 33.484 5.65742 33.0175C5.54448 32.7326 5.45245 32.4427 5.38134 32.1478C5.26045 31.6465 5.2 31.1305 5.2 30.6C5.2 29.7979 5.29122 29.0177 5.47366 28.2595C5.58158 27.811 5.72142 27.3701 5.89318 26.937C6.17305 26.2312 6.52515 25.5761 6.94948 24.9717C7.20149 24.6128 7.47898 24.2717 7.78194 23.9486C8.33644 23.3571 8.94692 22.8569 9.6134 22.4479C9.92318 22.2578 10.2451 22.0874 10.579 21.9367C11.1351 21.6858 11.7047 21.499 12.2878 21.3763C12.8462 21.2588 13.4169 21.2 14 21.2L26 21.2C26.5832 21.2 27.1539 21.2588 27.7124 21.3763C28.2954 21.4991 28.8649 21.6859 29.421 21.9367C29.7551 22.0875 30.077 22.2579 30.3869 22.4481C31.0533 22.857 31.6637 23.3572 32.2181 23.9486C32.5211 24.2719 32.7987 24.613 33.0508 24.9721C33.475 25.5764 33.827 26.2313 34.1068 26.937C34.2786 27.3701 34.4184 27.811 34.5263 28.2595C34.7088 29.0177 34.8 29.7979 34.8 30.6C34.8 31.1305 34.7396 31.6464 34.6187 32.1477C34.5476 32.4427 34.4555 32.7326 34.3426 33.0175C34.1576 33.4839 33.9249 33.9167 33.6443 34.316C33.4785 34.552 33.296 34.7762 33.0967 34.9887C32.7302 35.3797 32.3266 35.7101 31.886 35.9801C31.6829 36.1045 31.472 36.216 31.2532 36.3148C30.8869 36.48 30.5118 36.6031 30.1277 36.6839Z" fill="url(#paint_linear_12)" fill-rule="evenodd" />
	<path id="矢量 379" d="M30 6.5C30 4.01471 25.5228 2 20 2C14.4772 2 10 4.01471 10 6.5C10 7.62155 10.9117 8.64728 12.4199 9.43524C12.1477 10.2404 12 11.1029 12 12C12 16.4183 15.5817 20 20 20C24.4183 20 28 16.4183 28 12C28 11.1029 27.8523 10.2404 27.5801 9.43524C29.0883 8.64728 30 7.62155 30 6.5Z" fill="url(#paint_linear_13)" fill-rule="evenodd" />
	<path id="矢量 379" d="M27.5801 9.43524C29.0883 8.64728 30 7.62155 30 6.5C30 4.01471 25.5228 2 20 2C14.4772 2 10 4.01471 10 6.5C10 7.62155 10.9117 8.64728 12.4199 9.43524C12.1477 10.2404 12 11.1029 12 12C12 16.4183 15.5817 20 20 20C24.4183 20 28 16.4183 28 12C28 11.1029 27.8523 10.2404 27.5801 9.43524ZM16.145 2.5501C17.3712 2.3167 18.6562 2.2 20 2.2C21.3437 2.2 22.6288 2.3167 23.855 2.5501C25.036 2.77488 26.0806 3.09164 26.989 3.5004C27.8874 3.90471 28.5806 4.36636 29.0684 4.88537C29.5123 5.35758 29.7541 5.84578 29.7941 6.34998C29.798 6.39983 29.8 6.44984 29.8 6.5C29.8 6.54576 29.7983 6.59141 29.795 6.63693C29.7621 7.09122 29.5646 7.53357 29.2025 7.96398C28.8045 8.43725 28.2328 8.86858 27.4875 9.25798L27.3358 9.33721L27.3906 9.4993C27.5033 9.83262 27.5927 10.1704 27.6589 10.5127C27.753 10.9994 27.8 11.4952 27.8 12C27.8 12.5872 27.7371 13.1603 27.6112 13.7192C27.5103 14.1673 27.3689 14.6062 27.1871 15.036C27.0022 15.4732 26.7817 15.8869 26.5254 16.2772C26.2347 16.7201 25.898 17.1328 25.5155 17.5154C25.1327 17.8982 24.7197 18.235 24.2766 18.5259C23.8865 18.7819 23.473 19.0023 23.0361 19.1871C22.6062 19.369 22.1671 19.5103 21.719 19.6112C21.1602 19.7371 20.5872 19.8 20 19.8C19.4128 19.8 18.8398 19.7371 18.2809 19.6112C17.8328 19.5103 17.3938 19.3689 16.9639 19.1871C16.527 19.0023 16.1135 18.7819 15.7233 18.5258C15.2802 18.235 14.8673 17.8982 14.4845 17.5154C14.1019 17.1328 13.7652 16.72 13.4745 16.2771C13.2183 15.8868 12.9977 15.4731 12.8129 15.036C12.6311 14.6063 12.4897 14.1674 12.3888 13.7193C12.2629 13.1604 12.2 12.5873 12.2 12C12.2 11.4954 12.247 10.9999 12.3409 10.5135C12.4071 10.171 12.4966 9.83288 12.6094 9.4993L12.6642 9.33721L12.5125 9.25798C11.7672 8.86858 11.1955 8.43725 10.7975 7.96398C10.4354 7.53359 10.2379 7.09125 10.205 6.63697C10.2017 6.59143 10.2 6.54578 10.2 6.5C10.2 6.44984 10.202 6.39983 10.2059 6.34998C10.2459 5.84578 10.4877 5.35758 10.9316 4.88537C11.4194 4.36636 12.1126 3.90471 13.011 3.5004C13.9194 3.09164 14.964 2.77488 16.145 2.5501Z" fill="url(#paint_linear_14)" fill-rule="evenodd" />
	<path id="矢量 375" d="M18.3544 4.80521C18.3023 4.82963 18.2468 4.84632 18.188 4.85527L18.187 4.85611C18.1679 4.89449 18.1539 4.93787 18.1278 4.97959C18.0236 5.38829 17.9832 5.8013 18.0063 6.21863C18.0063 7.32249 20.0008 8 20.0008 8C20.0008 8 21.9954 7.32249 21.9954 6.21863C22.0127 5.83514 21.9816 5.45439 21.902 5.07638C21.8789 4.99878 21.8558 4.92536 21.8277 4.85527C21.7691 4.84598 21.7138 4.82907 21.6619 4.80454C21.61 4.78001 21.5643 4.74918 21.5247 4.71204C21.4851 4.67491 21.4538 4.63345 21.4307 4.58768C21.4077 4.54191 21.3941 4.49427 21.3901 4.44476C21.3905 4.40619 21.3982 4.36864 21.4132 4.33212C21.2021 4.22357 20.9771 4.14107 20.7384 4.08464C20.4996 4.02821 20.2561 4 20.0079 4C19.7596 4 19.5161 4.02821 19.2774 4.08464C19.0386 4.14107 18.8137 4.22357 18.6026 4.33212C18.6175 4.36864 18.6252 4.40619 18.6257 4.44476C18.622 4.49438 18.6088 4.54216 18.5859 4.58808C18.563 4.63401 18.5317 4.67557 18.492 4.71278C18.4524 4.74999 18.4065 4.7808 18.3544 4.80521Z" fill="url(#paint_linear_15)" fill-rule="evenodd" />
	<path id="矢量 375" d="M18.6257 4.44476C18.622 4.49438 18.6088 4.54216 18.5859 4.58808C18.563 4.63401 18.5317 4.67557 18.492 4.71278C18.4524 4.74999 18.4065 4.7808 18.3544 4.80521C18.3023 4.82963 18.2468 4.84632 18.188 4.85527L18.187 4.85611C18.1679 4.89449 18.1539 4.93787 18.1278 4.97959C18.0655 5.22391 18.026 5.46977 18.0093 5.71718C17.998 5.88363 17.997 6.05078 18.0063 6.21863C18.0063 7.32249 20.0008 8 20.0008 8C20.0008 8 21.9954 7.32249 21.9954 6.21863C22.0127 5.83514 21.9816 5.45439 21.902 5.07638C21.8789 4.99878 21.8558 4.92536 21.8277 4.85527C21.7691 4.84598 21.7138 4.82907 21.6619 4.80454C21.61 4.78001 21.5643 4.74918 21.5247 4.71204C21.4851 4.67491 21.4538 4.63345 21.4307 4.58768C21.4077 4.54191 21.3941 4.49427 21.3901 4.44476C21.3905 4.40619 21.3982 4.36864 21.4132 4.33212C21.2021 4.22357 20.9771 4.14107 20.7384 4.08464C20.4996 4.02821 20.2561 4 20.0079 4C19.8297 4 19.6541 4.01453 19.4808 4.04358C19.4126 4.05502 19.3448 4.06871 19.2774 4.08464C19.0386 4.14107 18.8137 4.22357 18.6026 4.33212C18.6175 4.36864 18.6252 4.40619 18.6257 4.44476ZM18.8257 4.44677L18.8257 4.4509L18.8251 4.45932C18.8231 4.48701 18.8192 4.51427 18.8133 4.54111C18.803 4.5878 18.7869 4.6332 18.7649 4.67732C18.7587 4.68966 18.7522 4.70176 18.7452 4.71364C18.7143 4.76657 18.6755 4.8149 18.6289 4.85865C18.6238 4.86341 18.6186 4.8681 18.6134 4.87271C18.562 4.91811 18.504 4.95598 18.4393 4.98631C18.4259 4.9926 18.4123 4.9985 18.3986 5.00402C18.3756 5.01324 18.3522 5.02138 18.3284 5.02844C18.3239 5.03775 18.3195 5.04648 18.3151 5.05464C18.2591 5.28058 18.2236 5.50788 18.2084 5.73653C18.1981 5.8929 18.1973 6.0499 18.206 6.20754L18.2063 6.21308L18.2063 6.21863C18.2063 6.42238 18.2942 6.62707 18.47 6.83271C18.6226 7.01125 18.8355 7.18469 19.1085 7.35301C19.3081 7.47601 19.5281 7.58943 19.7685 7.69329C19.8575 7.73171 19.9349 7.76317 20.0008 7.78768C20.0668 7.76317 20.1442 7.73171 20.2332 7.69329C20.4736 7.58943 20.6936 7.47601 20.8932 7.35301C21.1662 7.18469 21.3791 7.01125 21.5317 6.83271C21.7075 6.62707 21.7954 6.42238 21.7954 6.21863L21.7954 6.21412L21.7956 6.20961C21.8021 6.06422 21.8014 5.91923 21.7934 5.77465C21.7814 5.55737 21.7529 5.34101 21.708 5.12556C21.6968 5.08832 21.6863 5.05464 21.6763 5.02454C21.6556 5.018 21.6353 5.01064 21.6153 5.00247C21.6022 4.99712 21.5893 4.99141 21.5765 4.98536C21.5118 4.95479 21.4538 4.91672 21.4024 4.87116C21.3975 4.86681 21.3927 4.8624 21.3879 4.85791C21.3412 4.81413 21.3023 4.76576 21.2713 4.71282C21.2645 4.70131 21.2581 4.68959 21.2521 4.67765C21.2299 4.63348 21.2135 4.58799 21.2029 4.54118C21.197 4.51489 21.193 4.48818 21.1907 4.46106L21.19 4.45178L21.19 4.44677C21.0322 4.37621 20.8663 4.32038 20.6924 4.27928C20.6324 4.26512 20.5722 4.25285 20.5116 4.24248C20.3461 4.21416 20.1782 4.2 20.0079 4.2C19.8375 4.2 19.6696 4.21417 19.5041 4.2425C19.4435 4.25286 19.3833 4.26513 19.3234 4.27928C19.1495 4.32038 18.9836 4.37621 18.8257 4.44677Z" fill="url(#paint_linear_16)" fill-rule="evenodd" />
	<path id="矢量 378" d="M19.4829 22L20.5171 22C21.2781 22 21.8434 22.7047 21.6784 23.4475L21.6226 23.6984C21.4536 24.4589 20.7791 25 20 25C19.221 25 18.5464 24.4589 18.3774 23.6984L18.3217 23.4475C18.1566 22.7047 18.7219 22 19.4829 22Z" fill="url(#paint_linear_17)" fill-rule="evenodd" />
	<path id="矢量 378" d="M20.5171 22L19.4829 22C18.7219 22 18.1566 22.7047 18.3217 23.4475L18.3774 23.6984C18.5464 24.4589 19.221 25 20 25C20.7791 25 21.4536 24.4589 21.6226 23.6984L21.6784 23.4475C21.8434 22.7047 21.2781 22 20.5171 22ZM19.4829 22.2L20.5171 22.2C20.6072 22.2 20.6943 22.2114 20.7782 22.2342C20.8385 22.2506 20.8972 22.2729 20.9543 22.3011C21.0134 22.3302 21.0685 22.3644 21.1196 22.4038C21.1819 22.4517 21.2384 22.5072 21.289 22.5703C21.3396 22.6335 21.3816 22.7006 21.4149 22.7719C21.4422 22.8303 21.4637 22.8915 21.4793 22.9555C21.4944 23.0173 21.5034 23.0795 21.5063 23.1419C21.5104 23.2288 21.5027 23.3162 21.4831 23.4042L21.4274 23.655C21.3902 23.8223 21.3289 23.9745 21.2435 24.1118C21.1581 24.249 21.0486 24.3712 20.9149 24.4784C20.7813 24.5856 20.6383 24.666 20.4858 24.7196C20.3333 24.7732 20.1714 24.8 20 24.8C19.8287 24.8 19.6667 24.7732 19.5142 24.7196C19.3618 24.666 19.2187 24.5856 19.0851 24.4784C18.9514 24.3712 18.8418 24.2489 18.7564 24.1116C18.6711 23.9744 18.6098 23.8222 18.5727 23.6551L18.5169 23.4041C18.4974 23.3163 18.4896 23.229 18.4937 23.1422C18.4966 23.0797 18.5056 23.0174 18.5207 22.9555C18.5364 22.8915 18.5578 22.8303 18.5852 22.7718C18.6184 22.7006 18.6604 22.6335 18.711 22.5703C18.7617 22.5072 18.8181 22.4517 18.8804 22.4038C18.9316 22.3644 18.9867 22.3302 19.0457 22.3011C19.1028 22.2729 19.1615 22.2506 19.2218 22.2342C19.3058 22.2114 19.3928 22.2 19.4829 22.2Z" fill="url(#paint_linear_18)" fill-rule="evenodd" />
	<path id="矢量 376" d="M18.7644 25.9719C18.9026 25.4016 19.4132 25 20 25C20.5868 25 21.0974 25.4016 21.2356 25.9719L22.8609 32.6762C22.9467 33.0302 22.8333 33.4028 22.5648 33.649L20.6758 35.3806C20.2935 35.731 19.7066 35.731 19.3242 35.3806L17.4352 33.649C17.1667 33.4028 17.0533 33.0302 17.1392 32.6762L18.7644 25.9719Z" fill="url(#paint_linear_19)" fill-rule="evenodd" />
	<path id="矢量 376" d="M20 25C19.4132 25 18.9026 25.4016 18.7644 25.9719L17.1392 32.6762C17.0533 33.0302 17.1667 33.4028 17.4352 33.649L19.3242 35.3806C19.7066 35.731 20.2935 35.731 20.6758 35.3806L22.5648 33.649C22.8333 33.4028 22.9467 33.0302 22.8609 32.6762L21.2356 25.9719C21.0974 25.4016 20.5868 25 20 25ZM21.0412 26.019L22.6665 32.7233C22.6837 32.7941 22.6912 32.8647 22.6892 32.9349C22.6872 33.0051 22.6756 33.0751 22.6544 33.1448C22.6331 33.2146 22.6038 33.2792 22.5663 33.3387C22.5289 33.3981 22.4833 33.4524 22.4297 33.5015L20.5407 35.2332C20.4642 35.3032 20.381 35.3557 20.291 35.3908C20.2008 35.4259 20.1038 35.4434 20 35.4434C19.8962 35.4434 19.7992 35.4259 19.7091 35.3908C19.619 35.3558 19.5358 35.3032 19.4594 35.2332L17.5703 33.5015C17.5167 33.4524 17.4712 33.3982 17.4338 33.3388C17.3963 33.2793 17.3669 33.2146 17.3457 33.1448C17.3245 33.0751 17.3128 33.0051 17.3108 32.9349C17.3088 32.8646 17.3164 32.7941 17.3335 32.7233L18.9588 26.019C18.9879 25.8989 19.034 25.7897 19.0971 25.6914C19.1603 25.5931 19.2404 25.5057 19.3376 25.4293C19.4348 25.3529 19.5386 25.2955 19.6489 25.2573C19.7594 25.2191 19.8764 25.2 20 25.2C20.1237 25.2 20.2407 25.2191 20.3511 25.2573C20.4615 25.2955 20.5652 25.3529 20.6624 25.4293C20.7596 25.5057 20.8398 25.5931 20.903 25.6915C20.9661 25.7897 21.0121 25.8989 21.0412 26.019Z" fill="url(#paint_linear_20)" fill-rule="evenodd" />
	<path id="矢量 377" d="M15.5 9L24.5 9C24.7761 9 25 9.22385 25 9.5C25 9.77615 24.7761 10 24.5 10L15.5 10C15.2239 10 15 9.77615 15 9.5C15 9.22385 15.2239 9 15.5 9Z" fill="rgb(105.555,224.188,145.89)" fill-opacity="0.75" fill-rule="evenodd" />
	<path id="矢量 377" d="M24.5 9L15.5 9C15.2239 9 15 9.22385 15 9.5C15 9.77615 15.2239 10 15.5 10L24.5 10C24.7761 10 25 9.77615 25 9.5C25 9.22385 24.7761 9 24.5 9ZM15.5 9.2L24.5 9.2C24.5414 9.2 24.5798 9.20732 24.6151 9.22196C24.6505 9.2366 24.6828 9.25857 24.7121 9.28787C24.7414 9.31716 24.7634 9.34949 24.778 9.38484C24.7927 9.4202 24.8 9.45858 24.8 9.5C24.8 9.54142 24.7927 9.5798 24.778 9.61516C24.7634 9.65051 24.7414 9.68284 24.7121 9.71213C24.6828 9.74143 24.6505 9.7634 24.6151 9.77804C24.5798 9.79268 24.5414 9.8 24.5 9.8L15.5 9.8C15.4586 9.8 15.4202 9.79268 15.3849 9.77804C15.3495 9.7634 15.3172 9.74143 15.2879 9.71213C15.2586 9.68284 15.2366 9.65052 15.222 9.61516C15.2073 9.5798 15.2 9.54142 15.2 9.5C15.2 9.45858 15.2073 9.4202 15.222 9.38484C15.2366 9.34948 15.2586 9.31716 15.2879 9.28787C15.3172 9.25857 15.3495 9.2366 15.3849 9.22196C15.4202 9.20732 15.4586 9.2 15.5 9.2Z" fill="url(#paint_linear_21)" fill-rule="evenodd" />
</svg>
