<svg width="40" height="40" viewBox="0 0 40 40" fill="none" xmlns="http://www.w3.org/2000/svg">
<path d="M12.013 6C12.5047 6 12.9678 6.25163 13.2405 6.66073C15.5641 10.1461 20.7412 10.1794 23.0195 6.6642C23.288 6.25001 23.7479 6 24.2415 6H32.6C33.5941 6 34.4 6.80589 34.4 7.8V14.6625C34.4 15.6566 33.5941 16.4625 32.6 16.4625H31.436C30.3858 16.4625 29.5586 17.3579 29.6417 18.4049L30.6458 31.0576C30.7289 32.1045 29.9017 33 28.8515 33H7.54852C6.49826 33 5.67107 32.1046 5.75416 31.0576L6.75834 18.4049C6.84143 17.3579 6.01424 16.4625 4.96398 16.4625H3.8C2.80589 16.4625 2 15.6566 2 14.6625V7.8C2 6.80589 2.80589 6 3.8 6H12.013Z" fill="url(#paint0_linear_4308_42093)"/>
<path d="M12.1463 17.9161L11.5105 17.9161C11.3141 17.9161 11.1601 17.7509 11.1776 17.5589C11.3191 16.0047 11.7217 14.9855 12.5891 13.7181C12.7237 13.5214 12.5869 13.2472 12.344 13.2472H10.4244C10.2364 13.2472 10.0839 13.0947 10.0839 12.9066V12.4244C10.0839 12.2364 10.2364 12.0839 10.4244 12.0839H13.82C14.0081 12.0839 14.1606 12.2364 14.1606 12.4244V13.0221C14.1606 13.2016 14.0962 13.3765 13.9819 13.5169C13.4131 14.2153 13.0645 14.7504 12.8461 15.3558C12.6281 15.9603 12.5422 16.6288 12.4886 17.5896C12.4784 17.7726 12.3281 17.9161 12.1463 17.9161Z" fill="url(#paint1_linear_4308_42093)" stroke="url(#paint2_linear_4308_42093)" stroke-width="0.167787"/>
<path d="M37.9 25.5C37.9 30.1392 34.1392 33.9 29.5 33.9C24.8608 33.9 21.1 30.1392 21.1 25.5C21.1 20.8608 24.8608 17.1 29.5 17.1C34.1392 17.1 37.9 20.8608 37.9 25.5Z" fill="url(#paint3_linear_4308_42093)" stroke="url(#paint4_linear_4308_42093)" stroke-width="0.2"/>
<path d="M31.8467 22.2988C31.8467 22.9472 31.556 23.5313 31.091 23.9375C30.9126 24.0934 30.7809 24.3144 30.7809 24.564V26.5046C30.7809 26.9066 31.1067 27.2324 31.5087 27.2324H33.4118C33.7246 27.2324 33.9782 27.486 33.9782 27.7988V29.0588C33.9782 29.3716 33.7246 29.6252 33.4118 29.6252H25.6471C25.3342 29.6252 25.0807 29.3716 25.0807 29.0588V27.7988C25.0807 27.486 25.3342 27.2324 25.6471 27.2324H27.5502C27.9521 27.2324 28.2779 26.9066 28.2779 26.5046V24.564C28.2779 24.3144 28.1462 24.0934 27.9678 23.9375C27.5029 23.5313 27.2122 22.9472 27.2122 22.2988C27.2122 21.0769 28.2464 20.0807 29.5294 20.0807C30.8124 20.0807 31.8467 21.0769 31.8467 22.2988ZM25.0807 30.6765C25.0807 30.5423 25.1894 30.4336 25.3235 30.4336H33.7353C33.8694 30.4336 33.9782 30.5423 33.9782 30.6765C33.9782 30.8106 33.8694 30.9193 33.7353 30.9193H25.3235C25.1894 30.9193 25.0807 30.8106 25.0807 30.6765Z" fill="url(#paint5_linear_4308_42093)" stroke="url(#paint6_linear_4308_42093)" stroke-width="0.161333"/>
<defs>
<linearGradient id="paint0_linear_4308_42093" x1="2.97698" y1="14.8827" x2="31.9327" y2="27.5295" gradientUnits="userSpaceOnUse">
<stop stop-color="#75EDA1"/>
<stop offset="1" stop-color="#349256"/>
</linearGradient>
<linearGradient id="paint1_linear_4308_42093" x1="1.56591" y1="15.6351" x2="21.7545" y2="11.5251" gradientUnits="userSpaceOnUse">
<stop stop-color="white" stop-opacity="0.9"/>
<stop offset="1" stop-color="white" stop-opacity="0.3"/>
</linearGradient>
<linearGradient id="paint2_linear_4308_42093" x1="9.69682" y1="12.5455" x2="16.3994" y2="14.9936" gradientUnits="userSpaceOnUse">
<stop stop-color="white"/>
<stop offset="1" stop-color="white" stop-opacity="0"/>
</linearGradient>
<linearGradient id="paint3_linear_4308_42093" x1="21.5126" y1="22.5928" x2="37.4874" y2="28.4072" gradientUnits="userSpaceOnUse">
<stop stop-color="#75EDA1"/>
<stop offset="1" stop-color="#349256"/>
</linearGradient>
<linearGradient id="paint4_linear_4308_42093" x1="19.7857" y1="18.5455" x2="43.8081" y2="30.9488" gradientUnits="userSpaceOnUse">
<stop stop-color="white"/>
<stop offset="1" stop-color="white" stop-opacity="0"/>
</linearGradient>
<linearGradient id="paint5_linear_4308_42093" x1="24.0941" y1="25.1638" x2="34.9394" y2="24.6395" gradientUnits="userSpaceOnUse">
<stop stop-color="white" stop-opacity="0.9"/>
<stop offset="1" stop-color="white" stop-opacity="0.3"/>
</linearGradient>
<linearGradient id="paint6_linear_4308_42093" x1="24.3529" y1="21" x2="38.0838" y2="26.8385" gradientUnits="userSpaceOnUse">
<stop stop-color="white"/>
<stop offset="1" stop-color="white" stop-opacity="0"/>
</linearGradient>
</defs>
</svg>
