<svg width="40" height="40" viewBox="0 0 40 40" fill="none" xmlns="http://www.w3.org/2000/svg">
<rect x="4" y="4" width="27" height="32" rx="13.5" fill="url(#paint0_linear_2165_30525)"/>
<rect x="8.07667" y="4.07667" width="27.8467" height="31.8467" rx="13.9233" fill="#AADEFF" fill-opacity="0.75" stroke="url(#paint1_linear_2165_30525)" stroke-width="0.153333"/>
<path d="M21.116 19.9142L20.9724 20L21.116 20.0858L27.532 23.9199C27.7599 24.056 27.9 24.3036 27.9 24.5714C27.9 24.8393 27.7599 25.0868 27.532 25.223L19.882 29.7944C19.6503 29.9329 19.363 29.9353 19.129 29.8009C18.8949 29.6664 18.75 29.4153 18.75 29.1429V21.5043V21.328L18.5987 21.4184L12.2322 25.223C11.8763 25.4356 11.4165 25.3175 11.2051 24.9577C10.9934 24.5975 11.1117 24.1328 11.4681 23.9199L17.884 20.0858L18.0276 20L17.884 19.9142L11.4681 16.0801C11.1117 15.8672 10.9934 15.4025 11.2051 15.0423C11.4165 14.6825 11.8763 14.5644 12.2322 14.777L18.5987 18.5816L18.75 18.672V18.4957V10.8571C18.75 10.5847 18.8949 10.3336 19.129 10.1991C19.363 10.0647 19.6503 10.0671 19.882 10.2056L27.532 14.777C27.7599 14.9132 27.9 15.1607 27.9 15.4286C27.9 15.6964 27.7599 15.944 27.532 16.0801L21.116 19.9142ZM20.4013 21.4184L20.25 21.328V21.5043V27.6386V27.8148L20.4013 27.7244L25.534 24.6573L25.6776 24.5714L25.534 24.4856L20.4013 21.4184ZM20.25 18.4957V18.672L20.4013 18.5816L25.534 15.5144L25.6776 15.4286L25.534 15.3427L20.4013 12.2756L20.25 12.1852V12.3614V18.4957Z" fill="url(#paint2_linear_2165_30525)" stroke="url(#paint3_linear_2165_30525)" stroke-width="0.2"/>
<defs>
<linearGradient id="paint0_linear_2165_30525" x1="5.6875" y1="26" x2="26.0298" y2="6.74827" gradientUnits="userSpaceOnUse">
<stop stop-color="#80CCFE"/>
<stop offset="1" stop-color="#009AFE"/>
</linearGradient>
<linearGradient id="paint1_linear_2165_30525" x1="6" y1="6.90909" x2="47.6193" y2="25.7121" gradientUnits="userSpaceOnUse">
<stop stop-color="white"/>
<stop offset="1" stop-color="white" stop-opacity="0"/>
</linearGradient>
<linearGradient id="paint2_linear_2165_30525" x1="11" y1="20" x2="27.8772" y2="18.5602" gradientUnits="userSpaceOnUse">
<stop stop-color="white" stop-opacity="0.9"/>
<stop offset="1" stop-color="white" stop-opacity="0.3"/>
</linearGradient>
<linearGradient id="paint3_linear_2165_30525" x1="9.78571" y1="11.8182" x2="35.2982" y2="23.015" gradientUnits="userSpaceOnUse">
<stop stop-color="white"/>
<stop offset="1" stop-color="white" stop-opacity="0"/>
</linearGradient>
</defs>
</svg>
