<svg width="48" height="48" viewBox="0 0 48 48" fill="none" xmlns="http://www.w3.org/2000/svg">
<path d="M7.2 39.2C7.2 41.4091 8.99086 43.2 11.2 43.2L30.8 43.2C33.0091 43.2 34.8 41.4091 34.8 39.2L34.8 8.79995C34.8 6.59082 33.0042 4.79996 30.7951 4.79996C22.6977 4.79996 19.3023 4.79996 11.205 4.79995C8.99582 4.79995 7.20001 6.59081 7.20001 8.79995L7.2 39.2Z" fill="url(#paint0_linear_1827_2799)"/>
<path d="M10.8936 11.9999C10.8936 14.5992 13.0007 16.7063 15.6 16.7063L38.925 16.7063C39.9088 16.7063 40.7064 15.9088 40.7064 14.9249L40.7064 9.07493C40.7064 8.09159 39.9018 7.29355 38.9175 7.29355L38.8562 7.29355L38.7949 7.29355L38.7339 7.29355L38.673 7.29355L38.6122 7.29355L38.5516 7.29355L38.4912 7.29355L38.4309 7.29355L38.3707 7.29355L38.3107 7.29355L38.2509 7.29355L38.1912 7.29355L38.1317 7.29355L38.0723 7.29355L38.0131 7.29355L37.954 7.29355L37.8951 7.29355L37.8363 7.29355L37.7777 7.29355L37.7192 7.29355L37.6609 7.29355L37.6027 7.29355L37.5446 7.29355L37.4867 7.29355L37.429 7.29355L37.3714 7.29355L37.3139 7.29355L37.2566 7.29355L37.1994 7.29355L37.1424 7.29355L37.0855 7.29355L37.0287 7.29355L36.9721 7.29355L36.9156 7.29355L36.8593 7.29355L36.8031 7.29355L36.747 7.29355L36.6911 7.29355L36.6353 7.29355L36.5796 7.29355L36.5241 7.29355L36.4687 7.29355L36.4135 7.29355L36.3584 7.29355L36.3034 7.29355L36.2486 7.29355L36.1938 7.29355L36.1393 7.29355L36.0848 7.29355L36.0305 7.29355L35.9763 7.29355L35.9222 7.29355L35.8683 7.29355L35.8145 7.29355L35.7608 7.29355L35.7073 7.29355L35.6538 7.29355L35.6005 7.29355L35.5474 7.29355L35.4943 7.29355L35.4414 7.29355L35.3886 7.29355L35.3359 7.29355L35.2834 7.29355L35.231 7.29355L35.1787 7.29355L35.1265 7.29355L35.0744 7.29355L35.0225 7.29355L34.9706 7.29355L34.9189 7.29355L34.8673 7.29355L34.8159 7.29355L34.7645 7.29355L34.7133 7.29355L34.6621 7.29355L34.6111 7.29355L34.5602 7.29355L34.5095 7.29355L34.4588 7.29355L34.4082 7.29355L34.3578 7.29355L34.3075 7.29355L34.2573 7.29355L34.2072 7.29355L34.1572 7.29355L34.1073 7.29355L34.0575 7.29355L34.0078 7.29355L33.9583 7.29355L33.9088 7.29355L33.8595 7.29355L33.8103 7.29355L33.7611 7.29355L33.7121 7.29355L33.6632 7.29355L33.6144 7.29355L33.5656 7.29355L33.517 7.29355L33.4685 7.29355L33.4201 7.29355L33.3718 7.29355L33.3236 7.29355L33.2755 7.29355L33.2275 7.29355L33.1796 7.29355L33.1318 7.29355L33.0841 7.29355L33.0365 7.29355L32.989 7.29355L32.9416 7.29355L32.8942 7.29355L32.847 7.29355L32.7999 7.29355L32.7528 7.29355L32.7059 7.29355L32.659 7.29355L32.6123 7.29355L32.5656 7.29355L32.519 7.29355L32.4726 7.29355L32.4262 7.29355L32.3799 7.29355L32.3336 7.29355L32.2875 7.29355L32.2415 7.29355L32.1955 7.29355L32.1496 7.29355L32.1039 7.29355L32.0582 7.29355L32.0126 7.29355L31.967 7.29355L31.9216 7.29355L31.8762 7.29355L31.831 7.29355L31.7858 7.29355L31.7407 7.29355L31.6956 7.29355L31.6507 7.29355L31.6058 7.29355L31.561 7.29355L31.5163 7.29355L31.4717 7.29355L31.4271 7.29355L31.3827 7.29355L31.3383 7.29355L31.2939 7.29355L31.2497 7.29355L31.2055 7.29355L31.1614 7.29355L31.1174 7.29355L31.0734 7.29355L31.0295 7.29355L30.9857 7.29355L30.942 7.29355L30.8983 7.29355L30.8547 7.29355L30.8112 7.29355L30.7678 7.29355L30.7244 7.29355L30.6811 7.29355L30.6378 7.29355L30.5946 7.29355L30.5515 7.29355L30.5085 7.29355L30.4655 7.29355L30.4225 7.29355L30.3797 7.29355L30.3369 7.29355L30.2942 7.29355L30.2515 7.29355L30.2089 7.29355L30.1663 7.29355L30.1239 7.29355L30.0814 7.29355L30.0391 7.29355L29.9968 7.29355L29.9545 7.29355L29.9123 7.29355L29.8702 7.29355L29.8281 7.29355L29.7861 7.29355L29.7442 7.29355L29.7023 7.29355L29.6604 7.29355L29.6186 7.29355L29.5769 7.29355L29.5352 7.29355L29.4935 7.29355L29.452 7.29355L29.4104 7.29355L29.3689 7.29355L29.3275 7.29355L29.2861 7.29355L29.2448 7.29355L29.2035 7.29355L29.1623 7.29355L29.1211 7.29355L29.0799 7.29355L29.0388 7.29355L28.9978 7.29355L28.9568 7.29355L28.9158 7.29355L28.8749 7.29355L28.834 7.29355L28.7932 7.29355L28.7524 7.29355L28.7117 7.29355L28.6709 7.29355L28.6303 7.29355L28.5897 7.29355L28.5491 7.29355L28.5085 7.29355L28.468 7.29355L28.4275 7.29355L28.3871 7.29355L28.3467 7.29355L28.3064 7.29355L28.266 7.29355L28.2257 7.29355L28.1855 7.29355L28.1453 7.29355L28.1051 7.29355L28.0649 7.29355L28.0248 7.29355L27.9847 7.29355L27.9446 7.29355L27.9046 7.29355L27.8646 7.29355L27.8246 7.29355L27.7847 7.29355L27.7448 7.29355L27.7049 7.29355L27.665 7.29355L27.6252 7.29355L27.5854 7.29355L27.5456 7.29355L27.5059 7.29355L27.4661 7.29355L27.4264 7.29355L27.3867 7.29355L27.3471 7.29355L27.3074 7.29355L27.2678 7.29355L27.2282 7.29355L27.1887 7.29355L27.1491 7.29355L27.1096 7.29355L27.07 7.29355L27.0305 7.29355L26.9911 7.29355L26.9516 7.29355L26.9121 7.29355L26.8727 7.29355L26.8333 7.29355L26.7939 7.29355L26.7545 7.29355L26.7151 7.29355L26.6758 7.29355L26.6364 7.29355L26.5971 7.29355L26.5577 7.29355L26.5184 7.29355L26.4791 7.29355L26.4398 7.29355L26.4005 7.29355L26.3613 7.29355L26.322 7.29355L26.2827 7.29355L26.2435 7.29355L26.2042 7.29355L26.165 7.29355L26.1257 7.29355L26.0865 7.29355L26.0473 7.29355L26.0081 7.29355L25.9688 7.29355L25.9296 7.29355L25.8904 7.29355L25.8512 7.29355L25.812 7.29355L25.7727 7.29355L25.7335 7.29355L25.6943 7.29355L25.6551 7.29355L25.6159 7.29355L25.5766 7.29355L25.5374 7.29355L25.4982 7.29355L25.459 7.29355L25.4197 7.29355L25.3805 7.29355L25.3412 7.29355L25.302 7.29355L25.2627 7.29355L25.2234 7.29355L25.1841 7.29355L25.1448 7.29355L25.1055 7.29355L25.0662 7.29355L25.0269 7.29355L24.9876 7.29355L24.9482 7.29355L24.9089 7.29355L24.8695 7.29355L24.8301 7.29355L24.7907 7.29355L24.7513 7.29355L24.7119 7.29355L24.6725 7.29355L24.633 7.29355L24.5935 7.29355L24.5541 7.29355L24.5145 7.29355L24.475 7.29355L24.4355 7.29355L24.3959 7.29355L24.3563 7.29355L24.3167 7.29355L24.2771 7.29355L24.2374 7.29355L24.1978 7.29355L24.1581 7.29355L24.1184 7.29355L24.0786 7.29355L24.0389 7.29355L23.9991 7.29355L23.9593 7.29355L23.9194 7.29355L23.8795 7.29355L23.8396 7.29355L23.7997 7.29355L23.7598 7.29355L23.7198 7.29355L23.6798 7.29355L23.6397 7.29355L23.5997 7.29355L23.5596 7.29355L23.5194 7.29355L23.4793 7.29355L23.4391 7.29355L23.3988 7.29355L23.3586 7.29355L23.3182 7.29355L23.2779 7.29355L23.2375 7.29355L23.1971 7.29355L23.1567 7.29355L23.1162 7.29355L23.0757 7.29355L23.0351 7.29355L22.9945 7.29355L22.9539 7.29355L22.9132 7.29355L22.8725 7.29355L22.8317 7.29355L22.7909 7.29355L22.75 7.29355L22.7091 7.29355L22.6682 7.29355L22.6272 7.29355L22.5862 7.29355L22.5451 7.29355L22.504 7.29355L22.4629 7.29355L22.4217 7.29355L22.3804 7.29355L22.3391 7.29355L22.2977 7.29355L22.2563 7.29355L22.2149 7.29355L22.1734 7.29355L22.1318 7.29355L22.0902 7.29355L22.0486 7.29355L22.0069 7.29355L21.9651 7.29355L21.9233 7.29355L21.8814 7.29355L21.8395 7.29355L21.7975 7.29355L21.7555 7.29355L21.7134 7.29355L21.6712 7.29355L21.629 7.29355L21.5867 7.29355L21.5444 7.29355L21.502 7.29355L21.4596 7.29355L21.4171 7.29355L21.3745 7.29355L21.3319 7.29355L21.2892 7.29355L21.2464 7.29355L21.2036 7.29355L21.1607 7.29355L21.1178 7.29355L21.0748 7.29355L21.0317 7.29355L20.9885 7.29355L20.9453 7.29355L20.9021 7.29355L20.8587 7.29355L20.8153 7.29355L20.7718 7.29355L20.7283 7.29355L20.6846 7.29355L20.6409 7.29355L20.5972 7.29355L20.5533 7.29355L20.5094 7.29355L20.4655 7.29355L20.4214 7.29355L20.3773 7.29355L20.3331 7.29355L20.2888 7.29355L20.2444 7.29355L20.2 7.29355L20.1555 7.29355L20.1109 7.29355L20.0662 7.29355L20.0215 7.29355L19.9767 7.29355L19.9318 7.29355L19.8868 7.29355L19.8417 7.29355L19.7966 7.29355L19.7514 7.29355L19.7061 7.29355L19.6607 7.29355L19.6152 7.29355L19.5697 7.29355L19.524 7.29355L19.4783 7.29355L19.4325 7.29355L19.3866 7.29355L19.3406 7.29355L19.2945 7.29355L19.2483 7.29355L19.2021 7.29355L19.1558 7.29355L19.1093 7.29355L19.0628 7.29355L19.0162 7.29355L18.9695 7.29355L18.9227 7.29355L18.8758 7.29355L18.8288 7.29355L18.7818 7.29355L18.7346 7.29355L18.6873 7.29355L18.64 7.29355L18.5925 7.29355L18.545 7.29355L18.4973 7.29355L18.4496 7.29355L18.4017 7.29355L18.3538 7.29355L18.3057 7.29355L18.2576 7.29355L18.2093 7.29355L18.161 7.29355L18.1126 7.29355L18.064 7.29355L18.0154 7.29355L17.9666 7.29355L17.9178 7.29355L17.8688 7.29355L17.8197 7.29355L17.7706 7.29355L17.7213 7.29355L17.6719 7.29355L17.6224 7.29355L17.5728 7.29355L17.5231 7.29355L17.4733 7.29355L17.4233 7.29355L17.3733 7.29355L17.3232 7.29355L17.2729 7.29355L17.2225 7.29355L17.172 7.29355L17.1215 7.29355L17.0707 7.29355L17.0199 7.29355L16.969 7.29355L16.9179 7.29355L16.8668 7.29355L16.8155 7.29355L16.7641 7.29355L16.7126 7.29355L16.6609 7.29355L16.6092 7.29355L16.5573 7.29355L16.5053 7.29355L16.4532 7.29355L16.401 7.29355L16.3486 7.29355L16.2961 7.29355L16.2435 7.29355L16.1908 7.29355L16.138 7.29355L16.085 7.29355L16.0319 7.29355L15.9787 7.29355L15.9253 7.29355L15.8719 7.29355L15.8183 7.29355L15.7645 7.29355L15.7107 7.29355L15.6567 7.29355L15.6026 7.29355C13.0033 7.29355 10.8936 9.40073 10.8936 11.9999Z" fill="#FBAC7B" fill-opacity="0.75" stroke="url(#paint1_linear_1827_2799)" stroke-width="0.187249"/>
<path d="M10.9 12C10.9 9.40421 13.0043 7.29995 15.6 7.29995C18.1957 7.29995 20.3 9.40421 20.3 12C20.3 14.5957 18.1957 16.7 15.6 16.7C13.0043 16.7 10.9 14.5957 10.9 12Z" fill="url(#paint2_linear_1827_2799)" stroke="url(#paint3_linear_1827_2799)" stroke-width="0.2"/>
<path d="M10.8936 23.9999C10.8936 26.5992 13.0007 28.7063 15.6 28.7063L38.925 28.7063C39.9088 28.7063 40.7064 27.9088 40.7064 26.9249L40.7064 21.0749C40.7064 20.0916 39.9018 19.2936 38.9175 19.2936L38.8562 19.2936L38.7949 19.2936L38.7339 19.2936L38.673 19.2936L38.6122 19.2936L38.5516 19.2936L38.4912 19.2936L38.4309 19.2936L38.3707 19.2936L38.3107 19.2936L38.2509 19.2936L38.1912 19.2936L38.1317 19.2936L38.0723 19.2936L38.0131 19.2936L37.954 19.2936L37.8951 19.2936L37.8363 19.2936L37.7777 19.2936L37.7192 19.2936L37.6609 19.2936L37.6027 19.2936L37.5446 19.2936L37.4867 19.2936L37.429 19.2936L37.3714 19.2936L37.3139 19.2936L37.2566 19.2936L37.1994 19.2936L37.1424 19.2936L37.0855 19.2936L37.0287 19.2936L36.9721 19.2936L36.9156 19.2936L36.8593 19.2936L36.8031 19.2936L36.747 19.2936L36.6911 19.2936L36.6353 19.2936L36.5796 19.2936L36.5241 19.2936L36.4687 19.2936L36.4135 19.2936L36.3584 19.2936L36.3034 19.2936L36.2486 19.2936L36.1938 19.2936L36.1393 19.2936L36.0848 19.2936L36.0305 19.2936L35.9763 19.2936L35.9222 19.2936L35.8683 19.2936L35.8145 19.2936L35.7608 19.2936L35.7073 19.2936L35.6538 19.2936L35.6005 19.2936L35.5474 19.2936L35.4943 19.2936L35.4414 19.2936L35.3886 19.2936L35.3359 19.2936L35.2834 19.2936L35.231 19.2936L35.1787 19.2936L35.1265 19.2936L35.0744 19.2936L35.0225 19.2936L34.9706 19.2936L34.9189 19.2936L34.8673 19.2936L34.8159 19.2936L34.7645 19.2936L34.7133 19.2936L34.6621 19.2936L34.6111 19.2936L34.5602 19.2936L34.5095 19.2936L34.4588 19.2936L34.4082 19.2936L34.3578 19.2936L34.3075 19.2936L34.2573 19.2936L34.2072 19.2936L34.1572 19.2936L34.1073 19.2936L34.0575 19.2936L34.0078 19.2936L33.9583 19.2936L33.9088 19.2936L33.8595 19.2936L33.8103 19.2936L33.7611 19.2936L33.7121 19.2936L33.6632 19.2936L33.6144 19.2936L33.5656 19.2936L33.517 19.2936L33.4685 19.2936L33.4201 19.2936L33.3718 19.2936L33.3236 19.2936L33.2755 19.2936L33.2275 19.2936L33.1796 19.2936L33.1318 19.2936L33.0841 19.2936L33.0365 19.2936L32.989 19.2936L32.9416 19.2936L32.8942 19.2936L32.847 19.2936L32.7999 19.2936L32.7528 19.2936L32.7059 19.2936L32.659 19.2936L32.6123 19.2936L32.5656 19.2936L32.519 19.2936L32.4726 19.2936L32.4262 19.2936L32.3799 19.2936L32.3336 19.2936L32.2875 19.2936L32.2415 19.2936L32.1955 19.2936L32.1496 19.2936L32.1039 19.2936L32.0582 19.2936L32.0126 19.2936L31.967 19.2936L31.9216 19.2936L31.8762 19.2936L31.831 19.2936L31.7858 19.2936L31.7407 19.2936L31.6956 19.2936L31.6507 19.2936L31.6058 19.2936L31.561 19.2936L31.5163 19.2936L31.4717 19.2936L31.4271 19.2936L31.3827 19.2936L31.3383 19.2936L31.2939 19.2936L31.2497 19.2936L31.2055 19.2936L31.1614 19.2936L31.1174 19.2936L31.0734 19.2936L31.0295 19.2936L30.9857 19.2936L30.942 19.2936L30.8983 19.2936L30.8547 19.2936L30.8112 19.2936L30.7678 19.2936L30.7244 19.2936L30.6811 19.2936L30.6378 19.2936L30.5946 19.2936L30.5515 19.2936L30.5085 19.2936L30.4655 19.2936L30.4225 19.2936L30.3797 19.2936L30.3369 19.2936L30.2942 19.2936L30.2515 19.2936L30.2089 19.2936L30.1663 19.2936L30.1239 19.2936L30.0814 19.2936L30.0391 19.2936L29.9968 19.2936L29.9545 19.2936L29.9123 19.2936L29.8702 19.2936L29.8281 19.2936L29.7861 19.2936L29.7442 19.2936L29.7023 19.2936L29.6604 19.2936L29.6186 19.2936L29.5769 19.2936L29.5352 19.2936L29.4935 19.2936L29.452 19.2936L29.4104 19.2936L29.3689 19.2936L29.3275 19.2936L29.2861 19.2936L29.2448 19.2936L29.2035 19.2936L29.1623 19.2936L29.1211 19.2936L29.0799 19.2936L29.0388 19.2936L28.9978 19.2936L28.9568 19.2936L28.9158 19.2936L28.8749 19.2936L28.834 19.2936L28.7932 19.2936L28.7524 19.2936L28.7117 19.2936L28.6709 19.2936L28.6303 19.2936L28.5897 19.2936L28.5491 19.2936L28.5085 19.2936L28.468 19.2936L28.4275 19.2936L28.3871 19.2936L28.3467 19.2936L28.3064 19.2936L28.266 19.2936L28.2257 19.2936L28.1855 19.2936L28.1453 19.2936L28.1051 19.2936L28.0649 19.2936L28.0248 19.2936L27.9847 19.2936L27.9446 19.2936L27.9046 19.2936L27.8646 19.2936L27.8246 19.2936L27.7847 19.2936L27.7448 19.2936L27.7049 19.2936L27.665 19.2936L27.6252 19.2936L27.5854 19.2936L27.5456 19.2936L27.5059 19.2936L27.4661 19.2936L27.4264 19.2936L27.3867 19.2936L27.3471 19.2936L27.3074 19.2936L27.2678 19.2936L27.2282 19.2936L27.1887 19.2936L27.1491 19.2936L27.1096 19.2936L27.07 19.2936L27.0305 19.2936L26.9911 19.2936L26.9516 19.2936L26.9121 19.2936L26.8727 19.2936L26.8333 19.2936L26.7939 19.2936L26.7545 19.2936L26.7151 19.2936L26.6758 19.2936L26.6364 19.2936L26.5971 19.2936L26.5577 19.2936L26.5184 19.2936L26.4791 19.2936L26.4398 19.2936L26.4005 19.2936L26.3613 19.2936L26.322 19.2936L26.2827 19.2936L26.2435 19.2936L26.2042 19.2936L26.165 19.2936L26.1257 19.2936L26.0865 19.2936L26.0473 19.2936L26.0081 19.2936L25.9688 19.2936L25.9296 19.2936L25.8904 19.2936L25.8512 19.2936L25.812 19.2936L25.7727 19.2936L25.7335 19.2936L25.6943 19.2936L25.6551 19.2936L25.6159 19.2936L25.5766 19.2936L25.5374 19.2936L25.4982 19.2936L25.459 19.2936L25.4197 19.2936L25.3805 19.2936L25.3412 19.2936L25.302 19.2936L25.2627 19.2936L25.2234 19.2936L25.1841 19.2936L25.1448 19.2936L25.1055 19.2936L25.0662 19.2936L25.0269 19.2936L24.9876 19.2936L24.9482 19.2936L24.9089 19.2936L24.8695 19.2936L24.8301 19.2936L24.7907 19.2936L24.7513 19.2936L24.7119 19.2936L24.6725 19.2936L24.633 19.2936L24.5935 19.2936L24.5541 19.2936L24.5145 19.2936L24.475 19.2936L24.4355 19.2936L24.3959 19.2936L24.3563 19.2936L24.3167 19.2936L24.2771 19.2936L24.2374 19.2936L24.1978 19.2936L24.1581 19.2936L24.1184 19.2936L24.0786 19.2936L24.0389 19.2936L23.9991 19.2936L23.9593 19.2936L23.9194 19.2936L23.8795 19.2936L23.8396 19.2936L23.7997 19.2936L23.7598 19.2936L23.7198 19.2936L23.6798 19.2936L23.6397 19.2936L23.5997 19.2936L23.5596 19.2936L23.5194 19.2936L23.4793 19.2936L23.4391 19.2936L23.3988 19.2936L23.3586 19.2936L23.3182 19.2936L23.2779 19.2936L23.2375 19.2936L23.1971 19.2936L23.1567 19.2936L23.1162 19.2936L23.0757 19.2936L23.0351 19.2936L22.9945 19.2936L22.9539 19.2936L22.9132 19.2936L22.8725 19.2936L22.8317 19.2936L22.7909 19.2936L22.75 19.2936L22.7091 19.2936L22.6682 19.2936L22.6272 19.2936L22.5862 19.2936L22.5451 19.2936L22.504 19.2936L22.4629 19.2936L22.4217 19.2936L22.3804 19.2936L22.3391 19.2936L22.2977 19.2936L22.2563 19.2936L22.2149 19.2936L22.1734 19.2936L22.1318 19.2936L22.0902 19.2936L22.0486 19.2936L22.0069 19.2936L21.9651 19.2936L21.9233 19.2936L21.8814 19.2936L21.8395 19.2936L21.7975 19.2936L21.7555 19.2936L21.7134 19.2936L21.6712 19.2936L21.629 19.2936L21.5867 19.2936L21.5444 19.2936L21.502 19.2936L21.4596 19.2936L21.4171 19.2936L21.3745 19.2936L21.3319 19.2936L21.2892 19.2936L21.2464 19.2936L21.2036 19.2936L21.1607 19.2936L21.1178 19.2936L21.0748 19.2936L21.0317 19.2936L20.9885 19.2936L20.9453 19.2936L20.9021 19.2936L20.8587 19.2936L20.8153 19.2936L20.7718 19.2936L20.7283 19.2936L20.6846 19.2936L20.6409 19.2936L20.5972 19.2936L20.5533 19.2936L20.5094 19.2936L20.4655 19.2936L20.4214 19.2936L20.3773 19.2936L20.3331 19.2936L20.2888 19.2936L20.2444 19.2936L20.2 19.2936L20.1555 19.2936L20.1109 19.2936L20.0662 19.2936L20.0215 19.2936L19.9767 19.2936L19.9318 19.2936L19.8868 19.2936L19.8417 19.2935L19.7966 19.2935L19.7514 19.2935L19.7061 19.2935L19.6607 19.2935L19.6152 19.2935L19.5697 19.2935L19.524 19.2935L19.4783 19.2935L19.4325 19.2935L19.3866 19.2935L19.3406 19.2935L19.2945 19.2935L19.2483 19.2935L19.2021 19.2935L19.1558 19.2935L19.1093 19.2935L19.0628 19.2935L19.0162 19.2935L18.9695 19.2935L18.9227 19.2935L18.8758 19.2935L18.8288 19.2935L18.7818 19.2935L18.7346 19.2935L18.6873 19.2935L18.64 19.2935L18.5925 19.2935L18.545 19.2935L18.4973 19.2935L18.4496 19.2935L18.4017 19.2935L18.3538 19.2935L18.3057 19.2935L18.2576 19.2935L18.2093 19.2935L18.161 19.2935L18.1126 19.2935L18.064 19.2935L18.0154 19.2935L17.9666 19.2935L17.9178 19.2935L17.8688 19.2935L17.8197 19.2935L17.7706 19.2935L17.7213 19.2935L17.6719 19.2935L17.6224 19.2935L17.5728 19.2935L17.5231 19.2935L17.4733 19.2935L17.4233 19.2935L17.3733 19.2935L17.3232 19.2935L17.2729 19.2935L17.2225 19.2935L17.172 19.2935L17.1215 19.2935L17.0707 19.2935L17.0199 19.2935L16.969 19.2935L16.9179 19.2935L16.8668 19.2935L16.8155 19.2935L16.7641 19.2935L16.7126 19.2935L16.6609 19.2935L16.6092 19.2935L16.5573 19.2935L16.5053 19.2935L16.4532 19.2935L16.401 19.2935L16.3486 19.2935L16.2961 19.2935L16.2435 19.2935L16.1908 19.2935L16.138 19.2935L16.085 19.2935L16.0319 19.2935L15.9787 19.2935L15.9253 19.2935L15.8719 19.2935L15.8183 19.2935L15.7645 19.2935L15.7107 19.2935L15.6567 19.2935L15.6026 19.2935C13.0033 19.2935 10.8936 21.4007 10.8936 23.9999Z" fill="#FBAC7B" fill-opacity="0.75" stroke="url(#paint4_linear_1827_2799)" stroke-width="0.187249"/>
<path d="M10.9 24C10.9 21.4042 13.0043 19.3 15.6 19.3C18.1957 19.3 20.3 21.4042 20.3 24C20.3 26.5957 18.1957 28.6999 15.6 28.6999C13.0043 28.6999 10.9 26.5957 10.9 24Z" fill="url(#paint5_linear_1827_2799)" stroke="url(#paint6_linear_1827_2799)" stroke-width="0.2"/>
<path d="M10.8936 35.9999C10.8936 38.5992 13.0007 40.7063 15.6 40.7063L38.925 40.7063C39.9088 40.7063 40.7064 39.9088 40.7064 38.9249L40.7064 33.0749C40.7064 32.0916 39.9018 31.2936 38.9175 31.2936L38.8562 31.2936L38.7949 31.2936L38.7339 31.2936L38.673 31.2936L38.6122 31.2936L38.5516 31.2936L38.4912 31.2936L38.4309 31.2936L38.3707 31.2936L38.3107 31.2936L38.2509 31.2936L38.1912 31.2936L38.1317 31.2936L38.0723 31.2936L38.0131 31.2936L37.954 31.2936L37.8951 31.2936L37.8363 31.2936L37.7777 31.2936L37.7192 31.2936L37.6609 31.2936L37.6027 31.2936L37.5446 31.2936L37.4867 31.2936L37.429 31.2936L37.3714 31.2936L37.3139 31.2936L37.2566 31.2936L37.1994 31.2936L37.1424 31.2936L37.0855 31.2936L37.0287 31.2936L36.9721 31.2936L36.9156 31.2936L36.8593 31.2936L36.8031 31.2936L36.747 31.2936L36.6911 31.2936L36.6353 31.2936L36.5796 31.2936L36.5241 31.2936L36.4687 31.2936L36.4135 31.2936L36.3584 31.2936L36.3034 31.2936L36.2486 31.2936L36.1938 31.2936L36.1393 31.2936L36.0848 31.2936L36.0305 31.2936L35.9763 31.2936L35.9222 31.2936L35.8683 31.2936L35.8145 31.2936L35.7608 31.2936L35.7073 31.2936L35.6538 31.2936L35.6005 31.2936L35.5474 31.2936L35.4943 31.2936L35.4414 31.2936L35.3886 31.2936L35.3359 31.2936L35.2834 31.2936L35.231 31.2936L35.1787 31.2936L35.1265 31.2936L35.0744 31.2936L35.0225 31.2936L34.9706 31.2936L34.9189 31.2936L34.8673 31.2936L34.8159 31.2936L34.7645 31.2936L34.7133 31.2936L34.6621 31.2936L34.6111 31.2936L34.5602 31.2936L34.5095 31.2936L34.4588 31.2936L34.4082 31.2936L34.3578 31.2936L34.3075 31.2936L34.2573 31.2936L34.2072 31.2936L34.1572 31.2936L34.1073 31.2936L34.0575 31.2936L34.0078 31.2936L33.9583 31.2936L33.9088 31.2936L33.8595 31.2936L33.8103 31.2936L33.7611 31.2936L33.7121 31.2936L33.6632 31.2936L33.6144 31.2936L33.5656 31.2936L33.517 31.2936L33.4685 31.2936L33.4201 31.2936L33.3718 31.2936L33.3236 31.2936L33.2755 31.2936L33.2275 31.2936L33.1796 31.2936L33.1318 31.2936L33.0841 31.2936L33.0365 31.2936L32.989 31.2936L32.9416 31.2936L32.8942 31.2936L32.847 31.2936L32.7999 31.2936L32.7528 31.2936L32.7059 31.2936L32.659 31.2936L32.6123 31.2936L32.5656 31.2936L32.519 31.2936L32.4726 31.2936L32.4262 31.2936L32.3799 31.2936L32.3336 31.2936L32.2875 31.2936L32.2415 31.2936L32.1955 31.2936L32.1496 31.2936L32.1039 31.2936L32.0582 31.2936L32.0126 31.2936L31.967 31.2936L31.9216 31.2936L31.8762 31.2936L31.831 31.2936L31.7858 31.2936L31.7407 31.2936L31.6956 31.2936L31.6507 31.2936L31.6058 31.2936L31.561 31.2936L31.5163 31.2936L31.4717 31.2936L31.4271 31.2936L31.3827 31.2936L31.3383 31.2936L31.2939 31.2936L31.2497 31.2936L31.2055 31.2936L31.1614 31.2936L31.1174 31.2936L31.0734 31.2936L31.0295 31.2936L30.9857 31.2936L30.942 31.2936L30.8983 31.2936L30.8547 31.2936L30.8112 31.2936L30.7678 31.2936L30.7244 31.2936L30.6811 31.2936L30.6378 31.2936L30.5946 31.2936L30.5515 31.2936L30.5085 31.2936L30.4655 31.2936L30.4225 31.2936L30.3797 31.2936L30.3369 31.2936L30.2942 31.2936L30.2515 31.2936L30.2089 31.2936L30.1663 31.2936L30.1239 31.2936L30.0814 31.2936L30.0391 31.2936L29.9968 31.2936L29.9545 31.2936L29.9123 31.2936L29.8702 31.2936L29.8281 31.2936L29.7861 31.2936L29.7442 31.2936L29.7023 31.2936L29.6604 31.2936L29.6186 31.2936L29.5769 31.2936L29.5352 31.2936L29.4935 31.2936L29.452 31.2936L29.4104 31.2936L29.3689 31.2936L29.3275 31.2936L29.2861 31.2936L29.2448 31.2936L29.2035 31.2936L29.1623 31.2936L29.1211 31.2936L29.0799 31.2936L29.0388 31.2936L28.9978 31.2936L28.9568 31.2936L28.9158 31.2936L28.8749 31.2936L28.834 31.2936L28.7932 31.2936L28.7524 31.2936L28.7117 31.2936L28.6709 31.2936L28.6303 31.2936L28.5897 31.2936L28.5491 31.2936L28.5085 31.2936L28.468 31.2936L28.4275 31.2936L28.3871 31.2936L28.3467 31.2936L28.3064 31.2936L28.266 31.2936L28.2257 31.2936L28.1855 31.2936L28.1453 31.2936L28.1051 31.2936L28.0649 31.2936L28.0248 31.2936L27.9847 31.2936L27.9446 31.2936L27.9046 31.2936L27.8646 31.2936L27.8246 31.2936L27.7847 31.2936L27.7448 31.2936L27.7049 31.2936L27.665 31.2936L27.6252 31.2936L27.5854 31.2936L27.5456 31.2936L27.5059 31.2936L27.4661 31.2936L27.4264 31.2936L27.3867 31.2936L27.3471 31.2936L27.3074 31.2936L27.2678 31.2936L27.2282 31.2936L27.1887 31.2936L27.1491 31.2936L27.1096 31.2936L27.07 31.2936L27.0305 31.2936L26.9911 31.2936L26.9516 31.2936L26.9121 31.2936L26.8727 31.2936L26.8333 31.2936L26.7939 31.2936L26.7545 31.2936L26.7151 31.2936L26.6758 31.2936L26.6364 31.2936L26.5971 31.2936L26.5577 31.2936L26.5184 31.2936L26.4791 31.2936L26.4398 31.2936L26.4005 31.2936L26.3613 31.2936L26.322 31.2936L26.2827 31.2936L26.2435 31.2936L26.2042 31.2936L26.165 31.2936L26.1257 31.2936L26.0865 31.2936L26.0473 31.2936L26.0081 31.2936L25.9688 31.2936L25.9296 31.2936L25.8904 31.2936L25.8512 31.2936L25.812 31.2936L25.7727 31.2936L25.7335 31.2936L25.6943 31.2936L25.6551 31.2936L25.6159 31.2936L25.5766 31.2936L25.5374 31.2936L25.4982 31.2936L25.459 31.2936L25.4197 31.2936L25.3805 31.2936L25.3412 31.2936L25.302 31.2936L25.2627 31.2936L25.2234 31.2936L25.1841 31.2936L25.1448 31.2936L25.1055 31.2936L25.0662 31.2936L25.0269 31.2936L24.9876 31.2936L24.9482 31.2936L24.9089 31.2936L24.8695 31.2936L24.8301 31.2936L24.7907 31.2936L24.7513 31.2936L24.7119 31.2936L24.6725 31.2936L24.633 31.2936L24.5935 31.2936L24.5541 31.2936L24.5145 31.2936L24.475 31.2936L24.4355 31.2936L24.3959 31.2936L24.3563 31.2936L24.3167 31.2936L24.2771 31.2936L24.2374 31.2936L24.1978 31.2936L24.1581 31.2936L24.1184 31.2936L24.0786 31.2936L24.0389 31.2936L23.9991 31.2936L23.9593 31.2936L23.9194 31.2936L23.8795 31.2936L23.8396 31.2936L23.7997 31.2936L23.7598 31.2936L23.7198 31.2936L23.6798 31.2936L23.6397 31.2936L23.5997 31.2936L23.5596 31.2936L23.5194 31.2936L23.4793 31.2936L23.4391 31.2936L23.3988 31.2936L23.3586 31.2936L23.3182 31.2936L23.2779 31.2936L23.2375 31.2936L23.1971 31.2936L23.1567 31.2936L23.1162 31.2936L23.0757 31.2936L23.0351 31.2936L22.9945 31.2936L22.9539 31.2936L22.9132 31.2936L22.8725 31.2936L22.8317 31.2936L22.7909 31.2936L22.75 31.2936L22.7091 31.2936L22.6682 31.2936L22.6272 31.2936L22.5862 31.2936L22.5451 31.2936L22.504 31.2936L22.4629 31.2936L22.4217 31.2936L22.3804 31.2936L22.3391 31.2936L22.2977 31.2936L22.2563 31.2936L22.2149 31.2936L22.1734 31.2936L22.1318 31.2936L22.0902 31.2936L22.0486 31.2936L22.0069 31.2936L21.9651 31.2936L21.9233 31.2936L21.8814 31.2936L21.8395 31.2936L21.7975 31.2936L21.7555 31.2936L21.7134 31.2936L21.6712 31.2936L21.629 31.2936L21.5867 31.2936L21.5444 31.2936L21.502 31.2936L21.4596 31.2936L21.4171 31.2936L21.3745 31.2936L21.3319 31.2936L21.2892 31.2936L21.2464 31.2936L21.2036 31.2936L21.1607 31.2936L21.1178 31.2936L21.0748 31.2936L21.0317 31.2936L20.9885 31.2936L20.9453 31.2936L20.9021 31.2936L20.8587 31.2936L20.8153 31.2936L20.7718 31.2936L20.7283 31.2936L20.6846 31.2936L20.6409 31.2936L20.5972 31.2936L20.5533 31.2936L20.5094 31.2936L20.4655 31.2936L20.4214 31.2936L20.3773 31.2936L20.3331 31.2936L20.2888 31.2936L20.2444 31.2936L20.2 31.2936L20.1555 31.2936L20.1109 31.2936L20.0662 31.2936L20.0215 31.2936L19.9767 31.2936L19.9318 31.2936L19.8868 31.2936L19.8417 31.2936L19.7966 31.2936L19.7514 31.2936L19.7061 31.2936L19.6607 31.2936L19.6152 31.2936L19.5697 31.2936L19.524 31.2936L19.4783 31.2936L19.4325 31.2936L19.3866 31.2936L19.3406 31.2936L19.2945 31.2936L19.2483 31.2936L19.2021 31.2936L19.1558 31.2936L19.1093 31.2936L19.0628 31.2936L19.0162 31.2936L18.9695 31.2936L18.9227 31.2936L18.8758 31.2936L18.8288 31.2936L18.7818 31.2936L18.7346 31.2936L18.6873 31.2936L18.64 31.2936L18.5925 31.2936L18.545 31.2936L18.4973 31.2936L18.4496 31.2936L18.4017 31.2936L18.3538 31.2936L18.3057 31.2936L18.2576 31.2936L18.2093 31.2936L18.161 31.2936L18.1126 31.2936L18.064 31.2936L18.0154 31.2936L17.9666 31.2936L17.9177 31.2936L17.8688 31.2936L17.8197 31.2936L17.7705 31.2936L17.7213 31.2936L17.6719 31.2936L17.6224 31.2936L17.5728 31.2936L17.5231 31.2936L17.4733 31.2936L17.4233 31.2936L17.3733 31.2936L17.3232 31.2936L17.2729 31.2936L17.2225 31.2936L17.172 31.2936L17.1215 31.2936L17.0707 31.2936L17.0199 31.2936L16.969 31.2936L16.9179 31.2936L16.8668 31.2936L16.8155 31.2936L16.7641 31.2936L16.7126 31.2936L16.6609 31.2936L16.6092 31.2936L16.5573 31.2936L16.5053 31.2936L16.4532 31.2936L16.401 31.2936L16.3486 31.2936L16.2961 31.2936L16.2435 31.2936L16.1908 31.2936L16.138 31.2936L16.085 31.2936L16.0319 31.2936L15.9787 31.2936L15.9253 31.2936L15.8719 31.2936L15.8183 31.2936L15.7645 31.2936L15.7107 31.2936L15.6567 31.2936L15.6026 31.2936C13.0033 31.2936 10.8936 33.4007 10.8936 35.9999Z" fill="#FBAC7B" fill-opacity="0.75" stroke="url(#paint7_linear_1827_2799)" stroke-width="0.187249"/>
<path d="M10.9 36C10.9 33.4042 13.0043 31.3 15.6 31.3C18.1957 31.3 20.3 33.4042 20.3 36C20.3 38.5957 18.1957 40.7 15.6 40.7C13.0043 40.7 10.9 38.5957 10.9 36Z" fill="url(#paint8_linear_1827_2799)" stroke="url(#paint9_linear_1827_2799)" stroke-width="0.2"/>
<defs>
<linearGradient id="paint0_linear_1827_2799" x1="15.1615" y1="34.8" x2="37.4797" y2="29.2835" gradientUnits="userSpaceOnUse">
<stop stop-color="#FA904F"/>
<stop offset="1" stop-color="#FF6100"/>
</linearGradient>
<linearGradient id="paint1_linear_1827_2799" x1="8.65714" y1="15.9272" x2="23.5579" y2="-8.11537" gradientUnits="userSpaceOnUse">
<stop stop-color="white"/>
<stop offset="1" stop-color="white" stop-opacity="0"/>
</linearGradient>
<linearGradient id="paint2_linear_1827_2799" x1="10.8" y1="12" x2="20.3043" y2="11.0461" gradientUnits="userSpaceOnUse">
<stop stop-color="white" stop-opacity="0.9"/>
<stop offset="1" stop-color="white" stop-opacity="0.3"/>
</linearGradient>
<linearGradient id="paint3_linear_1827_2799" x1="10.1143" y1="8.07268" x2="23.6798" y2="15.0769" gradientUnits="userSpaceOnUse">
<stop stop-color="white"/>
<stop offset="1" stop-color="white" stop-opacity="0"/>
</linearGradient>
<linearGradient id="paint4_linear_1827_2799" x1="8.65714" y1="27.9272" x2="23.5578" y2="3.88463" gradientUnits="userSpaceOnUse">
<stop stop-color="white"/>
<stop offset="1" stop-color="white" stop-opacity="0"/>
</linearGradient>
<linearGradient id="paint5_linear_1827_2799" x1="10.8" y1="24" x2="20.3043" y2="23.0461" gradientUnits="userSpaceOnUse">
<stop stop-color="white" stop-opacity="0.9"/>
<stop offset="1" stop-color="white" stop-opacity="0.3"/>
</linearGradient>
<linearGradient id="paint6_linear_1827_2799" x1="10.1143" y1="20.0727" x2="23.6798" y2="27.0769" gradientUnits="userSpaceOnUse">
<stop stop-color="white"/>
<stop offset="1" stop-color="white" stop-opacity="0"/>
</linearGradient>
<linearGradient id="paint7_linear_1827_2799" x1="8.65714" y1="39.9272" x2="23.5578" y2="15.8846" gradientUnits="userSpaceOnUse">
<stop stop-color="white"/>
<stop offset="1" stop-color="white" stop-opacity="0"/>
</linearGradient>
<linearGradient id="paint8_linear_1827_2799" x1="10.8" y1="36" x2="20.3043" y2="35.0461" gradientUnits="userSpaceOnUse">
<stop stop-color="white" stop-opacity="0.9"/>
<stop offset="1" stop-color="white" stop-opacity="0.3"/>
</linearGradient>
<linearGradient id="paint9_linear_1827_2799" x1="10.1143" y1="32.0727" x2="23.6798" y2="39.0769" gradientUnits="userSpaceOnUse">
<stop stop-color="white"/>
<stop offset="1" stop-color="white" stop-opacity="0"/>
</linearGradient>
</defs>
</svg>
