<svg width="40" height="40" viewBox="0 0 40 40" fill="none" xmlns="http://www.w3.org/2000/svg">
<path d="M19.1072 1.9464C20.2913 1.35434 21.6917 1.38652 22.8473 2.03234L35.9513 9.35513C37.2163 10.062 38 11.3978 38 12.8469V27.0279C38 28.543 37.144 29.928 35.7889 30.6056L20.8928 38.0536C19.7087 38.6457 18.3083 38.6135 17.1527 37.9677L4.04871 30.6449C2.78373 29.938 2 28.6022 2 27.1531V12.9721C2 11.457 2.85601 10.072 4.21115 9.39443L19.1072 1.9464Z" fill="url(#paint0_linear_5372_34355)"/>
<circle cx="20" cy="19" r="12" fill="url(#paint1_linear_5372_34355)"/>
<path d="M17.1039 19.055C18.2884 19.7169 19.7238 19.7499 20.9375 19.143L36.5975 11.313C37.1959 11.0138 37.9 11.449 37.9 12.118V27.0279C37.9 28.5051 37.0654 29.8555 35.7441 30.5161L20.8481 37.9642C19.6936 38.5414 18.3282 38.51 17.2014 37.8804L4.0975 30.5576C2.86414 29.8683 2.1 28.566 2.1 27.1531V12.2044C2.1 11.5171 2.83913 11.0835 3.43904 11.4187L17.1039 19.055Z" fill="#FFD983" fill-opacity="0.65" stroke="url(#paint2_linear_5372_34355)" stroke-width="0.2"/>
<defs>
<linearGradient id="paint0_linear_5372_34355" x1="3.08553" y1="13.5016" x2="37.325" y2="25.3079" gradientUnits="userSpaceOnUse">
<stop stop-color="#FFD371"/>
<stop offset="1" stop-color="#FFB612"/>
</linearGradient>
<linearGradient id="paint1_linear_5372_34355" x1="6.28571" y1="9.18182" x2="40.1996" y2="26.6925" gradientUnits="userSpaceOnUse">
<stop stop-color="white"/>
<stop offset="1" stop-color="white" stop-opacity="0"/>
</linearGradient>
<linearGradient id="paint2_linear_5372_34355" x1="-0.571428" y1="13.0909" x2="44.6328" y2="42.5732" gradientUnits="userSpaceOnUse">
<stop stop-color="white"/>
<stop offset="1" stop-color="white" stop-opacity="0"/>
</linearGradient>
</defs>
</svg>
