<svg width="40.000000" height="40.000000" viewBox="0 0 40 40" fill="none" xmlns="http://www.w3.org/2000/svg" xmlns:xlink="http://www.w3.org/1999/xlink">
	<desc>
			Created with Pixso.
	</desc>
	<defs>
		<clipPath id="clip3116_77689">
			<rect width="40.000004" height="40.000004" fill="white" fill-opacity="0"/>
		</clipPath>
		<linearGradient x1="9.728193" y1="11.895760" x2="30.271809" y2="20.104244" id="paint_linear_3116_77692_0" gradientUnits="userSpaceOnUse">
			<stop stop-color="#FFD371"/>
			<stop offset="1.000000" stop-color="#FFB612"/>
		</linearGradient>
		<linearGradient x1="0.571423" y1="8.909096" x2="43.071423" y2="42.363647" id="paint_linear_3116_77690_0" gradientUnits="userSpaceOnUse">
			<stop stop-color="#FFFFFF"/>
			<stop offset="1.000000" stop-color="#FFFFFF" stop-opacity="0.000000"/>
		</linearGradient>
		<linearGradient x1="13.539429" y1="16.452951" x2="26.460571" y2="16.452951" id="paint_linear_3116_77691_0" gradientUnits="userSpaceOnUse">
			<stop stop-color="#FFFFFF" stop-opacity="0.901961"/>
			<stop offset="1.000000" stop-color="#FFFFFF" stop-opacity="0.301961"/>
		</linearGradient>
		<linearGradient x1="12.616491" y1="11.385624" x2="28.767918" y2="24.335463" id="paint_linear_3116_77691_1" gradientUnits="userSpaceOnUse">
			<stop stop-color="#FFFFFF"/>
			<stop offset="1.000000" stop-color="#FFFFFF" stop-opacity="0.000000"/>
		</linearGradient>
	</defs>
	<rect width="40.000004" height="40.000004" fill="#FFFFFF" fill-opacity="0"/>
	<g clip-path="url(#clip3116_77689)">
		<path d="M30.92 5.06L30.15 16.7C29.76 21.87 26.96 26.18 23.13 27.47C21.07 28.17 18.92 28.17 16.86 27.47C13.03 26.18 10.23 21.87 9.84 16.7L9.07 5.06C9.03 4.48 9.49 4 10.06 4L29.93 4C30.5 4 30.96 4.48 30.92 5.06Z" fill="url(#paint_linear_3116_77692_0)" fill-opacity="1.000000" fill-rule="evenodd"/>
		<path d="M32.68 10L35 10C36.1 10 37 10.89 37 12C37 15.17 34.89 17.85 31.99 18.71C31.53 23.88 28.22 28.18 23.7 29.47C23.14 29.63 22.57 29.76 22 29.84L22 34L27 34C28.1 34 29 34.89 29 36C29 37.1 28.1 38 27 38L13 38C11.89 38 11 37.1 11 36C11 34.89 11.89 34 13 34L18 34L18 29.84C17.42 29.76 16.86 29.63 16.29 29.47C11.77 28.18 8.46 23.88 8 18.71C5.11 17.85 3 15.17 3 12C3 10.89 3.89 10 5 10L7.31 10L7.08 7.07C7.03 6.49 7.49 6 8.08 6L31.91 6C32.5 6 32.96 6.49 32.91 7.07L32.68 10ZM5.78 12L7.5 12L7.91 16.32L7.66 16.29C6.26 16.14 5 14.41 5 13C5 12.44 5.23 12 5.78 12ZM32.5 12L34.21 12C34.76 12 35 12.44 35 13C35 14.41 33.73 16.14 32.33 16.29L32.08 16.32L32.5 12Z" fill="#FFD983" fill-opacity="0.650000" fill-rule="evenodd"/>
		<path d="M31.99 18.71C34.89 17.85 37 15.17 37 12C37 10.89 36.1 10 35 10L32.68 10L32.7 9.8L32.91 7.07C32.96 6.49 32.5 6 31.91 6L8.08 6C7.49 6 7.03 6.49 7.08 7.07L7.3 9.8L7.31 10L5 10C3.89 10 3 10.89 3 12C3 15.17 5.11 17.85 8 18.71C8.46 23.88 11.77 28.18 16.29 29.47C16.86 29.63 17.42 29.76 18 29.84L18 34L13 34C11.89 34 11 34.89 11 36C11 37.1 11.89 38 13 38L27 38C28.1 38 29 37.1 29 36C29 34.89 28.1 34 27 34L22 34L22 29.84C22.57 29.76 23.14 29.63 23.7 29.47C28.22 28.18 31.53 23.88 31.99 18.71ZM32.68 10.2L35 10.2C35.13 10.2 35.27 10.21 35.4 10.24C35.5 10.26 35.6 10.29 35.7 10.34C35.8 10.38 35.89 10.43 35.98 10.49C36.08 10.56 36.18 10.63 36.27 10.72C36.36 10.81 36.43 10.91 36.5 11.01C36.56 11.1 36.61 11.19 36.65 11.29C36.7 11.39 36.73 11.49 36.75 11.6C36.78 11.72 36.8 11.86 36.8 12C36.8 12.44 36.75 12.88 36.67 13.31C36.61 13.61 36.53 13.91 36.43 14.2C36.32 14.51 36.2 14.81 36.04 15.1C35.87 15.45 35.66 15.78 35.42 16.1C35.2 16.39 34.96 16.66 34.7 16.91C34.45 17.15 34.17 17.37 33.88 17.58C33.56 17.8 33.22 18 32.87 18.16C32.57 18.3 32.26 18.42 31.94 18.51C31.9 18.53 31.86 18.55 31.84 18.58C31.81 18.61 31.8 18.65 31.79 18.69C31.71 19.6 31.54 20.49 31.28 21.35C31.18 21.68 31.07 22 30.95 22.31C30.59 23.24 30.14 24.1 29.59 24.89C29.47 25.07 29.34 25.25 29.21 25.42C28.59 26.23 27.88 26.94 27.09 27.53C26.97 27.63 26.85 27.72 26.72 27.81C26.05 28.28 25.33 28.66 24.59 28.96C24.28 29.08 23.96 29.19 23.64 29.28C23.19 29.41 22.74 29.51 22.28 29.6C22.17 29.61 22.07 29.63 21.97 29.65C21.92 29.65 21.88 29.68 21.84 29.71C21.81 29.75 21.8 29.79 21.8 29.84L21.8 34C21.8 34.05 21.81 34.1 21.85 34.14C21.89 34.18 21.94 34.2 22 34.2L27 34.2C27.13 34.2 27.27 34.21 27.4 34.24C27.5 34.26 27.6 34.29 27.7 34.34C27.8 34.38 27.89 34.43 27.98 34.49C28.08 34.56 28.18 34.63 28.27 34.72C28.36 34.81 28.43 34.91 28.5 35.01C28.56 35.1 28.61 35.19 28.65 35.29C28.7 35.39 28.73 35.49 28.75 35.59C28.78 35.73 28.8 35.86 28.8 36C28.8 36.13 28.78 36.27 28.75 36.4C28.73 36.5 28.7 36.6 28.65 36.7C28.61 36.8 28.56 36.89 28.5 36.98C28.43 37.08 28.36 37.18 28.27 37.27C28.18 37.36 28.08 37.43 27.98 37.5C27.89 37.56 27.8 37.61 27.7 37.65C27.6 37.7 27.5 37.73 27.4 37.75C27.27 37.78 27.13 37.8 27 37.8L13 37.8C12.86 37.8 12.72 37.78 12.59 37.75C12.49 37.73 12.39 37.7 12.29 37.65C12.19 37.61 12.1 37.56 12.01 37.5C11.91 37.43 11.81 37.36 11.72 37.27C11.63 37.18 11.56 37.08 11.49 36.98C11.43 36.89 11.38 36.8 11.34 36.7C11.29 36.6 11.26 36.5 11.24 36.4C11.21 36.27 11.2 36.13 11.2 36C11.2 35.86 11.21 35.72 11.24 35.59C11.26 35.49 11.29 35.39 11.34 35.29C11.38 35.19 11.43 35.1 11.49 35.01C11.56 34.91 11.63 34.81 11.72 34.72C11.81 34.63 11.91 34.56 12.01 34.49C12.1 34.43 12.19 34.38 12.29 34.34C12.39 34.29 12.49 34.26 12.59 34.24C12.72 34.21 12.86 34.2 13 34.2L18 34.2C18.05 34.2 18.1 34.18 18.14 34.14C18.18 34.1 18.2 34.05 18.2 34L18.2 29.84C18.2 29.79 18.18 29.75 18.15 29.71C18.11 29.68 18.07 29.65 18.02 29.65C17.9 29.63 17.78 29.61 17.66 29.59C17.22 29.51 16.78 29.4 16.35 29.28C16.03 29.19 15.71 29.08 15.4 28.96C14.66 28.66 13.95 28.28 13.27 27.81C13.14 27.72 13.02 27.63 12.89 27.53C12.11 26.93 11.41 26.23 10.78 25.42C10.65 25.25 10.52 25.07 10.4 24.89C9.85 24.1 9.4 23.24 9.04 22.31C8.92 22 8.81 21.68 8.71 21.35C8.45 20.49 8.28 19.6 8.2 18.69C8.19 18.65 8.18 18.61 8.15 18.58C8.13 18.55 8.09 18.53 8.06 18.51C7.73 18.42 7.42 18.3 7.12 18.16C6.77 18 6.43 17.8 6.11 17.58C5.82 17.37 5.54 17.15 5.29 16.91C5.03 16.66 4.79 16.39 4.57 16.1C4.33 15.78 4.12 15.45 3.95 15.1C3.8 14.81 3.67 14.51 3.56 14.2C3.46 13.91 3.38 13.61 3.32 13.31C3.24 12.88 3.19 12.44 3.19 12C3.19 11.86 3.21 11.72 3.24 11.6C3.26 11.49 3.29 11.39 3.34 11.29C3.38 11.19 3.43 11.1 3.49 11.01C3.56 10.91 3.63 10.81 3.72 10.72C3.81 10.63 3.91 10.56 4.01 10.49C4.1 10.43 4.19 10.38 4.29 10.34C4.39 10.29 4.49 10.26 4.59 10.24C4.72 10.21 4.86 10.2 5 10.2L7.31 10.2C7.37 10.2 7.41 10.18 7.45 10.14C7.49 10.1 7.51 10.05 7.51 10L7.51 9.99C7.51 9.98 7.51 9.98 7.51 9.98L7.28 7.06C7.28 6.99 7.28 6.93 7.29 6.87C7.3 6.82 7.31 6.77 7.32 6.73C7.34 6.68 7.36 6.64 7.39 6.59C7.41 6.54 7.45 6.5 7.49 6.45C7.53 6.41 7.57 6.37 7.62 6.34C7.66 6.31 7.71 6.28 7.75 6.26C7.8 6.24 7.84 6.23 7.89 6.22C7.95 6.2 8.01 6.2 8.08 6.2L31.91 6.2C31.98 6.2 32.04 6.2 32.1 6.22C32.15 6.23 32.2 6.24 32.24 6.26C32.29 6.28 32.33 6.31 32.37 6.34C32.42 6.37 32.46 6.41 32.5 6.45C32.54 6.5 32.58 6.54 32.61 6.59C32.63 6.64 32.65 6.68 32.67 6.73C32.68 6.77 32.7 6.82 32.7 6.87C32.71 6.93 32.72 6.99 32.71 7.06L32.48 9.98C32.48 10.03 32.49 10.08 32.53 10.12C32.56 10.17 32.61 10.19 32.66 10.19C32.67 10.19 32.67 10.19 32.67 10.19C32.67 10.2 32.68 10.2 32.68 10.2ZM8.11 16.3L7.69 11.98C7.69 11.92 7.67 11.88 7.63 11.85C7.59 11.81 7.55 11.8 7.5 11.8L5.78 11.8C5.59 11.8 5.42 11.84 5.28 11.92C5.18 11.99 5.09 12.07 5.02 12.17C4.87 12.38 4.8 12.66 4.8 13C4.8 13.37 4.87 13.76 5.03 14.16C5.06 14.23 5.09 14.31 5.12 14.38C5.26 14.69 5.44 14.97 5.65 15.24C5.91 15.58 6.21 15.86 6.55 16.08C6.9 16.31 7.27 16.45 7.64 16.49L7.89 16.52C7.9 16.52 7.9 16.52 7.91 16.52C7.92 16.52 7.92 16.52 7.93 16.52C7.99 16.51 8.03 16.49 8.07 16.45C8.1 16.4 8.12 16.35 8.11 16.3ZM34.71 11.92C34.57 11.84 34.4 11.8 34.21 11.8L32.5 11.8C32.44 11.8 32.4 11.81 32.36 11.85C32.32 11.88 32.3 11.92 32.3 11.98L31.88 16.3C31.88 16.31 31.88 16.31 31.88 16.32C31.88 16.33 31.88 16.33 31.88 16.34C31.89 16.4 31.91 16.44 31.95 16.47C32 16.51 32.05 16.52 32.1 16.52L32.35 16.49C32.72 16.45 33.09 16.31 33.45 16.08C33.78 15.86 34.08 15.58 34.34 15.24C34.55 14.97 34.73 14.69 34.87 14.38C34.9 14.31 34.93 14.23 34.96 14.16C35.12 13.76 35.2 13.37 35.2 13C35.2 12.66 35.12 12.38 34.97 12.17C34.9 12.07 34.81 11.99 34.71 11.92ZM5.78 12L7.5 12L7.89 16.12L7.91 16.32L7.71 16.3L7.66 16.29C6.26 16.14 5 14.41 5 13C5 12.44 5.23 12 5.78 12ZM32.5 12L34.21 12C34.76 12 35 12.44 35 13C35 14.41 33.73 16.14 32.33 16.29L32.28 16.3L32.08 16.32L32.1 16.12L32.5 12Z" fill="url(#paint_linear_3116_77690_0)" fill-opacity="1.000000" fill-rule="evenodd"/>
		<path d="M19.1 10.81L17.88 13.29C17.73 13.58 17.45 13.79 17.12 13.83L14.39 14.23C13.57 14.35 13.24 15.36 13.84 15.94L15.81 17.86C16.05 18.09 16.16 18.42 16.1 18.75L15.64 21.47C15.5 22.29 16.35 22.91 17.09 22.52L19.53 21.24C19.82 21.09 20.17 21.09 20.46 21.24L22.9 22.52C23.64 22.91 24.49 22.29 24.35 21.47L23.89 18.75C23.83 18.42 23.94 18.09 24.18 17.86L26.15 15.94C26.75 15.36 26.42 14.35 25.6 14.23L22.87 13.83C22.54 13.79 22.26 13.58 22.11 13.29L20.89 10.81C20.52 10.07 19.47 10.07 19.1 10.81Z" fill="url(#paint_linear_3116_77691_0)" fill-opacity="1.000000" fill-rule="evenodd"/>
		<path d="M19.1 10.81L17.88 13.29C17.73 13.58 17.45 13.79 17.12 13.83L14.39 14.23C13.57 14.35 13.24 15.36 13.84 15.94L15.81 17.86C16.05 18.09 16.16 18.42 16.1 18.75L15.64 21.47C15.5 22.29 16.35 22.91 17.09 22.52L19.53 21.24C19.82 21.09 20.17 21.09 20.46 21.24L22.9 22.52C23.64 22.91 24.49 22.29 24.35 21.47L23.89 18.75C23.83 18.42 23.94 18.09 24.18 17.86L26.15 15.94C26.75 15.36 26.42 14.35 25.6 14.23L22.87 13.83C22.54 13.79 22.26 13.58 22.11 13.29L20.89 10.81C20.52 10.07 19.47 10.07 19.1 10.81ZM18.06 13.38L18.06 13.38L19.28 10.9C19.32 10.81 19.38 10.73 19.45 10.67C19.49 10.63 19.53 10.6 19.58 10.57C19.64 10.53 19.69 10.51 19.75 10.49C19.83 10.47 19.91 10.45 20 10.45C20.08 10.45 20.16 10.47 20.24 10.49C20.3 10.51 20.35 10.53 20.41 10.57C20.46 10.6 20.5 10.63 20.54 10.67C20.61 10.73 20.67 10.81 20.71 10.9L21.93 13.38C21.98 13.46 22.03 13.55 22.09 13.62C22.15 13.69 22.23 13.76 22.3 13.82C22.38 13.87 22.47 13.92 22.56 13.96C22.65 13.99 22.74 14.02 22.84 14.03L25.57 14.43C25.67 14.44 25.76 14.47 25.84 14.52C25.89 14.55 25.94 14.58 25.98 14.62C26.03 14.66 26.07 14.7 26.1 14.75C26.15 14.82 26.19 14.89 26.22 14.97C26.24 15.06 26.26 15.14 26.26 15.22C26.26 15.28 26.25 15.34 26.24 15.4C26.22 15.46 26.21 15.51 26.18 15.56C26.14 15.65 26.09 15.72 26.01 15.79L24.04 17.72C23.97 17.79 23.9 17.87 23.85 17.95C23.8 18.03 23.76 18.12 23.73 18.21C23.7 18.3 23.68 18.4 23.68 18.49C23.67 18.59 23.67 18.69 23.69 18.78L24.16 21.5C24.17 21.6 24.17 21.7 24.16 21.79C24.15 21.85 24.13 21.9 24.11 21.95C24.08 22.01 24.05 22.06 24.02 22.11C23.97 22.18 23.91 22.24 23.84 22.29C23.77 22.34 23.69 22.38 23.62 22.4C23.56 22.42 23.5 22.43 23.44 22.44C23.38 22.44 23.33 22.44 23.27 22.44C23.18 22.42 23.09 22.39 23 22.35L20.55 21.06C20.47 21.02 20.38 20.98 20.28 20.96C20.19 20.94 20.09 20.92 20 20.92C19.9 20.92 19.8 20.94 19.71 20.96C19.61 20.98 19.52 21.02 19.44 21.06L16.99 22.35C16.9 22.39 16.81 22.42 16.72 22.44C16.66 22.44 16.61 22.44 16.55 22.44C16.49 22.43 16.43 22.42 16.37 22.4C16.3 22.38 16.22 22.34 16.15 22.29C16.08 22.24 16.02 22.18 15.97 22.11C15.94 22.06 15.91 22.01 15.88 21.95C15.86 21.9 15.84 21.85 15.83 21.79C15.82 21.7 15.82 21.6 15.83 21.5L16.3 18.78C16.32 18.69 16.32 18.59 16.31 18.49C16.31 18.4 16.29 18.3 16.26 18.21C16.23 18.12 16.19 18.03 16.14 17.95C16.09 17.87 16.02 17.79 15.95 17.72L13.98 15.79C13.91 15.72 13.85 15.65 13.81 15.56C13.78 15.51 13.77 15.46 13.75 15.4C13.74 15.34 13.73 15.28 13.73 15.22C13.73 15.14 13.75 15.06 13.77 14.97C13.8 14.89 13.84 14.82 13.89 14.75C13.92 14.7 13.96 14.66 14.01 14.62C14.05 14.58 14.1 14.55 14.15 14.52C14.23 14.47 14.32 14.44 14.42 14.43L17.15 14.03C17.25 14.02 17.34 13.99 17.43 13.96C17.52 13.92 17.61 13.87 17.69 13.82C17.76 13.76 17.84 13.69 17.9 13.62C17.96 13.55 18.01 13.46 18.06 13.38Z" fill="url(#paint_linear_3116_77691_1)" fill-opacity="1.000000" fill-rule="evenodd"/>
	</g>
</svg>
