<svg width="40" height="40" viewBox="0 0 40 40" fill="none" xmlns="http://www.w3.org/2000/svg">
<path d="M6 6C6 3.79086 7.79086 2 10 2H30C32.2091 2 34 3.79086 34 6V34C34 36.2091 32.2091 38 30 38H10C7.79086 38 6 36.2091 6 34V6Z" fill="url(#paint0_linear_2315_33679)"/>
<rect x="11.1" y="2.1" width="17.8" height="3.8" rx="1.9" fill="#FFB7B5" fill-opacity="0.6" stroke="url(#paint1_linear_2315_33679)" stroke-width="0.2"/>
<rect x="8.1" y="9.1" width="23.8" height="25.8" rx="3.9" fill="#FFB7B5" fill-opacity="0.9" stroke="url(#paint2_linear_2315_33679)" stroke-width="0.2"/>
<path d="M29.369 15.4024C29.9752 15.8823 30.0776 16.7628 29.5977 17.369L20.0977 29.369C19.8569 29.6732 19.5008 29.8638 19.1142 29.8954C18.7276 29.927 18.3453 29.7969 18.0583 29.536L12.5583 24.536C11.9861 24.0159 11.944 23.1304 12.4641 22.5583C12.9842 21.9862 13.8696 21.944 14.4418 22.4641L18.595 26.2399C18.7236 26.3567 18.9242 26.3403 19.032 26.2041L27.4023 15.6311C27.8823 15.0249 28.7628 14.9225 29.369 15.4024Z" fill="url(#paint3_linear_2315_33679)" stroke="url(#paint4_linear_2315_33679)" stroke-width="0.2"/>
<defs>
<linearGradient id="paint0_linear_2315_33679" x1="11.0465" y1="28.445" x2="38.9237" y2="36.6513" gradientUnits="userSpaceOnUse">
<stop stop-color="#FF8383"/>
<stop offset="1" stop-color="#F52828"/>
</linearGradient>
<linearGradient id="paint1_linear_2315_33679" x1="9.71429" y1="2.36364" x2="14.7493" y2="14.0622" gradientUnits="userSpaceOnUse">
<stop stop-color="white"/>
<stop offset="1" stop-color="white" stop-opacity="0"/>
</linearGradient>
<linearGradient id="paint2_linear_2315_33679" x1="6.28571" y1="11.3636" x2="41.2895" y2="28.0468" gradientUnits="userSpaceOnUse">
<stop stop-color="white"/>
<stop offset="1" stop-color="white" stop-opacity="0"/>
</linearGradient>
<linearGradient id="paint3_linear_2315_33679" x1="12" y1="18.3333" x2="28.7687" y2="13.7893" gradientUnits="userSpaceOnUse">
<stop stop-color="white" stop-opacity="0.9"/>
<stop offset="1" stop-color="white" stop-opacity="0.3"/>
</linearGradient>
<linearGradient id="paint4_linear_2315_33679" x1="10.7143" y1="16.3636" x2="33.9939" y2="30.7875" gradientUnits="userSpaceOnUse">
<stop stop-color="white"/>
<stop offset="1" stop-color="white" stop-opacity="0"/>
</linearGradient>
</defs>
</svg>
