<svg width="48" height="48" viewBox="0 0 48 48" fill="none" xmlns="http://www.w3.org/2000/svg">
<path d="M4.8 34.4C4.8 36.6092 6.59086 38.4 8.8 38.4L34.4 38.4C36.6091 38.4 38.4 36.6092 38.4 34.4L38.4 8.80004C38.4 6.5909 36.6087 4.80004 34.3995 4.80004C23.6056 4.80004 19.5944 4.80004 8.80048 4.80003C6.59134 4.80003 4.8 6.59089 4.8 8.80003L4.8 34.4Z" fill="url(#paint0_linear_1827_2742)"/>
<path d="M9.69362 39.1999C9.69362 41.3574 11.4426 43.1063 13.6 43.1063L39.2 43.1063C41.3574 43.1063 43.1064 41.3574 43.1064 39.2L43.1064 13.6C43.1064 11.4425 41.357 9.69358 39.1995 9.69358L39.1364 9.69358L39.0733 9.69358L39.0105 9.69358L38.9478 9.69358L38.8852 9.69358L38.8228 9.69358L38.7606 9.69358L38.6985 9.69358L38.6365 9.69358L38.5747 9.69358L38.5131 9.69358L38.4516 9.69358L38.3902 9.69358L38.329 9.69358L38.268 9.69358L38.2071 9.69358L38.1463 9.69358L38.0857 9.69358L38.0252 9.69358L37.9649 9.69358L37.9047 9.69358L37.8446 9.69358L37.7847 9.69358L37.725 9.69358L37.6653 9.69358L37.6058 9.69358L37.5465 9.69358L37.4873 9.69358L37.4282 9.69358L37.3693 9.69358L37.3105 9.69358L37.2518 9.69358L37.1933 9.69358L37.1349 9.69358L37.0767 9.69358L37.0186 9.69358L36.9606 9.69358L36.9027 9.69358L36.845 9.69358L36.7874 9.69358L36.73 9.69358L36.6727 9.69358L36.6155 9.69358L36.5584 9.69358L36.5015 9.69358L36.4446 9.69358L36.388 9.69358L36.3314 9.69358L36.275 9.69358L36.2187 9.69358L36.1625 9.69358L36.1064 9.69358L36.0505 9.69358L35.9947 9.69358L35.939 9.69358L35.8835 9.69358L35.828 9.69358L35.7727 9.69358L35.7175 9.69358L35.6624 9.69358L35.6074 9.69358L35.5526 9.69358L35.4979 9.69358L35.4433 9.69358L35.3888 9.69358L35.3344 9.69358L35.2801 9.69358L35.226 9.69358L35.1719 9.69358L35.118 9.69358L35.0642 9.69358L35.0105 9.69358L34.9569 9.69358L34.9035 9.69358L34.8501 9.69358L34.7968 9.69358L34.7437 9.69358L34.6907 9.69358L34.6377 9.69358L34.5849 9.69358L34.5322 9.69358L34.4796 9.69358L34.4271 9.69358L34.3747 9.69358L34.3224 9.69358L34.2702 9.69358L34.2181 9.69358L34.1662 9.69358L34.1143 9.69358L34.0625 9.69358L34.0108 9.69358L33.9592 9.69358L33.9078 9.69358L33.8564 9.69358L33.8051 9.69358L33.7539 9.69358L33.7028 9.69358L33.6518 9.69358L33.6009 9.69358L33.5501 9.69358L33.4994 9.69358L33.4488 9.69358L33.3983 9.69358L33.3479 9.69358L33.2975 9.69358L33.2473 9.69358L33.1971 9.69358L33.1471 9.69358L33.0971 9.69358L33.0472 9.69358L32.9974 9.69358L32.9477 9.69358L32.8981 9.69358L32.8486 9.69358L32.7991 9.69358L32.7498 9.69358L32.7005 9.69358L32.6513 9.69358L32.6022 9.69358L32.5532 9.69358L32.5042 9.69358L32.4554 9.69358L32.4066 9.69358L32.3579 9.69358L32.3093 9.69358L32.2607 9.69358L32.2123 9.69358L32.1639 9.69358L32.1156 9.69358L32.0674 9.69358L32.0192 9.69358L31.9711 9.69358L31.9231 9.69358L31.8752 9.69358L31.8274 9.69358L31.7796 9.69358L31.7319 9.69358L31.6843 9.69358L31.6367 9.69358L31.5892 9.69358L31.5418 9.69358L31.4944 9.69358L31.4472 9.69358L31.3999 9.69358L31.3528 9.69358L31.3057 9.69358L31.2587 9.69358L31.2118 9.69358L31.1649 9.69358L31.1181 9.69358L31.0713 9.69358L31.0246 9.69358L30.978 9.69358L30.9315 9.69358L30.885 9.69358L30.8385 9.69358L30.7921 9.69358L30.7458 9.69358L30.6996 9.69358L30.6534 9.69358L30.6072 9.69358L30.5612 9.69358L30.5151 9.69358L30.4692 9.69358L30.4232 9.69358L30.3774 9.69358L30.3316 9.69358L30.2858 9.69358L30.2401 9.69358L30.1945 9.69358L30.1489 9.69358L30.1034 9.69358L30.0579 9.69358L30.0124 9.69358L29.967 9.69358L29.9217 9.69358L29.8764 9.69358L29.8312 9.69358L29.786 9.69358L29.7408 9.69358L29.6957 9.69358L29.6507 9.69358L29.6057 9.69358L29.5607 9.69358L29.5158 9.69358L29.4709 9.69358L29.426 9.69358L29.3812 9.69358L29.3365 9.69358L29.2918 9.69358L29.2471 9.69358L29.2025 9.69358L29.1579 9.69358L29.1133 9.69358L29.0688 9.69358L29.0243 9.69358L28.9799 9.69358L28.9354 9.69358L28.8911 9.69358L28.8467 9.69358L28.8024 9.69358L28.7581 9.69358L28.7139 9.69358L28.6697 9.69358L28.6255 9.69358L28.5814 9.69358L28.5372 9.69358L28.4932 9.69358L28.4491 9.69358L28.4051 9.69358L28.3611 9.69358L28.3171 9.69358L28.2731 9.69358L28.2292 9.69358L28.1853 9.69358L28.1415 9.69358L28.0976 9.69358L28.0538 9.69358L28.01 9.69358L27.9662 9.69358L27.9224 9.69358L27.8787 9.69358L27.835 9.69358L27.7913 9.69358L27.7476 9.69358L27.704 9.69358L27.6603 9.69358L27.6167 9.69358L27.5731 9.69358L27.5295 9.69358L27.4859 9.69358L27.4424 9.69358L27.3988 9.69358L27.3553 9.69358L27.3118 9.69358L27.2683 9.69358L27.2248 9.69358L27.1813 9.69358L27.1379 9.69358L27.0944 9.69358L27.051 9.69358L27.0075 9.69358L26.9641 9.69358L26.9207 9.69358L26.8773 9.69358L26.8338 9.69358L26.7904 9.69358L26.747 9.69358L26.7037 9.69358L26.6603 9.69358L26.6169 9.69358L26.5735 9.69358L26.5301 9.69358L26.4868 9.69358L26.4434 9.69358L26.4 9.69358L26.3566 9.69358L26.3133 9.69358L26.2699 9.69358L26.2265 9.69358L26.1831 9.69358L26.1397 9.69358L26.0963 9.69358L26.053 9.69358L26.0096 9.69358L25.9662 9.69358L25.9227 9.69358L25.8793 9.69358L25.8359 9.69358L25.7925 9.69358L25.749 9.69358L25.7056 9.69358L25.6621 9.69358L25.6187 9.69358L25.5752 9.69358L25.5317 9.69358L25.4882 9.69358L25.4447 9.69358L25.4012 9.69358L25.3576 9.69358L25.3141 9.69358L25.2705 9.69358L25.2269 9.69358L25.1833 9.69358L25.1397 9.69358L25.096 9.69358L25.0524 9.69358L25.0087 9.69358L24.965 9.69358L24.9213 9.69358L24.8776 9.69358L24.8338 9.69358L24.79 9.69358L24.7462 9.69358L24.7024 9.69358L24.6586 9.69358L24.6147 9.69358L24.5708 9.69358L24.5269 9.69358L24.4829 9.69358L24.4389 9.69358L24.3949 9.69358L24.3509 9.69358L24.3068 9.69358L24.2628 9.69358L24.2186 9.69358L24.1745 9.69358L24.1303 9.69358L24.0861 9.69358L24.0419 9.69358L23.9976 9.69358L23.9533 9.69358L23.9089 9.69358L23.8646 9.69358L23.8201 9.69358L23.7757 9.69358L23.7312 9.69358L23.6867 9.69358L23.6421 9.69358L23.5975 9.69358L23.5529 9.69358L23.5082 9.69358L23.4635 9.69358L23.4188 9.69358L23.374 9.69358L23.3291 9.69358L23.2842 9.69358L23.2393 9.69358L23.1943 9.69358L23.1493 9.69358L23.1043 9.69358L23.0592 9.69358L23.014 9.69358L22.9688 9.69358L22.9236 9.69358L22.8783 9.69358L22.833 9.69358L22.7876 9.69358L22.7421 9.69358L22.6966 9.69358L22.6511 9.69358L22.6055 9.69358L22.5599 9.69358L22.5142 9.69358L22.4684 9.69358L22.4226 9.69358L22.3768 9.69358L22.3308 9.69358L22.2849 9.69358L22.2389 9.69358L22.1928 9.69358L22.1466 9.69358L22.1004 9.69358L22.0542 9.69358L22.0079 9.69358L21.9615 9.69358L21.915 9.69358L21.8685 9.69358L21.822 9.69358L21.7754 9.69358L21.7287 9.69358L21.6819 9.69358L21.6351 9.69358L21.5882 9.69358L21.5413 9.69358L21.4943 9.69358L21.4472 9.69358L21.4001 9.69358L21.3529 9.69358L21.3056 9.69358L21.2582 9.69358L21.2108 9.69358L21.1633 9.69358L21.1158 9.69358L21.0681 9.69358L21.0204 9.69358L20.9726 9.69358L20.9248 9.69358L20.8769 9.69358L20.8289 9.69358L20.7808 9.69358L20.7326 9.69358L20.6844 9.69358L20.6361 9.69358L20.5877 9.69358L20.5393 9.69358L20.4907 9.69358L20.4421 9.69358L20.3934 9.69358L20.3446 9.69358L20.2958 9.69358L20.2468 9.69358L20.1978 9.69358L20.1487 9.69358L20.0995 9.69358L20.0502 9.69358L20.0009 9.69358L19.9514 9.69358L19.9019 9.69358L19.8523 9.69358L19.8026 9.69358L19.7528 9.69358L19.7029 9.69358L19.6529 9.69358L19.6029 9.69358L19.5527 9.69358L19.5025 9.69358L19.4521 9.69358L19.4017 9.69358L19.3512 9.69358L19.3006 9.69358L19.2499 9.69358L19.1991 9.69358L19.1482 9.69358L19.0972 9.69358L19.0461 9.69358L18.9949 9.69358L18.9436 9.69358L18.8923 9.69358L18.8408 9.69358L18.7892 9.69358L18.7375 9.69358L18.6857 9.69358L18.6339 9.69358L18.5819 9.69358L18.5298 9.69358L18.4776 9.69358L18.4253 9.69358L18.3729 9.69358L18.3204 9.69358L18.2678 9.69358L18.2151 9.69358L18.1623 9.69358L18.1093 9.69358L18.0563 9.69358L18.0032 9.69358L17.9499 9.69358L17.8965 9.69358L17.8431 9.69358L17.7895 9.69358L17.7358 9.69358L17.682 9.69358L17.6281 9.69358L17.574 9.69358L17.5199 9.69358L17.4656 9.69358L17.4112 9.69358L17.3567 9.69358L17.3021 9.69358L17.2474 9.69358L17.1926 9.69358L17.1376 9.69358L17.0825 9.69358L17.0273 9.69358L16.972 9.69358L16.9165 9.69358L16.861 9.69358L16.8053 9.69358L16.7495 9.69358L16.6936 9.69358L16.6375 9.69358L16.5813 9.69358L16.525 9.69358L16.4686 9.69358L16.412 9.69358L16.3554 9.69358L16.2985 9.69358L16.2416 9.69358L16.1845 9.69358L16.1273 9.69358L16.07 9.69358L16.0126 9.69358L15.955 9.69358L15.8973 9.69358L15.8394 9.69358L15.7814 9.69358L15.7233 9.69358L15.6651 9.69358L15.6067 9.69358L15.5482 9.69358L15.4895 9.69358L15.4307 9.69358L15.3718 9.69358L15.3127 9.69358L15.2535 9.69358L15.1942 9.69358L15.1347 9.69358L15.0751 9.69358L15.0153 9.69358L14.9554 9.69358L14.8953 9.69358L14.8351 9.69358L14.7748 9.69358L14.7143 9.69358L14.6537 9.69358L14.5929 9.69358L14.532 9.69358L14.471 9.69358L14.4098 9.69358L14.3484 9.69358L14.2869 9.69358L14.2253 9.69358L14.1635 9.69358L14.1015 9.69358L14.0394 9.69358L13.9772 9.69358L13.9148 9.69358L13.8522 9.69358L13.7895 9.69358L13.7267 9.69358L13.6636 9.69358L13.6005 9.69358C11.443 9.69358 9.69363 11.4425 9.69363 13.6L9.69362 39.1999Z" fill="#FBAC7B" fill-opacity="0.75" stroke="url(#paint1_linear_1827_2742)" stroke-width="0.187249"/>
<path d="M26.3948 16.9001C27.0743 16.8983 27.695 17.2769 27.9964 17.8751L29.8497 21.5538C30.1585 22.1667 30.7472 22.59 31.4266 22.6876L35.5748 23.2834C36.246 23.3798 36.8027 23.8426 37.0123 24.4763C37.2219 25.1097 37.049 25.8058 36.5652 26.2726L33.5622 29.1698C33.0591 29.6552 32.8305 30.3591 32.9524 31.0475L33.6605 35.0441C33.7774 35.7039 33.5025 36.3722 32.9508 36.7659C32.399 37.1598 31.6671 37.2094 31.0655 36.8936L27.3758 34.9563C26.7645 34.6353 26.0345 34.6353 25.4232 34.9563L21.7345 36.8935C21.1326 37.2096 20.4002 37.1598 19.8482 36.7653C19.2964 36.3711 19.0219 35.702 19.1397 35.0419L19.8523 31.0501C19.9754 30.3603 19.7464 29.6545 19.2417 29.1685L16.2359 26.2736C15.7513 25.8069 15.5779 25.1103 15.7877 24.4763C15.9974 23.8422 16.5548 23.3792 17.2266 23.2832L21.3944 22.6879C22.0782 22.5902 22.6702 22.1626 22.9777 21.5441L24.7983 17.8832C25.0966 17.2835 25.7153 16.9018 26.3948 16.9001Z" fill="url(#paint2_linear_1827_2742)" stroke="url(#paint3_linear_1827_2742)" stroke-width="0.2"/>
<path d="M19.3 13.2C19.3 12.5925 19.7925 12.1 20.4 12.1H32.4C33.0075 12.1 33.5 12.5925 33.5 13.2C33.5 13.8075 33.0075 14.3 32.4 14.3H20.4C19.7925 14.3 19.3 13.8075 19.3 13.2Z" fill="url(#paint4_linear_1827_2742)" stroke="url(#paint5_linear_1827_2742)" stroke-width="0.2"/>
<defs>
<linearGradient id="paint0_linear_1827_2742" x1="14.4923" y1="31.05" x2="40.2733" y2="22.1842" gradientUnits="userSpaceOnUse">
<stop stop-color="#FA904F"/>
<stop offset="1" stop-color="#FF6100"/>
</linearGradient>
<linearGradient id="paint1_linear_1827_2742" x1="7.2" y1="40.1454" x2="54.6794" y2="15.6305" gradientUnits="userSpaceOnUse">
<stop stop-color="white"/>
<stop offset="1" stop-color="white" stop-opacity="0"/>
</linearGradient>
<linearGradient id="paint2_linear_1827_2742" x1="15.6" y1="27.6375" x2="36.0735" y2="25.6789" gradientUnits="userSpaceOnUse">
<stop stop-color="white" stop-opacity="0.9"/>
<stop offset="1" stop-color="white" stop-opacity="0.3"/>
</linearGradient>
<linearGradient id="paint3_linear_1827_2742" x1="14.0571" y1="18.6546" x2="43.8209" y2="34.9264" gradientUnits="userSpaceOnUse">
<stop stop-color="white"/>
<stop offset="1" stop-color="white" stop-opacity="0"/>
</linearGradient>
<linearGradient id="paint4_linear_1827_2742" x1="19.2" y1="13.2" x2="29.7678" y2="6.8362" gradientUnits="userSpaceOnUse">
<stop stop-color="white" stop-opacity="0.9"/>
<stop offset="1" stop-color="white" stop-opacity="0.3"/>
</linearGradient>
<linearGradient id="paint5_linear_1827_2742" x1="18.1714" y1="12.2182" x2="20.6035" y2="19.7525" gradientUnits="userSpaceOnUse">
<stop stop-color="white"/>
<stop offset="1" stop-color="white" stop-opacity="0"/>
</linearGradient>
</defs>
</svg>
