<svg width="40" height="40" viewBox="0 0 40 40" fill="none" xmlns="http://www.w3.org/2000/svg">
<path d="M6 10C6 7.79086 7.79086 6 10 6H26C28.2091 6 30 7.79086 30 10V31.9378C30 34.1469 28.2091 35.9378 26 35.9378H10C7.79086 35.9378 6 34.1469 6 31.9378V10Z" fill="url(#paint0_linear_2326_30769)"/>
<path d="M16.4104 11.1472C17.4598 11.1472 18.3104 11.9978 18.3104 13.0472C18.3104 14.0965 17.4598 14.9472 16.4104 14.9472L11.439 14.9472C10.3897 14.9472 9.53903 14.0965 9.53903 13.0472C9.53903 11.9978 10.3897 11.1472 11.439 11.1472L16.4104 11.1472Z" fill="#8FF6B4" stroke="url(#paint1_linear_2326_30769)" stroke-width="0.2"/>
<path d="M16.4104 19.0742C17.4598 19.0742 18.3104 19.9249 18.3104 20.9742C18.3104 22.0235 17.4598 22.8742 16.4104 22.8742L11.439 22.8742C10.3897 22.8742 9.53903 22.0235 9.53903 20.9742C9.53903 19.9249 10.3897 19.0742 11.439 19.0742L16.4104 19.0742Z" fill="#8FF6B4" stroke="url(#paint2_linear_2326_30769)" stroke-width="0.2"/>
<circle cx="28.5" cy="25.3964" r="8.4" fill="#6AE092" fill-opacity="0.75" stroke="url(#paint3_linear_2326_30769)" stroke-width="0.2"/>
<path d="M27.9316 20.6238L27.7753 20.7919H28.0049H30.8524C31.0942 20.7919 31.3124 20.937 31.4058 21.16C31.4992 21.3831 31.4497 21.6404 31.2801 21.8127L30.1623 22.9486L29.9948 23.1188H30.2335H32.4266C32.758 23.1188 33.0266 23.3874 33.0266 23.7188V26.4824C33.0266 26.8138 32.758 27.0824 32.4266 27.0824H30.3717H30.2717V27.1824V29.6107V29.7107H30.3717H33.5394C33.8708 29.7107 34.1394 29.9793 34.1394 30.3107C34.1394 30.6421 33.8708 30.9107 33.5394 30.9107H29.6717C29.3404 30.9107 29.0717 30.6421 29.0717 30.3107V27.1824V27.0824H28.9717H28.812H28.7382L28.7164 27.1529C28.3524 28.3308 27.7965 29.1349 27.164 29.6892C26.6154 30.17 26.0429 30.4317 25.569 30.5932C25.3339 30.6733 25.1204 30.7296 24.9546 30.773C24.7699 30.8214 24.6844 30.8449 24.6383 30.8641C24.3327 30.9921 23.9812 30.848 23.8532 30.5424C23.7252 30.2367 23.8693 29.8852 24.175 29.7572C24.3067 29.7021 24.4762 29.6577 24.6159 29.6213L24.6505 29.6122L24.6252 29.5155L24.6505 29.6122C24.8155 29.569 24.9918 29.5222 25.1818 29.4574C25.5581 29.3291 25.9772 29.1337 26.373 28.7868C26.7434 28.4622 27.1262 27.9747 27.4232 27.219L27.4769 27.0824H27.3301H25.1637C24.8323 27.0824 24.5637 26.8138 24.5637 26.4824V23.7188C24.5637 23.3874 24.8323 23.1188 25.1637 23.1188H28.2694H28.3112L28.3406 23.0889L29.2527 22.162L29.4202 21.9919H29.1815H26.6244C26.5478 21.9919 26.4748 21.9776 26.4077 21.9516L26.358 21.9323L26.3143 21.9628C26.2232 22.0264 26.133 22.0882 26.0447 22.1479C25.4172 22.572 24.809 22.9364 24.4764 23.1358L24.4758 23.1361C24.3945 23.1848 24.3291 23.224 24.2842 23.2516C24.002 23.4253 23.6324 23.3373 23.4587 23.0551C23.2851 22.7729 23.373 22.4033 23.6553 22.2296C23.7112 22.1952 23.7866 22.15 23.8787 22.0948L23.8791 22.0945C24.2192 21.8906 24.7785 21.5552 25.3728 21.1537C26.1439 20.6325 26.8777 20.0618 27.2287 19.5999C27.4292 19.3361 27.8056 19.2848 28.0694 19.4853C28.3332 19.6858 28.3846 20.0622 28.1841 20.326C28.1093 20.4244 28.0245 20.5239 27.9316 20.6238ZM27.9468 24.4234L27.9516 24.3188H27.8469H25.8637H25.7637V24.4188V25.7824V25.8824H25.8637H27.706H27.7905L27.8046 25.7991C27.874 25.3902 27.9232 24.9336 27.9468 24.4234ZM29.0239 25.7678L29.007 25.8824H29.1229H31.7266H31.8266V25.7824V24.4188V24.3188H31.7266H29.2482H29.1523L29.1483 24.4146C29.1277 24.9017 29.0853 25.3518 29.0239 25.7678Z" fill="url(#paint4_linear_2326_30769)" stroke="url(#paint5_linear_2326_30769)" stroke-width="0.2"/>
<defs>
<linearGradient id="paint0_linear_2326_30769" x1="11.3377" y1="16.6381" x2="38.6542" y2="35.8662" gradientUnits="userSpaceOnUse">
<stop stop-color="#75EDA1"/>
<stop offset="1" stop-color="#349256"/>
</linearGradient>
<linearGradient id="paint1_linear_2326_30769" x1="8.79821" y1="11.4108" x2="15.6571" y2="19.3536" gradientUnits="userSpaceOnUse">
<stop stop-color="white"/>
<stop offset="1" stop-color="white" stop-opacity="0"/>
</linearGradient>
<linearGradient id="paint2_linear_2326_30769" x1="8.79821" y1="19.3378" x2="15.6571" y2="27.2807" gradientUnits="userSpaceOnUse">
<stop stop-color="white"/>
<stop offset="1" stop-color="white" stop-opacity="0"/>
</linearGradient>
<linearGradient id="paint3_linear_2326_30769" x1="18.7857" y1="18.4418" x2="42.8081" y2="30.8452" gradientUnits="userSpaceOnUse">
<stop stop-color="white"/>
<stop offset="1" stop-color="white" stop-opacity="0"/>
</linearGradient>
<linearGradient id="paint4_linear_2326_30769" x1="24.3351" y1="25.1369" x2="32.8475" y2="24.1689" gradientUnits="userSpaceOnUse">
<stop stop-color="white" stop-opacity="0.9"/>
<stop offset="1" stop-color="white" stop-opacity="0.3"/>
</linearGradient>
<linearGradient id="paint5_linear_2326_30769" x1="22.4861" y1="20.3309" x2="38.4167" y2="28.0115" gradientUnits="userSpaceOnUse">
<stop stop-color="white"/>
<stop offset="1" stop-color="white" stop-opacity="0"/>
</linearGradient>
</defs>
</svg>
