<svg width="40" height="40" viewBox="0 0 40 40" fill="none" xmlns="http://www.w3.org/2000/svg">
<path d="M6 10C6 7.79086 7.79086 6 10 6H26C28.2091 6 30 7.79086 30 10V31.9378C30 34.1469 28.2091 35.9378 26 35.9378H10C7.79086 35.9378 6 34.1469 6 31.9378V10Z" fill="url(#paint0_linear_2326_30768)"/>
<path d="M16.4104 11.1472C17.4598 11.1472 18.3104 11.9978 18.3104 13.0472C18.3104 14.0965 17.4598 14.9472 16.4104 14.9472L11.439 14.9472C10.3897 14.9472 9.53903 14.0965 9.53903 13.0472C9.53903 11.9978 10.3897 11.1472 11.439 11.1472L16.4104 11.1472Z" fill="#FFB7B5" fill-opacity="0.75" stroke="url(#paint1_linear_2326_30768)" stroke-width="0.2"/>
<path d="M16.4104 19.0742C17.4598 19.0742 18.3104 19.9249 18.3104 20.9742C18.3104 22.0235 17.4598 22.8742 16.4104 22.8742L11.439 22.8742C10.3897 22.8742 9.53903 22.0235 9.53903 20.9742C9.53903 19.9249 10.3897 19.0742 11.439 19.0742L16.4104 19.0742Z" fill="#FFB7B5" fill-opacity="0.75" stroke="url(#paint2_linear_2326_30768)" stroke-width="0.2"/>
<circle cx="28.5" cy="25.3964" r="8.4" fill="#FFB7B5" fill-opacity="0.75" stroke="url(#paint3_linear_2326_30768)" stroke-width="0.2"/>
<rect x="0.1" y="-0.1" width="5.8" height="1.8" rx="0.9" transform="matrix(1 0 4.37849e-08 -1 27.5 26.1964)" fill="url(#paint4_linear_2326_30768)" stroke="url(#paint5_linear_2326_30768)" stroke-width="0.2"/>
<rect x="-0.1" y="-0.1" width="6.8" height="1.8" rx="0.9" transform="matrix(-4.37114e-08 -1 -1 0 29.3 26.1964)" fill="url(#paint6_linear_2326_30768)" stroke="url(#paint7_linear_2326_30768)" stroke-width="0.2"/>
<defs>
<linearGradient id="paint0_linear_2326_30768" x1="10.3256" y1="27.9918" x2="34.1021" y2="35.2059" gradientUnits="userSpaceOnUse">
<stop stop-color="#FF8383"/>
<stop offset="1" stop-color="#F52828"/>
</linearGradient>
<linearGradient id="paint1_linear_2326_30768" x1="8.79821" y1="11.4108" x2="15.6571" y2="19.3536" gradientUnits="userSpaceOnUse">
<stop stop-color="white"/>
<stop offset="1" stop-color="white" stop-opacity="0"/>
</linearGradient>
<linearGradient id="paint2_linear_2326_30768" x1="8.79821" y1="19.3378" x2="15.6571" y2="27.2807" gradientUnits="userSpaceOnUse">
<stop stop-color="white"/>
<stop offset="1" stop-color="white" stop-opacity="0"/>
</linearGradient>
<linearGradient id="paint3_linear_2326_30768" x1="18.7857" y1="18.4418" x2="42.8081" y2="30.8452" gradientUnits="userSpaceOnUse">
<stop stop-color="white"/>
<stop offset="1" stop-color="white" stop-opacity="0"/>
</linearGradient>
<linearGradient id="paint4_linear_2326_30768" x1="3.93565" y1="1.8702" x2="3.86694" y2="0.115063" gradientUnits="userSpaceOnUse">
<stop stop-color="white" stop-opacity="0.9"/>
<stop offset="1" stop-color="white" stop-opacity="0.3"/>
</linearGradient>
<linearGradient id="paint5_linear_2326_30768" x1="-0.428571" y1="0.181818" x2="2.73051" y2="5.07517" gradientUnits="userSpaceOnUse">
<stop stop-color="white"/>
<stop offset="1" stop-color="white" stop-opacity="0"/>
</linearGradient>
<linearGradient id="paint6_linear_2326_30768" x1="4.5916" y1="1.8702" x2="4.53268" y2="0.11435" gradientUnits="userSpaceOnUse">
<stop stop-color="white" stop-opacity="0.9"/>
<stop offset="1" stop-color="white" stop-opacity="0.3"/>
</linearGradient>
<linearGradient id="paint7_linear_2326_30768" x1="-0.5" y1="0.181818" x2="2.437" y2="5.4894" gradientUnits="userSpaceOnUse">
<stop stop-color="white"/>
<stop offset="1" stop-color="white" stop-opacity="0"/>
</linearGradient>
</defs>
</svg>
