<svg width="40" height="40" viewBox="0 0 40 40" fill="none" xmlns="http://www.w3.org/2000/svg">
<path d="M6 10C6 7.79086 7.79086 6 10 6H26C28.2091 6 30 7.79086 30 10V31.9378C30 34.1469 28.2091 35.9378 26 35.9378H10C7.79086 35.9378 6 34.1469 6 31.9378V10Z" fill="url(#paint0_linear_2035_30194)"/>
<path d="M16.4104 11.1472C17.4598 11.1472 18.3104 11.9978 18.3104 13.0472C18.3104 14.0965 17.4598 14.9472 16.4104 14.9472L11.439 14.9472C10.3897 14.9472 9.53903 14.0965 9.53903 13.0472C9.53903 11.9978 10.3897 11.1472 11.439 11.1472L16.4104 11.1472Z" fill="#BFB5FF" fill-opacity="0.75" stroke="url(#paint1_linear_2035_30194)" stroke-width="0.2"/>
<path d="M16.4104 19.0742C17.4598 19.0742 18.3104 19.9249 18.3104 20.9742C18.3104 22.0235 17.4598 22.8742 16.4104 22.8742L11.439 22.8742C10.3897 22.8742 9.53903 22.0235 9.53903 20.9742C9.53903 19.9249 10.3897 19.0742 11.439 19.0742L16.4104 19.0742Z" fill="#BFB5FF" fill-opacity="0.75" stroke="url(#paint2_linear_2035_30194)" stroke-width="0.2"/>
<path d="M16.2276 32.1789L16.1297 32.1585L16.2276 32.1789L17.9317 23.9942C18.0671 23.3443 18.3765 22.7435 18.8269 22.2558L29.6082 10.5835C30.2758 9.86078 31.4027 9.81606 32.1254 10.4836L37.6534 15.5896C38.3761 16.2571 38.4208 17.384 37.7533 18.1067L26.972 29.7791C26.5215 30.2667 25.9471 30.6228 25.3099 30.8092L17.2866 33.1571C16.6775 33.3353 16.0982 32.8002 16.2276 32.1789Z" fill="#BFB5FF" fill-opacity="0.75" stroke="url(#paint3_linear_2035_30194)" stroke-width="0.2"/>
<rect x="-0.14131" y="0.00560764" width="7.32526" height="1.68132" rx="0.840658" transform="matrix(-0.734589 -0.678512 -0.678513 0.734589 25.288 28.5564)" fill="url(#paint4_linear_2035_30194)" stroke="url(#paint5_linear_2035_30194)" stroke-width="0.2"/>
<defs>
<linearGradient id="paint0_linear_2035_30194" x1="12.9231" y1="12.5489" x2="32.0613" y2="17.825" gradientUnits="userSpaceOnUse">
<stop stop-color="#917FFB"/>
<stop offset="1" stop-color="#3F2DAF"/>
</linearGradient>
<linearGradient id="paint1_linear_2035_30194" x1="8.79821" y1="11.4108" x2="15.6571" y2="19.3536" gradientUnits="userSpaceOnUse">
<stop stop-color="white"/>
<stop offset="1" stop-color="white" stop-opacity="0"/>
</linearGradient>
<linearGradient id="paint2_linear_2035_30194" x1="8.79821" y1="19.3378" x2="15.6571" y2="27.2807" gradientUnits="userSpaceOnUse">
<stop stop-color="white"/>
<stop offset="1" stop-color="white" stop-opacity="0"/>
</linearGradient>
<linearGradient id="paint3_linear_2035_30194" x1="14.5223" y1="12.0363" x2="46.5716" y2="27.7602" gradientUnits="userSpaceOnUse">
<stop stop-color="white"/>
<stop offset="1" stop-color="white" stop-opacity="0"/>
</linearGradient>
<linearGradient id="paint4_linear_2035_30194" x1="4.93614" y1="1.75921" x2="4.88763" y2="0.107129" gradientUnits="userSpaceOnUse">
<stop stop-color="white" stop-opacity="0.9"/>
<stop offset="1" stop-color="white" stop-opacity="0.3"/>
</linearGradient>
<linearGradient id="paint5_linear_2035_30194" x1="-0.537519" y1="0.171029" x2="2.0204" y2="5.45391" gradientUnits="userSpaceOnUse">
<stop stop-color="white"/>
<stop offset="1" stop-color="white" stop-opacity="0"/>
</linearGradient>
</defs>
</svg>
