<svg width="40" height="40" viewBox="0 0 40 40" fill="none" xmlns="http://www.w3.org/2000/svg">
<path fill-rule="evenodd" clip-rule="evenodd" d="M8 4C5.79086 4 4 5.79086 4 8V30C4 32.2091 5.79086 34 8 34H27C29.2091 34 31 32.2091 31 30V8C31 5.79086 29.2091 4 27 4L8 4Z" fill="url(#paint0_linear_2315_33417)"/>
<path fill-rule="evenodd" clip-rule="evenodd" d="M8 4C5.79086 4 4 5.79086 4 8V30C4 32.2091 5.79086 34 8 34H27C29.2091 34 31 32.2091 31 30V8C31 5.79086 29.2091 4 27 4L8 4Z" fill="url(#paint1_linear_2315_33417)"/>
<path d="M9.1 12C9.1 9.84609 10.8461 8.1 13 8.1L31 8.1C33.1539 8.1 34.9 9.84609 34.9 12V32.5356C34.9 34.6895 33.1539 36.4356 31 36.4356H13C10.8461 36.4356 9.1 34.6895 9.1 32.5356V12Z" fill="#FFD983" fill-opacity="0.65" stroke="url(#paint2_linear_2315_33417)" stroke-width="0.2"/>
<path d="M13 16.9C12.5029 16.9 12.1 16.4971 12.1 16C12.1 15.5029 12.5029 15.1 13 15.1C13.4971 15.1 13.9 15.5029 13.9 16C13.9 16.4971 13.4971 16.9 13 16.9ZM13 20.9C12.5029 20.9 12.1 20.4971 12.1 20C12.1 19.5029 12.5029 19.1 13 19.1C13.4971 19.1 13.9 19.5029 13.9 20C13.9 20.4971 13.4971 20.9 13 20.9ZM13 24.9C12.5029 24.9 12.1 24.4971 12.1 24C12.1 23.5029 12.5029 23.1 13 23.1C13.4971 23.1 13.9 23.5029 13.9 24C13.9 24.4971 13.4971 24.9 13 24.9ZM13 28.9C12.5029 28.9 12.1 28.4971 12.1 28C12.1 27.5029 12.5029 27.1 13 27.1C13.4971 27.1 13.9 27.5029 13.9 28C13.9 28.4971 13.4971 28.9 13 28.9Z" fill="url(#paint3_linear_2315_33417)" stroke="url(#paint4_linear_2315_33417)" stroke-width="0.2"/>
<path d="M17 16.9C16.5029 16.9 16.1 16.4971 16.1 16C16.1 15.5035 16.5064 15.1 17.004 15.1L30.996 15.1C31.4936 15.1 31.9 15.5035 31.9 16C31.9 16.4971 31.4971 16.9 31 16.9L17 16.9ZM17 20.9C16.5029 20.9 16.1 20.4971 16.1 20C16.1 19.5035 16.5064 19.1 17.004 19.1L24 19.1L30.996 19.1C31.4936 19.1 31.9 19.5035 31.9 20C31.9 20.4971 31.4971 20.9 31 20.9L17 20.9ZM17 24.9C16.5029 24.9 16.1 24.4971 16.1 24C16.1 23.5035 16.5064 23.1 17.004 23.1L24 23.1L30.996 23.1C31.4936 23.1 31.9 23.5035 31.9 24C31.9 24.4971 31.4971 24.9 31 24.9L17 24.9ZM17 28.9C16.5029 28.9 16.1 28.4971 16.1 28C16.1 27.5035 16.5064 27.1 17.004 27.1L24 27.1L30.996 27.1C31.4936 27.1 31.9 27.5035 31.9 28C31.9 28.4971 31.4971 28.9 31 28.9L17 28.9Z" fill="url(#paint5_linear_2315_33417)" stroke="url(#paint6_linear_2315_33417)" stroke-width="0.2"/>
<defs>
<linearGradient id="paint0_linear_2315_33417" x1="11.7885" y1="11.2059" x2="33.2502" y2="17.2553" gradientUnits="userSpaceOnUse">
<stop stop-color="#FFD371"/>
<stop offset="1" stop-color="#FFB612"/>
</linearGradient>
<linearGradient id="paint1_linear_2315_33417" x1="11.7885" y1="11.2059" x2="33.2502" y2="17.2553" gradientUnits="userSpaceOnUse">
<stop stop-color="#FFD371"/>
<stop offset="1" stop-color="#FFB612"/>
</linearGradient>
<linearGradient id="paint2_linear_2315_33417" x1="7.14286" y1="10.5941" x2="45.2448" y2="28.5191" gradientUnits="userSpaceOnUse">
<stop stop-color="white"/>
<stop offset="1" stop-color="white" stop-opacity="0"/>
</linearGradient>
<linearGradient id="paint3_linear_2315_33417" x1="12" y1="28" x2="13.9801" y2="28.1987" gradientUnits="userSpaceOnUse">
<stop stop-color="white" stop-opacity="0.9"/>
<stop offset="1" stop-color="white" stop-opacity="0.3"/>
</linearGradient>
<linearGradient id="paint4_linear_2315_33417" x1="11.8571" y1="16.2727" x2="15.4174" y2="16.5353" gradientUnits="userSpaceOnUse">
<stop stop-color="white"/>
<stop offset="1" stop-color="white" stop-opacity="0"/>
</linearGradient>
<linearGradient id="paint5_linear_2315_33417" x1="16" y1="28" x2="25.7283" y2="35.8111" gradientUnits="userSpaceOnUse">
<stop stop-color="white" stop-opacity="0.9"/>
<stop offset="1" stop-color="white" stop-opacity="0.3"/>
</linearGradient>
<linearGradient id="paint6_linear_2315_33417" x1="14.8571" y1="16.2727" x2="36.0978" y2="28.8066" gradientUnits="userSpaceOnUse">
<stop stop-color="white"/>
<stop offset="1" stop-color="white" stop-opacity="0"/>
</linearGradient>
</defs>
</svg>
