<svg width="48" height="48" viewBox="0 0 48 48" fill="none" xmlns="http://www.w3.org/2000/svg">
<path fill-rule="evenodd" clip-rule="evenodd" d="M8.79999 4.80005C6.59085 4.80005 4.79999 6.59091 4.79999 8.80005V36.8C4.79999 39.0092 6.59085 40.8 8.79999 40.8H33.2C35.4091 40.8 37.2 39.0092 37.2 36.8V8.80005C37.2 6.59091 35.4091 4.80005 33.2 4.80005L8.79999 4.80005Z" fill="url(#paint0_linear_1827_2772)"/>
<path fill-rule="evenodd" clip-rule="evenodd" d="M8.79999 4.80005C6.59085 4.80005 4.79999 6.59091 4.79999 8.80005V36.8C4.79999 39.0092 6.59085 40.8 8.79999 40.8H33.2C35.4091 40.8 37.2 39.0092 37.2 36.8V8.80005C37.2 6.59091 35.4091 4.80005 33.2 4.80005L8.79999 4.80005Z" fill="url(#paint1_linear_1827_2772)"/>
<path fill-rule="evenodd" clip-rule="evenodd" d="M14.8 9.59998C12.5908 9.59998 10.8 11.3908 10.8 13.6V39.8426C10.8 42.0518 12.5908 43.8426 14.8 43.8426H38C40.2091 43.8426 42 42.0518 42 39.8426V13.6C42 11.3908 40.2091 9.59998 38 9.59998L14.8 9.59998Z" fill="#6AE092" fill-opacity="0.75"/>
<path fill-rule="evenodd" clip-rule="evenodd" d="M14.8 9.59998C12.5908 9.59998 10.8 11.3908 10.8 13.6V39.8426C10.8 42.0518 12.5908 43.8426 14.8 43.8426H38C40.2091 43.8426 42 42.0518 42 39.8426V13.6C42 11.3908 40.2091 9.59998 38 9.59998L14.8 9.59998Z" fill="#6AE092" fill-opacity="0.75"/>
<path d="M42 13.6V39.8426C42 42.0518 40.2091 43.8426 38 43.8426H14.8C12.5908 43.8426 10.8 42.0518 10.8 39.8426V13.6C10.8 11.3908 12.5908 9.59998 14.8 9.59998L38 9.59998C40.2091 9.59998 42 11.3908 42 13.6Z" stroke="url(#paint2_linear_1827_2772)" stroke-width="0.2"/>
<path d="M15.6 18.1C14.9925 18.1 14.5 18.5925 14.5 19.2C14.5 19.8075 14.9925 20.3 15.6 20.3C16.2075 20.3 16.7 19.8075 16.7 19.2C16.7 18.5925 16.2075 18.1 15.6 18.1Z" fill="url(#paint3_linear_1827_2772)" stroke="url(#paint4_linear_1827_2772)" stroke-width="0.2"/>
<path d="M15.6 22.9C14.9925 22.9 14.5 23.3924 14.5 24C14.5 24.6075 14.9925 25.1 15.6 25.1C16.2075 25.1 16.7 24.6075 16.7 24C16.7 23.3924 16.2075 22.9 15.6 22.9Z" fill="url(#paint5_linear_1827_2772)" stroke="url(#paint6_linear_1827_2772)" stroke-width="0.2"/>
<path d="M15.6 27.7C14.9925 27.7 14.5 28.1925 14.5 28.8C14.5 29.4075 14.9925 29.9 15.6 29.9C16.2075 29.9 16.7 29.4075 16.7 28.8C16.7 28.1925 16.2075 27.7 15.6 27.7Z" fill="url(#paint7_linear_1827_2772)" stroke="url(#paint8_linear_1827_2772)" stroke-width="0.2"/>
<path d="M15.6 32.5C14.9925 32.5 14.5 32.9925 14.5 33.6C14.5 34.2076 14.9925 34.7 15.6 34.7C16.2075 34.7 16.7 34.2076 16.7 33.6C16.7 32.9925 16.2075 32.5 15.6 32.5Z" fill="url(#paint9_linear_1827_2772)" stroke="url(#paint10_linear_1827_2772)" stroke-width="0.2"/>
<path d="M20.4 20.3L37.2 20.3C37.8075 20.3 38.3 19.8075 38.3 19.2C38.3 18.593 37.8033 18.1 37.1952 18.1L37.1521 18.1L37.109 18.1L37.0661 18.1L37.0233 18.1L36.9806 18.1L36.9381 18.1L36.8956 18.1L36.8533 18.1L36.8111 18.1L36.769 18.1L36.7271 18.1L36.6852 18.1L36.6435 18.1L36.6019 18.1L36.5604 18.1L36.519 18.1L36.4777 18.1L36.4366 18.1L36.3955 18.1L36.3546 18.1L36.3138 18.1L36.2731 18.1L36.2325 18.1L36.192 18.1L36.1516 18.1L36.1114 18.1L36.0712 18.1L36.0312 18.1L35.9912 18.1L35.9514 18.1L35.9117 18.1L35.8721 18.1L35.8326 18.1L35.7932 18.1L35.7539 18.1L35.7147 18.1L35.6756 18.1L35.6366 18.1L35.5978 18.1L35.559 18.1L35.5203 18.1L35.4818 18.1L35.4433 18.1L35.405 18.1L35.3667 18.1L35.3285 18.1L35.2905 18.1L35.2525 18.1L35.2147 18.1L35.1769 18.1L35.1393 18.1L35.1017 18.1L35.0642 18.1L35.0269 18.1L34.9896 18.1L34.9524 18.1L34.9153 18.1L34.8783 18.1L34.8415 18.1L34.8047 18.1L34.768 18.1L34.7314 18.1L34.6948 18.1L34.6584 18.1L34.6221 18.1L34.5858 18.1L34.5497 18.1L34.5136 18.1L34.4777 18.1L34.4418 18.1L34.406 18.1L34.3703 18.1L34.3347 18.1L34.2991 18.1L34.2637 18.1L34.2283 18.1L34.1931 18.1L34.1579 18.1L34.1228 18.1L34.0878 18.1L34.0528 18.1L34.018 18.1L33.9832 18.1L33.9485 18.1L33.9139 18.1L33.8794 18.1L33.845 18.1L33.8106 18.1L33.7763 18.1L33.7421 18.1L33.708 18.1L33.674 18.1L33.64 18.1L33.6061 18.1L33.5723 18.1L33.5386 18.1L33.505 18.1L33.4714 18.1L33.4379 18.1L33.4045 18.1L33.3711 18.1L33.3378 18.1L33.3046 18.1L33.2715 18.1L33.2384 18.1L33.2054 18.1L33.1725 18.1L33.1397 18.1L33.1069 18.1L33.0742 18.1L33.0416 18.1L33.009 18.1L32.9765 18.1L32.9441 18.1L32.9117 18.1L32.8794 18.1L32.8472 18.1L32.8151 18.1L32.783 18.1L32.7509 18.1L32.719 18.1L32.6871 18.1L32.6553 18.1L32.6235 18.1L32.5918 18.1L32.5601 18.1L32.5285 18.1L32.497 18.1L32.4656 18.1L32.4342 18.1L32.4028 18.1L32.3716 18.1L32.3403 18.1L32.3092 18.1L32.2781 18.1L32.247 18.1L32.216 18.1L32.1851 18.1L32.1542 18.1L32.1234 18.1L32.0926 18.1L32.0619 18.1L32.0313 18.1L32.0007 18.1L31.9701 18.1L31.9396 18.1L31.9092 18.1L31.8788 18.1L31.8485 18.1L31.8182 18.1L31.7879 18.1L31.7578 18.1L31.7276 18.1L31.6975 18.1L31.6675 18.1L31.6375 18.1L31.6076 18.1L31.5777 18.1L31.5478 18.1L31.518 18.1L31.4883 18.1L31.4586 18.1L31.4289 18.1L31.3993 18.1L31.3697 18.1L31.3402 18.1L31.3107 18.1L31.2812 18.1L31.2518 18.1L31.2224 18.1L31.1931 18.1L31.1638 18.1L31.1346 18.1L31.1054 18.1L31.0762 18.1L31.0471 18.1L31.018 18.1L30.989 18.1L30.9599 18.1L30.931 18.1L30.902 18.1L30.8731 18.1L30.8443 18.1L30.8154 18.1L30.7866 18.1L30.7579 18.1L30.7291 18.1L30.7004 18.1L30.6718 18.1L30.6431 18.1L30.6145 18.1L30.5859 18.1L30.5574 18.1L30.5289 18.1L30.5004 18.1L30.472 18.1L30.4435 18.1L30.4151 18.1L30.3868 18.1L30.3584 18.1L30.3301 18.1L30.3018 18.1L30.2736 18.1L30.2453 18.1L30.2171 18.1L30.1889 18.1L30.1608 18.1L30.1326 18.1L30.1045 18.1L30.0764 18.1L30.0483 18.1L30.0203 18.1L29.9922 18.1L29.9642 18.1L29.9362 18.1L29.9083 18.1L29.8803 18.1L29.8524 18.1L29.8245 18.1L29.7966 18.1L29.7687 18.1L29.7408 18.1L29.713 18.1L29.6852 18.1L29.6573 18.1L29.6295 18.1L29.6018 18.1L29.574 18.1L29.5462 18.1L29.5185 18.1L29.4907 18.1L29.463 18.1L29.4353 18.1L29.4076 18.1L29.3799 18.1L29.3522 18.1L29.3246 18.1L29.2969 18.1L29.2693 18.1L29.2416 18.1L29.214 18.1L29.1863 18.1L29.1587 18.1L29.1311 18.1L29.1035 18.1L29.0759 18.1L29.0483 18.1L29.0207 18.1L28.9931 18.1L28.9655 18.1L28.9379 18.1L28.9103 18.1L28.8828 18.1L28.8552 18.1L28.8276 18.1L28.8 18.1L28.7724 18.1L28.7449 18.1L28.7173 18.1L28.6897 18.1L28.6621 18.1L28.6345 18.1L28.6069 18.1L28.5793 18.1L28.5517 18.1L28.5241 18.1L28.4965 18.1L28.4689 18.1L28.4413 18.1L28.4137 18.1L28.3861 18.1L28.3584 18.1L28.3308 18.1L28.3031 18.1L28.2755 18.1L28.2478 18.1L28.2201 18.1L28.1924 18.1L28.1647 18.1L28.137 18.1L28.1093 18.1L28.0816 18.1L28.0538 18.1L28.026 18.1L27.9983 18.1L27.9705 18.1L27.9427 18.1L27.9149 18.1L27.887 18.1L27.8592 18.1L27.8313 18.1L27.8034 18.1L27.7755 18.1L27.7476 18.1L27.7197 18.1L27.6917 18.1L27.6638 18.1L27.6358 18.1L27.6078 18.1L27.5797 18.1L27.5517 18.1L27.5236 18.1L27.4955 18.1L27.4674 18.1L27.4393 18.1L27.4111 18.1L27.3829 18.1L27.3547 18.1L27.3265 18.1L27.2982 18.1L27.2699 18.1L27.2416 18.1L27.2133 18.1L27.1849 18.1L27.1565 18.1L27.1281 18.1L27.0996 18.1L27.0711 18.1L27.0426 18.1L27.0141 18.1L26.9855 18.1L26.9569 18.1L26.9283 18.1L26.8996 18.1L26.8709 18.1L26.8422 18.1L26.8134 18.1L26.7846 18.1L26.7558 18.1L26.7269 18.1L26.698 18.1L26.6691 18.1L26.6401 18.1L26.6111 18.1L26.582 18.1L26.5529 18.1L26.5238 18.1L26.4946 18.1L26.4654 18.1L26.4362 18.1L26.4069 18.1L26.3776 18.1L26.3482 18.1L26.3188 18.1L26.2894 18.1L26.2599 18.1L26.2303 18.1L26.2008 18.1L26.1711 18.1L26.1415 18.1L26.1118 18.1L26.082 18.1L26.0522 18.1L26.0224 18.1L25.9925 18.1L25.9625 18.1L25.9325 18.1L25.9025 18.1L25.8724 18.1L25.8423 18.1L25.8121 18.1L25.7818 18.1L25.7516 18.1L25.7212 18.1L25.6908 18.1L25.6604 18.1L25.6299 18.1L25.5993 18.1L25.5687 18.1L25.5381 18.1L25.5074 18.1L25.4766 18.1L25.4458 18.1L25.4149 18.1L25.384 18.1L25.353 18.1L25.322 18.1L25.2909 18.1L25.2597 18.1L25.2285 18.1L25.1972 18.1L25.1659 18.1L25.1345 18.1L25.103 18.1L25.0715 18.1L25.0399 18.1L25.0082 18.1L24.9765 18.1L24.9448 18.1L24.9129 18.1L24.881 18.1L24.8491 18.1L24.8171 18.1L24.785 18.1L24.7528 18.1L24.7206 18.1L24.6883 18.1L24.6559 18.1L24.6235 18.1L24.591 18.1L24.5584 18.1L24.5258 18.1L24.4931 18.1L24.4603 18.1L24.4275 18.1L24.3946 18.1L24.3616 18.1L24.3285 18.1L24.2954 18.1L24.2622 18.1L24.2289 18.1L24.1956 18.1L24.1621 18.1L24.1286 18.1L24.0951 18.1L24.0614 18.1L24.0277 18.1L23.9939 18.1L23.96 18.1L23.926 18.1L23.892 18.1L23.8579 18.1L23.8237 18.1L23.7894 18.1L23.7551 18.1L23.7206 18.1L23.6861 18.1L23.6515 18.1L23.6168 18.1L23.582 18.1L23.5472 18.1L23.5123 18.1L23.4773 18.1L23.4422 18.1L23.407 18.1L23.3717 18.1L23.3363 18.1L23.3009 18.1L23.2654 18.1L23.2298 18.1L23.194 18.1L23.1583 18.1L23.1224 18.1L23.0864 18.1L23.0503 18.1L23.0142 18.1L22.9779 18.1L22.9416 18.1L22.9052 18.1L22.8687 18.1L22.8321 18.1L22.7954 18.1L22.7586 18.1L22.7217 18.1L22.6847 18.1L22.6476 18.1L22.6104 18.1L22.5732 18.1L22.5358 18.1L22.4983 18.1L22.4608 18.1L22.4231 18.1L22.3854 18.1L22.3475 18.1L22.3095 18.1L22.2715 18.1L22.2333 18.1L22.1951 18.1L22.1567 18.1L22.1182 18.1L22.0797 18.1L22.041 18.1L22.0023 18.1L21.9634 18.1L21.9244 18.1L21.8853 18.1L21.8461 18.1L21.8069 18.1L21.7675 18.1L21.728 18.1L21.6883 18.1L21.6486 18.1L21.6088 18.1L21.5689 18.1L21.5288 18.1L21.4887 18.1L21.4484 18.1L21.408 18.1L21.3676 18.1L21.327 18.1L21.2863 18.1L21.2454 18.1L21.2045 18.1L21.1635 18.1L21.1223 18.1L21.081 18.1L21.0396 18.1L20.9981 18.1L20.9565 18.1L20.9148 18.1L20.8729 18.1L20.831 18.1L20.7889 18.1L20.7467 18.1L20.7044 18.1L20.6619 18.1L20.6194 18.1L20.5767 18.1L20.5339 18.1L20.491 18.1L20.4479 18.1L20.4048 18.1C19.7968 18.1 19.3 18.593 19.3 19.2C19.3 19.8075 19.7925 20.3 20.4 20.3Z" fill="url(#paint11_linear_1827_2772)" stroke="url(#paint12_linear_1827_2772)" stroke-width="0.2"/>
<path d="M20.4 25.1L37.2 25.1C37.8075 25.1 38.3 24.6075 38.3 24C38.3 23.393 37.8033 22.9 37.1952 22.9L37.1521 22.9L37.109 22.9L37.0661 22.9L37.0233 22.9L36.9806 22.9L36.9381 22.9L36.8956 22.9L36.8533 22.9L36.8111 22.9L36.769 22.9L36.7271 22.9L36.6852 22.9L36.6435 22.9L36.6019 22.9L36.5604 22.9L36.519 22.9L36.4777 22.9L36.4366 22.9L36.3955 22.9L36.3546 22.9L36.3138 22.9L36.2731 22.9L36.2325 22.9L36.192 22.9L36.1516 22.9L36.1114 22.9L36.0712 22.9L36.0312 22.9L35.9912 22.9L35.9514 22.9L35.9117 22.9L35.8721 22.9L35.8326 22.9L35.7932 22.9L35.7539 22.9L35.7147 22.9L35.6756 22.9L35.6366 22.9L35.5978 22.9L35.559 22.9L35.5203 22.9L35.4818 22.9L35.4433 22.9L35.405 22.9L35.3667 22.9L35.3285 22.9L35.2905 22.9L35.2525 22.9L35.2147 22.9L35.1769 22.9L35.1393 22.9L35.1017 22.9L35.0642 22.9L35.0269 22.9L34.9896 22.9L34.9524 22.9L34.9153 22.9L34.8783 22.9L34.8415 22.9L34.8047 22.9L34.768 22.9L34.7314 22.9L34.6948 22.9L34.6584 22.9L34.6221 22.9L34.5858 22.9L34.5497 22.9L34.5136 22.9L34.4777 22.9L34.4418 22.9L34.406 22.9L34.3703 22.9L34.3347 22.9L34.2991 22.9L34.2637 22.9L34.2283 22.9L34.1931 22.9L34.1579 22.9L34.1228 22.9L34.0878 22.9L34.0528 22.9L34.018 22.9L33.9832 22.9L33.9485 22.9L33.9139 22.9L33.8794 22.9L33.845 22.9L33.8106 22.9L33.7763 22.9L33.7421 22.9L33.708 22.9L33.674 22.9L33.64 22.9L33.6061 22.9L33.5723 22.9L33.5386 22.9L33.505 22.9L33.4714 22.9L33.4379 22.9L33.4045 22.9L33.3711 22.9L33.3378 22.9L33.3046 22.9L33.2715 22.9L33.2384 22.9L33.2054 22.9L33.1725 22.9L33.1397 22.9L33.1069 22.9L33.0742 22.9L33.0416 22.9L33.009 22.9L32.9765 22.9L32.9441 22.9L32.9117 22.9L32.8794 22.9L32.8472 22.9L32.8151 22.9L32.783 22.9L32.7509 22.9L32.719 22.9L32.6871 22.9L32.6553 22.9L32.6235 22.9L32.5918 22.9L32.5601 22.9L32.5285 22.9L32.497 22.9L32.4656 22.9L32.4342 22.9L32.4028 22.9L32.3716 22.9L32.3403 22.9L32.3092 22.9L32.2781 22.9L32.247 22.9L32.216 22.9L32.1851 22.9L32.1542 22.9L32.1234 22.9L32.0926 22.9L32.0619 22.9L32.0313 22.9L32.0007 22.9L31.9701 22.9L31.9396 22.9L31.9092 22.9L31.8788 22.9L31.8485 22.9L31.8182 22.9L31.7879 22.9L31.7578 22.9L31.7276 22.9L31.6975 22.9L31.6675 22.9L31.6375 22.9L31.6076 22.9L31.5777 22.9L31.5478 22.9L31.518 22.9L31.4883 22.9L31.4586 22.9L31.4289 22.9L31.3993 22.9L31.3697 22.9L31.3402 22.9L31.3107 22.9L31.2812 22.9L31.2518 22.9L31.2224 22.9L31.1931 22.9L31.1638 22.9L31.1346 22.9L31.1054 22.9L31.0762 22.9L31.0471 22.9L31.018 22.9L30.989 22.9L30.9599 22.9L30.931 22.9L30.902 22.9L30.8731 22.9L30.8443 22.9L30.8154 22.9L30.7866 22.9L30.7579 22.9L30.7291 22.9L30.7004 22.9L30.6718 22.9L30.6431 22.9L30.6145 22.9L30.5859 22.9L30.5574 22.9L30.5289 22.9L30.5004 22.9L30.472 22.9L30.4435 22.9L30.4151 22.9L30.3868 22.9L30.3584 22.9L30.3301 22.9L30.3018 22.9L30.2736 22.9L30.2453 22.9L30.2171 22.9L30.1889 22.9L30.1608 22.9L30.1326 22.9L30.1045 22.9L30.0764 22.9L30.0483 22.9L30.0203 22.9L29.9922 22.9L29.9642 22.9L29.9362 22.9L29.9083 22.9L29.8803 22.9L29.8524 22.9L29.8245 22.9L29.7966 22.9L29.7687 22.9L29.7408 22.9L29.713 22.9L29.6852 22.9L29.6573 22.9L29.6295 22.9L29.6018 22.9L29.574 22.9L29.5462 22.9L29.5185 22.9L29.4907 22.9L29.463 22.9L29.4353 22.9L29.4076 22.9L29.3799 22.9L29.3522 22.9L29.3246 22.9L29.2969 22.9L29.2693 22.9L29.2416 22.9L29.214 22.9L29.1863 22.9L29.1587 22.9L29.1311 22.9L29.1035 22.9L29.0759 22.9L29.0483 22.9L29.0207 22.9L28.9931 22.9L28.9655 22.9L28.9379 22.9L28.9103 22.9L28.8828 22.9L28.8552 22.9L28.8276 22.9L28.8 22.9L28.7724 22.9L28.7449 22.9L28.7173 22.9L28.6897 22.9L28.6621 22.9L28.6345 22.9L28.6069 22.9L28.5793 22.9L28.5517 22.9L28.5241 22.9L28.4965 22.9L28.4689 22.9L28.4413 22.9L28.4137 22.9L28.3861 22.9L28.3584 22.9L28.3308 22.9L28.3031 22.9L28.2755 22.9L28.2478 22.9L28.2201 22.9L28.1924 22.9L28.1647 22.9L28.137 22.9L28.1093 22.9L28.0816 22.9L28.0538 22.9L28.026 22.9L27.9983 22.9L27.9705 22.9L27.9427 22.9L27.9149 22.9L27.887 22.9L27.8592 22.9L27.8313 22.9L27.8034 22.9L27.7755 22.9L27.7476 22.9L27.7197 22.9L27.6917 22.9L27.6638 22.9L27.6358 22.9L27.6078 22.9L27.5797 22.9L27.5517 22.9L27.5236 22.9L27.4955 22.9L27.4674 22.9L27.4393 22.9L27.4111 22.9L27.3829 22.9L27.3547 22.9L27.3265 22.9L27.2982 22.9L27.2699 22.9L27.2416 22.9L27.2133 22.9L27.1849 22.9L27.1565 22.9L27.1281 22.9L27.0996 22.9L27.0711 22.9L27.0426 22.9L27.0141 22.9L26.9855 22.9L26.9569 22.9L26.9283 22.9L26.8996 22.9L26.8709 22.9L26.8422 22.9L26.8134 22.9L26.7846 22.9L26.7558 22.9L26.7269 22.9L26.698 22.9L26.6691 22.9L26.6401 22.9L26.6111 22.9L26.582 22.9L26.5529 22.9L26.5238 22.9L26.4946 22.9L26.4654 22.9L26.4362 22.9L26.4069 22.9L26.3776 22.9L26.3482 22.9L26.3188 22.9L26.2894 22.9L26.2599 22.9L26.2303 22.9L26.2008 22.9L26.1711 22.9L26.1415 22.9L26.1118 22.9L26.082 22.9L26.0522 22.9L26.0224 22.9L25.9925 22.9L25.9625 22.9L25.9325 22.9L25.9025 22.9L25.8724 22.9L25.8423 22.9L25.8121 22.9L25.7818 22.9L25.7516 22.9L25.7212 22.9L25.6908 22.9L25.6604 22.9L25.6299 22.9L25.5993 22.9L25.5687 22.9L25.5381 22.9L25.5074 22.9L25.4766 22.9L25.4458 22.9L25.4149 22.9L25.384 22.9L25.353 22.9L25.322 22.9L25.2909 22.9L25.2597 22.9L25.2285 22.9L25.1972 22.9L25.1659 22.9L25.1345 22.9L25.103 22.9L25.0715 22.9L25.0399 22.9L25.0082 22.9L24.9765 22.9L24.9448 22.9L24.9129 22.9L24.881 22.9L24.8491 22.9L24.8171 22.9L24.785 22.9L24.7528 22.9L24.7206 22.9L24.6883 22.9L24.6559 22.9L24.6235 22.9L24.591 22.9L24.5584 22.9L24.5258 22.9L24.4931 22.9L24.4603 22.9L24.4275 22.9L24.3946 22.9L24.3616 22.9L24.3285 22.9L24.2954 22.9L24.2622 22.9L24.2289 22.9L24.1956 22.9L24.1621 22.9L24.1286 22.9L24.0951 22.9L24.0614 22.9L24.0277 22.9L23.9939 22.9L23.96 22.9L23.926 22.9L23.892 22.9L23.8579 22.9L23.8237 22.9L23.7894 22.9L23.7551 22.9L23.7206 22.9L23.6861 22.9L23.6515 22.9L23.6168 22.9L23.582 22.9L23.5472 22.9L23.5123 22.9L23.4773 22.9L23.4422 22.9L23.407 22.9L23.3717 22.9L23.3363 22.9L23.3009 22.9L23.2654 22.9L23.2298 22.9L23.194 22.9L23.1583 22.9L23.1224 22.9L23.0864 22.9L23.0503 22.9L23.0142 22.9L22.9779 22.9L22.9416 22.9L22.9052 22.9L22.8687 22.9L22.8321 22.9L22.7954 22.9L22.7586 22.9L22.7217 22.9L22.6847 22.9L22.6476 22.9L22.6104 22.9L22.5732 22.9L22.5358 22.9L22.4983 22.9L22.4608 22.9L22.4231 22.9L22.3854 22.9L22.3475 22.9L22.3095 22.9L22.2715 22.9L22.2333 22.9L22.1951 22.9L22.1567 22.9L22.1182 22.9L22.0797 22.9L22.041 22.9L22.0023 22.9L21.9634 22.9L21.9244 22.9L21.8853 22.9L21.8461 22.9L21.8069 22.9L21.7675 22.9L21.728 22.9L21.6883 22.9L21.6486 22.9L21.6088 22.9L21.5689 22.9L21.5288 22.9L21.4887 22.9L21.4484 22.9L21.408 22.9L21.3676 22.9L21.327 22.9L21.2863 22.9L21.2454 22.9L21.2045 22.9L21.1635 22.9L21.1223 22.9L21.081 22.9L21.0396 22.9L20.9981 22.9L20.9565 22.9L20.9148 22.9L20.8729 22.9L20.831 22.9L20.7889 22.9L20.7467 22.9L20.7044 22.9L20.6619 22.9L20.6194 22.9L20.5767 22.9L20.5339 22.9L20.491 22.9L20.4479 22.9L20.4048 22.9C19.7968 22.9 19.3 23.393 19.3 24C19.3 24.6075 19.7925 25.1 20.4 25.1Z" fill="url(#paint13_linear_1827_2772)" stroke="url(#paint14_linear_1827_2772)" stroke-width="0.2"/>
<path d="M20.4 29.9L37.2 29.9C37.8075 29.9 38.3 29.4075 38.3 28.8C38.3 28.193 37.8033 27.7 37.1952 27.7L37.1521 27.7L37.109 27.7L37.0661 27.7L37.0233 27.7L36.9806 27.7L36.9381 27.7L36.8956 27.7L36.8533 27.7L36.8111 27.7L36.769 27.7L36.7271 27.7L36.6852 27.7L36.6435 27.7L36.6019 27.7L36.5604 27.7L36.519 27.7L36.4777 27.7L36.4366 27.7L36.3955 27.7L36.3546 27.7L36.3138 27.7L36.2731 27.7L36.2325 27.7L36.192 27.7L36.1516 27.7L36.1114 27.7L36.0712 27.7L36.0312 27.7L35.9912 27.7L35.9514 27.7L35.9117 27.7L35.8721 27.7L35.8326 27.7L35.7932 27.7L35.7539 27.7L35.7147 27.7L35.6756 27.7L35.6366 27.7L35.5978 27.7L35.559 27.7L35.5203 27.7L35.4818 27.7L35.4433 27.7L35.405 27.7L35.3667 27.7L35.3285 27.7L35.2905 27.7L35.2525 27.7L35.2147 27.7L35.1769 27.7L35.1393 27.7L35.1017 27.7L35.0642 27.7L35.0269 27.7L34.9896 27.7L34.9524 27.7L34.9153 27.7L34.8783 27.7L34.8415 27.7L34.8047 27.7L34.768 27.7L34.7314 27.7L34.6948 27.7L34.6584 27.7L34.6221 27.7L34.5858 27.7L34.5497 27.7L34.5136 27.7L34.4777 27.7L34.4418 27.7L34.406 27.7L34.3703 27.7L34.3347 27.7L34.2991 27.7L34.2637 27.7L34.2283 27.7L34.1931 27.7L34.1579 27.7L34.1228 27.7L34.0878 27.7L34.0528 27.7L34.018 27.7L33.9832 27.7L33.9485 27.7L33.9139 27.7L33.8794 27.7L33.845 27.7L33.8106 27.7L33.7763 27.7L33.7421 27.7L33.708 27.7L33.674 27.7L33.64 27.7L33.6061 27.7L33.5723 27.7L33.5386 27.7L33.505 27.7L33.4714 27.7L33.4379 27.7L33.4045 27.7L33.3711 27.7L33.3378 27.7L33.3046 27.7L33.2715 27.7L33.2384 27.7L33.2054 27.7L33.1725 27.7L33.1397 27.7L33.1069 27.7L33.0742 27.7L33.0416 27.7L33.009 27.7L32.9765 27.7L32.9441 27.7L32.9117 27.7L32.8794 27.7L32.8472 27.7L32.8151 27.7L32.783 27.7L32.7509 27.7L32.719 27.7L32.6871 27.7L32.6553 27.7L32.6235 27.7L32.5918 27.7L32.5601 27.7L32.5285 27.7L32.497 27.7L32.4656 27.7L32.4342 27.7L32.4028 27.7L32.3716 27.7L32.3403 27.7L32.3092 27.7L32.2781 27.7L32.247 27.7L32.216 27.7L32.1851 27.7L32.1542 27.7L32.1234 27.7L32.0926 27.7L32.0619 27.7L32.0313 27.7L32.0007 27.7L31.9701 27.7L31.9396 27.7L31.9092 27.7L31.8788 27.7L31.8485 27.7L31.8182 27.7L31.7879 27.7L31.7578 27.7L31.7276 27.7L31.6975 27.7L31.6675 27.7L31.6375 27.7L31.6076 27.7L31.5777 27.7L31.5478 27.7L31.518 27.7L31.4883 27.7L31.4586 27.7L31.4289 27.7L31.3993 27.7L31.3697 27.7L31.3402 27.7L31.3107 27.7L31.2812 27.7L31.2518 27.7L31.2224 27.7L31.1931 27.7L31.1638 27.7L31.1346 27.7L31.1054 27.7L31.0762 27.7L31.0471 27.7L31.018 27.7L30.989 27.7L30.9599 27.7L30.931 27.7L30.902 27.7L30.8731 27.7L30.8443 27.7L30.8154 27.7L30.7866 27.7L30.7579 27.7L30.7291 27.7L30.7004 27.7L30.6718 27.7L30.6431 27.7L30.6145 27.7L30.5859 27.7L30.5574 27.7L30.5289 27.7L30.5004 27.7L30.472 27.7L30.4435 27.7L30.4151 27.7L30.3868 27.7L30.3584 27.7L30.3301 27.7L30.3018 27.7L30.2736 27.7L30.2453 27.7L30.2171 27.7L30.1889 27.7L30.1608 27.7L30.1326 27.7L30.1045 27.7L30.0764 27.7L30.0483 27.7L30.0203 27.7L29.9922 27.7L29.9642 27.7L29.9362 27.7L29.9083 27.7L29.8803 27.7L29.8524 27.7L29.8245 27.7L29.7966 27.7L29.7687 27.7L29.7408 27.7L29.713 27.7L29.6852 27.7L29.6573 27.7L29.6295 27.7L29.6018 27.7L29.574 27.7L29.5462 27.7L29.5185 27.7L29.4907 27.7L29.463 27.7L29.4353 27.7L29.4076 27.7L29.3799 27.7L29.3522 27.7L29.3246 27.7L29.2969 27.7L29.2693 27.7L29.2416 27.7L29.214 27.7L29.1863 27.7L29.1587 27.7L29.1311 27.7L29.1035 27.7L29.0759 27.7L29.0483 27.7L29.0207 27.7L28.9931 27.7L28.9655 27.7L28.9379 27.7L28.9103 27.7L28.8828 27.7L28.8552 27.7L28.8276 27.7L28.8 27.7L28.7724 27.7L28.7449 27.7L28.7173 27.7L28.6897 27.7L28.6621 27.7L28.6345 27.7L28.6069 27.7L28.5793 27.7L28.5517 27.7L28.5241 27.7L28.4965 27.7L28.4689 27.7L28.4413 27.7L28.4137 27.7L28.3861 27.7L28.3584 27.7L28.3308 27.7L28.3031 27.7L28.2755 27.7L28.2478 27.7L28.2201 27.7L28.1924 27.7L28.1647 27.7L28.137 27.7L28.1093 27.7L28.0816 27.7L28.0538 27.7L28.026 27.7L27.9983 27.7L27.9705 27.7L27.9427 27.7L27.9149 27.7L27.887 27.7L27.8592 27.7L27.8313 27.7L27.8034 27.7L27.7755 27.7L27.7476 27.7L27.7197 27.7L27.6917 27.7L27.6638 27.7L27.6358 27.7L27.6078 27.7L27.5797 27.7L27.5517 27.7L27.5236 27.7L27.4955 27.7L27.4674 27.7L27.4393 27.7L27.4111 27.7L27.3829 27.7L27.3547 27.7L27.3265 27.7L27.2982 27.7L27.2699 27.7L27.2416 27.7L27.2133 27.7L27.1849 27.7L27.1565 27.7L27.1281 27.7L27.0996 27.7L27.0711 27.7L27.0426 27.7L27.0141 27.7L26.9855 27.7L26.9569 27.7L26.9283 27.7L26.8996 27.7L26.8709 27.7L26.8422 27.7L26.8134 27.7L26.7846 27.7L26.7558 27.7L26.7269 27.7L26.698 27.7L26.6691 27.7L26.6401 27.7L26.6111 27.7L26.582 27.7L26.5529 27.7L26.5238 27.7L26.4946 27.7L26.4654 27.7L26.4362 27.7L26.4069 27.7L26.3776 27.7L26.3482 27.7L26.3188 27.7L26.2894 27.7L26.2599 27.7L26.2303 27.7L26.2008 27.7L26.1711 27.7L26.1415 27.7L26.1118 27.7L26.082 27.7L26.0522 27.7L26.0224 27.7L25.9925 27.7L25.9625 27.7L25.9325 27.7L25.9025 27.7L25.8724 27.7L25.8423 27.7L25.8121 27.7L25.7818 27.7L25.7516 27.7L25.7212 27.7L25.6908 27.7L25.6604 27.7L25.6299 27.7L25.5993 27.7L25.5687 27.7L25.5381 27.7L25.5074 27.7L25.4766 27.7L25.4458 27.7L25.4149 27.7L25.384 27.7L25.353 27.7L25.322 27.7L25.2909 27.7L25.2597 27.7L25.2285 27.7L25.1972 27.7L25.1659 27.7L25.1345 27.7L25.103 27.7L25.0715 27.7L25.0399 27.7L25.0082 27.7L24.9765 27.7L24.9448 27.7L24.9129 27.7L24.881 27.7L24.8491 27.7L24.8171 27.7L24.785 27.7L24.7528 27.7L24.7206 27.7L24.6883 27.7L24.6559 27.7L24.6235 27.7L24.591 27.7L24.5584 27.7L24.5258 27.7L24.4931 27.7L24.4603 27.7L24.4275 27.7L24.3946 27.7L24.3616 27.7L24.3285 27.7L24.2954 27.7L24.2622 27.7L24.2289 27.7L24.1956 27.7L24.1621 27.7L24.1286 27.7L24.0951 27.7L24.0614 27.7L24.0277 27.7L23.9939 27.7L23.96 27.7L23.926 27.7L23.892 27.7L23.8579 27.7L23.8237 27.7L23.7894 27.7L23.7551 27.7L23.7206 27.7L23.6861 27.7L23.6515 27.7L23.6168 27.7L23.582 27.7L23.5472 27.7L23.5123 27.7L23.4773 27.7L23.4422 27.7L23.407 27.7L23.3717 27.7L23.3363 27.7L23.3009 27.7L23.2654 27.7L23.2298 27.7L23.194 27.7L23.1583 27.7L23.1224 27.7L23.0864 27.7L23.0503 27.7L23.0142 27.7L22.9779 27.7L22.9416 27.7L22.9052 27.7L22.8687 27.7L22.8321 27.7L22.7954 27.7L22.7586 27.7L22.7217 27.7L22.6847 27.7L22.6476 27.7L22.6104 27.7L22.5732 27.7L22.5358 27.7L22.4983 27.7L22.4608 27.7L22.4231 27.7L22.3854 27.7L22.3475 27.7L22.3095 27.7L22.2715 27.7L22.2333 27.7L22.1951 27.7L22.1567 27.7L22.1182 27.7L22.0797 27.7L22.041 27.7L22.0023 27.7L21.9634 27.7L21.9244 27.7L21.8853 27.7L21.8461 27.7L21.8069 27.7L21.7675 27.7L21.728 27.7L21.6883 27.7L21.6486 27.7L21.6088 27.7L21.5689 27.7L21.5288 27.7L21.4887 27.7L21.4484 27.7L21.408 27.7L21.3676 27.7L21.327 27.7L21.2863 27.7L21.2454 27.7L21.2045 27.7L21.1635 27.7L21.1223 27.7L21.081 27.7L21.0396 27.7L20.9981 27.7L20.9565 27.7L20.9148 27.7L20.8729 27.7L20.831 27.7L20.7889 27.7L20.7467 27.7L20.7044 27.7L20.6619 27.7L20.6194 27.7L20.5767 27.7L20.5339 27.7L20.491 27.7L20.4479 27.7L20.4048 27.7C19.7968 27.7 19.3 28.193 19.3 28.8C19.3 29.4075 19.7925 29.9 20.4 29.9Z" fill="url(#paint15_linear_1827_2772)" stroke="url(#paint16_linear_1827_2772)" stroke-width="0.2"/>
<path d="M20.4 34.7L37.2 34.7001C37.8075 34.7001 38.3 34.2076 38.3 33.6001C38.3 32.9931 37.8033 32.5 37.1952 32.5L37.1521 32.5L37.109 32.5L37.0661 32.5L37.0233 32.5L36.9806 32.5L36.9381 32.5L36.8956 32.5L36.8533 32.5L36.8111 32.5L36.769 32.5L36.7271 32.5L36.6852 32.5L36.6435 32.5L36.6019 32.5L36.5604 32.5L36.519 32.5L36.4777 32.5L36.4366 32.5L36.3955 32.5L36.3546 32.5L36.3138 32.5L36.2731 32.5L36.2325 32.5L36.192 32.5L36.1516 32.5L36.1114 32.5L36.0712 32.5L36.0312 32.5L35.9912 32.5L35.9514 32.5L35.9117 32.5L35.8721 32.5L35.8326 32.5L35.7932 32.5L35.7539 32.5L35.7147 32.5L35.6756 32.5L35.6366 32.5L35.5978 32.5L35.559 32.5L35.5203 32.5L35.4818 32.5L35.4433 32.5L35.405 32.5L35.3667 32.5L35.3285 32.5L35.2905 32.5L35.2525 32.5L35.2147 32.5L35.1769 32.5L35.1393 32.5L35.1017 32.5L35.0642 32.5L35.0269 32.5L34.9896 32.5L34.9524 32.5L34.9153 32.5L34.8783 32.5L34.8415 32.5L34.8047 32.5L34.768 32.5L34.7314 32.5L34.6948 32.5L34.6584 32.5L34.6221 32.5L34.5858 32.5L34.5497 32.5L34.5136 32.5L34.4777 32.5L34.4418 32.5L34.406 32.5L34.3703 32.5L34.3347 32.5L34.2991 32.5L34.2637 32.5L34.2283 32.5L34.1931 32.5L34.1579 32.5L34.1228 32.5L34.0878 32.5L34.0528 32.5L34.018 32.5L33.9832 32.5L33.9485 32.5L33.9139 32.5L33.8794 32.5L33.845 32.5L33.8106 32.5L33.7763 32.5L33.7421 32.5L33.708 32.5L33.674 32.5L33.64 32.5L33.6061 32.5L33.5723 32.5L33.5386 32.5L33.505 32.5L33.4714 32.5L33.4379 32.5L33.4045 32.5L33.3711 32.5L33.3378 32.5L33.3046 32.5L33.2715 32.5L33.2384 32.5L33.2054 32.5L33.1725 32.5L33.1397 32.5L33.1069 32.5L33.0742 32.5L33.0416 32.5L33.009 32.5L32.9765 32.5L32.9441 32.5L32.9117 32.5L32.8794 32.5L32.8472 32.5L32.8151 32.5L32.783 32.5L32.7509 32.5L32.719 32.5L32.6871 32.5L32.6553 32.5L32.6235 32.5L32.5918 32.5L32.5601 32.5L32.5285 32.5L32.497 32.5L32.4656 32.5L32.4342 32.5L32.4028 32.5L32.3716 32.5L32.3403 32.5L32.3092 32.5L32.2781 32.5L32.247 32.5L32.216 32.5L32.1851 32.5L32.1542 32.5L32.1234 32.5L32.0926 32.5L32.0619 32.5L32.0313 32.5L32.0007 32.5L31.9701 32.5L31.9396 32.5L31.9092 32.5L31.8788 32.5L31.8485 32.5L31.8182 32.5L31.7879 32.5L31.7578 32.5L31.7276 32.5L31.6975 32.5L31.6675 32.5L31.6375 32.5L31.6076 32.5L31.5777 32.5L31.5478 32.5L31.518 32.5L31.4883 32.5L31.4586 32.5L31.4289 32.5L31.3993 32.5L31.3697 32.5L31.3402 32.5L31.3107 32.5L31.2812 32.5L31.2518 32.5L31.2224 32.5L31.1931 32.5L31.1638 32.5L31.1346 32.5L31.1054 32.5L31.0762 32.5L31.0471 32.5L31.018 32.5L30.989 32.5L30.9599 32.5L30.931 32.5L30.902 32.5L30.8731 32.5L30.8443 32.5L30.8154 32.5L30.7866 32.5L30.7579 32.5L30.7291 32.5L30.7004 32.5L30.6718 32.5L30.6431 32.5L30.6145 32.5L30.5859 32.5L30.5574 32.5L30.5289 32.5L30.5004 32.5L30.472 32.5L30.4435 32.5L30.4151 32.5L30.3868 32.5L30.3584 32.5L30.3301 32.5L30.3018 32.5L30.2736 32.5L30.2453 32.5L30.2171 32.5L30.1889 32.5L30.1608 32.5L30.1326 32.5L30.1045 32.5L30.0764 32.5L30.0483 32.5L30.0203 32.5L29.9922 32.5L29.9642 32.5L29.9362 32.5L29.9083 32.5L29.8803 32.5L29.8524 32.5L29.8245 32.5L29.7966 32.5L29.7687 32.5L29.7408 32.5L29.713 32.5L29.6852 32.5L29.6573 32.5L29.6295 32.5L29.6018 32.5L29.574 32.5L29.5462 32.5L29.5185 32.5L29.4907 32.5L29.463 32.5L29.4353 32.5L29.4076 32.5L29.3799 32.5L29.3522 32.5L29.3246 32.5L29.2969 32.5L29.2693 32.5L29.2416 32.5L29.214 32.5L29.1863 32.5L29.1587 32.5L29.1311 32.5L29.1035 32.5L29.0759 32.5L29.0483 32.5L29.0207 32.5L28.9931 32.5L28.9655 32.5L28.9379 32.5L28.9103 32.5L28.8828 32.5L28.8552 32.5L28.8276 32.5L28.8 32.5L28.7724 32.5L28.7449 32.5L28.7173 32.5L28.6897 32.5L28.6621 32.5L28.6345 32.5L28.6069 32.5L28.5793 32.5L28.5517 32.5L28.5241 32.5L28.4965 32.5L28.4689 32.5L28.4413 32.5L28.4137 32.5L28.3861 32.5L28.3584 32.5L28.3308 32.5L28.3031 32.5L28.2755 32.5L28.2478 32.5L28.2201 32.5L28.1924 32.5L28.1647 32.5L28.137 32.5L28.1093 32.5L28.0816 32.5L28.0538 32.5L28.026 32.5L27.9983 32.5L27.9705 32.5L27.9427 32.5L27.9149 32.5L27.887 32.5L27.8592 32.5L27.8313 32.5L27.8034 32.5L27.7755 32.5L27.7476 32.5L27.7197 32.5L27.6917 32.5L27.6638 32.5L27.6358 32.5L27.6078 32.5L27.5797 32.5L27.5517 32.5L27.5236 32.5L27.4955 32.5L27.4674 32.5L27.4393 32.5L27.4111 32.5L27.3829 32.5L27.3547 32.5L27.3265 32.5L27.2982 32.5L27.2699 32.5L27.2416 32.5L27.2133 32.5L27.1849 32.5L27.1565 32.5L27.1281 32.5L27.0996 32.5L27.0711 32.5L27.0426 32.5L27.0141 32.5L26.9855 32.5L26.9569 32.5L26.9283 32.5L26.8996 32.5L26.8709 32.5L26.8422 32.5L26.8134 32.5L26.7846 32.5L26.7558 32.5L26.7269 32.5L26.698 32.5L26.6691 32.5L26.6401 32.5L26.6111 32.5L26.582 32.5L26.5529 32.5L26.5238 32.5L26.4946 32.5L26.4654 32.5L26.4362 32.5L26.4069 32.5L26.3776 32.5L26.3482 32.5L26.3188 32.5L26.2894 32.5L26.2599 32.5L26.2303 32.5L26.2008 32.5L26.1711 32.5L26.1415 32.5L26.1118 32.5L26.082 32.5L26.0522 32.5L26.0224 32.5L25.9925 32.5L25.9625 32.5L25.9325 32.5L25.9025 32.5L25.8724 32.5L25.8423 32.5L25.8121 32.5L25.7818 32.5L25.7516 32.5L25.7212 32.5L25.6908 32.5L25.6604 32.5L25.6299 32.5L25.5993 32.5L25.5687 32.5L25.5381 32.5L25.5074 32.5L25.4766 32.5L25.4458 32.5L25.4149 32.5L25.384 32.5L25.353 32.5L25.322 32.5L25.2909 32.5L25.2597 32.5L25.2285 32.5L25.1972 32.5L25.1659 32.5L25.1345 32.5L25.103 32.5L25.0715 32.5L25.0399 32.5L25.0082 32.5L24.9765 32.5L24.9448 32.5L24.9129 32.5L24.881 32.5L24.8491 32.5L24.8171 32.5L24.785 32.5L24.7528 32.5L24.7206 32.5L24.6883 32.5L24.6559 32.5L24.6235 32.5L24.591 32.5L24.5584 32.5L24.5258 32.5L24.4931 32.5L24.4603 32.5L24.4275 32.5L24.3946 32.5L24.3616 32.5L24.3285 32.5L24.2954 32.5L24.2622 32.5L24.2289 32.5L24.1956 32.5L24.1621 32.5L24.1286 32.5L24.0951 32.5L24.0614 32.5L24.0277 32.5L23.9939 32.5L23.96 32.5L23.926 32.5L23.892 32.5L23.8579 32.5L23.8237 32.5L23.7894 32.5L23.7551 32.5L23.7206 32.5L23.6861 32.5L23.6515 32.5L23.6168 32.5L23.582 32.5L23.5472 32.5L23.5123 32.5L23.4773 32.5L23.4422 32.5L23.407 32.5L23.3717 32.5L23.3363 32.5L23.3009 32.5L23.2654 32.5L23.2298 32.5L23.194 32.5L23.1583 32.5L23.1224 32.5L23.0864 32.5L23.0503 32.5L23.0142 32.5L22.9779 32.5L22.9416 32.5L22.9052 32.5L22.8687 32.5L22.8321 32.5L22.7954 32.5L22.7586 32.5L22.7217 32.5L22.6847 32.5L22.6476 32.5L22.6104 32.5L22.5732 32.5L22.5358 32.5L22.4983 32.5L22.4608 32.5L22.4231 32.5L22.3854 32.5L22.3475 32.5L22.3095 32.5L22.2715 32.5L22.2333 32.5L22.1951 32.5L22.1567 32.5L22.1182 32.5L22.0797 32.5L22.041 32.5L22.0023 32.5L21.9634 32.5L21.9244 32.5L21.8853 32.5L21.8461 32.5L21.8069 32.5L21.7675 32.5L21.728 32.5L21.6883 32.5L21.6486 32.5L21.6088 32.5L21.5689 32.5L21.5288 32.5L21.4887 32.5L21.4484 32.5L21.408 32.5L21.3676 32.5L21.327 32.5L21.2863 32.5L21.2454 32.5L21.2045 32.5L21.1635 32.5L21.1223 32.5L21.081 32.5L21.0396 32.5L20.9981 32.5L20.9565 32.5L20.9148 32.5L20.8729 32.5L20.831 32.5L20.7889 32.5L20.7467 32.5L20.7044 32.5L20.6619 32.5L20.6194 32.5L20.5767 32.5L20.5339 32.5L20.491 32.5L20.4479 32.5L20.4048 32.5C19.7968 32.5 19.3 32.993 19.3 33.6C19.3 34.2076 19.7925 34.7 20.4 34.7Z" fill="url(#paint17_linear_1827_2772)" stroke="url(#paint18_linear_1827_2772)" stroke-width="0.2"/>
<defs>
<linearGradient id="paint0_linear_1827_2772" x1="12.0059" y1="17.5923" x2="45.9545" y2="44.42" gradientUnits="userSpaceOnUse">
<stop stop-color="#75EDA1"/>
<stop offset="1" stop-color="#349256"/>
</linearGradient>
<linearGradient id="paint1_linear_1827_2772" x1="12.0059" y1="17.5923" x2="45.9545" y2="44.42" gradientUnits="userSpaceOnUse">
<stop stop-color="#75EDA1"/>
<stop offset="1" stop-color="#349256"/>
</linearGradient>
<linearGradient id="paint2_linear_1827_2772" x1="8.57142" y1="12.7129" x2="54.2937" y2="34.2229" gradientUnits="userSpaceOnUse">
<stop stop-color="white"/>
<stop offset="1" stop-color="white" stop-opacity="0"/>
</linearGradient>
<linearGradient id="paint3_linear_1827_2772" x1="14.4" y1="19.2" x2="16.7761" y2="19.4385" gradientUnits="userSpaceOnUse">
<stop stop-color="white" stop-opacity="0.9"/>
<stop offset="1" stop-color="white" stop-opacity="0.3"/>
</linearGradient>
<linearGradient id="paint4_linear_1827_2772" x1="14.2286" y1="20.1818" x2="17.62" y2="18.4308" gradientUnits="userSpaceOnUse">
<stop stop-color="white"/>
<stop offset="1" stop-color="white" stop-opacity="0"/>
</linearGradient>
<linearGradient id="paint5_linear_1827_2772" x1="14.4" y1="24" x2="16.7761" y2="24.2384" gradientUnits="userSpaceOnUse">
<stop stop-color="white" stop-opacity="0.9"/>
<stop offset="1" stop-color="white" stop-opacity="0.3"/>
</linearGradient>
<linearGradient id="paint6_linear_1827_2772" x1="14.2286" y1="24.9818" x2="17.62" y2="23.2307" gradientUnits="userSpaceOnUse">
<stop stop-color="white"/>
<stop offset="1" stop-color="white" stop-opacity="0"/>
</linearGradient>
<linearGradient id="paint7_linear_1827_2772" x1="14.4" y1="28.8" x2="16.7761" y2="29.0385" gradientUnits="userSpaceOnUse">
<stop stop-color="white" stop-opacity="0.9"/>
<stop offset="1" stop-color="white" stop-opacity="0.3"/>
</linearGradient>
<linearGradient id="paint8_linear_1827_2772" x1="14.2286" y1="29.7818" x2="17.62" y2="28.0308" gradientUnits="userSpaceOnUse">
<stop stop-color="white"/>
<stop offset="1" stop-color="white" stop-opacity="0"/>
</linearGradient>
<linearGradient id="paint9_linear_1827_2772" x1="14.4" y1="33.6" x2="16.7761" y2="33.8385" gradientUnits="userSpaceOnUse">
<stop stop-color="white" stop-opacity="0.9"/>
<stop offset="1" stop-color="white" stop-opacity="0.3"/>
</linearGradient>
<linearGradient id="paint10_linear_1827_2772" x1="14.2286" y1="34.5819" x2="17.62" y2="32.8308" gradientUnits="userSpaceOnUse">
<stop stop-color="white"/>
<stop offset="1" stop-color="white" stop-opacity="0"/>
</linearGradient>
<linearGradient id="paint11_linear_1827_2772" x1="19.2" y1="19.2" x2="30.874" y2="28.5733" gradientUnits="userSpaceOnUse">
<stop stop-color="white" stop-opacity="0.9"/>
<stop offset="1" stop-color="white" stop-opacity="0.3"/>
</linearGradient>
<linearGradient id="paint12_linear_1827_2772" x1="17.8286" y1="20.1818" x2="19.7312" y2="12.3231" gradientUnits="userSpaceOnUse">
<stop stop-color="white"/>
<stop offset="1" stop-color="white" stop-opacity="0"/>
</linearGradient>
<linearGradient id="paint13_linear_1827_2772" x1="19.2" y1="24" x2="30.874" y2="33.3732" gradientUnits="userSpaceOnUse">
<stop stop-color="white" stop-opacity="0.9"/>
<stop offset="1" stop-color="white" stop-opacity="0.3"/>
</linearGradient>
<linearGradient id="paint14_linear_1827_2772" x1="17.8286" y1="24.9818" x2="19.7312" y2="17.123" gradientUnits="userSpaceOnUse">
<stop stop-color="white"/>
<stop offset="1" stop-color="white" stop-opacity="0"/>
</linearGradient>
<linearGradient id="paint15_linear_1827_2772" x1="19.2" y1="28.8" x2="30.874" y2="38.1733" gradientUnits="userSpaceOnUse">
<stop stop-color="white" stop-opacity="0.9"/>
<stop offset="1" stop-color="white" stop-opacity="0.3"/>
</linearGradient>
<linearGradient id="paint16_linear_1827_2772" x1="17.8286" y1="29.7818" x2="19.7312" y2="21.9231" gradientUnits="userSpaceOnUse">
<stop stop-color="white"/>
<stop offset="1" stop-color="white" stop-opacity="0"/>
</linearGradient>
<linearGradient id="paint17_linear_1827_2772" x1="19.2" y1="33.6" x2="30.874" y2="42.9733" gradientUnits="userSpaceOnUse">
<stop stop-color="white" stop-opacity="0.9"/>
<stop offset="1" stop-color="white" stop-opacity="0.3"/>
</linearGradient>
<linearGradient id="paint18_linear_1827_2772" x1="17.8286" y1="34.5819" x2="19.7312" y2="26.7231" gradientUnits="userSpaceOnUse">
<stop stop-color="white"/>
<stop offset="1" stop-color="white" stop-opacity="0"/>
</linearGradient>
</defs>
</svg>
