<svg width="48" height="48" viewBox="0 0 48 48" fill="none" xmlns="http://www.w3.org/2000/svg">
<path d="M2.39999 10.42C2.39999 9.28097 2.39999 8.71148 2.62517 8.278C2.81492 7.91272 3.11276 7.61488 3.47805 7.42512C3.91152 7.19995 4.48101 7.19995 5.61999 7.19995H21.2017C21.6273 7.19995 21.8402 7.19995 22.0435 7.24265C22.2164 7.27898 22.3838 7.33807 22.5412 7.41838C22.7263 7.51279 22.892 7.6464 23.2233 7.91362L24.658 9.07089C24.9893 9.33811 25.155 9.47173 25.3401 9.56614C25.4975 9.64645 25.6649 9.70554 25.8378 9.74186C26.0411 9.78457 26.254 9.78457 26.6796 9.78457H42.38C43.519 9.78457 44.0885 9.78457 44.5219 10.0097C44.8872 10.1995 45.1851 10.4973 45.3748 10.8626C45.6 11.2961 45.6 11.8656 45.6 13.0046V34.58C45.6 35.7189 45.6 36.2884 45.3748 36.7219C45.1851 37.0872 44.8872 37.385 44.5219 37.5748C44.0885 37.8 43.519 37.8 42.38 37.8H5.62C4.48101 37.8 3.91152 37.8 3.47805 37.5748C3.11276 37.385 2.81492 37.0872 2.62517 36.7219C2.39999 36.2884 2.39999 35.7189 2.39999 34.58V10.42Z" fill="url(#paint0_linear_1827_2785)"/>
<path d="M4.72709 17.4198C4.81996 16.4447 5.63897 15.7 6.61854 15.7H41.3814C42.361 15.7 43.18 16.4447 43.2729 17.4198L45.2919 38.6198C45.3981 39.7353 44.521 40.7 43.4005 40.7H4.59952C3.47901 40.7 2.60184 39.7353 2.70808 38.6198L4.72709 17.4198Z" fill="#FFD983" fill-opacity="0.75" stroke="url(#paint1_linear_1827_2785)" stroke-width="0.2"/>
<path d="M4.89999 10.8C4.89999 10.1925 5.39247 9.69998 5.99999 9.69998H14.4C15.0075 9.69998 15.5 10.1925 15.5 10.8C15.5 11.4075 15.0075 11.9 14.4 11.9H5.99999C5.39248 11.9 4.89999 11.4075 4.89999 10.8Z" fill="url(#paint2_linear_1827_2785)" stroke="url(#paint3_linear_1827_2785)" stroke-width="0.2"/>
<path d="M16.9 10.8C16.9 10.1925 17.3925 9.69998 18 9.69998C18.6075 9.69998 19.1 10.1925 19.1 10.8C19.1 11.4075 18.6075 11.9 18 11.9C17.3925 11.9 16.9 11.4075 16.9 10.8Z" fill="url(#paint4_linear_1827_2785)" stroke="url(#paint5_linear_1827_2785)" stroke-width="0.2"/>
<defs>
<linearGradient id="paint0_linear_1827_2785" x1="14.8615" y1="14.55" x2="45.8671" y2="28.2589" gradientUnits="userSpaceOnUse">
<stop stop-color="#FFD371"/>
<stop offset="1" stop-color="#FFB612"/>
</linearGradient>
<linearGradient id="paint1_linear_1827_2785" x1="0.239994" y1="17.4" x2="13.4894" y2="52.0894" gradientUnits="userSpaceOnUse">
<stop stop-color="white"/>
<stop offset="0.765625" stop-color="white" stop-opacity="0"/>
</linearGradient>
<linearGradient id="paint2_linear_1827_2785" x1="4.79999" y1="10.8" x2="13.7702" y2="6.74864" gradientUnits="userSpaceOnUse">
<stop stop-color="white" stop-opacity="0.9"/>
<stop offset="1" stop-color="white" stop-opacity="0.3"/>
</linearGradient>
<linearGradient id="paint3_linear_1827_2785" x1="4.02856" y1="9.81816" x2="7.04954" y2="16.8373" gradientUnits="userSpaceOnUse">
<stop stop-color="white"/>
<stop offset="1" stop-color="white" stop-opacity="0"/>
</linearGradient>
<linearGradient id="paint4_linear_1827_2785" x1="16.8" y1="10.8" x2="19.1761" y2="10.5615" gradientUnits="userSpaceOnUse">
<stop stop-color="white" stop-opacity="0.9"/>
<stop offset="1" stop-color="white" stop-opacity="0.3"/>
</linearGradient>
<linearGradient id="paint5_linear_1827_2785" x1="16.6286" y1="9.81816" x2="20.0199" y2="11.5692" gradientUnits="userSpaceOnUse">
<stop stop-color="white"/>
<stop offset="1" stop-color="white" stop-opacity="0"/>
</linearGradient>
</defs>
</svg>
