<svg width="40" height="40" viewBox="0 0 40 40" fill="none" xmlns="http://www.w3.org/2000/svg">
<path d="M2 9.22C2 8.08102 2 7.51153 2.22517 7.07805C2.41492 6.71276 2.71276 6.41492 3.07805 6.22517C3.51153 6 4.08102 6 5.22 6H15.5261C15.9905 6 16.2228 6 16.4428 6.0503C16.6299 6.09307 16.8099 6.16255 16.9772 6.2566C17.1739 6.36721 17.3459 6.52327 17.6899 6.8354L18.2222 7.31845C18.5662 7.63057 18.7382 7.78664 18.9349 7.89724C19.1022 7.99129 19.2822 8.06077 19.4693 8.10354C19.6893 8.15385 19.9215 8.15385 20.386 8.15385H30.78C31.919 8.15385 32.4885 8.15385 32.9219 8.37902C33.2872 8.56877 33.5851 8.86661 33.7748 9.2319C34 9.66537 34 10.2349 34 11.3738V30.78C34 31.919 34 32.4885 33.7748 32.9219C33.5851 33.2872 33.2872 33.5851 32.9219 33.7748C32.4885 34 31.919 34 30.78 34H5.22C4.08102 34 3.51153 34 3.07805 33.7748C2.71276 33.5851 2.41492 33.2872 2.22517 32.9219C2 32.4885 2 31.919 2 30.78V9.22Z" fill="url(#paint0_linear_947_22163)"/>
<path d="M32.3524 33.9H4.79565C5.14698 33.7104 5.41374 33.411 5.60926 33.1125C5.93235 32.6192 6.07454 32.1094 6.09444 32.0343C6.09649 32.0265 6.09806 32.02 6.09962 32.0134L10.2328 14.5621C10.4358 13.7052 11.201 13.1 12.0816 13.1H36.0222C37.233 13.1 38.1349 14.2174 37.8794 15.4009L34.2096 32.4009C34.0208 33.2756 33.2472 33.9 32.3524 33.9Z" fill="#AADEFF" fill-opacity="0.75" stroke="url(#paint1_linear_947_22163)" stroke-width="0.2"/>
<path d="M12.1 16C12.1 15.5029 12.5029 15.1 13 15.1H35C35.4971 15.1 35.9 15.5029 35.9 16C35.9 16.4971 35.4971 16.9 35 16.9H13C12.5029 16.9 12.1 16.4971 12.1 16Z" fill="url(#paint2_linear_947_22163)" stroke="url(#paint3_linear_947_22163)" stroke-width="0.2"/>
<defs>
<linearGradient id="paint0_linear_947_22163" x1="11.2308" y1="12.125" x2="35.0141" y2="21.4723" gradientUnits="userSpaceOnUse">
<stop stop-color="#80CCFE"/>
<stop offset="1" stop-color="#009AFE"/>
</linearGradient>
<linearGradient id="paint1_linear_947_22163" x1="2.275" y1="14.5" x2="13.6674" y2="43.0846" gradientUnits="userSpaceOnUse">
<stop stop-color="white"/>
<stop offset="0.765625" stop-color="white" stop-opacity="0"/>
</linearGradient>
<linearGradient id="paint2_linear_947_22163" x1="12" y1="16" x2="21.7938" y2="4.20455" gradientUnits="userSpaceOnUse">
<stop stop-color="white" stop-opacity="0.9"/>
<stop offset="1" stop-color="white" stop-opacity="0.3"/>
</linearGradient>
<linearGradient id="paint3_linear_947_22163" x1="10.2857" y1="15.1818" x2="11.3762" y2="21.9386" gradientUnits="userSpaceOnUse">
<stop stop-color="white"/>
<stop offset="1" stop-color="white" stop-opacity="0"/>
</linearGradient>
</defs>
</svg>
