<svg width="32.000000" height="32.000000" viewBox="0 0 32 32" fill="none" xmlns="http://www.w3.org/2000/svg" xmlns:xlink="http://www.w3.org/1999/xlink">
	<desc>
			Created with Pixso.
	</desc>
	<defs>
		<clipPath id="clip4318_87095">
			<rect id="Icon/Alpha/Mian+Seal" width="32.000000" height="32.000000" fill="white" fill-opacity="0"/>
		</clipPath>
		<linearGradient x1="2.227204" y1="12.169422" x2="21.772810" y2="19.830677" id="paint_linear_4318_87088_0" gradientUnits="userSpaceOnUse">
			<stop stop-color="#80CCFE"/>
			<stop offset="1.000000" stop-color="#009AFE"/>
		</linearGradient>
		<linearGradient x1="1.942852" y1="8.145479" x2="23.942850" y2="28.218214" id="paint_linear_4318_87089_0" gradientUnits="userSpaceOnUse">
			<stop stop-color="#FFFFFF"/>
			<stop offset="1.000000" stop-color="#FFFFFF" stop-opacity="0.000000"/>
		</linearGradient>
		<linearGradient x1="7.560862" y1="15.999977" x2="16.955503" y2="15.999977" id="paint_linear_4318_87090_0" gradientUnits="userSpaceOnUse">
			<stop stop-color="#FFFFFF" stop-opacity="0.901961"/>
			<stop offset="1.000000" stop-color="#FFFFFF" stop-opacity="0.301961"/>
		</linearGradient>
		<linearGradient x1="5.546268" y1="10.763612" x2="20.486450" y2="24.145432" id="paint_linear_4318_87090_1" gradientUnits="userSpaceOnUse">
			<stop stop-color="#FFFFFF"/>
			<stop offset="1.000000" stop-color="#FFFFFF" stop-opacity="0.000000"/>
		</linearGradient>
		<linearGradient x1="17.210094" y1="18.074238" x2="29.989912" y2="22.725712" id="paint_linear_4318_87092_0" gradientUnits="userSpaceOnUse">
			<stop stop-color="#80CCFE"/>
			<stop offset="1.000000" stop-color="#009AFE"/>
		</linearGradient>
		<linearGradient x1="15.828574" y1="14.836338" x2="32.828571" y2="29.054520" id="paint_linear_4318_87092_1" gradientUnits="userSpaceOnUse">
			<stop stop-color="#FFFFFF"/>
			<stop offset="1.000000" stop-color="#FFFFFF" stop-opacity="0.000000"/>
		</linearGradient>
		<linearGradient x1="19.275095" y1="20.130947" x2="27.971577" y2="20.130947" id="paint_linear_4318_87093_0" gradientUnits="userSpaceOnUse">
			<stop stop-color="#FFFFFF" stop-opacity="0.901961"/>
			<stop offset="1.000000" stop-color="#FFFFFF" stop-opacity="0.301961"/>
		</linearGradient>
		<linearGradient x1="19.482155" y1="16.799976" x2="28.540989" y2="25.999723" id="paint_linear_4318_87093_1" gradientUnits="userSpaceOnUse">
			<stop stop-color="#FFFFFF"/>
			<stop offset="1.000000" stop-color="#FFFFFF" stop-opacity="0.000000"/>
		</linearGradient>
	</defs>
	<g clip-path="url(#clip4318_87095)">
		<path id="矢量 340" d="M4.8 4.8L19.2 4.8C20.96 4.8 22.4 6.23 22.4 8L22.4 24C22.4 25.76 20.96 27.2 19.2 27.2L4.8 27.2C3.03 27.2 1.6 25.76 1.6 24L1.6 8C1.6 6.23 3.03 4.8 4.8 4.8Z" fill="url(#paint_linear_4318_87088_0)" fill-opacity="1.000000" fill-rule="nonzero"/>
		<path id="矢量 339" d="M6.39 6.4L17.6 6.4C19.36 6.4 20.8 7.83 20.8 9.59L20.8 22.4C20.8 24.16 19.36 25.6 17.6 25.6L6.39 25.6C4.63 25.6 3.2 24.16 3.2 22.4L3.2 9.59C3.2 7.83 4.63 6.4 6.39 6.4Z" fill="#AADEFF" fill-opacity="0.750000" fill-rule="nonzero"/>
		<path id="矢量 339" d="M17.6 6.4L6.39 6.4C4.63 6.4 3.2 7.83 3.2 9.59L3.2 22.4C3.2 24.16 4.63 25.6 6.39 25.6L17.6 25.6C19.36 25.6 20.8 24.16 20.8 22.4L20.8 9.59C20.8 7.83 19.36 6.4 17.6 6.4ZM6.39 6.59L17.6 6.59C17.82 6.59 18.04 6.62 18.26 6.67C18.43 6.71 18.6 6.76 18.76 6.83C18.93 6.9 19.09 6.99 19.24 7.08C19.41 7.2 19.57 7.33 19.72 7.47C19.86 7.62 19.99 7.78 20.11 7.95C20.2 8.1 20.29 8.26 20.36 8.43C20.43 8.59 20.48 8.76 20.52 8.93C20.57 9.15 20.6 9.37 20.6 9.59L20.6 22.4C20.6 22.62 20.57 22.84 20.52 23.06C20.48 23.23 20.43 23.4 20.36 23.56C20.29 23.73 20.2 23.89 20.11 24.04C19.99 24.21 19.86 24.37 19.72 24.52C19.57 24.66 19.41 24.79 19.24 24.91C19.09 25 18.93 25.09 18.76 25.16C18.6 25.23 18.43 25.28 18.26 25.32C18.04 25.37 17.82 25.4 17.6 25.4L6.39 25.4C6.17 25.4 5.95 25.37 5.73 25.32C5.56 25.28 5.39 25.23 5.23 25.16C5.06 25.09 4.9 25 4.75 24.91C4.58 24.79 4.42 24.66 4.27 24.52C4.13 24.37 4 24.21 3.88 24.04C3.79 23.89 3.7 23.73 3.63 23.56C3.56 23.4 3.51 23.23 3.47 23.06C3.42 22.84 3.39 22.62 3.39 22.4L3.39 9.59C3.39 9.37 3.42 9.15 3.47 8.93C3.51 8.76 3.56 8.59 3.63 8.43C3.7 8.26 3.79 8.1 3.88 7.95C4 7.78 4.13 7.62 4.27 7.47C4.42 7.33 4.58 7.2 4.75 7.08C4.9 6.99 5.06 6.9 5.23 6.83C5.39 6.76 5.56 6.71 5.73 6.67C5.95 6.62 6.17 6.59 6.39 6.59Z" fill="url(#paint_linear_4318_87089_0)" fill-opacity="1.000000" fill-rule="evenodd"/>
		<path id="矢量 338" d="M11.69 9.75C12.03 10.01 12.09 10.48 11.84 10.82C11.75 10.93 11.66 11.04 11.55 11.15L14.66 11.15C14.96 11.15 15.24 11.34 15.36 11.62C15.48 11.9 15.42 12.23 15.2 12.45L13.98 13.69L16.37 13.69C16.79 13.69 17.13 14.03 17.13 14.45L17.13 17.46C17.13 17.88 16.79 18.22 16.37 18.22L14.13 18.22L14.13 20.87L17.58 20.87C18.01 20.87 18.35 21.21 18.35 21.63C18.35 22.05 18.01 22.39 17.58 22.39L13.37 22.39C12.95 22.39 12.61 22.05 12.61 21.63L12.61 18.22L12.43 18.22C12.03 19.52 11.42 20.42 10.71 21.04C10.1 21.57 9.46 21.86 8.94 22.04C8.68 22.13 8.44 22.19 8.26 22.24C8.05 22.3 7.97 22.32 7.93 22.34C7.54 22.5 7.09 22.32 6.93 21.93C6.77 21.54 6.95 21.09 7.34 20.93C7.49 20.86 7.68 20.81 7.83 20.78C7.85 20.77 7.86 20.77 7.87 20.77C8.05 20.72 8.24 20.67 8.44 20.6C8.84 20.46 9.29 20.26 9.7 19.89C10.09 19.55 10.5 19.03 10.82 18.22L8.46 18.22C8.04 18.22 7.7 17.88 7.7 17.46L7.7 14.45C7.7 14.03 8.04 13.69 8.46 13.69L11.84 13.69L12.84 12.68L10.05 12.68C9.95 12.68 9.86 12.66 9.77 12.63C9.67 12.7 9.58 12.76 9.48 12.83C8.79 13.29 8.13 13.69 7.77 13.91C7.68 13.96 7.61 14 7.56 14.03C7.2 14.25 6.73 14.14 6.51 13.78C6.29 13.43 6.4 12.96 6.76 12.73C6.82 12.7 6.9 12.65 7 12.59C7.37 12.36 7.98 12 8.63 11.56C9.47 11 10.25 10.38 10.62 9.9C10.88 9.56 11.36 9.5 11.69 9.75ZM11.38 15.21L9.22 15.21L9.22 16.7L11.23 16.7C11.3 16.26 11.36 15.76 11.38 15.21ZM12.77 16.7C12.84 16.24 12.89 15.75 12.91 15.21L15.61 15.21L15.61 16.7L12.77 16.7Z" fill="url(#paint_linear_4318_87090_0)" fill-opacity="1.000000" fill-rule="evenodd"/>
		<path id="矢量 338" d="M11.73 10.95C11.77 10.91 11.8 10.86 11.84 10.82C12.09 10.48 12.03 10.01 11.69 9.75C11.36 9.5 10.88 9.56 10.62 9.9C10.25 10.38 9.47 11 8.63 11.56C7.98 12 7.37 12.36 7 12.59C6.9 12.65 6.82 12.7 6.76 12.73C6.4 12.96 6.29 13.43 6.51 13.78C6.73 14.14 7.2 14.25 7.56 14.03C7.57 14.03 7.59 14.02 7.6 14C7.65 13.98 7.7 13.95 7.77 13.91C7.94 13.8 8.18 13.66 8.46 13.49C8.77 13.3 9.12 13.07 9.48 12.83C9.58 12.76 9.67 12.7 9.77 12.63C9.86 12.66 9.95 12.68 10.05 12.68L12.84 12.68L12.64 12.88L11.84 13.69L8.46 13.69C8.15 13.69 7.88 13.88 7.76 14.15C7.72 14.24 7.7 14.34 7.7 14.45L7.7 17.46C7.7 17.88 8.04 18.22 8.46 18.22L10.82 18.22C10.79 18.29 10.76 18.36 10.74 18.42C10.43 19.12 10.06 19.58 9.7 19.89C9.29 20.26 8.84 20.46 8.44 20.6C8.24 20.67 8.05 20.72 7.87 20.77C7.86 20.77 7.85 20.77 7.83 20.78C7.68 20.81 7.49 20.86 7.34 20.93C6.95 21.09 6.77 21.54 6.93 21.93C7.09 22.32 7.54 22.5 7.93 22.34C7.97 22.32 8.05 22.3 8.26 22.24C8.44 22.19 8.68 22.13 8.94 22.04C9.46 21.86 10.1 21.57 10.71 21.04C11.4 20.43 12.01 19.56 12.41 18.31C12.42 18.28 12.43 18.25 12.43 18.22L12.61 18.22L12.61 21.63C12.61 22.05 12.95 22.39 13.37 22.39L17.58 22.39C18.01 22.39 18.35 22.05 18.35 21.63C18.35 21.21 18.01 20.87 17.58 20.87L14.13 20.87L14.13 18.22L16.37 18.22C16.79 18.22 17.13 17.88 17.13 17.46L17.13 14.45C17.13 14.03 16.79 13.69 16.37 13.69L13.98 13.69L14.18 13.49L15.2 12.45C15.42 12.23 15.48 11.9 15.36 11.62C15.24 11.34 14.96 11.15 14.66 11.15L11.55 11.15C11.62 11.09 11.68 11.02 11.73 10.95ZM11.37 9.81C11.44 9.83 11.51 9.86 11.57 9.91L11.57 9.91C11.63 9.96 11.68 10.01 11.72 10.07C11.75 10.14 11.78 10.2 11.79 10.28C11.8 10.36 11.79 10.43 11.78 10.5C11.76 10.57 11.72 10.64 11.68 10.7C11.6 10.8 11.51 10.91 11.41 11.02L11.1 11.35L14.66 11.35C14.71 11.35 14.77 11.36 14.82 11.38C14.87 11.39 14.92 11.41 14.97 11.45C15.02 11.48 15.06 11.51 15.09 11.56C15.13 11.6 15.15 11.64 15.18 11.7C15.2 11.75 15.21 11.8 15.22 11.86C15.22 11.91 15.22 11.97 15.21 12.02C15.2 12.08 15.18 12.13 15.16 12.18C15.13 12.22 15.1 12.27 15.06 12.31L13.51 13.89L16.37 13.89C16.45 13.89 16.52 13.9 16.59 13.93C16.65 13.96 16.71 14 16.77 14.05C16.82 14.11 16.87 14.17 16.89 14.23C16.92 14.3 16.93 14.37 16.93 14.45L16.93 17.46C16.93 17.54 16.92 17.61 16.89 17.68C16.87 17.74 16.82 17.8 16.77 17.86C16.71 17.91 16.65 17.96 16.59 17.98C16.52 18.01 16.45 18.02 16.37 18.02L13.93 18.02L13.93 21.07L17.58 21.07C17.66 21.07 17.73 21.08 17.8 21.11C17.87 21.14 17.93 21.18 17.98 21.23C18.04 21.29 18.08 21.35 18.11 21.42C18.13 21.48 18.15 21.55 18.15 21.63C18.15 21.71 18.13 21.78 18.11 21.85C18.08 21.91 18.04 21.98 17.98 22.03C17.93 22.08 17.87 22.13 17.8 22.15C17.73 22.18 17.66 22.19 17.58 22.19L13.37 22.19C13.29 22.19 13.22 22.18 13.15 22.15C13.09 22.13 13.03 22.09 12.97 22.03C12.92 21.98 12.88 21.91 12.85 21.85C12.82 21.78 12.81 21.71 12.81 21.63L12.81 18.02L12.29 18.02L12.24 18.16C11.89 19.32 11.33 20.23 10.58 20.89C10.1 21.31 9.53 21.63 8.87 21.85C8.7 21.91 8.48 21.98 8.21 22.05C8.01 22.1 7.89 22.13 7.85 22.15C7.78 22.18 7.71 22.2 7.64 22.2C7.56 22.2 7.49 22.18 7.42 22.15C7.35 22.12 7.29 22.08 7.24 22.03C7.19 21.98 7.14 21.92 7.11 21.85C7.08 21.78 7.07 21.71 7.07 21.63C7.07 21.56 7.08 21.49 7.11 21.42C7.14 21.35 7.18 21.29 7.23 21.23C7.28 21.18 7.34 21.14 7.42 21.11C7.51 21.07 7.67 21.03 7.88 20.97L7.92 20.96C8.17 20.9 8.36 20.84 8.51 20.79C9.03 20.61 9.47 20.36 9.84 20.04C10.33 19.61 10.72 19.03 11.01 18.3L11.11 18.02L8.46 18.02C8.38 18.02 8.31 18.01 8.24 17.98C8.18 17.96 8.12 17.91 8.06 17.86C8.01 17.8 7.96 17.74 7.94 17.68C7.91 17.61 7.9 17.54 7.9 17.46L7.9 14.45C7.9 14.37 7.91 14.3 7.94 14.23C7.96 14.17 8.01 14.11 8.06 14.05C8.12 14 8.18 13.96 8.24 13.93C8.31 13.9 8.38 13.89 8.46 13.89L11.93 13.89L13.31 12.48L10.05 12.48C10.01 12.48 9.97 12.47 9.93 12.46C9.9 12.46 9.87 12.45 9.85 12.44L9.75 12.4L9.66 12.46C9.56 12.53 9.47 12.6 9.37 12.66C8.91 12.97 8.35 13.33 7.66 13.74L7.66 13.74L7.45 13.86C7.39 13.9 7.32 13.93 7.25 13.94C7.18 13.95 7.1 13.95 7.03 13.93C6.95 13.91 6.89 13.88 6.83 13.84C6.77 13.8 6.72 13.75 6.68 13.68C6.64 13.61 6.61 13.54 6.6 13.47C6.59 13.4 6.59 13.33 6.61 13.25C6.63 13.18 6.66 13.11 6.7 13.05C6.74 12.99 6.8 12.95 6.86 12.91L7.11 12.76L7.11 12.76C7.76 12.37 8.3 12.02 8.74 11.73C9.75 11.04 10.44 10.47 10.78 10.02C10.83 9.96 10.88 9.91 10.94 9.87C11.01 9.83 11.08 9.81 11.15 9.8C11.23 9.79 11.3 9.79 11.37 9.81ZM11.43 16.73C11.51 16.27 11.56 15.76 11.58 15.22L11.59 15.01L9.02 15.01L9.02 16.9L11.4 16.9L11.43 16.73ZM15.81 15.01L12.72 15.01L12.71 15.2C12.69 15.72 12.64 16.21 12.57 16.67L12.54 16.9L15.81 16.9L15.81 15.01ZM11.18 15.21L9.22 15.21L9.22 16.7L11.23 16.7C11.29 16.31 11.34 15.88 11.37 15.41C11.38 15.35 11.38 15.28 11.38 15.21L11.18 15.21ZM12.8 16.5C12.85 16.1 12.89 15.67 12.91 15.21L15.61 15.21L15.61 16.7L12.77 16.7C12.78 16.63 12.79 16.57 12.8 16.5Z" fill="url(#paint_linear_4318_87090_1)" fill-opacity="1.000000" fill-rule="evenodd"/>
		<path id="矢量 341" d="M16.79 20.4C16.79 16.64 19.84 13.6 23.6 13.6C27.35 13.6 30.4 16.64 30.4 20.4C30.4 24.15 27.35 27.2 23.6 27.2C19.84 27.2 16.79 24.15 16.79 20.4Z" fill="url(#paint_linear_4318_87092_0)" fill-opacity="1.000000" fill-rule="evenodd"/>
		<path id="矢量 341" d="M23.6 13.6C19.84 13.6 16.79 16.64 16.79 20.4C16.79 24.15 19.84 27.2 23.6 27.2C27.35 27.2 30.4 24.15 30.4 20.4C30.4 16.64 27.35 13.6 23.6 13.6ZM22.14 13.95C22.61 13.85 23.1 13.79 23.6 13.79C24.09 13.79 24.58 13.85 25.05 13.95C25.43 14.04 25.8 14.16 26.16 14.31C26.53 14.47 26.88 14.66 27.21 14.87C27.59 15.12 27.94 15.4 28.26 15.73C28.59 16.05 28.87 16.4 29.12 16.78C29.33 17.11 29.52 17.46 29.68 17.83C29.83 18.19 29.95 18.56 30.04 18.94C30.14 19.41 30.2 19.9 30.2 20.4C30.2 20.89 30.14 21.38 30.04 21.85C29.95 22.23 29.83 22.6 29.68 22.96C29.52 23.33 29.33 23.68 29.12 24.01C28.87 24.39 28.59 24.74 28.26 25.06C27.94 25.39 27.59 25.67 27.21 25.92C26.88 26.13 26.53 26.32 26.16 26.48C25.8 26.63 25.43 26.75 25.05 26.84C24.58 26.94 24.09 27 23.6 27C23.1 27 22.61 26.94 22.14 26.84C21.76 26.75 21.39 26.63 21.03 26.48C20.66 26.32 20.31 26.13 19.98 25.92C19.6 25.67 19.25 25.39 18.93 25.06C18.6 24.74 18.32 24.39 18.07 24.01C17.86 23.68 17.67 23.33 17.51 22.96C17.36 22.6 17.24 22.23 17.15 21.85C17.05 21.38 17 20.89 17 20.4C17 19.9 17.05 19.41 17.15 18.94C17.24 18.56 17.36 18.19 17.51 17.83C17.67 17.46 17.86 17.11 18.07 16.78C18.32 16.4 18.6 16.05 18.93 15.73C19.25 15.4 19.6 15.12 19.98 14.87C20.31 14.66 20.66 14.47 21.03 14.31C21.39 14.16 21.76 14.04 22.14 13.95Z" fill="url(#paint_linear_4318_87092_1)" fill-opacity="1.000000" fill-rule="evenodd"/>
		<path id="矢量 337" d="M25.54 17.83C25.54 18.37 25.3 18.86 24.91 19.19C24.78 19.31 24.68 19.47 24.68 19.65L24.68 21.2C24.68 21.48 24.92 21.72 25.2 21.72L26.72 21.72C27.01 21.72 27.24 21.95 27.24 22.23L27.24 23.24C27.24 23.53 27.01 23.76 26.72 23.76L20.51 23.76C20.23 23.76 19.99 23.53 19.99 23.24L19.99 22.23C19.99 21.95 20.23 21.72 20.51 21.72L22.03 21.72C22.32 21.72 22.55 21.48 22.55 21.2L22.55 19.65C22.55 19.47 22.46 19.31 22.33 19.19C21.94 18.86 21.7 18.37 21.7 17.83C21.7 16.82 22.56 16 23.62 16C24.68 16 25.54 16.82 25.54 17.83ZM26.98 24.28L20.25 24.28C20.11 24.28 19.99 24.39 19.99 24.54C19.99 24.68 20.11 24.79 20.25 24.79L26.98 24.79C27.13 24.79 27.24 24.68 27.24 24.54C27.24 24.39 27.13 24.28 26.98 24.28Z" fill="url(#paint_linear_4318_87093_0)" fill-opacity="1.000000" fill-rule="evenodd"/>
		<path id="矢量 337" d="M25.54 17.83C25.54 18.37 25.3 18.86 24.91 19.19C24.78 19.31 24.68 19.47 24.68 19.65L24.68 21.2C24.68 21.48 24.92 21.72 25.2 21.72L26.72 21.72C27.01 21.72 27.24 21.95 27.24 22.23L27.24 23.24C27.24 23.53 27.01 23.76 26.72 23.76L20.51 23.76C20.23 23.76 19.99 23.53 19.99 23.24L19.99 22.23C19.99 21.95 20.23 21.72 20.51 21.72L22.03 21.72C22.32 21.72 22.55 21.48 22.55 21.2L22.55 19.65C22.55 19.47 22.46 19.31 22.33 19.19C21.94 18.86 21.7 18.37 21.7 17.83C21.7 16.82 22.56 16 23.62 16C24.68 16 25.54 16.82 25.54 17.83ZM25.1 18.74C25.01 18.86 24.92 18.97 24.8 19.07L24.8 19.07C24.72 19.14 24.66 19.23 24.61 19.32C24.61 19.32 24.61 19.32 24.6 19.32C24.56 19.4 24.54 19.48 24.53 19.56C24.52 19.59 24.52 19.62 24.52 19.65L24.52 21.2C24.52 21.29 24.54 21.38 24.57 21.46C24.61 21.54 24.66 21.61 24.72 21.68C24.79 21.75 24.86 21.79 24.94 21.83C25.02 21.86 25.11 21.88 25.2 21.88L26.72 21.88C26.77 21.88 26.82 21.89 26.86 21.9C26.9 21.92 26.94 21.95 26.98 21.98C27.01 22.02 27.04 22.06 27.05 22.1C27.07 22.14 27.08 22.18 27.08 22.23L27.08 23.24C27.08 23.29 27.07 23.34 27.05 23.38C27.04 23.42 27.01 23.46 26.98 23.49C26.94 23.53 26.9 23.55 26.86 23.57C26.82 23.59 26.77 23.6 26.72 23.6L20.51 23.6C20.46 23.6 20.42 23.59 20.38 23.57C20.33 23.55 20.3 23.53 20.26 23.49C20.23 23.46 20.2 23.42 20.18 23.38C20.16 23.34 20.16 23.29 20.16 23.24L20.16 22.23C20.16 22.18 20.16 22.14 20.18 22.1C20.2 22.06 20.23 22.02 20.26 21.98C20.3 21.95 20.33 21.92 20.38 21.9C20.42 21.89 20.46 21.88 20.51 21.88L22.03 21.88C22.13 21.88 22.22 21.86 22.3 21.83C22.38 21.79 22.45 21.75 22.52 21.68C22.58 21.61 22.63 21.54 22.66 21.46C22.7 21.38 22.71 21.29 22.71 21.2L22.71 19.65C22.71 19.62 22.71 19.59 22.71 19.56C22.7 19.48 22.67 19.4 22.63 19.32C22.63 19.32 22.63 19.32 22.63 19.32C22.58 19.23 22.52 19.14 22.43 19.07C22.32 18.97 22.22 18.86 22.14 18.74C22.09 18.67 22.05 18.6 22.01 18.52C21.96 18.41 21.93 18.3 21.9 18.19C21.87 18.07 21.86 17.96 21.86 17.83C21.86 17.72 21.87 17.6 21.9 17.49C21.92 17.39 21.95 17.28 22 17.18C22.03 17.11 22.07 17.04 22.11 16.98C22.18 16.86 22.27 16.75 22.37 16.65C22.44 16.58 22.52 16.52 22.59 16.47C22.7 16.4 22.81 16.34 22.93 16.29C23.02 16.25 23.1 16.23 23.19 16.21C23.33 16.17 23.47 16.16 23.62 16.16C23.76 16.16 23.91 16.17 24.04 16.21C24.13 16.23 24.22 16.25 24.3 16.29C24.43 16.34 24.54 16.4 24.64 16.47C24.72 16.52 24.79 16.58 24.86 16.65C24.97 16.75 25.06 16.86 25.13 16.98C25.17 17.04 25.21 17.11 25.24 17.18C25.28 17.28 25.32 17.39 25.34 17.49C25.36 17.6 25.38 17.72 25.38 17.83C25.38 17.96 25.36 18.07 25.34 18.19C25.31 18.3 25.27 18.41 25.22 18.52C25.19 18.6 25.14 18.67 25.1 18.74ZM26.98 24.28L20.25 24.28C20.11 24.28 19.99 24.39 19.99 24.54C19.99 24.68 20.11 24.79 20.25 24.79L26.98 24.79C27.13 24.79 27.24 24.68 27.24 24.54C27.24 24.39 27.13 24.28 26.98 24.28ZM20.22 24.45C20.23 24.44 20.24 24.44 20.25 24.44L26.98 24.44C27 24.44 27.01 24.44 27.02 24.45C27.03 24.45 27.04 24.46 27.05 24.47C27.06 24.48 27.07 24.49 27.07 24.5C27.08 24.51 27.08 24.52 27.08 24.54C27.08 24.55 27.08 24.56 27.07 24.57C27.07 24.58 27.06 24.6 27.05 24.6C27.04 24.61 27.03 24.62 27.02 24.63C27.01 24.63 27 24.63 26.98 24.63L20.25 24.63C20.24 24.63 20.23 24.63 20.22 24.63C20.2 24.62 20.19 24.61 20.18 24.6C20.18 24.6 20.17 24.58 20.16 24.57C20.16 24.56 20.16 24.55 20.16 24.54C20.16 24.52 20.16 24.51 20.16 24.5C20.17 24.49 20.18 24.48 20.18 24.47C20.19 24.46 20.2 24.45 20.22 24.45Z" fill="url(#paint_linear_4318_87093_1)" fill-opacity="1.000000" fill-rule="evenodd"/>
	</g>
</svg>
