<svg viewBox="0 0 40 40" xmlns="http://www.w3.org/2000/svg" xmlns:xlink="http://www.w3.org/1999/xlink" width="40.000000" height="40.000000" fill="none">
	<defs>
		<clipPath id="clipPath_0">
			<rect width="40.000004" height="40.000004" x="0.000000" y="-0.000031" fill="rgb(255,255,255)" />
		</clipPath>
		<linearGradient id="paint_linear_0" x1="-0.673237801" x2="40.6732483" y1="12.4755554" y2="27.524456" gradientUnits="userSpaceOnUse">
			<stop stop-color="rgb(255,211,113)" offset="0" stop-opacity="1" />
			<stop stop-color="rgb(255,182,18)" offset="1" stop-opacity="1" />
		</linearGradient>
		<linearGradient id="paint_linear_1" x1="1.08553314" x2="32.5135651" y1="9.21171761" y2="23.9188461" gradientUnits="userSpaceOnUse">
			<stop stop-color="rgb(255,211,113)" offset="0" stop-opacity="1" />
			<stop stop-color="rgb(255,182,18)" offset="1" stop-opacity="1" />
		</linearGradient>
		<linearGradient id="paint_linear_2" x1="8.57142639" x2="36.1677628" y1="12.0701065" y2="32.3418732" gradientUnits="userSpaceOnUse">
			<stop stop-color="rgb(255,255,255)" offset="0" stop-opacity="1" />
			<stop stop-color="rgb(255,255,255)" offset="1" stop-opacity="0" />
		</linearGradient>
		<linearGradient id="paint_linear_3" x1="12" x2="28" y1="20" y2="20" gradientUnits="userSpaceOnUse">
			<stop stop-color="rgb(255,255,255)" offset="0" stop-opacity="0.899999976" />
			<stop stop-color="rgb(255,255,255)" offset="1" stop-opacity="0.300000012" />
		</linearGradient>
		<linearGradient id="paint_linear_4" x1="10.8571415" x2="30.8571415" y1="13.454546" y2="30.1818199" gradientUnits="userSpaceOnUse">
			<stop stop-color="rgb(255,255,255)" offset="0" stop-opacity="1" />
			<stop stop-color="rgb(255,255,255)" offset="1" stop-opacity="0" />
		</linearGradient>
	</defs>
	<rect id="Icon/Alpha/Certificate" width="40.000004" height="40.000004" x="0.000000" y="0.000000" fill="rgb(255,255,255)" fill-opacity="0" />
	<g id="Icon/Alpha/规范" opacity="0.099999994" clip-path="url(#clipPath_0)" customFrame="url(#clipPath_0)">
		<rect id="Icon/Alpha/规范" width="39.900005" height="39.900005" x="0.050000" y="0.049969" stroke="rgb(255,0,229.5)" stroke-width="0.100000001" />
		<rect id="Rectangle 2007" width="35.900002" height="27.900000" x="2.050000" y="6.049970" stroke="rgb(255,0,229.5)" stroke-width="0.100000001" />
		<rect id="Rectangle 2008" width="31.900000" height="31.900000" x="4.050000" y="4.049970" stroke="rgb(255,0,229.5)" stroke-width="0.100000001" />
		<rect id="Rectangle 2009" width="27.900000" height="35.900002" x="6.050000" y="2.049969" stroke="rgb(255,0,229.5)" stroke-width="0.100000001" />
		<circle id="Ellipse 84" cx="20" cy="19.9999695" r="17.9500008" stroke="rgb(255,0,229.5)" stroke-width="0.100000001" />
	</g>
	<path id="星形 1" d="M17.6494 3.46558C18.537 1.40178 21.463 1.40178 22.3506 3.46558C23.0041 4.98504 24.9058 5.4946 26.2315 4.50546C28.0321 3.16195 30.5661 4.62499 30.3029 6.8561C30.1091 8.49873 31.5013 9.89088 33.1439 9.69708C35.375 9.43387 36.838 11.9679 35.4945 13.7685C34.5054 15.0942 35.015 16.9959 36.5344 17.6494C38.5982 18.537 38.5982 21.463 36.5344 22.3506C35.015 23.0041 34.5054 24.9058 35.4945 26.2315C36.838 28.0321 35.375 30.5661 33.1439 30.3029C31.5013 30.1091 30.1091 31.5013 30.3029 33.1439C30.5661 35.375 28.0321 36.838 26.2315 35.4945C24.9058 34.5054 23.0041 35.015 22.3506 36.5344C21.463 38.5982 18.537 38.5982 17.6494 36.5344C16.9959 35.015 15.0942 34.5054 13.7685 35.4945C11.9679 36.838 9.43386 35.375 9.69708 33.1439C9.89087 31.5013 8.49872 30.1091 6.85609 30.3029C4.62498 30.5661 3.16195 28.0321 4.50546 26.2315C5.4946 24.9058 4.98504 23.0041 3.46558 22.3506C1.40178 21.463 1.40178 18.537 3.46558 17.6494C4.98504 16.9959 5.4946 15.0942 4.50546 13.7685C3.16195 11.9679 4.62499 9.43387 6.85609 9.69708C8.49873 9.89088 9.89087 8.49872 9.69708 6.85609C9.43387 4.62498 11.9679 3.16195 13.7685 4.50546C15.0942 5.4946 16.9959 4.98504 17.6494 3.46558Z" fill="url(#paint_linear_0)" fill-rule="evenodd" />
	<path id="Shape 4" d="M4 -4.37114e-08L32 -3.49691e-07C34.2091 -3.49691e-07 36 1.79086 36 4L36 24C36 26.2091 34.2091 28 32 28C20.1231 28 15.8769 28 4 28C1.79086 28 -1.74846e-07 26.2091 -1.74846e-07 24L-1.74846e-07 4C-1.74846e-07 1.79086 1.79086 -4.37114e-08 4 -4.37114e-08Z" opacity="0" fill="url(#paint_linear_1)" fill-rule="evenodd" transform="matrix(1,1.74846e-07,1.74846e-07,-1,2,34)" />
	<path id="合并" d="M26.7721 27.3579C28.7567 25.5305 30 22.9104 30 20C30 14.4772 25.5228 10 20 10C14.4772 10 10 14.4772 10 20C10 22.8034 11.1536 25.3373 13.0119 27.1531L11.0674 30.5211C10.8677 30.867 11.134 31.2958 11.5325 31.2701L12.6663 31.197C12.8677 31.184 13.0572 31.2934 13.1467 31.4743L13.6502 32.4928C13.8272 32.8507 14.3318 32.867 14.5315 32.5211L16.3775 29.3237C17.5007 29.7604 18.7224 30 20 30C21.174 30 22.3008 29.7977 23.3473 29.426L25.1343 32.5211C25.334 32.867 25.8385 32.8507 26.0155 32.4927L26.5191 31.4743C26.6086 31.2934 26.798 31.184 26.9995 31.197L28.1332 31.2701C28.5317 31.2958 28.7981 30.867 28.5984 30.5211L26.7721 27.3579ZM20 28C24.4183 28 28 24.4183 28 20C28 15.5817 24.4183 12 20 12C15.5817 12 12 15.5817 12 20C12 24.4183 15.5817 28 20 28Z" fill="rgb(255,217.052,130.688)" fill-opacity="0.649999976" fill-rule="evenodd" />
	<path id="合并" d="M23.3473 29.426C22.3008 29.7977 21.174 30 20 30C18.7224 30 17.5007 29.7604 16.3775 29.3237L14.5315 32.5211C14.3318 32.867 13.8272 32.8507 13.6502 32.4928L13.1467 31.4743C13.0572 31.2934 12.8677 31.184 12.6663 31.197L11.5325 31.2701C11.2272 31.2898 10.9995 31.0427 10.9995 30.7705C10.9995 30.6874 11.0207 30.602 11.0674 30.5211L13.0119 27.1531C11.1536 25.3373 10 22.8034 10 20C10 14.4772 14.4772 10 20 10C25.5228 10 30 14.4772 30 20C30 22.9104 28.7567 25.5305 26.7721 27.3579L28.5984 30.5211C28.6451 30.602 28.6663 30.6874 28.6663 30.7705C28.6663 31.0427 28.4386 31.2898 28.1332 31.2701L26.9995 31.197C26.798 31.184 26.6086 31.2934 26.5191 31.4743L26.0155 32.4927C25.8385 32.8507 25.334 32.867 25.1343 32.5211L23.3473 29.426ZM26.6367 27.2108C27.1588 26.73 27.6195 26.206 28.0189 25.6388C28.3782 25.1286 28.6878 24.5834 28.9477 24.0033C29.205 23.4292 29.404 22.8415 29.5448 22.2402C29.7149 21.5134 29.8 20.7667 29.8 20C29.8 19.2624 29.721 18.5426 29.5629 17.8406C29.4361 17.2774 29.2585 16.7257 29.0299 16.1855Q28.6813 15.3611 28.198 14.6252L28.198 14.6251L28.1978 14.6248C27.8327 14.0688 27.41 13.5507 26.9296 13.0704C26.4489 12.5896 25.9302 12.1665 25.3737 11.8012L25.3736 11.8012L25.3736 11.8012Q24.6382 11.3184 23.8145 10.9701Q23.0039 10.6272 22.1589 10.437L22.1588 10.437L22.1585 10.4369Q21.1059 10.2 20 10.2Q18.8938 10.2 17.841 10.437Q16.9961 10.6272 16.1855 10.9701Q15.3614 11.3186 14.6257 11.8016Q13.7912 12.3495 13.0704 13.0704Q12.3494 13.7913 11.8015 14.6258Q11.3186 15.3615 10.97 16.1855Q10.6272 16.9961 10.437 17.841L10.437 17.8411Q10.2 18.8939 10.2 20Q10.2 21.1181 10.4419 22.1812L10.442 22.1817Q10.638 23.0429 10.9928 23.8679Q11.3527 24.7048 11.851 25.4489L11.851 25.4489L11.851 25.449L11.8511 25.4491Q12.4133 26.2885 13.1517 27.01L13.2628 27.1186L11.2406 30.6211C11.2213 30.6545 11.2088 30.6889 11.2031 30.7245Q11.1995 30.747 11.1995 30.7702Q11.1995 30.7754 11.1996 30.7806C11.2004 30.8017 11.2032 30.8222 11.2082 30.8422L11.2083 30.8423Q11.2196 30.8877 11.2455 30.9294C11.2628 30.9573 11.2834 30.9813 11.3072 31.0015C11.3229 31.0149 11.34 31.0265 11.3586 31.0365C11.3753 31.0455 11.3926 31.0528 11.4104 31.0583C11.4448 31.0689 11.4812 31.073 11.5197 31.0705L12.6534 30.9974C12.7239 30.9929 12.7921 30.9983 12.8579 31.0137C12.9238 31.0291 12.9873 31.0544 13.0485 31.0897C13.1097 31.1251 13.1634 31.1674 13.2096 31.2167C13.2559 31.2661 13.2947 31.3224 13.326 31.3857L13.8295 32.4041C13.8466 32.4387 13.8683 32.4682 13.8947 32.4926C13.9084 32.5053 13.9233 32.5167 13.9395 32.5266C13.9575 32.5377 13.9761 32.5467 13.9956 32.5536C14.0249 32.5642 14.056 32.5699 14.0888 32.571C14.1216 32.5721 14.153 32.5683 14.183 32.5597C14.2028 32.554 14.222 32.5462 14.2406 32.5363C14.2574 32.5274 14.273 32.5171 14.2875 32.5053Q14.3294 32.4712 14.3582 32.4212L16.2901 29.0751L16.45 29.1373Q17.1876 29.4241 17.9516 29.5867L17.9525 29.587L17.9526 29.587C18.62 29.729 19.3024 29.8 20 29.8Q20.9866 29.8 21.935 29.6098L21.9359 29.6096L21.936 29.6096C22.3907 29.5184 22.8388 29.3944 23.2804 29.2375L23.4373 29.1818L25.3075 32.4211C25.3268 32.4545 25.3504 32.4825 25.3783 32.5053C25.3928 32.517 25.4084 32.5274 25.4252 32.5363C25.4438 32.5462 25.463 32.554 25.4828 32.5597C25.5128 32.5683 25.5442 32.572 25.577 32.571C25.6097 32.5699 25.6408 32.5641 25.6702 32.5536C25.6896 32.5467 25.7083 32.5377 25.7262 32.5266C25.7424 32.5166 25.7574 32.5053 25.771 32.4926C25.7974 32.4681 25.8192 32.4386 25.8363 32.4041L26.3398 31.3857C26.3711 31.3224 26.4099 31.2661 26.4561 31.2167C26.5024 31.1674 26.5561 31.1251 26.6173 31.0897C26.6785 31.0544 26.742 31.029 26.8078 31.0137C26.8737 30.9983 26.9418 30.9928 27.0123 30.9974L28.1461 31.0705Q28.2038 31.0742 28.2554 31.0583C28.2732 31.0528 28.2905 31.0455 28.3072 31.0365C28.3257 31.0265 28.3429 31.0148 28.3586 31.0015C28.3824 30.9813 28.4029 30.9573 28.4202 30.9294Q28.4461 30.8878 28.4575 30.8425L28.4575 30.8423C28.4625 30.8223 28.4654 30.8017 28.4661 30.7806C28.4663 30.7771 28.4663 30.7736 28.4663 30.7702C28.4663 30.7547 28.4651 30.7395 28.4627 30.7244C28.457 30.6889 28.4445 30.6545 28.4252 30.6211L26.5189 27.3193L26.6367 27.2108ZM20 28.2Q19.079 28.2 18.202 28.0035L18.2018 28.0035Q17.4905 27.8441 16.8081 27.5555C16.3473 27.3606 15.9112 27.128 15.4998 26.8577Q14.8034 26.4 14.2017 25.7983Q13.6002 25.1967 13.1426 24.5006L13.1426 24.5005L13.1426 24.5005Q12.737 23.8834 12.4445 23.1919Q12.156 22.5098 11.9966 21.7987Q11.8 20.9214 11.8 20C11.8 19.3857 11.8655 18.7861 11.9966 18.2012L11.9968 18.2003Q12.1562 17.4898 12.4445 16.8081Q12.737 16.1166 13.1426 15.4994Q13.6002 14.8033 14.2017 14.2017Q14.8033 13.6002 15.4994 13.1426Q16.1166 12.737 16.8081 12.4445Q17.4902 12.156 18.2013 11.9966C18.7862 11.8655 19.3857 11.8 20 11.8Q20.9214 11.8 21.7987 11.9966Q22.5098 12.156 23.1919 12.4445Q23.8833 12.7369 24.5003 13.1425C24.9645 13.4475 25.3972 13.8006 25.7983 14.2017C26.1995 14.6029 26.5526 15.0357 26.8578 15.5L26.858 15.5003Q27.2632 16.1171 27.5555 16.8081C27.7479 17.263 27.8972 17.7275 28.0035 18.2017C28.1345 18.7864 28.2 19.3859 28.2 20C28.2 20.6141 28.1345 21.2134 28.0035 21.7981C27.8973 22.2724 27.7479 22.7369 27.5555 23.1919C27.3606 23.6527 27.128 24.0888 26.8577 24.5001C26.5526 24.9644 26.1994 25.3971 25.7983 25.7983Q25.1965 26.4 24.5001 26.8577L24.5 26.8578C24.0887 27.128 23.6527 27.3606 23.1919 27.5555C22.737 27.7479 22.2725 27.8972 21.7983 28.0035C21.2136 28.1345 20.6141 28.2 20 28.2ZM20 28C24.4183 28 28 24.4183 28 20C28 15.5817 24.4183 12 20 12C15.5817 12 12 15.5817 12 20C12 24.4183 15.5817 28 20 28Z" fill="url(#paint_linear_2)" fill-rule="evenodd" />
	<path id="星形 1" d="M21.6794 16.7264C21.8177 17.1158 22.1813 17.38 22.5944 17.3913L24.7951 17.4512C25.736 17.4768 26.1236 18.6698 25.3774 19.2435L23.6323 20.5856C23.3047 20.8375 23.1658 21.2649 23.2828 21.6613L23.9058 23.7728C24.1722 24.6755 23.1574 25.4128 22.3811 24.8805L20.5655 23.6355C20.2247 23.4018 19.7753 23.4018 19.4345 23.6355L17.6189 24.8805C16.8426 25.4128 15.8278 24.6755 16.0942 23.7728L16.7172 21.6613C16.8342 21.2649 16.6953 20.8375 16.3677 20.5856L14.6226 19.2435C13.8764 18.6698 14.264 17.4768 15.2049 17.4512L17.4056 17.3913C17.8187 17.38 18.1823 17.1158 18.3206 16.7264L19.0577 14.652C19.3728 13.7651 20.6272 13.7651 20.9423 14.652L21.6794 16.7264Z" fill="url(#paint_linear_3)" fill-rule="evenodd" />
	<path id="星形 1" d="M18.3206 16.7264C18.1823 17.1158 17.8187 17.38 17.4056 17.3913L15.2049 17.4512C14.264 17.4768 13.8764 18.6698 14.6226 19.2435L16.3677 20.5856C16.6953 20.8375 16.8342 21.2649 16.7172 21.6613L16.0942 23.7728C15.8278 24.6755 16.8426 25.4128 17.6189 24.8805L19.4345 23.6355C19.7753 23.4018 20.2247 23.4018 20.5655 23.6355L22.3811 24.8805C23.1574 25.4128 24.1722 24.6755 23.9058 23.7728L23.2828 21.6613C23.1658 21.2649 23.3047 20.8375 23.6323 20.5856L25.3774 19.2435C26.1236 18.6698 25.736 17.4768 24.7951 17.4512L22.5944 17.3913C22.1813 17.38 21.8177 17.1158 21.6794 16.7264L20.9423 14.652C20.6272 13.7651 19.3728 13.7651 19.0577 14.652L18.3206 16.7264ZM18.5091 16.7934C18.3431 17.2607 17.9067 17.5777 17.411 17.5912L15.2104 17.6511C14.4577 17.6716 14.1476 18.626 14.7445 19.085L16.4896 20.427C16.8827 20.7293 17.0494 21.2423 16.909 21.7179L16.286 23.8294C16.0729 24.5516 16.8847 25.1414 17.5057 24.7155L19.3214 23.4705C19.7303 23.1901 20.2697 23.1901 20.6786 23.4705L22.4943 24.7155C23.1153 25.1414 23.9271 24.5516 23.714 23.8294L23.091 21.7179C22.9506 21.2423 23.1173 20.7293 23.5104 20.427L25.2555 19.085C25.8524 18.626 25.5423 17.6716 24.7896 17.6511L22.589 17.5912C22.0933 17.5777 21.6569 17.2607 21.4909 16.7934L20.7538 14.719C20.5017 14.0094 19.4983 14.0094 19.2462 14.719L18.5091 16.7934Z" fill="url(#paint_linear_4)" fill-rule="evenodd" />
</svg>
