<svg width="40" height="41" viewBox="0 0 40 41" fill="none" xmlns="http://www.w3.org/2000/svg">
<path d="M4 8C4 5.79086 5.79086 4 8 4H26C28.2091 4 30 5.79086 30 8V30C30 32.2091 28.2091 34 26 34H8C5.79086 34 4 32.2091 4 30V8Z" fill="url(#paint0_linear_2433_31503)"/>
<path d="M10.1 10C10.1 7.84609 11.8461 6.1 14 6.1H32C34.1539 6.1 35.9 7.84609 35.9 10V32C35.9 34.1539 34.1539 35.9 32 35.9H14C11.8461 35.9 10.1 34.1539 10.1 32V10Z" fill="#BFB5FF" fill-opacity="0.75" stroke="url(#paint1_linear_2433_31503)" stroke-width="0.2"/>
<path d="M21.8384 14.1407C22.268 14.5703 22.9645 14.5703 23.3941 14.1407L24.7143 12.8206C25.4563 12.0786 26.6593 12.0786 27.4013 12.8206L32.5764 17.9957C33.3184 18.7377 33.3184 19.9407 32.5764 20.6827L31.5184 21.7407C31.3119 21.9472 30.9771 21.9472 30.7706 21.7407C30.5641 21.5341 30.5641 21.1993 30.7706 20.9928L31.6768 20.0866C32.0889 19.6745 32.0889 19.0063 31.6768 18.5943L26.8277 13.7451C26.3981 13.3155 25.7016 13.3155 25.272 13.7451L20.0853 18.9318C19.8227 19.1945 19.8227 19.6203 20.0854 19.8829C20.7952 20.5927 21.946 20.5927 22.6558 19.8829L24.4815 18.0572C24.8331 17.7056 25.4031 17.7057 25.7546 18.0575L29.7481 22.0542C30.1438 22.4503 30.1437 23.0923 29.7478 23.4882C29.3517 23.8843 28.7096 23.8843 28.3135 23.4882L26.4081 21.5828C26.2129 21.3876 25.8963 21.3876 25.701 21.5828C25.5058 21.7781 25.5058 22.0947 25.701 22.2899L27.6065 24.1955C28.0025 24.5914 28.0025 25.2334 27.6065 25.6294C27.2106 26.0254 26.5686 26.0254 26.1726 25.6294L24.2671 23.7239C24.0718 23.5286 23.7552 23.5286 23.56 23.7239C23.3647 23.9192 23.3647 24.2357 23.56 24.431L25.4655 26.3365C25.8615 26.7325 25.8615 27.3745 25.4655 27.7705C25.0695 28.1664 24.4275 28.1664 24.0315 27.7705L22.126 25.8649C21.9308 25.6697 21.6142 25.6697 21.4189 25.8649C21.2237 26.0602 21.2237 26.3768 21.4189 26.5721L23.3243 28.4775C23.7204 28.8735 23.7204 29.5156 23.3243 29.9116C22.9284 30.3076 22.2864 30.3077 21.8904 29.9118L12.6568 20.6827C11.9145 19.9408 11.9144 18.7375 12.6565 17.9954L17.8313 12.8206C18.5733 12.0786 19.7763 12.0786 20.5183 12.8206L21.8384 14.1407Z" fill="url(#paint2_linear_2433_31503)" stroke="url(#paint3_linear_2433_31503)" stroke-width="0.2"/>
<defs>
<linearGradient id="paint0_linear_2433_31503" x1="11.5" y1="10.5625" x2="31.9889" y2="16.669" gradientUnits="userSpaceOnUse">
<stop stop-color="#917FFB"/>
<stop offset="1" stop-color="#3F2DAF"/>
</linearGradient>
<linearGradient id="paint1_linear_2433_31503" x1="8.14286" y1="8.72727" x2="46.914" y2="26.0767" gradientUnits="userSpaceOnUse">
<stop stop-color="white"/>
<stop offset="1" stop-color="white" stop-opacity="0"/>
</linearGradient>
<linearGradient id="paint2_linear_2433_31503" x1="11.6231" y1="21.0528" x2="33.764" y2="18.4871" gradientUnits="userSpaceOnUse">
<stop stop-color="white" stop-opacity="0.9"/>
<stop offset="1" stop-color="white" stop-opacity="0.3"/>
</linearGradient>
<linearGradient id="paint3_linear_2433_31503" x1="10.4834" y1="13.8136" x2="38.3227" y2="30.6343" gradientUnits="userSpaceOnUse">
<stop stop-color="white"/>
<stop offset="1" stop-color="white" stop-opacity="0"/>
</linearGradient>
</defs>
</svg>
