<svg width="40" height="40" viewBox="0 0 40 40" fill="none" xmlns="http://www.w3.org/2000/svg">
<path d="M4 31.6928C4 34.0183 5.9763 35.8536 8.29549 35.6819L27.2955 34.2744C29.3843 34.1197 31 32.3799 31 30.2854L31 9.7147C31 7.6202 29.3843 5.88035 27.2955 5.72563L8.29549 4.31822C5.9763 4.14643 4 5.98174 4 8.30729L4 31.6928Z" fill="url(#paint0_linear_7861_113)"/>
<path d="M31.7119 35.5821L12.7119 34.1747C10.6753 34.0239 9.1 32.3275 9.1 30.2854L9.1 9.71469C9.1 7.67255 10.6753 5.9762 12.7119 5.82535L31.7119 4.41794C33.9731 4.25045 35.9 6.03988 35.9 8.30729L35.9 31.6928C35.9 33.9602 33.9731 35.7496 31.7119 35.5821Z" fill="#FFB7B5" fill-opacity="0.75" stroke="url(#paint1_linear_7861_113)" stroke-width="0.2"/>
<path d="M22.2381 10.5C22.2381 11.8255 21.1636 12.9 19.8381 12.9C18.5126 12.9 17.4381 11.8255 17.4381 10.5C17.4381 9.17452 18.5126 8.1 19.8381 8.1C21.1636 8.1 22.2381 9.17452 22.2381 10.5ZM13.2352 20.0024L15.4159 16.4843C16.3347 15.0019 17.9548 14.1 19.6989 14.1H19.9772C21.7213 14.1 23.3414 15.0019 24.2603 16.4843L26.441 20.0024C26.7029 20.4249 26.5727 20.9797 26.1502 21.2415C25.7277 21.5034 25.1729 21.3732 24.9111 20.9507L23.5573 18.7667C23.3224 18.3878 22.7381 18.5542 22.7381 19V31C22.7381 31.4971 22.3351 31.9 21.8381 31.9C21.341 31.9 20.9381 31.4971 20.9381 31V24C20.9381 23.3925 20.4456 22.9 19.8381 22.9C19.2306 22.9 18.7381 23.3925 18.7381 24V31C18.7381 31.4971 18.3351 31.9 17.8381 31.9C17.341 31.9 16.9381 31.4971 16.9381 31V19C16.9381 18.5542 16.3537 18.3878 16.1189 18.7667L14.7651 20.9507C14.5032 21.3732 13.9485 21.5034 13.526 21.2415C13.1035 20.9797 12.9733 20.4249 13.2352 20.0024Z" fill="url(#paint2_linear_7861_113)" stroke="url(#paint3_linear_7861_113)" stroke-width="0.2"/>
<defs>
<linearGradient id="paint0_linear_7861_113" x1="4.81415" y1="14.6327" x2="30.9816" y2="22.826" gradientUnits="userSpaceOnUse">
<stop stop-color="#FF8383"/>
<stop offset="1" stop-color="#F52828"/>
</linearGradient>
<linearGradient id="paint1_linear_7861_113" x1="7.07143" y1="7.16033" x2="47.433" y2="25.0879" gradientUnits="userSpaceOnUse">
<stop stop-color="white"/>
<stop offset="1" stop-color="white" stop-opacity="0"/>
</linearGradient>
<linearGradient id="paint2_linear_7861_113" x1="13" y1="13.3333" x2="26.4534" y2="11.6021" gradientUnits="userSpaceOnUse">
<stop stop-color="white" stop-opacity="0.9"/>
<stop offset="1" stop-color="white" stop-opacity="0.3"/>
</linearGradient>
<linearGradient id="paint3_linear_7861_113" x1="12.0231" y1="10.1818" x2="34.5505" y2="16.8099" gradientUnits="userSpaceOnUse">
<stop stop-color="white"/>
<stop offset="1" stop-color="white" stop-opacity="0"/>
</linearGradient>
</defs>
</svg>
