<svg width="40.000000" height="40.000000" viewBox="0 0 40 40" fill="none" xmlns="http://www.w3.org/2000/svg" xmlns:xlink="http://www.w3.org/1999/xlink">
	<desc>
			Created with Pixso.
	</desc>
	<defs>
		<clipPath id="clip2165_67933">
			<rect id="Icon/Alpha/lost-property" width="40.000004" height="40.000004" fill="white" fill-opacity="0"/>
		</clipPath>
		<linearGradient x1="5.296314" y1="13.185659" x2="34.703697" y2="24.814352" id="paint_linear_2165_67932_0" gradientUnits="userSpaceOnUse">
			<stop stop-color="#FA904F"/>
			<stop offset="1.000000" stop-color="#FF6100"/>
		</linearGradient>
		<linearGradient x1="2.169918" y1="14.181824" x2="41.173218" y2="39.272736" id="paint_linear_2165_67930_0" gradientUnits="userSpaceOnUse">
			<stop stop-color="#FFFFFF"/>
			<stop offset="1.000000" stop-color="#FFFFFF" stop-opacity="0.000000"/>
		</linearGradient>
		<linearGradient x1="14.285713" y1="17.454548" x2="26.785713" y2="34.181824" id="paint_linear_2165_67931_0" gradientUnits="userSpaceOnUse">
			<stop stop-color="#FFFFFF"/>
			<stop offset="1.000000" stop-color="#FFFFFF" stop-opacity="0.000000"/>
		</linearGradient>
	</defs>
	<rect id="Icon/Alpha/lost-property" width="40.000004" height="40.000004" fill="#FFFFFF" fill-opacity="0"/>
	<g clip-path="url(#clip2165_67933)">
		<path id="矢量 298" d="M12.06 9C12.55 5.05 15.92 2 20 2C24.07 2 27.44 5.05 27.93 9L31.64 9C33.98 9 35.83 11 35.63 13.33L34.02 32.33C33.84 34.4 32.11 36 30.03 36L9.96 36C7.88 36 6.15 34.4 5.97 32.33L4.36 13.33C4.16 11 6.01 9 8.35 9L12.06 9ZM25.91 9L14.08 9C14.55 6.16 17.02 4 20 4C22.97 4 25.44 6.16 25.91 9Z" fill="url(#paint_linear_2165_67932_0)" fill-opacity="1.000000" fill-rule="evenodd"/>
		<path id="矢量 296" d="M8.39 12L31.6 12C33.96 12 35.8 14.03 35.58 16.37L34.05 32.37C33.86 34.43 32.13 36 30.07 36L9.92 36C7.86 36 6.13 34.43 5.94 32.37L4.41 16.37C4.19 14.03 6.04 12 8.39 12Z" fill="#FBAC7B" fill-opacity="0.750000" fill-rule="nonzero"/>
		<path id="矢量 296" d="M8.39 12L31.6 12C33.96 12 35.8 14.03 35.58 16.37L34.05 32.37C33.86 34.43 32.13 36 30.07 36L9.92 36C7.86 36 6.13 34.43 5.94 32.37L4.41 16.37C4.19 14.03 6.04 12 8.39 12ZM35.38 16.36L33.86 32.36Q33.82 32.75 33.7 33.12Q33.61 33.43 33.46 33.72Q33.31 34.01 33.12 34.27Q32.9 34.56 32.63 34.81Q32.36 35.06 32.05 35.24Q31.77 35.41 31.46 35.53Q31.16 35.65 30.85 35.72Q30.47 35.8 30.07 35.8L9.92 35.8Q9.52 35.8 9.14 35.72Q8.83 35.65 8.53 35.53Q8.22 35.41 7.94 35.24Q7.63 35.06 7.36 34.81Q7.09 34.56 6.87 34.27Q6.68 34.01 6.53 33.72Q6.38 33.43 6.29 33.12Q6.17 32.75 6.14 32.36L4.61 16.36Q4.57 15.89 4.63 15.45Q4.68 15.1 4.8 14.76Q4.92 14.42 5.09 14.11Q5.3 13.75 5.58 13.44Q5.87 13.13 6.21 12.89Q6.5 12.68 6.83 12.53Q7.15 12.38 7.49 12.3Q7.93 12.2 8.39 12.2L31.6 12.2Q32.06 12.2 32.5 12.3Q32.84 12.38 33.16 12.53Q33.49 12.68 33.78 12.89Q34.12 13.13 34.41 13.44Q34.69 13.75 34.9 14.11Q35.07 14.42 35.19 14.76Q35.31 15.1 35.36 15.45Q35.42 15.89 35.38 16.36Z" fill="url(#paint_linear_2165_67930_0)" fill-opacity="1.000000" fill-rule="evenodd"/>
		<path id="矢量 297" d="M15 21C15 20.63 15.03 20.27 15.11 19.92C15.18 19.62 15.27 19.33 15.39 19.05C15.51 18.76 15.65 18.5 15.82 18.24C16 17.96 16.22 17.7 16.46 17.46C16.7 17.22 16.96 17 17.24 16.82C17.5 16.65 17.76 16.51 18.05 16.39C18.33 16.27 18.62 16.18 18.92 16.11C19.27 16.03 19.63 16 20 16C20.36 16 20.72 16.03 21.07 16.11C21.37 16.18 21.66 16.27 21.94 16.39C22.23 16.51 22.49 16.65 22.75 16.82C23.03 17 23.29 17.22 23.53 17.46C23.77 17.7 23.99 17.96 24.17 18.24C24.34 18.5 24.48 18.76 24.6 19.05C24.72 19.33 24.81 19.62 24.88 19.92C24.96 20.27 25 20.63 25 21C25 21.36 24.96 21.72 24.88 22.07C24.81 22.37 24.72 22.66 24.6 22.94C24.48 23.23 24.34 23.49 24.17 23.75C23.99 24.03 23.77 24.29 23.53 24.53C23.29 24.77 23.03 24.99 22.75 25.17C22.49 25.34 22.23 25.48 21.94 25.6C21.66 25.72 21.37 25.81 21.07 25.88L21 28C21 28.55 20.55 29 20 29C19.44 29 19 28.55 19 28L19 25C19 24.44 19.43 24 20 24C20.23 24 20.45 23.97 20.68 23.92C20.84 23.88 21 23.83 21.16 23.76C21.33 23.69 21.48 23.61 21.63 23.51C21.8 23.4 21.97 23.27 22.12 23.12C22.27 22.97 22.4 22.8 22.51 22.63C22.61 22.48 22.69 22.33 22.76 22.16C22.83 22 22.88 21.84 22.92 21.68C22.97 21.45 23 21.23 23 21C23 20.76 22.97 20.54 22.92 20.31C22.88 20.15 22.83 19.99 22.76 19.83C22.69 19.66 22.61 19.51 22.51 19.36C22.4 19.19 22.27 19.02 22.12 18.87C21.97 18.72 21.8 18.59 21.63 18.48C21.48 18.38 21.33 18.3 21.16 18.23C21 18.16 20.84 18.11 20.68 18.07C20.45 18.02 20.23 18 20 18C19.76 18 19.54 18.02 19.31 18.07C19.15 18.11 18.99 18.16 18.83 18.23C18.66 18.3 18.51 18.38 18.36 18.48C18.19 18.59 18.02 18.72 17.87 18.87C17.72 19.02 17.59 19.19 17.48 19.36C17.38 19.51 17.3 19.66 17.23 19.83C17.16 19.99 17.11 20.15 17.07 20.31C17.02 20.54 17 20.76 17 21C17 21.56 16.56 22 16 22C15.43 22 15 21.56 15 21ZM19 31C19 30.44 19.44 30 20 30C20.55 30 21 30.44 21 31C21 31.55 20.55 32 20 32C19.44 32 19 31.55 19 31Z" fill="url(#paint_linear_2165_67931_0)" fill-opacity="1.000000" fill-rule="evenodd"/>
	</g>
</svg>
