<svg width="40" height="40" viewBox="0 0 40 40" fill="none" xmlns="http://www.w3.org/2000/svg">
<path d="M4 21.0211C4 19.3764 5.10756 17.9379 6.69762 17.5175L16.1654 15.0139C18.6786 14.3494 21.3214 14.3494 23.8346 15.0139L33.3024 17.5175C34.8924 17.9379 36 19.3764 36 21.0211V30.5639C36 33.5662 33.5662 36 30.5639 36H9.43609C6.43382 36 4 33.5662 4 30.5639L4 21.0211Z" fill="url(#paint0_linear_2315_33409)"/>
<path d="M7.1 7.46444C7.1 5.58354 8.30675 4.1 9.75 4.1L30.25 4.1C31.6933 4.1 32.9 5.58354 32.9 7.46444V24.4579C32.8925 24.4652 32.8835 24.4738 32.8731 24.4837C32.8352 24.5198 32.7785 24.5729 32.7035 24.6406C32.5535 24.7761 32.3304 24.9701 32.0391 25.2032C31.4565 25.6693 30.6014 26.2912 29.5129 26.9132C27.3355 28.1574 24.2276 29.4 20.5 29.4C16.7715 29.4 13.4125 28.1569 10.9831 26.911C9.76892 26.2883 8.78828 25.6657 8.11146 25.1989C7.77308 24.9656 7.51074 24.7712 7.33322 24.6354C7.24446 24.5675 7.17692 24.5143 7.13168 24.4781C7.1195 24.4683 7.10893 24.4598 7.1 24.4526V7.46444Z" fill="#AADEFF" fill-opacity="0.75" stroke="url(#paint1_linear_2315_33409)" stroke-width="0.2"/>
<path d="M27 9.1C27.4971 9.1 27.9 9.50294 27.9 10C27.9 10.4971 27.4971 10.9 27 10.9L13 10.9C12.5029 10.9 12.1 10.4971 12.1 10C12.1 9.50294 12.5029 9.1 13 9.1L27 9.1ZM27 13.1C27.4971 13.1 27.9 13.5029 27.9 14C27.9 14.4971 27.4971 14.9 27 14.9L13 14.9C12.5029 14.9 12.1 14.4971 12.1 14C12.1 13.5029 12.5029 13.1 13 13.1L27 13.1ZM27 17.1C27.4971 17.1 27.9 17.5029 27.9 18C27.9 18.4971 27.4971 18.9 27 18.9H13C12.5029 18.9 12.1 18.4971 12.1 18C12.1 17.5029 12.5029 17.1 13 17.1L27 17.1ZM20 21.1C20.4971 21.1 20.9 21.5029 20.9 22C20.9 22.4971 20.4971 22.9 20 22.9H13C12.5029 22.9 12.1 22.4971 12.1 22C12.1 21.5029 12.5029 21.1 13 21.1L20 21.1Z" fill="url(#paint2_linear_2315_33409)" stroke="url(#paint3_linear_2315_33409)" stroke-width="0.2"/>
<path d="M4 23.6805V21.0724C5.4695 22.3654 7.08244 23.518 8.73082 24.5583C11.9273 26.5756 16.0373 28.5 20 28.5C23.9627 28.5 28.0727 26.5756 31.2692 24.5583C32.9713 23.484 34.5207 22.2924 36 20.9586V23.678C34.8271 24.605 33.5906 25.4582 32.3366 26.2496C29.0427 28.3284 24.5373 30.5 20 30.5C15.4627 30.5 10.9573 28.3284 7.66342 26.2496C6.41078 25.4591 5.17289 24.6072 4 23.6805Z" fill="url(#paint4_linear_2315_33409)"/>
<defs>
<linearGradient id="paint0_linear_2315_33409" x1="13.2308" y1="18.8125" x2="35.1928" y2="29.798" gradientUnits="userSpaceOnUse">
<stop stop-color="#80CCFE"/>
<stop offset="1" stop-color="#009AFE"/>
</linearGradient>
<linearGradient id="paint1_linear_2315_33409" x1="5.14286" y1="6.31818" x2="41.5792" y2="25.5001" gradientUnits="userSpaceOnUse">
<stop stop-color="white"/>
<stop offset="1" stop-color="white" stop-opacity="0"/>
</linearGradient>
<linearGradient id="paint2_linear_2315_33409" x1="12" y1="16" x2="27.7922" y2="14.1886" gradientUnits="userSpaceOnUse">
<stop stop-color="white" stop-opacity="0.9"/>
<stop offset="1" stop-color="white" stop-opacity="0.3"/>
</linearGradient>
<linearGradient id="paint3_linear_2315_33409" x1="10.8571" y1="10.2727" x2="32.0978" y2="22.8066" gradientUnits="userSpaceOnUse">
<stop stop-color="white"/>
<stop offset="1" stop-color="white" stop-opacity="0"/>
</linearGradient>
<linearGradient id="paint4_linear_2315_33409" x1="15.5766" y1="26.6029" x2="24.8589" y2="35.5519" gradientUnits="userSpaceOnUse">
<stop stop-color="#529EE3"/>
<stop offset="1" stop-color="#4088F4"/>
</linearGradient>
</defs>
</svg>
