<svg width="40" height="40" viewBox="0 0 40 40" fill="none" xmlns="http://www.w3.org/2000/svg">
<rect width="40" height="40" rx="4" fill="white"/>
<path d="M4 11C4 8.79086 5.79086 7 8 7H32C34.2091 7 36 8.79086 36 11V27C36 29.2091 34.2091 31 32 31H8C5.79086 31 4 29.2091 4 27V11Z" fill="url(#paint0_linear_7861_17330)"/>
<g filter="url(#filter0_b_7861_17330)">
<rect x="11" y="3" width="4" height="7" rx="2" fill="#FFB7B5" fill-opacity="0.6"/>
<rect x="11.1" y="3.1" width="3.8" height="6.8" rx="1.9" stroke="url(#paint1_linear_7861_17330)" stroke-width="0.2"/>
</g>
<g filter="url(#filter1_b_7861_17330)">
<rect x="24.6846" y="3" width="4" height="7" rx="2" fill="#FFB7B5" fill-opacity="0.6"/>
<rect x="24.7846" y="3.1" width="3.8" height="6.8" rx="1.9" stroke="url(#paint2_linear_7861_17330)" stroke-width="0.2"/>
</g>
<path d="M4.1 16C4.1 13.8461 5.84609 12.1 8 12.1H32C34.1539 12.1 35.9 13.8461 35.9 16V32C35.9 34.1539 34.1539 35.9 32 35.9H8C5.84609 35.9 4.1 34.1539 4.1 32V16Z" fill="#FFB7B5" fill-opacity="0.9" stroke="url(#paint3_linear_7861_17330)" stroke-width="0.2"/>
<path d="M29 17.1C29.4971 17.1 29.9 17.5029 29.9 18C29.9 18.4971 29.4971 18.9 29 18.9L11 18.9C10.5029 18.9 10.1 18.4971 10.1 18C10.1 17.5029 10.5029 17.1 11 17.1L29 17.1ZM29 21.1C29.4971 21.1 29.9 21.5029 29.9 22C29.9 22.4971 29.4971 22.9 29 22.9L11 22.9C10.5029 22.9 10.1 22.4971 10.1 22C10.1 21.5029 10.5029 21.1 11 21.1L29 21.1Z" fill="url(#paint4_linear_7861_17330)" stroke="url(#paint5_linear_7861_17330)" stroke-width="0.2"/>
<defs>
<filter id="filter0_b_7861_17330" x="7.37594" y="-0.624058" width="11.2481" height="14.2481" filterUnits="userSpaceOnUse" color-interpolation-filters="sRGB">
<feFlood flood-opacity="0" result="BackgroundImageFix"/>
<feGaussianBlur in="BackgroundImageFix" stdDeviation="1.81203"/>
<feComposite in2="SourceAlpha" operator="in" result="effect1_backgroundBlur_7861_17330"/>
<feBlend mode="normal" in="SourceGraphic" in2="effect1_backgroundBlur_7861_17330" result="shape"/>
</filter>
<filter id="filter1_b_7861_17330" x="21.0605" y="-0.624058" width="11.2481" height="14.2481" filterUnits="userSpaceOnUse" color-interpolation-filters="sRGB">
<feFlood flood-opacity="0" result="BackgroundImageFix"/>
<feGaussianBlur in="BackgroundImageFix" stdDeviation="1.81203"/>
<feComposite in2="SourceAlpha" operator="in" result="effect1_backgroundBlur_7861_17330"/>
<feBlend mode="normal" in="SourceGraphic" in2="effect1_backgroundBlur_7861_17330" result="shape"/>
</filter>
<linearGradient id="paint0_linear_7861_17330" x1="4.96492" y1="14.8958" x2="32.5274" y2="28.2716" gradientUnits="userSpaceOnUse">
<stop stop-color="#FF8383"/>
<stop offset="1" stop-color="#F52828"/>
</linearGradient>
<linearGradient id="paint1_linear_7861_17330" x1="10.7143" y1="3.63636" x2="17.3002" y2="5.57949" gradientUnits="userSpaceOnUse">
<stop stop-color="white"/>
<stop offset="1" stop-color="white" stop-opacity="0"/>
</linearGradient>
<linearGradient id="paint2_linear_7861_17330" x1="24.3989" y1="3.63636" x2="30.9847" y2="5.57949" gradientUnits="userSpaceOnUse">
<stop stop-color="white"/>
<stop offset="1" stop-color="white" stop-opacity="0"/>
</linearGradient>
<linearGradient id="paint3_linear_7861_17330" x1="1.71429" y1="14.1818" x2="40.5716" y2="40.9326" gradientUnits="userSpaceOnUse">
<stop stop-color="white"/>
<stop offset="1" stop-color="white" stop-opacity="0"/>
</linearGradient>
<linearGradient id="paint4_linear_7861_17330" x1="10" y1="20" x2="27.9868" y2="13.9825" gradientUnits="userSpaceOnUse">
<stop stop-color="white" stop-opacity="0.9"/>
<stop offset="1" stop-color="white" stop-opacity="0.3"/>
</linearGradient>
<linearGradient id="paint5_linear_7861_17330" x1="8.57143" y1="17.5455" x2="17.6059" y2="33.0946" gradientUnits="userSpaceOnUse">
<stop stop-color="white"/>
<stop offset="1" stop-color="white" stop-opacity="0"/>
</linearGradient>
</defs>
</svg>
