<svg width="48" height="48" viewBox="0 0 48 48" fill="none" xmlns="http://www.w3.org/2000/svg">
<path fill-rule="evenodd" clip-rule="evenodd" d="M6.4 40.8C4.19086 40.8 2.4 39.0092 2.4 36.8V22.0001C2.4 19.7909 4.19086 18.0001 6.4 18.0001H32C34.2091 18.0001 36 19.7909 36 22.0001V36.8C36 39.0092 34.2091 40.8 32 40.8L6.4 40.8Z" fill="url(#paint0_linear_1827_2698)"/>
<path fill-rule="evenodd" clip-rule="evenodd" d="M6.4 40.8C4.19086 40.8 2.4 39.0092 2.4 36.8V22.0001C2.4 19.7909 4.19086 18.0001 6.4 18.0001H32C34.2091 18.0001 36 19.7909 36 22.0001V36.8C36 39.0092 34.2091 40.8 32 40.8L6.4 40.8Z" fill="url(#paint1_linear_1827_2698)"/>
<path fill-rule="evenodd" clip-rule="evenodd" d="M15.5498 7.19995C13.3407 7.19995 11.5498 8.98085 11.5498 11.19C11.5498 18.8814 11.5498 35.0867 11.5498 35.9999C11.5498 40.1999 7.94982 40.7999 6.74979 40.7999C5.58813 40.7999 2.59942 40.7999 41.5971 40.7999C43.8062 40.7999 45.6 39.0091 45.6 36.7999V11.2C45.6 8.99081 43.8091 7.19995 41.6 7.19995H15.5498Z" fill="#AADEFF" fill-opacity="0.75"/>
<path fill-rule="evenodd" clip-rule="evenodd" d="M15.5498 7.19995C13.3407 7.19995 11.5498 8.98085 11.5498 11.19C11.5498 18.8814 11.5498 35.0867 11.5498 35.9999C11.5498 40.1999 7.94982 40.7999 6.74979 40.7999C5.58813 40.7999 2.59942 40.7999 41.5971 40.7999C43.8062 40.7999 45.6 39.0091 45.6 36.7999V11.2C45.6 8.99081 43.8091 7.19995 41.6 7.19995H15.5498Z" fill="#AADEFF" fill-opacity="0.75"/>
<path d="M6.74979 40.7999C7.94982 40.7999 11.5498 40.1999 11.5498 35.9999C11.5498 35.0867 11.5498 18.8814 11.5498 11.19C11.5498 8.98085 13.3407 7.19995 15.5498 7.19995H41.6C43.8091 7.19995 45.6 8.99081 45.6 11.2V36.7999C45.6 39.0091 43.8062 40.7999 41.5971 40.7999C2.59942 40.7999 5.58813 40.7999 6.74979 40.7999Z" stroke="url(#paint2_linear_1827_2698)" stroke-width="0.2"/>
<path d="M20 23.9L25.6 23.9C26.6493 23.9 27.5 23.0493 27.5 22L27.5 16.4C27.5 15.3508 26.6477 14.5 25.5983 14.5L25.5854 14.5L25.5726 14.5L25.5597 14.5L25.5469 14.5L25.5341 14.5L25.5214 14.5L25.5086 14.5L25.4959 14.5L25.4832 14.5L25.4705 14.5L25.4579 14.5L25.4452 14.5L25.4326 14.5L25.42 14.5L25.4075 14.5L25.3949 14.5L25.3824 14.5L25.3699 14.5L25.3574 14.5L25.345 14.5L25.3325 14.5L25.3201 14.5L25.3077 14.5L25.2953 14.5L25.283 14.5L25.2706 14.5L25.2583 14.5L25.246 14.5L25.2338 14.5L25.2215 14.5L25.2093 14.5L25.1971 14.5L25.1849 14.5L25.1727 14.5L25.1605 14.5L25.1484 14.5L25.1363 14.5L25.1242 14.5L25.1121 14.5L25.1001 14.5L25.0881 14.5L25.076 14.5L25.064 14.5L25.0521 14.5L25.0401 14.5L25.0282 14.5L25.0163 14.5L25.0043 14.5L24.9925 14.5L24.9806 14.5L24.9688 14.5L24.9569 14.5L24.9451 14.5L24.9333 14.5L24.9216 14.5L24.9098 14.5L24.8981 14.5L24.8864 14.5L24.8747 14.5L24.863 14.5L24.8513 14.5L24.8397 14.5L24.828 14.5L24.8164 14.5L24.8048 14.5L24.7932 14.5L24.7817 14.5L24.7701 14.5L24.7586 14.5L24.7471 14.5L24.7356 14.5L24.7241 14.5L24.7127 14.5L24.7012 14.5L24.6898 14.5L24.6784 14.5L24.667 14.5L24.6556 14.5L24.6442 14.5L24.6329 14.5L24.6216 14.5L24.6102 14.5L24.5989 14.5L24.5876 14.5L24.5764 14.5L24.5651 14.5L24.5539 14.5L24.5427 14.5L24.5315 14.5L24.5203 14.5L24.5091 14.5L24.4979 14.5L24.4868 14.5L24.4756 14.5L24.4645 14.5L24.4534 14.5L24.4423 14.5L24.4312 14.5L24.4202 14.5L24.4091 14.5L24.3981 14.5L24.3871 14.5L24.3761 14.5L24.3651 14.5L24.3541 14.5L24.3431 14.5L24.3322 14.5L24.3212 14.5L24.3103 14.5L24.2994 14.5L24.2885 14.5L24.2776 14.5L24.2667 14.5L24.2559 14.5L24.245 14.5L24.2342 14.5L24.2233 14.5L24.2125 14.5L24.2017 14.5L24.1909 14.5L24.1802 14.5L24.1694 14.5L24.1587 14.5L24.1479 14.5L24.1372 14.5L24.1265 14.5L24.1158 14.5L24.1051 14.5L24.0944 14.5L24.0837 14.5L24.0731 14.5L24.0624 14.5L24.0518 14.5L24.0412 14.5L24.0306 14.5L24.02 14.5L24.0094 14.5L23.9988 14.5L23.9882 14.5L23.9777 14.5L23.9671 14.5L23.9566 14.5L23.946 14.5L23.9355 14.5L23.925 14.5L23.9145 14.5L23.904 14.5L23.8935 14.5L23.8831 14.5L23.8726 14.5L23.8622 14.5L23.8517 14.5L23.8413 14.5L23.8309 14.5L23.8205 14.5L23.8101 14.5L23.7997 14.5L23.7893 14.5L23.7789 14.5L23.7685 14.5L23.7582 14.5L23.7478 14.5L23.7375 14.5L23.7271 14.5L23.7168 14.5L23.7065 14.5L23.6962 14.5L23.6859 14.5L23.6756 14.5L23.6653 14.5L23.655 14.5L23.6447 14.5L23.6345 14.5L23.6242 14.5L23.614 14.5L23.6037 14.5L23.5935 14.5L23.5833 14.5L23.5731 14.5L23.5628 14.5L23.5526 14.5L23.5424 14.5L23.5322 14.5L23.5221 14.5L23.5119 14.5L23.5017 14.5L23.4915 14.5L23.4814 14.5L23.4712 14.5L23.4611 14.5L23.4509 14.5L23.4408 14.5L23.4307 14.5L23.4205 14.5L23.4104 14.5L23.4003 14.5L23.3902 14.5L23.3801 14.5L23.37 14.5L23.3599 14.5L23.3498 14.5L23.3397 14.5L23.3296 14.5L23.3196 14.5L23.3095 14.5L23.2994 14.5L23.2894 14.5L23.2793 14.5L23.2692 14.5L23.2592 14.5L23.2492 14.5L23.2391 14.5L23.2291 14.5L23.2191 14.5L23.209 14.5L23.199 14.5L23.189 14.5L23.179 14.5L23.1689 14.5L23.1589 14.5L23.1489 14.5L23.1389 14.5L23.1289 14.5L23.1189 14.5L23.1089 14.5L23.0989 14.5L23.0889 14.5L23.079 14.5L23.069 14.5L23.059 14.5L23.049 14.5L23.039 14.5L23.0291 14.5L23.0191 14.5L23.0091 14.5L22.9991 14.5L22.9892 14.5L22.9792 14.5L22.9692 14.5L22.9593 14.5L22.9493 14.5L22.9394 14.5L22.9294 14.5L22.9194 14.5L22.9095 14.5L22.8995 14.5L22.8896 14.5L22.8796 14.5L22.8697 14.5L22.8597 14.5L22.8498 14.5L22.8398 14.5L22.8299 14.5L22.8199 14.5L22.81 14.5L22.8 14.5L22.79 14.5L22.7801 14.5L22.7701 14.5L22.7602 14.5L22.7502 14.5L22.7403 14.5L22.7303 14.5L22.7204 14.5L22.7104 14.5L22.7005 14.5L22.6905 14.5L22.6806 14.5L22.6706 14.5L22.6606 14.5L22.6507 14.5L22.6407 14.5L22.6308 14.5L22.6208 14.5L22.6108 14.5L22.6009 14.5L22.5909 14.5L22.5809 14.5L22.5709 14.5L22.561 14.5L22.551 14.5L22.541 14.5L22.531 14.5L22.521 14.5L22.5111 14.5L22.5011 14.5L22.4911 14.5L22.4811 14.5L22.4711 14.5L22.4611 14.5L22.4511 14.5L22.4411 14.5L22.4311 14.5L22.421 14.5L22.411 14.5L22.401 14.5L22.391 14.5L22.3809 14.5L22.3709 14.5L22.3609 14.5L22.3508 14.5L22.3408 14.5L22.3307 14.5L22.3207 14.5L22.3106 14.5L22.3006 14.5L22.2905 14.5L22.2804 14.5L22.2704 14.5L22.2603 14.5L22.2502 14.5L22.2401 14.5L22.23 14.5L22.2199 14.5L22.2098 14.5L22.1997 14.5L22.1896 14.5L22.1795 14.5L22.1693 14.5L22.1592 14.5L22.1491 14.5L22.1389 14.5L22.1288 14.5L22.1186 14.5L22.1085 14.5L22.0983 14.5L22.0881 14.5L22.0779 14.5L22.0678 14.5L22.0576 14.5L22.0474 14.5L22.0372 14.5L22.0269 14.5L22.0167 14.5L22.0065 14.5L21.9963 14.5L21.986 14.5L21.9758 14.5L21.9655 14.5L21.9553 14.5L21.945 14.5L21.9347 14.5L21.9244 14.5L21.9141 14.5L21.9038 14.5L21.8935 14.5L21.8832 14.5L21.8729 14.5L21.8625 14.5L21.8522 14.5L21.8418 14.5L21.8315 14.5L21.8211 14.5L21.8107 14.5L21.8003 14.5L21.7899 14.5L21.7795 14.5L21.7691 14.5L21.7587 14.5L21.7483 14.5L21.7378 14.5L21.7274 14.5L21.7169 14.5L21.7065 14.5L21.696 14.5L21.6855 14.5L21.675 14.5L21.6645 14.5L21.654 14.5L21.6434 14.5L21.6329 14.5L21.6223 14.5L21.6118 14.5L21.6012 14.5L21.5906 14.5L21.58 14.5L21.5694 14.5L21.5588 14.5L21.5482 14.5L21.5376 14.5L21.5269 14.5L21.5163 14.5L21.5056 14.5L21.4949 14.5L21.4842 14.5L21.4735 14.5L21.4628 14.5L21.4521 14.5L21.4413 14.5L21.4306 14.5L21.4198 14.5L21.4091 14.5L21.3983 14.5L21.3875 14.5L21.3767 14.5L21.3658 14.5L21.355 14.5L21.3441 14.5L21.3333 14.5L21.3224 14.5L21.3115 14.5L21.3006 14.5L21.2897 14.5L21.2788 14.5L21.2678 14.5L21.2569 14.5L21.2459 14.5L21.2349 14.5L21.2239 14.5L21.2129 14.5L21.2019 14.5L21.1909 14.5L21.1798 14.5L21.1688 14.5L21.1577 14.5L21.1466 14.5L21.1355 14.5L21.1244 14.5L21.1132 14.5L21.1021 14.5L21.0909 14.5L21.0797 14.5L21.0685 14.5L21.0573 14.5L21.0461 14.5L21.0349 14.5L21.0236 14.5L21.0123 14.5L21.0011 14.5L20.9898 14.5L20.9784 14.5L20.9671 14.5L20.9558 14.5L20.9444 14.5L20.933 14.5L20.9216 14.5L20.9102 14.5L20.8988 14.5L20.8873 14.5L20.8759 14.5L20.8644 14.5L20.8529 14.5L20.8414 14.5L20.8299 14.5L20.8183 14.5L20.8068 14.5L20.7952 14.5L20.7836 14.5L20.772 14.5L20.7603 14.5L20.7487 14.5L20.737 14.5L20.7253 14.5L20.7136 14.5L20.7019 14.5L20.6902 14.5L20.6784 14.5L20.6667 14.5L20.6549 14.5L20.6431 14.5L20.6312 14.5L20.6194 14.5L20.6075 14.5L20.5956 14.5L20.5837 14.5L20.5718 14.5L20.5599 14.5L20.5479 14.5L20.536 14.5L20.524 14.5L20.5119 14.5L20.4999 14.5L20.4879 14.5L20.4758 14.5L20.4637 14.5L20.4516 14.5L20.4395 14.5L20.4273 14.5L20.4151 14.5L20.4029 14.5L20.3907 14.5L20.3785 14.5L20.3662 14.5L20.354 14.5L20.3417 14.5L20.3294 14.5L20.317 14.5L20.3047 14.5L20.2923 14.5L20.2799 14.5L20.2675 14.5L20.255 14.5L20.2426 14.5L20.2301 14.5L20.2176 14.5L20.2051 14.5L20.1925 14.5L20.18 14.5L20.1674 14.5L20.1548 14.5L20.1421 14.5L20.1295 14.5L20.1168 14.5L20.1041 14.5L20.0914 14.5L20.0786 14.5L20.0659 14.5L20.0531 14.5L20.0403 14.5L20.0274 14.5L20.0146 14.5L20.0017 14.5C18.9523 14.5 18.1 15.3508 18.1 16.4L18.1 22C18.1 23.0493 18.9507 23.9 20 23.9Z" fill="url(#paint3_linear_1827_2698)" stroke="url(#paint4_linear_1827_2698)" stroke-width="0.2"/>
<path d="M31.2 17.9L38.4 17.9C39.0075 17.9 39.5 17.4075 39.5 16.8C39.5 16.1926 39.0066 15.7 38.399 15.7L38.3813 15.7L38.3636 15.7L38.346 15.7L38.3285 15.7L38.311 15.7L38.2935 15.7L38.2761 15.7L38.2587 15.7L38.2413 15.7L38.224 15.7L38.2068 15.7L38.1896 15.7L38.1724 15.7L38.1552 15.7L38.1381 15.7L38.1211 15.7L38.104 15.7L38.0871 15.7L38.0701 15.7L38.0532 15.7L38.0364 15.7L38.0195 15.7L38.0028 15.7L37.986 15.7L37.9693 15.7L37.9526 15.7L37.936 15.7L37.9194 15.7L37.9029 15.7L37.8864 15.7L37.8699 15.7L37.8534 15.7L37.837 15.7L37.8207 15.7L37.8043 15.7L37.788 15.7L37.7718 15.7L37.7556 15.7L37.7394 15.7L37.7232 15.7L37.7071 15.7L37.6911 15.7L37.675 15.7L37.659 15.7L37.6431 15.7L37.6271 15.7L37.6112 15.7L37.5954 15.7L37.5795 15.7L37.5637 15.7L37.548 15.7L37.5323 15.7L37.5166 15.7L37.5009 15.7L37.4853 15.7L37.4697 15.7L37.4542 15.7L37.4386 15.7L37.4231 15.7L37.4077 15.7L37.3923 15.7L37.3769 15.7L37.3615 15.7L37.3462 15.7L37.3309 15.7L37.3156 15.7L37.3004 15.7L37.2852 15.7L37.27 15.7L37.2549 15.7L37.2398 15.7L37.2247 15.7L37.2097 15.7L37.1946 15.7L37.1797 15.7L37.1647 15.7L37.1498 15.7L37.1349 15.7L37.12 15.7L37.1052 15.7L37.0904 15.7L37.0756 15.7L37.0609 15.7L37.0461 15.7L37.0315 15.7L37.0168 15.7L37.0022 15.7L36.9876 15.7L36.973 15.7L36.9584 15.7L36.9439 15.7L36.9294 15.7L36.915 15.7L36.9005 15.7L36.8861 15.7L36.8717 15.7L36.8574 15.7L36.843 15.7L36.8287 15.7L36.8144 15.7L36.8002 15.7L36.786 15.7L36.7718 15.7L36.7576 15.7L36.7434 15.7L36.7293 15.7L36.7152 15.7L36.7011 15.7L36.6871 15.7L36.6731 15.7L36.6591 15.7L36.6451 15.7L36.6311 15.7L36.6172 15.7L36.6033 15.7L36.5894 15.7L36.5755 15.7L36.5617 15.7L36.5479 15.7L36.5341 15.7L36.5203 15.7L36.5066 15.7L36.4929 15.7L36.4792 15.7L36.4655 15.7L36.4518 15.7L36.4382 15.7L36.4246 15.7L36.411 15.7L36.3974 15.7L36.3839 15.7L36.3703 15.7L36.3568 15.7L36.3433 15.7L36.3299 15.7L36.3164 15.7L36.303 15.7L36.2896 15.7L36.2762 15.7L36.2628 15.7L36.2495 15.7L36.2362 15.7L36.2228 15.7L36.2096 15.7L36.1963 15.7L36.183 15.7L36.1698 15.7L36.1566 15.7L36.1434 15.7L36.1302 15.7L36.117 15.7L36.1039 15.7L36.0907 15.7L36.0776 15.7L36.0645 15.7L36.0515 15.7L36.0384 15.7L36.0253 15.7L36.0123 15.7L35.9993 15.7L35.9863 15.7L35.9733 15.7L35.9604 15.7L35.9474 15.7L35.9345 15.7L35.9216 15.7L35.9087 15.7L35.8958 15.7L35.8829 15.7L35.87 15.7L35.8572 15.7L35.8443 15.7L35.8315 15.7L35.8187 15.7L35.8059 15.7L35.7932 15.7L35.7804 15.7L35.7676 15.7L35.7549 15.7L35.7422 15.7L35.7295 15.7L35.7168 15.7L35.7041 15.7L35.6914 15.7L35.6787 15.7L35.6661 15.7L35.6535 15.7L35.6408 15.7L35.6282 15.7L35.6156 15.7L35.603 15.7L35.5904 15.7L35.5779 15.7L35.5653 15.7L35.5527 15.7L35.5402 15.7L35.5277 15.7L35.5151 15.7L35.5026 15.7L35.4901 15.7L35.4776 15.7L35.4652 15.7L35.4527 15.7L35.4402 15.7L35.4278 15.7L35.4153 15.7L35.4029 15.7L35.3904 15.7L35.378 15.7L35.3656 15.7L35.3532 15.7L35.3408 15.7L35.3284 15.7L35.316 15.7L35.3036 15.7L35.2912 15.7L35.2789 15.7L35.2665 15.7L35.2542 15.7L35.2418 15.7L35.2295 15.7L35.2171 15.7L35.2048 15.7L35.1925 15.7L35.1802 15.7L35.1678 15.7L35.1555 15.7L35.1432 15.7L35.1309 15.7L35.1186 15.7L35.1064 15.7L35.0941 15.7L35.0818 15.7L35.0695 15.7L35.0572 15.7L35.045 15.7L35.0327 15.7L35.0204 15.7L35.0082 15.7L34.9959 15.7L34.9836 15.7L34.9714 15.7L34.9591 15.7L34.9469 15.7L34.9346 15.7L34.9224 15.7L34.9102 15.7L34.8979 15.7L34.8857 15.7L34.8734 15.7L34.8612 15.7L34.8489 15.7L34.8367 15.7L34.8245 15.7L34.8122 15.7L34.8 15.7L34.7878 15.7L34.7755 15.7L34.7633 15.7L34.7511 15.7L34.7388 15.7L34.7266 15.7L34.7143 15.7L34.7021 15.7L34.6899 15.7L34.6776 15.7L34.6654 15.7L34.6531 15.7L34.6409 15.7L34.6286 15.7L34.6164 15.7L34.6041 15.7L34.5918 15.7L34.5796 15.7L34.5673 15.7L34.555 15.7L34.5428 15.7L34.5305 15.7L34.5182 15.7L34.5059 15.7L34.4937 15.7L34.4814 15.7L34.4691 15.7L34.4568 15.7L34.4445 15.7L34.4322 15.7L34.4198 15.7L34.4075 15.7L34.3952 15.7L34.3829 15.7L34.3705 15.7L34.3582 15.7L34.3458 15.7L34.3335 15.7L34.3211 15.7L34.3088 15.7L34.2964 15.7L34.284 15.7L34.2716 15.7L34.2592 15.7L34.2468 15.7L34.2344 15.7L34.222 15.7L34.2096 15.7L34.1971 15.7L34.1847 15.7L34.1722 15.7L34.1598 15.7L34.1473 15.7L34.1348 15.7L34.1224 15.7L34.1099 15.7L34.0974 15.7L34.0849 15.7L34.0723 15.7L34.0598 15.7L34.0473 15.7L34.0347 15.7L34.0221 15.7L34.0096 15.7L33.997 15.7L33.9844 15.7L33.9718 15.7L33.9592 15.7L33.9465 15.7L33.9339 15.7L33.9213 15.7L33.9086 15.7L33.8959 15.7L33.8832 15.7L33.8705 15.7L33.8578 15.7L33.8451 15.7L33.8324 15.7L33.8196 15.7L33.8068 15.7L33.7941 15.7L33.7813 15.7L33.7685 15.7L33.7557 15.7L33.7428 15.7L33.73 15.7L33.7171 15.7L33.7042 15.7L33.6913 15.7L33.6784 15.7L33.6655 15.7L33.6526 15.7L33.6396 15.7L33.6267 15.7L33.6137 15.7L33.6007 15.7L33.5877 15.7L33.5747 15.7L33.5616 15.7L33.5485 15.7L33.5355 15.7L33.5224 15.7L33.5093 15.7L33.4961 15.7L33.483 15.7L33.4698 15.7L33.4566 15.7L33.4434 15.7L33.4302 15.7L33.417 15.7L33.4037 15.7L33.3905 15.7L33.3772 15.7L33.3638 15.7L33.3505 15.7L33.3372 15.7L33.3238 15.7L33.3104 15.7L33.297 15.7L33.2836 15.7L33.2701 15.7L33.2567 15.7L33.2432 15.7L33.2297 15.7L33.2161 15.7L33.2026 15.7L33.189 15.7L33.1754 15.7L33.1618 15.7L33.1482 15.7L33.1345 15.7L33.1208 15.7L33.1071 15.7L33.0934 15.7L33.0797 15.7L33.0659 15.7L33.0521 15.7L33.0383 15.7L33.0245 15.7L33.0106 15.7L32.9967 15.7L32.9828 15.7L32.9689 15.7L32.9549 15.7L32.941 15.7L32.9269 15.7L32.9129 15.7L32.8989 15.7L32.8848 15.7L32.8707 15.7L32.8566 15.7L32.8424 15.7L32.8282 15.7L32.814 15.7L32.7998 15.7L32.7856 15.7L32.7713 15.7L32.757 15.7L32.7426 15.7L32.7283 15.7L32.7139 15.7L32.6995 15.7L32.6851 15.7L32.6706 15.7L32.6561 15.7L32.6416 15.7L32.627 15.7L32.6124 15.7L32.5978 15.7L32.5832 15.7L32.5685 15.7L32.5539 15.7L32.5391 15.7L32.5244 15.7L32.5096 15.7L32.4948 15.7L32.48 15.7L32.4651 15.7L32.4502 15.7L32.4353 15.7L32.4203 15.7L32.4054 15.7L32.3903 15.7L32.3753 15.7L32.3602 15.7L32.3451 15.7L32.33 15.7L32.3148 15.7L32.2996 15.7L32.2844 15.7L32.2691 15.7L32.2538 15.7L32.2385 15.7L32.2231 15.7L32.2077 15.7L32.1923 15.7L32.1769 15.7L32.1614 15.7L32.1459 15.7L32.1303 15.7L32.1147 15.7L32.0991 15.7L32.0834 15.7L32.0677 15.7L32.052 15.7L32.0363 15.7L32.0205 15.7L32.0046 15.7L31.9888 15.7L31.9729 15.7L31.9569 15.7L31.941 15.7L31.925 15.7L31.9089 15.7L31.8929 15.7L31.8768 15.7L31.8606 15.7L31.8444 15.7L31.8282 15.7L31.812 15.7L31.7957 15.7L31.7793 15.7L31.763 15.7L31.7466 15.7L31.7301 15.7L31.7137 15.7L31.6971 15.7L31.6806 15.7L31.664 15.7L31.6474 15.7L31.6307 15.7L31.614 15.7L31.5972 15.7L31.5805 15.7L31.5636 15.7L31.5468 15.7L31.5299 15.7L31.5129 15.7L31.496 15.7L31.4789 15.7L31.4619 15.7L31.4448 15.7L31.4276 15.7L31.4105 15.7L31.3932 15.7L31.376 15.7L31.3587 15.7L31.3413 15.7L31.3239 15.7L31.3065 15.7L31.289 15.7L31.2715 15.7L31.254 15.7L31.2364 15.7L31.2187 15.7L31.2011 15.7C30.5934 15.7 30.1 16.1926 30.1 16.8C30.1 17.4075 30.5925 17.9 31.2 17.9Z" fill="url(#paint5_linear_1827_2698)" stroke="url(#paint6_linear_1827_2698)" stroke-width="0.2"/>
<path d="M31.2 22.7L38.4 22.7001C39.0075 22.7001 39.5 22.2076 39.5 21.6001C39.5 20.9927 39.0066 20.5001 38.399 20.5001L38.3813 20.5001L38.3636 20.5001L38.346 20.5001L38.3285 20.5001L38.311 20.5001L38.2935 20.5001L38.2761 20.5001L38.2587 20.5001L38.2413 20.5001L38.224 20.5001L38.2068 20.5001L38.1896 20.5001L38.1724 20.5001L38.1552 20.5001L38.1381 20.5001L38.1211 20.5001L38.1041 20.5001L38.0871 20.5001L38.0701 20.5001L38.0532 20.5001L38.0364 20.5001L38.0195 20.5001L38.0028 20.5001L37.986 20.5001L37.9693 20.5001L37.9526 20.5001L37.936 20.5001L37.9194 20.5001L37.9029 20.5001L37.8864 20.5001L37.8699 20.5001L37.8534 20.5001L37.837 20.5001L37.8207 20.5001L37.8043 20.5001L37.788 20.5001L37.7718 20.5001L37.7556 20.5001L37.7394 20.5001L37.7232 20.5001L37.7071 20.5001L37.6911 20.5001L37.675 20.5001L37.659 20.5001L37.6431 20.5001L37.6271 20.5001L37.6112 20.5001L37.5954 20.5001L37.5795 20.5001L37.5637 20.5001L37.548 20.5001L37.5323 20.5001L37.5166 20.5001L37.5009 20.5001L37.4853 20.5001L37.4697 20.5001L37.4542 20.5001L37.4386 20.5001L37.4231 20.5001L37.4077 20.5001L37.3923 20.5001L37.3769 20.5001L37.3615 20.5001L37.3462 20.5001L37.3309 20.5001L37.3156 20.5001L37.3004 20.5001L37.2852 20.5001L37.27 20.5001L37.2549 20.5001L37.2398 20.5001L37.2247 20.5001L37.2097 20.5001L37.1946 20.5L37.1797 20.5L37.1647 20.5L37.1498 20.5L37.1349 20.5L37.12 20.5L37.1052 20.5L37.0904 20.5L37.0756 20.5L37.0609 20.5L37.0461 20.5L37.0315 20.5L37.0168 20.5L37.0022 20.5L36.9876 20.5L36.973 20.5L36.9584 20.5L36.9439 20.5L36.9294 20.5L36.915 20.5L36.9005 20.5L36.8861 20.5L36.8717 20.5L36.8574 20.5L36.843 20.5L36.8287 20.5L36.8144 20.5L36.8002 20.5L36.786 20.5L36.7718 20.5L36.7576 20.5L36.7434 20.5L36.7293 20.5L36.7152 20.5L36.7011 20.5L36.6871 20.5L36.6731 20.5L36.6591 20.5L36.6451 20.5L36.6311 20.5L36.6172 20.5L36.6033 20.5L36.5894 20.5L36.5755 20.5L36.5617 20.5L36.5479 20.5L36.5341 20.5L36.5203 20.5L36.5066 20.5L36.4929 20.5L36.4792 20.5L36.4655 20.5L36.4518 20.5L36.4382 20.5L36.4246 20.5L36.411 20.5L36.3974 20.5L36.3839 20.5L36.3703 20.5L36.3568 20.5L36.3433 20.5L36.3299 20.5L36.3164 20.5L36.303 20.5L36.2896 20.5L36.2762 20.5L36.2628 20.5L36.2495 20.5L36.2362 20.5L36.2228 20.5L36.2096 20.5L36.1963 20.5L36.183 20.5L36.1698 20.5L36.1566 20.5L36.1434 20.5L36.1302 20.5L36.117 20.5L36.1039 20.5L36.0907 20.5L36.0776 20.5L36.0645 20.5L36.0515 20.5L36.0384 20.5L36.0253 20.5L36.0123 20.5L35.9993 20.5L35.9863 20.5L35.9733 20.5L35.9604 20.5L35.9474 20.5L35.9345 20.5L35.9216 20.5L35.9087 20.5L35.8958 20.5L35.8829 20.5L35.87 20.5L35.8572 20.5L35.8443 20.5L35.8315 20.5L35.8187 20.5L35.8059 20.5L35.7932 20.5L35.7804 20.5L35.7676 20.5L35.7549 20.5L35.7422 20.5L35.7295 20.5L35.7168 20.5L35.7041 20.5L35.6914 20.5L35.6787 20.5L35.6661 20.5L35.6535 20.5L35.6408 20.5L35.6282 20.5L35.6156 20.5L35.603 20.5L35.5904 20.5L35.5779 20.5L35.5653 20.5L35.5527 20.5L35.5402 20.5L35.5277 20.5L35.5151 20.5L35.5026 20.5L35.4901 20.5L35.4776 20.5L35.4652 20.5L35.4527 20.5L35.4402 20.5L35.4278 20.5L35.4153 20.5L35.4029 20.5L35.3904 20.5L35.378 20.5L35.3656 20.5L35.3532 20.5L35.3408 20.5L35.3284 20.5L35.316 20.5L35.3036 20.5L35.2912 20.5L35.2789 20.5L35.2665 20.5L35.2542 20.5L35.2418 20.5L35.2295 20.5L35.2171 20.5L35.2048 20.5L35.1925 20.5L35.1802 20.5L35.1678 20.5L35.1555 20.5L35.1432 20.5L35.1309 20.5L35.1186 20.5L35.1064 20.5L35.0941 20.5L35.0818 20.5L35.0695 20.5L35.0572 20.5L35.045 20.5L35.0327 20.5L35.0204 20.5L35.0082 20.5L34.9959 20.5L34.9836 20.5L34.9714 20.5L34.9591 20.5L34.9469 20.5L34.9346 20.5L34.9224 20.5L34.9102 20.5L34.8979 20.5L34.8857 20.5L34.8734 20.5L34.8612 20.5L34.8489 20.5L34.8367 20.5L34.8245 20.5L34.8122 20.5L34.8 20.5L34.7878 20.5L34.7755 20.5L34.7633 20.5L34.7511 20.5L34.7388 20.5L34.7266 20.5L34.7143 20.5L34.7021 20.5L34.6899 20.5L34.6776 20.5L34.6654 20.5L34.6531 20.5L34.6409 20.5L34.6286 20.5L34.6164 20.5L34.6041 20.5L34.5918 20.5L34.5796 20.5L34.5673 20.5L34.555 20.5L34.5428 20.5L34.5305 20.5L34.5182 20.5L34.5059 20.5L34.4937 20.5L34.4814 20.5L34.4691 20.5L34.4568 20.5L34.4445 20.5L34.4322 20.5L34.4198 20.5L34.4075 20.5L34.3952 20.5L34.3829 20.5L34.3705 20.5L34.3582 20.5L34.3458 20.5L34.3335 20.5L34.3211 20.5L34.3088 20.5L34.2964 20.5L34.284 20.5L34.2716 20.5L34.2592 20.5L34.2468 20.5L34.2344 20.5L34.222 20.5L34.2096 20.5L34.1971 20.5L34.1847 20.5L34.1722 20.5L34.1598 20.5L34.1473 20.5L34.1348 20.5L34.1224 20.5L34.1099 20.5L34.0974 20.5L34.0849 20.5L34.0723 20.5L34.0598 20.5L34.0473 20.5L34.0347 20.5L34.0221 20.5L34.0096 20.5L33.997 20.5L33.9844 20.5L33.9718 20.5L33.9592 20.5L33.9465 20.5L33.9339 20.5L33.9213 20.5L33.9086 20.5L33.8959 20.5L33.8832 20.5L33.8705 20.5L33.8578 20.5L33.8451 20.5L33.8324 20.5L33.8196 20.5L33.8068 20.5L33.7941 20.5L33.7813 20.5L33.7685 20.5L33.7557 20.5L33.7428 20.5L33.73 20.5L33.7171 20.5L33.7042 20.5L33.6913 20.5L33.6784 20.5L33.6655 20.5L33.6526 20.5L33.6396 20.5L33.6267 20.5L33.6137 20.5L33.6007 20.5L33.5877 20.5L33.5747 20.5L33.5616 20.5L33.5485 20.5L33.5355 20.5L33.5224 20.5L33.5093 20.5L33.4961 20.5L33.483 20.5L33.4698 20.5L33.4566 20.5L33.4434 20.5L33.4302 20.5L33.417 20.5L33.4037 20.5L33.3905 20.5L33.3772 20.5L33.3638 20.5L33.3505 20.5L33.3372 20.5L33.3238 20.5L33.3104 20.5L33.297 20.5L33.2836 20.5L33.2701 20.5L33.2567 20.5L33.2432 20.5L33.2297 20.5L33.2161 20.5L33.2026 20.5L33.189 20.5L33.1754 20.5L33.1618 20.5L33.1482 20.5L33.1345 20.5L33.1208 20.5L33.1071 20.5L33.0934 20.5L33.0797 20.5L33.0659 20.5L33.0521 20.5L33.0383 20.5L33.0245 20.5L33.0106 20.5L32.9967 20.5L32.9828 20.5L32.9689 20.5L32.9549 20.5L32.941 20.5L32.9269 20.5L32.9129 20.5L32.8989 20.5L32.8848 20.5L32.8707 20.5L32.8566 20.5L32.8424 20.5L32.8282 20.5L32.814 20.5L32.7998 20.5L32.7856 20.5L32.7713 20.5L32.757 20.5L32.7426 20.5L32.7283 20.5L32.7139 20.5L32.6995 20.5L32.6851 20.5L32.6706 20.5L32.6561 20.5L32.6416 20.5L32.627 20.5L32.6124 20.5L32.5978 20.5L32.5832 20.5L32.5685 20.5L32.5539 20.5L32.5391 20.5L32.5244 20.5L32.5096 20.5L32.4948 20.5L32.48 20.5L32.4651 20.5L32.4502 20.5L32.4353 20.5L32.4203 20.5L32.4054 20.5L32.3903 20.5L32.3753 20.5L32.3602 20.5L32.3451 20.5L32.33 20.5L32.3148 20.5L32.2996 20.5L32.2844 20.5L32.2691 20.5L32.2538 20.5L32.2385 20.5L32.2231 20.5L32.2077 20.5L32.1923 20.5L32.1769 20.5L32.1614 20.5L32.1459 20.5L32.1303 20.5L32.1147 20.5L32.0991 20.5L32.0834 20.5L32.0677 20.5L32.052 20.5L32.0363 20.5L32.0205 20.5L32.0046 20.5L31.9888 20.5L31.9729 20.5L31.9569 20.5L31.941 20.5L31.925 20.5L31.9089 20.5L31.8929 20.5L31.8768 20.5L31.8606 20.5L31.8444 20.5L31.8282 20.5L31.812 20.5L31.7957 20.5L31.7793 20.5L31.763 20.5L31.7466 20.5L31.7301 20.5L31.7137 20.5L31.6971 20.5L31.6806 20.5L31.664 20.5L31.6474 20.5L31.6307 20.5L31.614 20.5L31.5972 20.5L31.5805 20.5L31.5636 20.5L31.5468 20.5L31.5299 20.5L31.5129 20.5L31.496 20.5L31.4789 20.5L31.4619 20.5L31.4448 20.5L31.4276 20.5L31.4105 20.5L31.3932 20.5L31.376 20.5L31.3587 20.5L31.3413 20.5L31.3239 20.5L31.3065 20.5L31.289 20.5L31.2715 20.5L31.254 20.5L31.2364 20.5L31.2187 20.5L31.2011 20.5C30.5934 20.5 30.1 20.9926 30.1 21.6C30.1 22.2076 30.5925 22.7 31.2 22.7Z" fill="url(#paint7_linear_1827_2698)" stroke="url(#paint8_linear_1827_2698)" stroke-width="0.2"/>
<path d="M19.2 28.7L38.4 28.7001C39.0075 28.7001 39.5 28.2076 39.5 27.6C39.5 26.9931 39.0032 26.5 38.3951 26.5L38.3456 26.5L38.2961 26.5L38.2468 26.5L38.1977 26.5L38.1487 26.5L38.0998 26.5L38.0511 26.5L38.0025 26.5L37.9541 26.5L37.9057 26.5L37.8576 26.5L37.8095 26.5L37.7616 26.5L37.7139 26.5L37.6662 26.5L37.6187 26.5L37.5713 26.5L37.5241 26.5L37.477 26.5L37.43 26.5L37.3832 26.5L37.3365 26.5L37.2899 26.5L37.2435 26.5L37.1972 26.5L37.151 26.5L37.1049 26.5L37.059 26.5L37.0132 26.5L36.9675 26.5L36.9219 26.5L36.8765 26.5L36.8312 26.5L36.786 26.5L36.741 26.5L36.696 26.5L36.6512 26.5L36.6065 26.5L36.562 26.5L36.5175 26.5L36.4732 26.5L36.429 26.5L36.3849 26.5L36.3409 26.5L36.2971 26.5L36.2533 26.5L36.2097 26.5L36.1662 26.5L36.1228 26.5L36.0796 26.5L36.0364 26.5L35.9934 26.5L35.9504 26.5L35.9076 26.5L35.8649 26.5L35.8223 26.5L35.7798 26.5L35.7375 26.5L35.6952 26.5L35.6531 26.5L35.611 26.5L35.5691 26.5L35.5273 26.5L35.4856 26.5L35.444 26.5L35.4025 26.5L35.3611 26.5L35.3198 26.5L35.2786 26.5L35.2375 26.5L35.1965 26.5L35.1556 26.5L35.1149 26.5L35.0742 26.5L35.0336 26.5L34.9932 26.5L34.9528 26.5L34.9125 26.5L34.8724 26.5L34.8323 26.5L34.7923 26.5L34.7524 26.5L34.7127 26.5L34.673 26.5L34.6334 26.5L34.5939 26.5L34.5545 26.5L34.5152 26.5L34.476 26.5L34.4369 26.5L34.3978 26.5L34.3589 26.5L34.3201 26.5L34.2813 26.5L34.2427 26.5L34.2041 26.5L34.1656 26.5L34.1272 26.5L34.0889 26.5L34.0507 26.5L34.0126 26.5L33.9745 26.5L33.9365 26.5L33.8987 26.5L33.8609 26.5L33.8232 26.5L33.7856 26.5L33.748 26.5L33.7106 26.5L33.6732 26.5L33.6359 26.5L33.5987 26.5L33.5616 26.5L33.5245 26.5L33.4875 26.5L33.4506 26.5L33.4138 26.5L33.3771 26.5L33.3404 26.5L33.3038 26.5L33.2673 26.5L33.2309 26.5L33.1945 26.5L33.1582 26.5L33.122 26.5L33.0859 26.5L33.0498 26.5L33.0138 26.5L32.9779 26.5L32.942 26.5L32.9062 26.5L32.8705 26.5L32.8349 26.5L32.7993 26.5L32.7638 26.5L32.7284 26.5L32.693 26.5L32.6577 26.5L32.6224 26.5L32.5873 26.5L32.5521 26.5L32.5171 26.5L32.4821 26.5L32.4472 26.5L32.4123 26.5L32.3775 26.5L32.3428 26.5L32.3081 26.5L32.2735 26.5L32.2389 26.5L32.2044 26.5L32.17 26.5L32.1356 26.5L32.1013 26.5L32.067 26.5L32.0328 26.5L31.9986 26.5L31.9645 26.5L31.9305 26.5L31.8965 26.5L31.8626 26.5L31.8287 26.5L31.7949 26.5L31.7611 26.5L31.7273 26.5L31.6937 26.5L31.66 26.5L31.6264 26.5L31.5929 26.5L31.5594 26.5L31.526 26.5L31.4926 26.5L31.4593 26.5L31.426 26.5L31.3927 26.5L31.3595 26.5L31.3264 26.5L31.2932 26.5L31.2602 26.5L31.2271 26.5L31.1942 26.5L31.1612 26.5L31.1283 26.5L31.0954 26.5L31.0626 26.5L31.0298 26.5L30.9971 26.5L30.9644 26.5L30.9317 26.5L30.8991 26.5L30.8665 26.5L30.8339 26.5L30.8014 26.5L30.7689 26.5L30.7365 26.5L30.7041 26.5L30.6717 26.5L30.6393 26.5L30.607 26.5L30.5747 26.5L30.5424 26.5L30.5102 26.5L30.478 26.5L30.4459 26.5L30.4137 26.5L30.3816 26.5L30.3495 26.5L30.3175 26.5L30.2854 26.5L30.2534 26.5L30.2215 26.5L30.1895 26.5L30.1576 26.5L30.1257 26.5L30.0938 26.5L30.0619 26.5L30.0301 26.5L29.9983 26.5L29.9665 26.5L29.9347 26.5L29.903 26.5L29.8713 26.5L29.8395 26.5L29.8078 26.5L29.7762 26.5L29.7445 26.5L29.7129 26.5L29.6812 26.5L29.6496 26.5L29.618 26.5L29.5865 26.5L29.5549 26.5L29.5233 26.5L29.4918 26.5L29.4603 26.5L29.4287 26.5L29.3972 26.5L29.3657 26.5L29.3343 26.5L29.3028 26.5L29.2713 26.5L29.2399 26.5L29.2084 26.5L29.177 26.5L29.1455 26.5L29.1141 26.5L29.0827 26.5L29.0512 26.5L29.0198 26.5L28.9884 26.5L28.957 26.5L28.9256 26.5L28.8942 26.5L28.8628 26.5L28.8314 26.5L28.8 26.5L28.7686 26.5L28.7372 26.5L28.7058 26.5L28.6744 26.5L28.643 26.5L28.6116 26.5L28.5802 26.5L28.5488 26.5L28.5173 26.5L28.4859 26.5L28.4545 26.5L28.423 26.5L28.3916 26.5L28.3601 26.5L28.3287 26.5L28.2972 26.5L28.2657 26.5L28.2343 26.5L28.2028 26.5L28.1713 26.5L28.1397 26.5L28.1082 26.5L28.0767 26.5L28.0451 26.5L28.0135 26.5L27.982 26.5L27.9504 26.5L27.9188 26.5L27.8871 26.5L27.8555 26.5L27.8238 26.5L27.7922 26.5L27.7605 26.5L27.7287 26.5L27.697 26.5L27.6653 26.5L27.6335 26.5L27.6017 26.5L27.5699 26.5L27.5381 26.5L27.5062 26.5L27.4743 26.5L27.4424 26.5L27.4105 26.5L27.3785 26.5L27.3466 26.5L27.3146 26.5L27.2825 26.5L27.2505 26.5L27.2184 26.5L27.1863 26.5L27.1541 26.5L27.122 26.5L27.0898 26.5L27.0576 26.5L27.0253 26.5L26.993 26.5L26.9607 26.5L26.9283 26.5L26.8959 26.5L26.8635 26.5L26.8311 26.5L26.7986 26.5L26.7661 26.5L26.7335 26.5L26.7009 26.5L26.6683 26.5L26.6356 26.5L26.6029 26.5L26.5702 26.5L26.5374 26.5L26.5046 26.5L26.4717 26.5L26.4388 26.5L26.4058 26.5L26.3729 26.5L26.3398 26.5L26.3068 26.5L26.2736 26.5L26.2405 26.5L26.2073 26.5L26.174 26.5L26.1407 26.5L26.1074 26.5L26.074 26.5L26.0406 26.5L26.0071 26.5L25.9736 26.5L25.94 26.5L25.9063 26.5L25.8727 26.5L25.8389 26.5L25.8051 26.5L25.7713 26.5L25.7374 26.5L25.7035 26.5L25.6695 26.5L25.6355 26.5L25.6014 26.5L25.5672 26.5L25.533 26.5L25.4987 26.5L25.4644 26.5L25.43 26.5L25.3956 26.5L25.3611 26.5L25.3265 26.5L25.2919 26.5L25.2572 26.5L25.2225 26.5L25.1877 26.5L25.1528 26.5L25.1179 26.5L25.0829 26.5L25.0479 26.5L25.0127 26.5L24.9776 26.5L24.9423 26.5L24.907 26.5L24.8716 26.5L24.8362 26.5L24.8007 26.5L24.7651 26.5L24.7295 26.5L24.6938 26.5L24.658 26.5L24.6221 26.5L24.5862 26.5L24.5502 26.5L24.5141 26.5L24.478 26.5L24.4418 26.5L24.4055 26.5L24.3691 26.5L24.3327 26.5L24.2962 26.5L24.2596 26.5L24.2229 26.5L24.1862 26.5L24.1494 26.5L24.1125 26.5L24.0755 26.5L24.0384 26.5L24.0013 26.5L23.9641 26.5L23.9268 26.5L23.8894 26.5L23.852 26.5L23.8144 26.5L23.7768 26.5L23.7391 26.5L23.7013 26.5L23.6635 26.5L23.6255 26.5L23.5874 26.5L23.5493 26.5L23.5111 26.5L23.4728 26.5L23.4344 26.5L23.3959 26.5L23.3573 26.5L23.3187 26.5L23.2799 26.5L23.2411 26.5L23.2022 26.5L23.1631 26.5L23.124 26.5L23.0848 26.5L23.0455 26.5L23.0061 26.5L22.9666 26.5L22.927 26.5L22.8873 26.5L22.8476 26.5L22.8077 26.5L22.7677 26.5L22.7276 26.5L22.6875 26.5L22.6472 26.5L22.6068 26.5L22.5664 26.5L22.5258 26.5L22.4851 26.5L22.4444 26.5L22.4035 26.5L22.3625 26.5L22.3214 26.5L22.2802 26.5L22.2389 26.5L22.1975 26.5L22.156 26.5L22.1144 26.5L22.0727 26.5L22.0309 26.5L21.989 26.5L21.9469 26.5L21.9048 26.5L21.8625 26.5L21.8202 26.5L21.7777 26.5L21.7351 26.5L21.6924 26.5L21.6496 26.5L21.6066 26.5L21.5636 26.5L21.5204 26.5L21.4772 26.5L21.4338 26.5L21.3903 26.5L21.3467 26.5L21.3029 26.5L21.2591 26.5L21.2151 26.5L21.171 26.5L21.1268 26.5L21.0825 26.5L21.038 26.5L20.9935 26.5L20.9488 26.5L20.904 26.5L20.859 26.5L20.814 26.5L20.7688 26.5L20.7235 26.5L20.6781 26.5L20.6325 26.5L20.5868 26.5L20.541 26.5L20.4951 26.5L20.449 26.5L20.4028 26.5L20.3565 26.5L20.3101 26.5L20.2635 26.5L20.2168 26.5L20.17 26.5L20.123 26.5L20.0759 26.5L20.0287 26.5L19.9813 26.5L19.9338 26.5L19.8862 26.5L19.8384 26.5L19.7905 26.5L19.7424 26.5L19.6943 26.5L19.6459 26.5L19.5975 26.5L19.5489 26.5L19.5002 26.5L19.4513 26.5L19.4023 26.5L19.3532 26.5L19.3039 26.5L19.2544 26.5L19.2049 26.5C18.5968 26.5 18.1 26.9931 18.1 27.6C18.1 28.2076 18.5925 28.7 19.2 28.7Z" fill="url(#paint9_linear_1827_2698)" stroke="url(#paint10_linear_1827_2698)" stroke-width="0.2"/>
<path d="M19.2 33.5L38.4 33.5C39.0075 33.5 39.5 33.0075 39.5 32.4C39.5 31.793 39.0032 31.3 38.3951 31.3L38.3456 31.3L38.2961 31.3L38.2468 31.3L38.1977 31.3L38.1487 31.3L38.0998 31.3L38.0511 31.3L38.0025 31.3L37.9541 31.3L37.9057 31.3L37.8576 31.3L37.8095 31.3L37.7616 31.3L37.7139 31.3L37.6662 31.3L37.6187 31.3L37.5714 31.3L37.5241 31.3L37.477 31.3L37.43 31.3L37.3832 31.3L37.3365 31.3L37.2899 31.3L37.2435 31.3L37.1972 31.3L37.151 31.3L37.1049 31.3L37.059 31.3L37.0132 31.3L36.9675 31.3L36.9219 31.3L36.8765 31.3L36.8312 31.3L36.786 31.3L36.741 31.3L36.696 31.3L36.6512 31.3L36.6065 31.3L36.562 31.3L36.5175 31.3L36.4732 31.3L36.429 31.3L36.3849 31.3L36.3409 31.3L36.2971 31.3L36.2533 31.3L36.2097 31.3L36.1662 31.3L36.1228 31.3L36.0796 31.3L36.0364 31.3L35.9934 31.3L35.9504 31.3L35.9076 31.3L35.8649 31.3L35.8223 31.3L35.7798 31.3L35.7375 31.3L35.6952 31.3L35.6531 31.3L35.611 31.3L35.5691 31.3L35.5273 31.3L35.4856 31.3L35.444 31.3L35.4025 31.3L35.3611 31.3L35.3198 31.3L35.2786 31.3L35.2375 31.3L35.1965 31.3L35.1556 31.3L35.1149 31.3L35.0742 31.3L35.0336 31.3L34.9932 31.3L34.9528 31.3L34.9125 31.3L34.8724 31.3L34.8323 31.3L34.7923 31.3L34.7524 31.3L34.7127 31.3L34.673 31.3L34.6334 31.3L34.5939 31.3L34.5545 31.3L34.5152 31.3L34.476 31.3L34.4369 31.3L34.3978 31.3L34.3589 31.3L34.3201 31.3L34.2813 31.3L34.2427 31.3L34.2041 31.3L34.1656 31.3L34.1272 31.3L34.0889 31.3L34.0507 31.3L34.0126 31.3L33.9745 31.3L33.9365 31.3L33.8987 31.3L33.8609 31.3L33.8232 31.3L33.7856 31.3L33.748 31.3L33.7106 31.3L33.6732 31.3L33.6359 31.3L33.5987 31.3L33.5616 31.3L33.5245 31.3L33.4875 31.3L33.4506 31.3L33.4138 31.3L33.3771 31.3L33.3404 31.3L33.3038 31.3L33.2673 31.3L33.2309 31.3L33.1945 31.3L33.1582 31.3L33.122 31.3L33.0859 31.3L33.0498 31.3L33.0138 31.3L32.9779 31.3L32.942 31.3L32.9062 31.3L32.8705 31.3L32.8349 31.3L32.7993 31.3L32.7638 31.3L32.7284 31.3L32.693 31.3L32.6577 31.3L32.6224 31.3L32.5873 31.3L32.5521 31.3L32.5171 31.3L32.4821 31.3L32.4472 31.3L32.4123 31.3L32.3775 31.3L32.3428 31.3L32.3081 31.3L32.2735 31.3L32.2389 31.3L32.2044 31.3L32.17 31.3L32.1356 31.3L32.1013 31.3L32.067 31.3L32.0328 31.3L31.9987 31.3L31.9645 31.3L31.9305 31.3L31.8965 31.3L31.8626 31.3L31.8287 31.3L31.7949 31.3L31.7611 31.3L31.7273 31.3L31.6937 31.3L31.66 31.3L31.6264 31.3L31.5929 31.3L31.5594 31.3L31.526 31.3L31.4926 31.3L31.4593 31.3L31.426 31.3L31.3927 31.3L31.3595 31.3L31.3264 31.3L31.2932 31.3L31.2602 31.3L31.2271 31.3L31.1942 31.3L31.1612 31.3L31.1283 31.3L31.0954 31.3L31.0626 31.3L31.0298 31.3L30.9971 31.3L30.9644 31.3L30.9317 31.3L30.8991 31.3L30.8665 31.3L30.8339 31.3L30.8014 31.3L30.7689 31.3L30.7365 31.3L30.7041 31.3L30.6717 31.3L30.6393 31.3L30.607 31.3L30.5747 31.3L30.5424 31.3L30.5102 31.3L30.478 31.3L30.4459 31.3L30.4137 31.3L30.3816 31.3L30.3495 31.3L30.3175 31.3L30.2854 31.3L30.2534 31.3L30.2215 31.3L30.1895 31.3L30.1576 31.3L30.1257 31.3L30.0938 31.3L30.0619 31.3L30.0301 31.3L29.9983 31.3L29.9665 31.3L29.9347 31.3L29.903 31.3L29.8713 31.3L29.8395 31.3L29.8078 31.3L29.7762 31.3L29.7445 31.3L29.7129 31.3L29.6812 31.3L29.6496 31.3L29.618 31.3L29.5865 31.3L29.5549 31.3L29.5233 31.3L29.4918 31.3L29.4603 31.3L29.4287 31.3L29.3972 31.3L29.3657 31.3L29.3343 31.3L29.3028 31.3L29.2713 31.3L29.2399 31.3L29.2084 31.3L29.177 31.3L29.1455 31.3L29.1141 31.3L29.0827 31.3L29.0512 31.3L29.0198 31.3L28.9884 31.3L28.957 31.3L28.9256 31.3L28.8942 31.3L28.8628 31.3L28.8314 31.3L28.8 31.3L28.7686 31.3L28.7372 31.3L28.7058 31.3L28.6744 31.3L28.643 31.3L28.6116 31.3L28.5802 31.3L28.5488 31.3L28.5173 31.3L28.4859 31.3L28.4545 31.3L28.423 31.3L28.3916 31.3L28.3601 31.3L28.3287 31.3L28.2972 31.3L28.2657 31.3L28.2343 31.3L28.2028 31.3L28.1713 31.3L28.1397 31.3L28.1082 31.3L28.0767 31.3L28.0451 31.3L28.0135 31.3L27.982 31.3L27.9504 31.3L27.9188 31.3L27.8871 31.3L27.8555 31.3L27.8238 31.3L27.7922 31.3L27.7605 31.3L27.7287 31.3L27.697 31.3L27.6653 31.3L27.6335 31.3L27.6017 31.3L27.5699 31.3L27.5381 31.3L27.5062 31.3L27.4743 31.3L27.4424 31.3L27.4105 31.3L27.3785 31.3L27.3466 31.3L27.3146 31.3L27.2825 31.3L27.2505 31.3L27.2184 31.3L27.1863 31.3L27.1541 31.3L27.122 31.3L27.0898 31.3L27.0576 31.3L27.0253 31.3L26.993 31.3L26.9607 31.3L26.9283 31.3L26.8959 31.3L26.8635 31.3L26.8311 31.3L26.7986 31.3L26.7661 31.3L26.7335 31.3L26.7009 31.3L26.6683 31.3L26.6356 31.3L26.6029 31.3L26.5702 31.3L26.5374 31.3L26.5046 31.3L26.4717 31.3L26.4388 31.3L26.4058 31.3L26.3729 31.3L26.3398 31.3L26.3068 31.3L26.2736 31.3L26.2405 31.3L26.2073 31.3L26.174 31.3L26.1407 31.3L26.1074 31.3L26.074 31.3L26.0406 31.3L26.0071 31.3L25.9736 31.3L25.94 31.3L25.9063 31.3L25.8727 31.3L25.8389 31.3L25.8051 31.3L25.7713 31.3L25.7374 31.3L25.7035 31.3L25.6695 31.3L25.6355 31.3L25.6014 31.3L25.5672 31.3L25.533 31.3L25.4987 31.3L25.4644 31.3L25.43 31.3L25.3956 31.3L25.3611 31.3L25.3265 31.3L25.2919 31.3L25.2572 31.3L25.2225 31.3L25.1877 31.3L25.1528 31.3L25.1179 31.3L25.0829 31.3L25.0479 31.3L25.0127 31.3L24.9776 31.3L24.9423 31.3L24.907 31.3L24.8716 31.3L24.8362 31.3L24.8007 31.3L24.7651 31.3L24.7295 31.3L24.6938 31.3L24.658 31.3L24.6221 31.3L24.5862 31.3L24.5502 31.3L24.5141 31.3L24.478 31.3L24.4418 31.3L24.4055 31.3L24.3691 31.3L24.3327 31.3L24.2962 31.3L24.2596 31.3L24.2229 31.3L24.1862 31.3L24.1494 31.3L24.1125 31.3L24.0755 31.3L24.0384 31.3L24.0013 31.3L23.9641 31.3L23.9268 31.3L23.8894 31.3L23.852 31.3L23.8144 31.3L23.7768 31.3L23.7391 31.3L23.7013 31.3L23.6635 31.3L23.6255 31.3L23.5874 31.3L23.5493 31.3L23.5111 31.3L23.4728 31.3L23.4344 31.3L23.3959 31.3L23.3573 31.3L23.3187 31.3L23.2799 31.3L23.2411 31.3L23.2022 31.3L23.1631 31.3L23.124 31.3L23.0848 31.3L23.0455 31.3L23.0061 31.3L22.9666 31.3L22.927 31.3L22.8873 31.3L22.8476 31.3L22.8077 31.3L22.7677 31.3L22.7276 31.3L22.6875 31.3L22.6472 31.3L22.6068 31.3L22.5664 31.3L22.5258 31.3L22.4851 31.3L22.4444 31.3L22.4035 31.3L22.3625 31.3L22.3214 31.3L22.2802 31.3L22.2389 31.3L22.1975 31.3L22.156 31.3L22.1144 31.3L22.0727 31.3L22.0309 31.3L21.989 31.3L21.9469 31.3L21.9048 31.3L21.8625 31.3L21.8202 31.3L21.7777 31.3L21.7351 31.3L21.6924 31.3L21.6496 31.3L21.6066 31.3L21.5636 31.3L21.5204 31.3L21.4772 31.3L21.4338 31.3L21.3903 31.3L21.3467 31.3L21.3029 31.3L21.2591 31.3L21.2151 31.3L21.171 31.3L21.1268 31.3L21.0825 31.3L21.038 31.3L20.9935 31.3L20.9488 31.3L20.904 31.3L20.859 31.3L20.814 31.3L20.7688 31.3L20.7235 31.3L20.6781 31.3L20.6325 31.3L20.5868 31.3L20.541 31.3L20.4951 31.3L20.449 31.3L20.4028 31.3L20.3565 31.3L20.3101 31.3L20.2635 31.3L20.2168 31.3L20.17 31.3L20.123 31.3L20.0759 31.3L20.0287 31.3L19.9813 31.3L19.9338 31.3L19.8861 31.3L19.8384 31.3L19.7905 31.3L19.7424 31.3L19.6943 31.3L19.6459 31.3L19.5975 31.3L19.5489 31.3L19.5002 31.3L19.4513 31.3L19.4023 31.3L19.3532 31.3L19.3039 31.3L19.2544 31.3L19.2049 31.3C18.5968 31.3 18.1 31.793 18.1 32.4C18.1 33.0075 18.5925 33.5 19.2 33.5Z" fill="url(#paint11_linear_1827_2698)" stroke="url(#paint12_linear_1827_2698)" stroke-width="0.2"/>
<defs>
<linearGradient id="paint0_linear_1827_2698" x1="4.49999" y1="25.1251" x2="17.3577" y2="46.3782" gradientUnits="userSpaceOnUse">
<stop stop-color="#80CCFE"/>
<stop offset="1" stop-color="#009AFE"/>
</linearGradient>
<linearGradient id="paint1_linear_1827_2698" x1="4.49999" y1="25.1251" x2="17.3577" y2="46.3782" gradientUnits="userSpaceOnUse">
<stop stop-color="#80CCFE"/>
<stop offset="1" stop-color="#009AFE"/>
</linearGradient>
<linearGradient id="paint2_linear_1827_2698" x1="3.3664" y1="10.2545" x2="54.9793" y2="41.5181" gradientUnits="userSpaceOnUse">
<stop stop-color="white"/>
<stop offset="1" stop-color="white" stop-opacity="0"/>
</linearGradient>
<linearGradient id="paint3_linear_1827_2698" x1="18" y1="19.2" x2="27.5043" y2="20.1539" gradientUnits="userSpaceOnUse">
<stop stop-color="white" stop-opacity="0.9"/>
<stop offset="1" stop-color="white" stop-opacity="0.3"/>
</linearGradient>
<linearGradient id="paint4_linear_1827_2698" x1="17.3143" y1="23.1273" x2="30.8798" y2="16.123" gradientUnits="userSpaceOnUse">
<stop stop-color="white"/>
<stop offset="1" stop-color="white" stop-opacity="0"/>
</linearGradient>
<linearGradient id="paint5_linear_1827_2698" x1="30" y1="16.8" x2="38.2675" y2="20.1191" gradientUnits="userSpaceOnUse">
<stop stop-color="white" stop-opacity="0.9"/>
<stop offset="1" stop-color="white" stop-opacity="0.3"/>
</linearGradient>
<linearGradient id="paint6_linear_1827_2698" x1="29.3143" y1="17.7818" x2="32.5774" y2="11.0424" gradientUnits="userSpaceOnUse">
<stop stop-color="white"/>
<stop offset="1" stop-color="white" stop-opacity="0"/>
</linearGradient>
<linearGradient id="paint7_linear_1827_2698" x1="30" y1="21.6" x2="38.2675" y2="24.9191" gradientUnits="userSpaceOnUse">
<stop stop-color="white" stop-opacity="0.9"/>
<stop offset="1" stop-color="white" stop-opacity="0.3"/>
</linearGradient>
<linearGradient id="paint8_linear_1827_2698" x1="29.3143" y1="22.5819" x2="32.5774" y2="15.8425" gradientUnits="userSpaceOnUse">
<stop stop-color="white"/>
<stop offset="1" stop-color="white" stop-opacity="0"/>
</linearGradient>
<linearGradient id="paint9_linear_1827_2698" x1="18" y1="27.6" x2="29.8948" y2="38.3444" gradientUnits="userSpaceOnUse">
<stop stop-color="white" stop-opacity="0.9"/>
<stop offset="1" stop-color="white" stop-opacity="0.3"/>
</linearGradient>
<linearGradient id="paint10_linear_1827_2698" x1="16.4571" y1="28.5819" x2="18.1682" y2="20.6307" gradientUnits="userSpaceOnUse">
<stop stop-color="white"/>
<stop offset="1" stop-color="white" stop-opacity="0"/>
</linearGradient>
<linearGradient id="paint11_linear_1827_2698" x1="18" y1="32.4" x2="29.8948" y2="43.1443" gradientUnits="userSpaceOnUse">
<stop stop-color="white" stop-opacity="0.9"/>
<stop offset="1" stop-color="white" stop-opacity="0.3"/>
</linearGradient>
<linearGradient id="paint12_linear_1827_2698" x1="16.4571" y1="33.3818" x2="18.1682" y2="25.4306" gradientUnits="userSpaceOnUse">
<stop stop-color="white"/>
<stop offset="1" stop-color="white" stop-opacity="0"/>
</linearGradient>
</defs>
</svg>
