<svg width="40" height="40" viewBox="0 0 40 40" fill="none" xmlns="http://www.w3.org/2000/svg">
<path d="M5 28C5 32.4183 8.41892 36 12.6364 36L27.3636 36C31.5811 36 35 32.4183 35 28C35 21.3726 29.8693 16 23.5432 16C21.0939 16 18.9061 16 16.4568 16C10.1307 16 5 21.3726 5 28Z" fill="url(#paint0_linear_947_23312)"/>
<path d="M5.1 30C5.1 33.2585 7.74152 35.9 11 35.9L29 35.9C32.2585 35.9 34.9 33.2585 34.9 30L34.9 29C34.9 24.0847 30.9115 20.1 25.9961 20.1L25.9705 20.1L25.9448 20.1L25.9192 20.1L25.8936 20.1L25.8681 20.1L25.8425 20.1L25.817 20.1L25.7915 20.1L25.7661 20.1L25.7407 20.1L25.7152 20.1L25.6899 20.1L25.6645 20.1L25.6392 20.1L25.6139 20.1L25.5886 20.1L25.5633 20.1L25.5381 20.1L25.5129 20.1L25.4877 20.1L25.4626 20.1L25.4374 20.1L25.4123 20.1L25.3872 20.1L25.3622 20.1L25.3371 20.1L25.3121 20.1L25.2871 20.1L25.2622 20.1L25.2372 20.1L25.2123 20.1L25.1874 20.1L25.1625 20.1L25.1377 20.1L25.1128 20.1L25.088 20.1L25.0632 20.1L25.0385 20.1L25.0138 20.1L24.989 20.1L24.9643 20.1L24.9397 20.1L24.915 20.1L24.8904 20.1L24.8658 20.1L24.8412 20.1L24.8167 20.1L24.7921 20.1L24.7676 20.1L24.7431 20.1L24.7186 20.1L24.6942 20.1L24.6697 20.1L24.6453 20.1L24.6209 20.1L24.5966 20.1L24.5722 20.1L24.5479 20.1L24.5236 20.1L24.4993 20.1L24.475 20.1L24.4508 20.1L24.4265 20.1L24.4023 20.1L24.3781 20.1L24.354 20.1L24.3298 20.1L24.3057 20.1L24.2816 20.1L24.2575 20.1L24.2334 20.1L24.2094 20.1L24.1853 20.1L24.1613 20.1L24.1373 20.1L24.1134 20.1L24.0894 20.1L24.0655 20.1L24.0415 20.1L24.0176 20.1L23.9937 20.1L23.9699 20.1L23.946 20.1L23.9222 20.1L23.8984 20.1L23.8746 20.1L23.8508 20.1L23.8271 20.1L23.8033 20.1L23.7796 20.1L23.7559 20.1L23.7322 20.1L23.7085 20.1L23.6848 20.1L23.6612 20.1L23.6376 20.1L23.614 20.1L23.5904 20.1L23.5668 20.1L23.5433 20.1L23.5197 20.1L23.4962 20.1L23.4727 20.1L23.4492 20.1L23.4257 20.1L23.4022 20.1L23.3788 20.1L23.3553 20.1L23.3319 20.1L23.3085 20.1L23.2851 20.1L23.2618 20.1L23.2384 20.1L23.2151 20.1L23.1917 20.1L23.1684 20.1L23.1451 20.1L23.1218 20.1L23.0986 20.1L23.0753 20.1L23.0521 20.1L23.0288 20.1L23.0056 20.1L22.9824 20.1L22.9592 20.1L22.9361 20.1L22.9129 20.1L22.8898 20.1L22.8666 20.1L22.8435 20.1L22.8204 20.1L22.7973 20.1L22.7742 20.1L22.7512 20.1L22.7281 20.1L22.7051 20.1L22.682 20.1L22.659 20.1L22.636 20.1L22.613 20.1L22.59 20.1L22.567 20.1L22.5441 20.1L22.5211 20.1L22.4982 20.1L22.4753 20.1L22.4524 20.1L22.4295 20.1L22.4066 20.1L22.3837 20.1L22.3608 20.1L22.338 20.1L22.3151 20.1L22.2923 20.1L22.2695 20.1L22.2466 20.1L22.2238 20.1L22.201 20.1L22.1782 20.1L22.1555 20.1L22.1327 20.1L22.11 20.1L22.0872 20.1L22.0645 20.1L22.0417 20.1L22.019 20.1L21.9963 20.1L21.9736 20.1L21.9509 20.1L21.9283 20.1L21.9056 20.1L21.8829 20.1L21.8603 20.1L21.8376 20.1L21.815 20.1L21.7923 20.1L21.7697 20.1L21.7471 20.1L21.7245 20.1L21.7019 20.1L21.6793 20.1L21.6567 20.1L21.6342 20.1L21.6116 20.1L21.589 20.1L21.5665 20.1L21.544 20.1L21.5214 20.1L21.4989 20.1L21.4764 20.1L21.4539 20.1L21.4313 20.1L21.4088 20.1L21.3863 20.1L21.3639 20.1L21.3414 20.1L21.3189 20.1L21.2964 20.1L21.274 20.1L21.2515 20.1L21.229 20.1L21.2066 20.1L21.1842 20.1L21.1617 20.1L21.1393 20.1L21.1169 20.1L21.0944 20.1L21.072 20.1L21.0496 20.1L21.0272 20.1L21.0048 20.1L20.9824 20.1L20.96 20.1L20.9376 20.1L20.9152 20.1L20.8929 20.1L20.8705 20.1L20.8481 20.1L20.8258 20.1L20.8034 20.1L20.781 20.1L20.7587 20.1L20.7363 20.1L20.714 20.1L20.6916 20.1L20.6693 20.1L20.647 20.1L20.6246 20.1L20.6023 20.1L20.58 20.1L20.5576 20.1L20.5353 20.1L20.513 20.1L20.4907 20.1L20.4683 20.1L20.446 20.1L20.4237 20.1L20.4014 20.1L20.3791 20.1L20.3568 20.1L20.3345 20.1L20.3122 20.1L20.2899 20.1L20.2676 20.1L20.2453 20.1L20.223 20.1L20.2007 20.1L20.1784 20.1L20.1561 20.1L20.1338 20.1L20.1115 20.1L20.0892 20.1L20.0669 20.1L20.0446 20.1L20.0223 20.1L20 20.1L19.9777 20.1L19.9554 20.1L19.9331 20.1L19.9108 20.1L19.8885 20.1L19.8662 20.1L19.8439 20.1L19.8216 20.1L19.7993 20.1L19.777 20.1L19.7547 20.1L19.7324 20.1L19.7101 20.1L19.6878 20.1L19.6655 20.1L19.6432 20.1L19.6209 20.1L19.5986 20.1L19.5763 20.1L19.554 20.1L19.5317 20.1L19.5093 20.1L19.487 20.1L19.4647 20.1L19.4424 20.1L19.42 20.1L19.3977 20.1L19.3754 20.1L19.3531 20.1L19.3307 20.1L19.3084 20.1L19.286 20.1L19.2637 20.1L19.2413 20.1L19.219 20.1L19.1966 20.1L19.1742 20.1L19.1519 20.1L19.1295 20.1L19.1071 20.1L19.0848 20.1L19.0624 20.1L19.04 20.1L19.0176 20.1L18.9952 20.1L18.9728 20.1L18.9504 20.1L18.928 20.1L18.9056 20.1L18.8831 20.1L18.8607 20.1L18.8383 20.1L18.8158 20.1L18.7934 20.1L18.771 20.1L18.7485 20.1L18.726 20.1L18.7036 20.1L18.6811 20.1L18.6586 20.1L18.6361 20.1L18.6137 20.1L18.5912 20.1L18.5687 20.1L18.5462 20.1L18.5236 20.1L18.5011 20.1L18.4786 20.1L18.456 20.1L18.4335 20.1L18.411 20.1L18.3884 20.1L18.3658 20.1L18.3433 20.1L18.3207 20.1L18.2981 20.1L18.2755 20.1L18.2529 20.1L18.2303 20.1L18.2077 20.1L18.185 20.1L18.1624 20.1L18.1397 20.1L18.1171 20.1L18.0944 20.1L18.0718 20.1L18.0491 20.1L18.0264 20.1L18.0037 20.1L17.981 20.1L17.9583 20.1L17.9355 20.1L17.9128 20.1L17.89 20.1L17.8673 20.1L17.8445 20.1L17.8218 20.1L17.799 20.1L17.7762 20.1L17.7534 20.1L17.7306 20.1L17.7077 20.1L17.6849 20.1L17.662 20.1L17.6392 20.1L17.6163 20.1L17.5934 20.1L17.5705 20.1L17.5476 20.1L17.5247 20.1L17.5018 20.1L17.4789 20.1L17.4559 20.1L17.433 20.1L17.41 20.1L17.387 20.1L17.364 20.1L17.341 20.1L17.318 20.1L17.295 20.1L17.2719 20.1L17.2489 20.1L17.2258 20.1L17.2027 20.1L17.1796 20.1L17.1565 20.1L17.1334 20.1L17.1102 20.1L17.0871 20.1L17.0639 20.1L17.0408 20.1L17.0176 20.1L16.9944 20.1L16.9712 20.1L16.9479 20.1L16.9247 20.1L16.9014 20.1L16.8782 20.1L16.8549 20.1L16.8316 20.1L16.8083 20.1L16.7849 20.1L16.7616 20.1L16.7382 20.1L16.7149 20.1L16.6915 20.1L16.6681 20.1L16.6447 20.1L16.6212 20.1L16.5978 20.1L16.5743 20.1L16.5508 20.1L16.5273 20.1L16.5038 20.1L16.4803 20.1L16.4568 20.1L16.4332 20.1L16.4096 20.1L16.386 20.1L16.3624 20.1L16.3388 20.1L16.3152 20.1L16.2915 20.1L16.2678 20.1L16.2441 20.1L16.2204 20.1L16.1967 20.1L16.1729 20.1L16.1492 20.1L16.1254 20.1L16.1016 20.1L16.0778 20.1L16.054 20.1L16.0301 20.1L16.0063 20.1L15.9824 20.1L15.9585 20.1L15.9345 20.1L15.9106 20.1L15.8866 20.1L15.8627 20.1L15.8387 20.1L15.8147 20.1L15.7906 20.1L15.7666 20.1L15.7425 20.1L15.7184 20.1L15.6943 20.1L15.6702 20.1L15.646 20.1L15.6219 20.1L15.5977 20.1L15.5735 20.1L15.5492 20.1L15.525 20.1L15.5007 20.1L15.4764 20.1L15.4521 20.1L15.4278 20.1L15.4034 20.1L15.3791 20.1L15.3547 20.1L15.3303 20.1L15.3058 20.1L15.2814 20.1L15.2569 20.1L15.2324 20.1L15.2079 20.1L15.1834 20.1L15.1588 20.1L15.1342 20.1L15.1096 20.1L15.085 20.1L15.0603 20.1L15.0357 20.1L15.011 20.1L14.9863 20.1L14.9615 20.1L14.9368 20.1L14.912 20.1L14.8872 20.1L14.8623 20.1L14.8375 20.1L14.8126 20.1L14.7877 20.1L14.7628 20.1L14.7379 20.1L14.7129 20.1L14.6879 20.1L14.6629 20.1L14.6378 20.1L14.6128 20.1L14.5877 20.1L14.5626 20.1L14.5374 20.1L14.5123 20.1L14.4871 20.1L14.4619 20.1L14.4367 20.1L14.4114 20.1L14.3861 20.1L14.3608 20.1L14.3355 20.1L14.3101 20.1L14.2848 20.1L14.2593 20.1L14.2339 20.1L14.2085 20.1L14.183 20.1L14.1575 20.1L14.1319 20.1L14.1064 20.1L14.0808 20.1L14.0552 20.1L14.0295 20.1L14.0039 20.1C9.08847 20.1 5.1 24.0847 5.1 29L5.1 30Z" fill="#BFB5FF" fill-opacity="0.75" stroke="url(#paint1_linear_947_23312)" stroke-width="0.2"/>
<circle cx="20" cy="10" r="7.9" fill="#BFB5FF" fill-opacity="0.75" stroke="url(#paint2_linear_947_23312)" stroke-width="0.2"/>
<path d="M26.4 25.263V31.3899C26.4 32.4763 25.4859 33.3281 24.3875 33.3616C22.9331 33.4059 21.7398 33.6323 20.2269 34.1383C19.7604 34.2944 19.2528 34.2788 18.7961 34.0955C17.3241 33.5045 16.1633 33.2268 14.8056 33.2151C13.6289 33.2049 12.6 32.3398 12.6 31.1858V25.1395C12.6 24.2299 13.2395 23.4341 14.1298 23.3599C15.7295 23.2266 16.9661 23.495 18.5978 24.1987C19.1737 24.447 19.8256 24.4468 20.4044 24.2089C21.9197 23.5862 23.135 23.3712 24.7403 23.4408C25.6875 23.4818 26.4 24.3028 26.4 25.263Z" fill="url(#paint3_linear_947_23312)" stroke="url(#paint4_linear_947_23312)" stroke-width="0.2"/>
<defs>
<linearGradient id="paint0_linear_947_23312" x1="13.6538" y1="20.375" x2="33.9849" y2="30.8625" gradientUnits="userSpaceOnUse">
<stop stop-color="#917FFB"/>
<stop offset="1" stop-color="#3F2DAF"/>
</linearGradient>
<linearGradient id="paint1_linear_947_23312" x1="2.85714" y1="34.5455" x2="30.5738" y2="7.71261" gradientUnits="userSpaceOnUse">
<stop stop-color="white"/>
<stop offset="1" stop-color="white" stop-opacity="0"/>
</linearGradient>
<linearGradient id="paint2_linear_947_23312" x1="10.8571" y1="3.45455" x2="33.4664" y2="15.1283" gradientUnits="userSpaceOnUse">
<stop stop-color="white"/>
<stop offset="1" stop-color="white" stop-opacity="0"/>
</linearGradient>
<linearGradient id="paint3_linear_947_23312" x1="12.5" y1="28.8634" x2="26.2858" y2="27.1451" gradientUnits="userSpaceOnUse">
<stop stop-color="white" stop-opacity="0.9"/>
<stop offset="1" stop-color="white" stop-opacity="0.3"/>
</linearGradient>
<linearGradient id="paint4_linear_947_23312" x1="11.5" y1="24.2517" x2="29.2563" y2="35.6375" gradientUnits="userSpaceOnUse">
<stop stop-color="white"/>
<stop offset="1" stop-color="white" stop-opacity="0"/>
</linearGradient>
</defs>
</svg>
