<svg width="40.000000" height="40.000000" viewBox="0 0 40 40" fill="none" xmlns="http://www.w3.org/2000/svg" xmlns:xlink="http://www.w3.org/1999/xlink">
	<desc>
			Created with Pixso.
	</desc>
	<defs>
		<clipPath id="clip4544_42550">
			<rect id="Icon/Alpha/code" width="40.000000" height="40.000000" fill="white" fill-opacity="0"/>
		</clipPath>
		<linearGradient x1="4.964921" y1="14.527674" x2="35.035088" y2="25.472322" id="paint_linear_4544_88212_0" gradientUnits="userSpaceOnUse">
			<stop stop-color="#917FFB"/>
			<stop offset="1.000000" stop-color="#3F2DAF"/>
		</linearGradient>
		<linearGradient x1="6.538503" y1="19.736946" x2="34.014458" y2="19.736946" id="paint_linear_4544_88213_0" gradientUnits="userSpaceOnUse">
			<stop stop-color="#FFFFFF" stop-opacity="0.901961"/>
			<stop offset="1.000000" stop-color="#FFFFFF" stop-opacity="0.301961"/>
		</linearGradient>
		<linearGradient x1="5.142859" y1="9.363636" x2="37.642853" y2="36.545464" id="paint_linear_4544_88213_1" gradientUnits="userSpaceOnUse">
			<stop stop-color="#FFFFFF"/>
			<stop offset="1.000000" stop-color="#FFFFFF" stop-opacity="0.000000"/>
		</linearGradient>
		<linearGradient x1="6.538503" y1="20.757179" x2="34.014458" y2="20.757179" id="paint_linear_4544_88214_0" gradientUnits="userSpaceOnUse">
			<stop stop-color="#FFFFFF" stop-opacity="0.901961"/>
			<stop offset="1.000000" stop-color="#FFFFFF" stop-opacity="0.301961"/>
		</linearGradient>
		<linearGradient x1="5.142853" y1="11.181816" x2="37.642849" y2="36.272728" id="paint_linear_4544_88214_1" gradientUnits="userSpaceOnUse">
			<stop stop-color="#FFFFFF"/>
			<stop offset="1.000000" stop-color="#FFFFFF" stop-opacity="0.000000"/>
		</linearGradient>
	</defs>
	<rect id="compenents Contained" rx="4.000000" width="40.000000" height="40.000000" fill="#FFFFFF" fill-opacity="1.000000"/>
	<rect id="Icon/Alpha/code" width="40.000000" height="40.000000" fill="#FFFFFF" fill-opacity="0"/>
	<g clip-path="url(#clip4544_42550)">
		<path id="矢量 345" d="M8 4L32 4C34.2 4 36 5.79 36 8L36 32C36 34.2 34.2 36 32 36L8 36C5.79 36 4 34.2 4 32L4 8C4 5.79 5.79 4 8 4Z" fill="url(#paint_linear_4544_88212_0)" fill-opacity="1.000000" fill-rule="evenodd"/>
		<path id="矢量 347" d="M14.5 7L8.5 7C7.67 7 7 7.67 7 8.5L7 14.5C7 15.32 7.67 16 8.5 16L14.5 16C15.32 16 16 15.32 16 14.5L16 8.5C16 7.67 15.32 7 14.5 7ZM25.5 7L31.5 7C32.32 7 33 7.67 33 8.5L33 14.5C33 15.32 32.32 16 31.5 16L25.5 16C24.67 16 24 15.32 24 14.5L24 8.5C24 7.67 24.67 7 25.5 7ZM10.5 10L12.5 10C12.77 10 13 10.22 13 10.5L13 12.5C13 12.77 12.77 13 12.5 13L10.5 13C10.22 13 10 12.77 10 12.5L10 10.5C10 10.22 10.22 10 10.5 10ZM29.5 10L27.5 10C27.22 10 27 10.22 27 10.5L27 12.5C27 12.77 27.22 13 27.5 13L29.5 13C29.77 13 30 12.77 30 12.5L30 10.5C30 10.22 29.77 10 29.5 10ZM14.5 24L8.5 24C7.67 24 7 24.67 7 25.5L7 31.5C7 32.32 7.67 33 8.5 33L14.5 33C15.32 33 16 32.32 16 31.5L16 25.5C16 24.67 15.32 24 14.5 24ZM10.5 27L12.5 27C12.77 27 13 27.22 13 27.5L13 29.5C13 29.77 12.77 30 12.5 30L10.5 30C10.22 30 10 29.77 10 29.5L10 27.5C10 27.22 10.22 27 10.5 27Z" fill="url(#paint_linear_4544_88213_0)" fill-opacity="1.000000" fill-rule="evenodd"/>
		<path id="矢量 347" d="M14.5 7L8.5 7C7.67 7 7 7.67 7 8.5L7 14.5C7 15.32 7.67 16 8.5 16L14.5 16C15.32 16 16 15.32 16 14.5L16 8.5C16 7.67 15.32 7 14.5 7ZM25.5 7L31.5 7C32.32 7 33 7.67 33 8.5L33 14.5C33 15.32 32.32 16 31.5 16L25.5 16C24.67 16 24 15.32 24 14.5L24 8.5C24 7.67 24.67 7 25.5 7ZM8.21 7.23Q8.35 7.2 8.5 7.2L14.5 7.2Q14.64 7.2 14.78 7.23Q14.9 7.25 15 7.3Q15.11 7.34 15.21 7.41Q15.32 7.48 15.41 7.58Q15.51 7.67 15.58 7.78Q15.65 7.88 15.69 7.99Q15.74 8.09 15.76 8.21Q15.8 8.35 15.8 8.5L15.8 14.5Q15.8 14.64 15.76 14.78Q15.74 14.9 15.69 15Q15.65 15.11 15.58 15.21Q15.51 15.32 15.41 15.41Q15.32 15.51 15.21 15.58Q15.11 15.65 15 15.69Q14.9 15.74 14.78 15.76Q14.64 15.8 14.5 15.8L8.5 15.8Q8.35 15.8 8.21 15.76Q8.09 15.74 7.99 15.69Q7.88 15.65 7.78 15.58Q7.67 15.51 7.58 15.41Q7.48 15.32 7.41 15.21Q7.34 15.11 7.3 15Q7.25 14.9 7.23 14.78Q7.19 14.64 7.19 14.5L7.19 8.5Q7.19 8.35 7.23 8.21Q7.25 8.09 7.3 7.99Q7.34 7.88 7.41 7.78Q7.48 7.67 7.58 7.58Q7.67 7.48 7.78 7.41Q7.88 7.34 7.99 7.3Q8.09 7.25 8.21 7.23ZM25.5 7.2L31.5 7.2Q31.64 7.2 31.78 7.23Q31.9 7.25 32 7.3Q32.11 7.34 32.21 7.41Q32.32 7.48 32.41 7.58Q32.51 7.67 32.58 7.78Q32.65 7.88 32.69 7.99Q32.74 8.09 32.76 8.2Q32.8 8.35 32.8 8.5L32.8 14.5Q32.8 14.64 32.76 14.79Q32.74 14.9 32.69 15Q32.65 15.11 32.58 15.21Q32.51 15.32 32.41 15.41Q32.32 15.51 32.21 15.58Q32.11 15.65 32 15.69Q31.9 15.74 31.78 15.76Q31.64 15.8 31.5 15.8L25.5 15.8Q25.35 15.8 25.21 15.76Q25.09 15.74 24.99 15.69Q24.88 15.65 24.78 15.58Q24.67 15.51 24.58 15.41Q24.48 15.32 24.41 15.21Q24.34 15.11 24.3 15Q24.25 14.9 24.23 14.79Q24.2 14.64 24.2 14.5L24.2 8.5Q24.2 8.35 24.23 8.2Q24.25 8.09 24.3 7.99Q24.34 7.88 24.41 7.78Q24.48 7.67 24.58 7.58Q24.67 7.48 24.78 7.41Q24.88 7.34 24.99 7.3Q25.09 7.25 25.21 7.23Q25.35 7.2 25.5 7.2ZM12.76 9.85Q12.64 9.8 12.5 9.8L10.5 9.8Q10.35 9.8 10.23 9.85Q10.1 9.9 10 10Q9.9 10.1 9.85 10.23Q9.8 10.35 9.8 10.5L9.8 12.5Q9.8 12.64 9.85 12.76Q9.9 12.89 10 12.99Q10.1 13.09 10.23 13.14Q10.35 13.2 10.5 13.2L12.5 13.2Q12.64 13.2 12.76 13.14Q12.89 13.09 12.99 12.99Q13.09 12.89 13.14 12.76Q13.2 12.64 13.2 12.5L13.2 10.5Q13.2 10.35 13.14 10.23Q13.09 10.1 12.99 10Q12.89 9.9 12.76 9.85ZM29.5 9.8L27.5 9.8Q27.35 9.8 27.23 9.85Q27.1 9.9 27 10Q26.9 10.1 26.85 10.23Q26.8 10.35 26.8 10.5L26.8 12.5Q26.8 12.64 26.85 12.76Q26.9 12.89 27 12.99Q27.1 13.09 27.23 13.14Q27.35 13.2 27.5 13.2L29.5 13.2Q29.64 13.2 29.76 13.14Q29.89 13.09 29.99 12.99Q30.09 12.89 30.14 12.76Q30.2 12.64 30.2 12.5L30.2 10.5Q30.2 10.35 30.14 10.23Q30.09 10.1 29.99 10Q29.89 9.9 29.76 9.85Q29.64 9.8 29.5 9.8ZM10.5 10L12.5 10C12.77 10 13 10.22 13 10.5L13 12.5C13 12.77 12.77 13 12.5 13L10.5 13C10.22 13 10 12.77 10 12.5L10 10.5C10 10.22 10.22 10 10.5 10ZM29.5 10L27.5 10C27.22 10 27 10.22 27 10.5L27 12.5C27 12.77 27.22 13 27.5 13L29.5 13C29.77 13 30 12.77 30 12.5L30 10.5C30 10.22 29.77 10 29.5 10ZM14.5 24L8.5 24C7.67 24 7 24.67 7 25.5L7 31.5C7 32.32 7.67 33 8.5 33L14.5 33C15.32 33 16 32.32 16 31.5L16 25.5C16 24.67 15.32 24 14.5 24ZM8.21 24.23Q8.35 24.2 8.5 24.2L14.5 24.2Q14.64 24.2 14.78 24.23Q14.9 24.25 15 24.3Q15.11 24.34 15.21 24.41Q15.32 24.48 15.41 24.58Q15.51 24.67 15.58 24.78Q15.65 24.88 15.69 24.99Q15.74 25.09 15.76 25.21Q15.8 25.35 15.8 25.5L15.8 31.5Q15.8 31.64 15.76 31.79Q15.74 31.9 15.69 32Q15.65 32.11 15.58 32.21Q15.51 32.32 15.41 32.41Q15.32 32.51 15.21 32.58Q15.11 32.65 15 32.69Q14.9 32.74 14.78 32.76Q14.64 32.8 14.5 32.8L8.5 32.8Q8.35 32.8 8.21 32.76Q8.09 32.74 7.99 32.69Q7.88 32.65 7.78 32.58Q7.67 32.51 7.58 32.41Q7.48 32.32 7.41 32.21Q7.34 32.11 7.3 32Q7.25 31.9 7.23 31.78Q7.19 31.64 7.19 31.5L7.19 25.5Q7.19 25.35 7.23 25.21Q7.25 25.09 7.3 24.99Q7.34 24.88 7.41 24.78Q7.48 24.67 7.58 24.58Q7.67 24.48 7.78 24.41Q7.88 24.34 7.99 24.3Q8.09 24.25 8.21 24.23ZM12.76 26.85Q12.64 26.8 12.5 26.8L10.5 26.8Q10.35 26.8 10.23 26.85Q10.1 26.9 10 27Q9.9 27.1 9.85 27.23Q9.8 27.35 9.8 27.5L9.8 29.5Q9.8 29.64 9.85 29.76Q9.9 29.89 10 29.99Q10.1 30.09 10.23 30.14Q10.35 30.2 10.5 30.2L12.5 30.2Q12.64 30.2 12.76 30.14Q12.89 30.09 12.99 29.99Q13.09 29.89 13.14 29.76Q13.2 29.64 13.2 29.5L13.2 27.5Q13.2 27.35 13.14 27.23Q13.09 27.1 12.99 27Q12.89 26.9 12.76 26.85ZM10.5 27L12.5 27C12.77 27 13 27.22 13 27.5L13 29.5C13 29.77 12.77 30 12.5 30L10.5 30C10.22 30 10 29.77 10 29.5L10 27.5C10 27.22 10.22 27 10.5 27Z" fill="url(#paint_linear_4544_88213_1)" fill-opacity="1.000000" fill-rule="evenodd"/>
		<path id="矢量 346" d="M19.5 9L21.5 9C21.77 9 22 9.22 22 9.5L22 12.5C22 12.77 21.77 13 21.5 13L19.5 13C19.22 13 19 12.77 19 12.5L19 9.5C19 9.22 19.22 9 19.5 9ZM19.5 15L21.5 15C21.77 15 22 15.22 22 15.5L22 17.5C22 17.77 21.77 18 21.5 18L19 18L19 15.5C19 15.22 19.22 15 19.5 15ZM7.5 18L9.5 18C9.77 18 10 18.22 10 18.5L10 20.5C10 20.77 9.77 21 9.5 21L7.5 21C7.22 21 7 20.77 7 20.5L7 18.5C7 18.22 7.22 18 7.5 18ZM16.5 18L19 18L19 21L16.5 21C16.22 21 16 20.77 16 20.5L16 18.5C16 18.22 16.22 18 16.5 18ZM28.5 19L30.5 19C30.77 19 31 19.22 31 19.5L31 21.5C31 21.77 30.77 22 30.5 22L28.5 22C28.22 22 28 21.77 28 21.5L28 19.5C28 19.22 28.22 19 28.5 19ZM19 21L26.5 21C26.77 21 27 21.22 27 21.5L27 27L24.5 27C24.22 27 24 26.77 24 26.5L24 24.5C24 24.22 23.77 24 23.5 24L19.5 24C19.22 24 19 23.77 19 23.5L19 21ZM30.5 24L32.5 24C32.77 24 33 24.22 33 24.5L33 26.5C33 26.77 32.77 27 32.5 27L30 27L30 24.5C30 24.22 30.22 24 30.5 24ZM27 27L30 27L30 30L27.5 30C27.22 30 27 29.77 27 29.5L27 27ZM19.5 30L21.5 30C21.77 30 22 30.22 22 30.5L22 32.5C22 32.77 21.77 33 21.5 33L19.5 33C19.22 33 19 32.77 19 32.5L19 30.5C19 30.22 19.22 30 19.5 30ZM30 30L32.5 30C32.77 30 33 30.22 33 30.5L33 32.5C33 32.77 32.77 33 32.5 33L30.5 33C30.22 33 30 32.77 30 32.5L30 30Z" fill="url(#paint_linear_4544_88214_0)" fill-opacity="1.000000" fill-rule="evenodd"/>
		<path id="矢量 346" d="M19.5 9L21.5 9C21.77 9 22 9.22 22 9.5L22 12.5C22 12.77 21.77 13 21.5 13L19.5 13C19.22 13 19 12.77 19 12.5L19 9.5C19 9.22 19.22 9 19.5 9ZM19.5 9.2L21.5 9.2Q21.56 9.2 21.61 9.22Q21.66 9.24 21.71 9.28Q21.75 9.33 21.77 9.38Q21.8 9.43 21.8 9.5L21.8 12.5Q21.8 12.56 21.77 12.61Q21.75 12.66 21.71 12.71Q21.66 12.75 21.61 12.77Q21.56 12.8 21.5 12.8L19.5 12.8Q19.43 12.8 19.38 12.77Q19.33 12.75 19.28 12.71Q19.24 12.66 19.22 12.61Q19.2 12.56 19.2 12.5L19.2 9.5Q19.2 9.43 19.22 9.38Q19.24 9.33 19.28 9.28Q19.33 9.24 19.38 9.22Q19.43 9.2 19.5 9.2ZM19.2 18L21.5 18C21.77 18 22 17.77 22 17.5L22 15.5C22 15.22 21.77 15 21.5 15L19.5 15C19.22 15 19 15.22 19 15.5L19 18L16.5 18C16.22 18 16 18.22 16 18.5L16 20.5C16 20.77 16.22 21 16.5 21L19 21L19 23.5C19 23.77 19.22 24 19.5 24L23.5 24C23.77 24 24 24.22 24 24.5L24 26.5C24 26.77 24.22 27 24.5 27L27 27L27 29.5C27 29.77 27.22 30 27.5 30L30 30L30 32.5C30 32.77 30.22 33 30.5 33L32.5 33C32.77 33 33 32.77 33 32.5L33 30.5C33 30.22 32.77 30 32.5 30L30 30L30 27L32.5 27C32.77 27 33 26.77 33 26.5L33 24.5C33 24.22 32.77 24 32.5 24L30.5 24C30.22 24 30 24.22 30 24.5L30 27L27 27L27 21.5C27 21.22 26.77 21 26.5 21L19 21L19 18L19.2 18ZM18.79 18.2L16.5 18.2Q16.43 18.2 16.38 18.22Q16.33 18.24 16.28 18.28Q16.24 18.33 16.22 18.38Q16.2 18.43 16.2 18.5L16.2 20.5Q16.2 20.56 16.22 20.61Q16.24 20.66 16.28 20.71Q16.33 20.75 16.38 20.77Q16.43 20.8 16.5 20.8L18.79 20.8L18.79 18.2ZM19.2 21.2L19.2 23.5Q19.2 23.56 19.22 23.61Q19.24 23.66 19.28 23.71Q19.33 23.75 19.38 23.77Q19.43 23.8 19.5 23.8L23.5 23.8Q23.64 23.8 23.76 23.85Q23.89 23.9 23.99 24Q24.09 24.1 24.14 24.23Q24.2 24.35 24.2 24.5L24.2 26.5Q24.2 26.56 24.22 26.61Q24.24 26.66 24.28 26.71Q24.33 26.75 24.38 26.77Q24.43 26.8 24.5 26.8L26.8 26.8L26.8 21.5Q26.8 21.43 26.77 21.38Q26.75 21.33 26.71 21.28Q26.66 21.24 26.61 21.22Q26.56 21.2 26.5 21.2L19.2 21.2ZM27.2 27.2L27.2 29.5Q27.2 29.56 27.22 29.61Q27.24 29.66 27.28 29.71Q27.33 29.75 27.38 29.77Q27.43 29.8 27.5 29.8L29.8 29.8L29.8 27.2L27.2 27.2ZM30.2 26.8L32.5 26.8Q32.56 26.8 32.61 26.77Q32.66 26.75 32.71 26.71Q32.75 26.66 32.77 26.61Q32.8 26.56 32.8 26.5L32.8 24.5Q32.8 24.43 32.77 24.38Q32.75 24.33 32.71 24.28Q32.66 24.24 32.61 24.22Q32.56 24.2 32.5 24.2L30.5 24.2Q30.43 24.2 30.38 24.22Q30.33 24.24 30.28 24.28Q30.24 24.33 30.22 24.38Q30.2 24.43 30.2 24.5L30.2 26.8ZM30.2 30.2L30.2 32.5Q30.2 32.56 30.22 32.61Q30.24 32.66 30.28 32.71Q30.33 32.75 30.38 32.77Q30.43 32.8 30.5 32.8L32.5 32.8Q32.56 32.8 32.61 32.77Q32.66 32.75 32.71 32.71Q32.75 32.66 32.77 32.61Q32.8 32.56 32.8 32.5L32.8 30.5Q32.8 30.43 32.77 30.38Q32.75 30.33 32.71 30.28Q32.66 30.24 32.61 30.22Q32.56 30.2 32.5 30.2L30.2 30.2ZM19.2 17.79L21.5 17.79Q21.56 17.79 21.61 17.77Q21.66 17.75 21.71 17.71Q21.75 17.66 21.77 17.61Q21.8 17.56 21.8 17.5L21.8 15.5Q21.8 15.43 21.77 15.38Q21.75 15.33 21.71 15.28Q21.66 15.24 21.61 15.22Q21.56 15.2 21.5 15.2L19.5 15.2Q19.43 15.2 19.38 15.22Q19.33 15.24 19.28 15.28Q19.24 15.33 19.22 15.38Q19.2 15.43 19.2 15.5L19.2 17.79ZM7.5 18L9.5 18C9.77 18 10 18.22 10 18.5L10 20.5C10 20.77 9.77 21 9.5 21L7.5 21C7.22 21 7 20.77 7 20.5L7 18.5C7 18.22 7.22 18 7.5 18ZM7.5 18.2L9.5 18.2Q9.56 18.2 9.61 18.22Q9.66 18.24 9.71 18.28Q9.75 18.33 9.77 18.38Q9.8 18.43 9.8 18.5L9.8 20.5Q9.8 20.56 9.77 20.61Q9.75 20.66 9.71 20.71Q9.66 20.75 9.61 20.77Q9.56 20.8 9.5 20.8L7.5 20.8Q7.43 20.8 7.38 20.77Q7.33 20.75 7.28 20.71Q7.24 20.66 7.22 20.61Q7.19 20.56 7.19 20.5L7.19 18.5Q7.19 18.43 7.22 18.38Q7.24 18.33 7.28 18.28Q7.33 18.24 7.38 18.22Q7.43 18.2 7.5 18.2ZM28.5 19L30.5 19C30.77 19 31 19.22 31 19.5L31 21.5C31 21.77 30.77 22 30.5 22L28.5 22C28.22 22 28 21.77 28 21.5L28 19.5C28 19.22 28.22 19 28.5 19ZM28.5 19.2L30.5 19.2Q30.56 19.2 30.61 19.22Q30.66 19.24 30.71 19.28Q30.75 19.33 30.77 19.38Q30.8 19.43 30.8 19.5L30.8 21.5Q30.8 21.56 30.77 21.61Q30.75 21.66 30.71 21.71Q30.66 21.75 30.61 21.77Q30.56 21.8 30.5 21.8L28.5 21.8Q28.43 21.8 28.38 21.77Q28.33 21.75 28.28 21.71Q28.24 21.66 28.22 21.61Q28.2 21.56 28.2 21.5L28.2 19.5Q28.2 19.43 28.22 19.38Q28.24 19.33 28.28 19.28Q28.33 19.24 28.38 19.22Q28.43 19.2 28.5 19.2ZM19.5 30L21.5 30C21.77 30 22 30.22 22 30.5L22 32.5C22 32.77 21.77 33 21.5 33L19.5 33C19.22 33 19 32.77 19 32.5L19 30.5C19 30.22 19.22 30 19.5 30ZM19.5 30.2L21.5 30.2Q21.56 30.2 21.61 30.22Q21.66 30.24 21.71 30.28Q21.75 30.33 21.77 30.38Q21.8 30.43 21.8 30.5L21.8 32.5Q21.8 32.56 21.77 32.61Q21.75 32.66 21.71 32.71Q21.66 32.75 21.61 32.77Q21.56 32.8 21.5 32.8L19.5 32.8Q19.43 32.8 19.38 32.77Q19.33 32.75 19.28 32.71Q19.24 32.66 19.22 32.61Q19.2 32.56 19.2 32.5L19.2 30.5Q19.2 30.43 19.22 30.38Q19.24 30.33 19.28 30.28Q19.33 30.24 19.38 30.22Q19.43 30.2 19.5 30.2Z" fill="url(#paint_linear_4544_88214_1)" fill-opacity="1.000000" fill-rule="evenodd"/>
	</g>
</svg>
