<svg width="40.000000" height="40.000000" viewBox="0 0 40 40" fill="none" xmlns="http://www.w3.org/2000/svg" xmlns:xlink="http://www.w3.org/1999/xlink">
	<desc>
			Created with Pixso.
	</desc>
	<defs>
		<clipPath id="clip2508_71574">
			<rect width="40.000004" height="40.000004" fill="white" fill-opacity="0"/>
		</clipPath>
		<linearGradient x1="-0.673236" y1="12.475552" x2="40.673241" y2="27.524448" id="paint_linear_2508_71560_0" gradientUnits="userSpaceOnUse">
			<stop stop-color="#FFD371"/>
			<stop offset="1.000000" stop-color="#FFB612"/>
		</linearGradient>
		<linearGradient x1="3.085538" y1="24.788280" x2="36.914478" y2="15.211720" id="paint_linear_2508_71561_0" gradientUnits="userSpaceOnUse">
			<stop stop-color="#FFD371"/>
			<stop offset="1.000000" stop-color="#FFB612"/>
		</linearGradient>
		<linearGradient x1="8.571426" y1="12.070110" x2="33.571426" y2="35.876362" id="paint_linear_2508_71562_0" gradientUnits="userSpaceOnUse">
			<stop stop-color="#FFFFFF"/>
			<stop offset="1.000000" stop-color="#FFFFFF" stop-opacity="0.000000"/>
		</linearGradient>
		<linearGradient x1="12.000000" y1="20.000000" x2="28.000000" y2="20.000000" id="paint_linear_2508_71569_0" gradientUnits="userSpaceOnUse">
			<stop stop-color="#FFFFFF" stop-opacity="0.901961"/>
			<stop offset="1.000000" stop-color="#FFFFFF" stop-opacity="0.301961"/>
		</linearGradient>
		<linearGradient x1="10.857141" y1="13.454546" x2="30.857141" y2="30.181820" id="paint_linear_2508_71569_1" gradientUnits="userSpaceOnUse">
			<stop stop-color="#FFFFFF"/>
			<stop offset="1.000000" stop-color="#FFFFFF" stop-opacity="0.000000"/>
		</linearGradient>
	</defs>
	<rect width="40.000004" height="40.000004" fill="#FFFFFF" fill-opacity="0"/>
	<g clip-path="url(#clip2508_71574)">
		<path d="M17.64 3.46C16.99 4.98 15.09 5.49 13.76 4.5C11.96 3.16 9.43 4.62 9.69 6.85C9.89 8.49 8.49 9.89 6.85 9.69C4.62 9.43 3.16 11.96 4.5 13.76C5.49 15.09 4.98 16.99 3.46 17.64C1.4 18.53 1.4 21.46 3.46 22.35C4.98 23 5.49 24.9 4.5 26.23C3.16 28.03 4.62 30.56 6.85 30.3C8.49 30.1 9.89 31.5 9.69 33.14C9.43 35.37 11.96 36.83 13.76 35.49C15.09 34.5 16.99 35.01 17.64 36.53C18.53 38.59 21.46 38.59 22.35 36.53C23 35.01 24.9 34.5 26.23 35.49C28.03 36.83 30.56 35.37 30.3 33.14C30.1 31.5 31.5 30.1 33.14 30.3C35.37 30.56 36.83 28.03 35.49 26.23C34.5 24.9 35.01 23 36.53 22.35C38.59 21.46 38.59 18.53 36.53 17.64C35.01 16.99 34.5 15.09 35.49 13.76C36.83 11.96 35.37 9.43 33.14 9.69C31.5 9.89 30.1 8.49 30.3 6.85C30.56 4.62 28.03 3.16 26.23 4.5C24.9 5.49 23 4.98 22.35 3.46C21.46 1.4 18.53 1.4 17.64 3.46Z" fill="url(#paint_linear_2508_71560_0)" fill-opacity="1.000000" fill-rule="evenodd"/>
		<mask id="mask_2508_71562" fill="white">
			<path d="M26.7717 27.3583C28.7565 25.5308 30 22.9106 30 20C30 14.4771 25.5228 10 20 10C14.4772 10 10 14.4771 10 20C10 22.8036 11.1538 25.3378 13.0125 27.1536L11.0681 30.5212C10.8685 30.867 11.1348 31.2958 11.5333 31.2701L12.6671 31.197C12.8685 31.1841 13.058 31.2935 13.1475 31.4744L13.651 32.4928C13.828 32.8508 14.3325 32.867 14.5322 32.5212L16.3782 29.3239C17.5012 29.7605 18.7227 30 20 30C21.1738 30 22.3004 29.7978 23.3469 29.4262L25.1338 32.5212C25.3335 32.867 25.838 32.8508 26.015 32.4928L26.5186 31.4744C26.608 31.2934 26.7975 31.1841 26.9989 31.197L28.1327 31.2701C28.5312 31.2958 28.7975 30.867 28.5979 30.5212L26.7717 27.3583ZM20 28C24.4183 28 28 24.4183 28 20C28 15.5817 24.4183 12 20 12C15.5817 12 12 15.5817 12 20C12 24.4183 15.5817 28 20 28Z" clip-rule="evenodd" fill="" fill-opacity="1.000000" fill-rule="evenodd"/>
		</mask>
		<path d="M26.7717 27.3583C28.7565 25.5308 30 22.9106 30 20C30 14.4771 25.5228 10 20 10C14.4772 10 10 14.4771 10 20C10 22.8036 11.1538 25.3378 13.0125 27.1536L11.0681 30.5212C10.8685 30.867 11.1348 31.2958 11.5333 31.2701L12.6671 31.197C12.8685 31.1841 13.058 31.2935 13.1475 31.4744L13.651 32.4928C13.828 32.8508 14.3325 32.867 14.5322 32.5212L16.3782 29.3239C17.5012 29.7605 18.7227 30 20 30C21.1738 30 22.3004 29.7978 23.3469 29.4262L25.1338 32.5212C25.3335 32.867 25.838 32.8508 26.015 32.4928L26.5186 31.4744C26.608 31.2934 26.7975 31.1841 26.9989 31.197L28.1327 31.2701C28.5312 31.2958 28.7975 30.867 28.5979 30.5212L26.7717 27.3583ZM20 28C24.4183 28 28 24.4183 28 20C28 15.5817 24.4183 12 20 12C15.5817 12 12 15.5817 12 20C12 24.4183 15.5817 28 20 28Z" clip-rule="evenodd" fill="#FFD983" fill-opacity="0.650000" fill-rule="evenodd" mask="url(#mask_2508_71562)"/>
		<path d="M23.3469 29.4262L25.1338 32.5212C25.3335 32.867 25.838 32.8508 26.015 32.4928L26.5186 31.4744C26.608 31.2934 26.7975 31.1841 26.9989 31.197L28.1327 31.2701C28.5312 31.2958 28.7975 30.867 28.5979 30.5212L26.7717 27.3583C28.7565 25.5308 30 22.9106 30 20C30 14.4771 25.5228 10 20 10C14.4772 10 10 14.4771 10 20C10 22.8036 11.1538 25.3378 13.0125 27.1536L11.0681 30.5212C10.8685 30.867 11.1348 31.2958 11.5333 31.2701L12.6671 31.197C12.8685 31.1841 13.058 31.2935 13.1475 31.4744L13.651 32.4928C13.828 32.8508 14.3325 32.867 14.5322 32.5212L16.3782 29.3239C17.5012 29.7605 18.7227 30 20 30C21.1738 30 22.3004 29.7978 23.3469 29.4262ZM28.9476 24.0035C28.3986 25.2287 27.6282 26.2979 26.6362 27.2112L26.5186 27.3196L28.4247 30.6212C28.4539 30.6718 28.4675 30.725 28.4656 30.7807C28.4637 30.8336 28.4484 30.8832 28.4197 30.9295C28.391 30.9757 28.3533 31.0114 28.3066 31.0366C28.2576 31.063 28.2039 31.0743 28.1455 31.0706L27.0118 30.9974C26.8708 30.9883 26.7391 31.0191 26.6167 31.0898C26.4944 31.1604 26.4019 31.2591 26.3392 31.3857L25.8357 32.4041C25.8098 32.4566 25.7731 32.4974 25.7257 32.5267C25.6805 32.5545 25.6309 32.5693 25.5764 32.571C25.522 32.5728 25.4714 32.5612 25.4247 32.5364C25.3755 32.5102 25.3362 32.4718 25.307 32.4212L23.4369 29.182L23.2799 29.2377C22.2242 29.6125 21.1309 29.8 20 29.8C18.7699 29.8 17.5868 29.5792 16.4507 29.1375L16.2908 29.0754L14.359 32.4212C14.3298 32.4718 14.2905 32.5102 14.2413 32.5364C14.1946 32.5612 14.144 32.5728 14.0896 32.571C14.0352 32.5693 13.9854 32.5545 13.9403 32.5267C13.8929 32.4974 13.8562 32.4566 13.8303 32.4041L13.3268 31.3857C13.2642 31.2591 13.1716 31.1604 13.0493 31.0898C12.9269 31.0191 12.7952 30.9883 12.6542 30.9974L11.5205 31.0706C11.4622 31.0743 11.4084 31.063 11.3594 31.0366C11.3127 31.0114 11.275 30.9757 11.2463 30.9295C11.2177 30.8832 11.2023 30.8336 11.2004 30.7807C11.1985 30.725 11.2122 30.6718 11.2413 30.6212L13.2633 27.1191L13.1522 27.0105C12.2234 26.1031 11.5037 25.0557 10.9929 23.8682C10.4644 22.639 10.2 21.3496 10.2 20Q10.2 18.8943 10.4368 17.8419Q10.627 16.9965 10.9701 16.1855C11.4659 15.013 12.166 13.9747 13.0703 13.0703C13.9746 12.166 15.0131 11.4659 16.1854 10.9701C17.3992 10.4567 18.6707 10.2 20 10.2C21.3293 10.2 22.6008 10.4567 23.8146 10.9701C24.9869 11.4659 26.0253 12.166 26.9297 13.0703C27.834 13.9746 28.5341 15.013 29.0299 16.1855Q29.3728 16.9959 29.563 17.8408Q29.8 18.8937 29.8 20C29.8 21.401 29.5159 22.7356 28.9476 24.0035ZM16.8081 27.5555C17.824 27.9852 18.8879 28.2 20 28.2C21.1121 28.2 22.176 27.9852 23.1919 27.5555C24.173 27.1406 25.0417 26.5548 25.7982 25.7983C26.5548 25.0417 27.1406 24.1729 27.5555 23.1919C27.9852 22.1761 28.2 21.1121 28.2 20C28.2 18.8879 27.9852 17.8239 27.5555 16.8081C27.1406 15.8271 26.5548 14.9583 25.7982 14.2017C25.0417 13.4452 24.173 12.8594 23.1919 12.4445C22.176 12.0148 21.1121 11.8 20 11.8C18.8879 11.8 17.824 12.0148 16.8081 12.4445C15.827 12.8594 14.9583 13.4452 14.2018 14.2017C13.4452 14.9583 12.8594 15.8271 12.4445 16.8081C12.0148 17.8239 11.8 18.8879 11.8 20C11.8 21.1121 12.0148 22.1761 12.4445 23.1919C12.8594 24.1729 13.4452 25.0417 14.2018 25.7983C14.9583 26.5548 15.827 27.1406 16.8081 27.5555ZM28 20C28 24.4183 24.4183 28 20 28C15.5817 28 12 24.4183 12 20C12 15.5817 15.5817 12 20 12C24.4183 12 28 15.5817 28 20Z" clip-rule="evenodd" fill="url(#paint_linear_2508_71562_0)" fill-opacity="1.000000" fill-rule="evenodd"/>
		<path d="M19.05 14.65L18.32 16.72C18.18 17.11 17.81 17.37 17.4 17.39L15.2 17.45C14.26 17.47 13.87 18.66 14.62 19.24L16.36 20.58C16.69 20.83 16.83 21.26 16.71 21.66L16.09 23.77C15.82 24.67 16.84 25.41 17.61 24.88L19.43 23.63C19.77 23.4 20.22 23.4 20.56 23.63L22.38 24.88C23.15 25.41 24.17 24.67 23.9 23.77L23.28 21.66C23.16 21.26 23.3 20.83 23.63 20.58L25.37 19.24C26.12 18.66 25.73 17.47 24.79 17.45L22.59 17.39C22.18 17.37 21.81 17.11 21.67 16.72L20.94 14.65C20.62 13.76 19.37 13.76 19.05 14.65Z" fill="url(#paint_linear_2508_71569_0)" fill-opacity="1.000000" fill-rule="evenodd"/>
		<path d="M18.32 16.72C18.18 17.11 17.81 17.37 17.4 17.39L15.2 17.45C14.26 17.47 13.87 18.66 14.62 19.24L16.36 20.58C16.69 20.83 16.83 21.26 16.71 21.66L16.09 23.77C15.82 24.67 16.84 25.41 17.61 24.88L19.43 23.63C19.77 23.4 20.22 23.4 20.56 23.63L22.38 24.88C23.15 25.41 24.17 24.67 23.9 23.77L23.28 21.66C23.16 21.26 23.3 20.83 23.63 20.58L25.37 19.24C26.12 18.66 25.73 17.47 24.79 17.45L22.59 17.39C22.18 17.37 21.81 17.11 21.67 16.72L20.94 14.65C20.62 13.76 19.37 13.76 19.05 14.65L18.32 16.72ZM18.5 16.79C18.34 17.26 17.9 17.57 17.41 17.59L15.21 17.65C14.45 17.67 14.14 18.62 14.74 19.08L16.48 20.42C16.88 20.72 17.04 21.24 16.9 21.71L16.28 23.82C16.07 24.55 16.88 25.14 17.5 24.71L19.32 23.47C19.73 23.19 20.26 23.19 20.67 23.47L22.49 24.71C23.11 25.14 23.92 24.55 23.71 23.82L23.09 21.71C22.95 21.24 23.11 20.72 23.51 20.42L25.25 19.08C25.85 18.62 25.54 17.67 24.78 17.65L22.58 17.59C22.09 17.57 21.65 17.26 21.49 16.79L20.75 14.71C20.5 14 19.49 14 19.24 14.71L18.5 16.79Z" fill="url(#paint_linear_2508_71569_1)" fill-opacity="1.000000" fill-rule="evenodd"/>
	</g>
</svg>
