<svg width="44.000000" height="44.000000" viewBox="0 0 44 44" fill="none" xmlns="http://www.w3.org/2000/svg" xmlns:xlink="http://www.w3.org/1999/xlink">
	<desc>
			Created with Pixso.
	</desc>
	<defs>
		<clipPath id="clip2500_71417">
			<rect id="Icon/Alpha/Page" width="44.000000" height="44.000000" fill="white" fill-opacity="0"/>
		</clipPath>
		<linearGradient x1="5.295956" y1="15.256659" x2="33.204826" y2="26.543333" id="paint_linear_2859_9080_0" gradientUnits="userSpaceOnUse">
			<stop stop-color="#FF8383"/>
			<stop offset="1.000000" stop-color="#F52828"/>
		</linearGradient>
		<linearGradient x1="7.857531" y1="11.700008" x2="43.607529" y2="45.050007" id="paint_linear_2859_9081_0" gradientUnits="userSpaceOnUse">
			<stop stop-color="#FFFFFF"/>
			<stop offset="1.000000" stop-color="#FFFFFF" stop-opacity="0.000000"/>
		</linearGradient>
		<linearGradient x1="13.200195" y1="21.450005" x2="25.300194" y2="21.450005" id="paint_linear_2859_9082_0" gradientUnits="userSpaceOnUse">
			<stop stop-color="#FFFFFF" stop-opacity="0.901961"/>
			<stop offset="1.000000" stop-color="#FFFFFF" stop-opacity="0.301961"/>
		</linearGradient>
		<linearGradient x1="12.335909" y1="20.100002" x2="27.460909" y2="23.549992" id="paint_linear_2859_9082_1" gradientUnits="userSpaceOnUse">
			<stop stop-color="#FFFFFF"/>
			<stop offset="1.000000" stop-color="#FFFFFF" stop-opacity="0.000000"/>
		</linearGradient>
		<linearGradient x1="27.500000" y1="16.573244" x2="34.099998" y2="16.573244" id="paint_linear_2859_9083_0" gradientUnits="userSpaceOnUse">
			<stop stop-color="#FFFFFF" stop-opacity="0.901961"/>
			<stop offset="1.000000" stop-color="#FFFFFF" stop-opacity="0.301961"/>
		</linearGradient>
		<linearGradient x1="27.028572" y1="12.913328" x2="35.278572" y2="22.266451" id="paint_linear_2859_9083_1" gradientUnits="userSpaceOnUse">
			<stop stop-color="#FFFFFF"/>
			<stop offset="1.000000" stop-color="#FFFFFF" stop-opacity="0.000000"/>
		</linearGradient>
		<linearGradient x1="13.200195" y1="26.949987" x2="23.100195" y2="26.949987" id="paint_linear_2859_9084_0" gradientUnits="userSpaceOnUse">
			<stop stop-color="#FFFFFF" stop-opacity="0.901961"/>
			<stop offset="1.000000" stop-color="#FFFFFF" stop-opacity="0.301961"/>
		</linearGradient>
		<linearGradient x1="12.493053" y1="25.599987" x2="24.868052" y2="29.049992" id="paint_linear_2859_9084_1" gradientUnits="userSpaceOnUse">
			<stop stop-color="#FFFFFF"/>
			<stop offset="1.000000" stop-color="#FFFFFF" stop-opacity="0.000000"/>
		</linearGradient>
	</defs>
	<rect id="Icon/Alpha/Page" width="44.000000" height="44.000000" fill="#FFFFFF" fill-opacity="0"/>
	<g clip-path="url(#clip2500_71417)">
		<path id="矢量 303" d="M8.8 4.39L29.7 4.39C32.13 4.39 34.1 6.36 34.1 8.8L34.1 33C34.1 35.43 32.13 37.4 29.7 37.4L8.8 37.4C6.37 37.4 4.4 35.43 4.4 33L4.4 8.8C4.4 6.36 6.37 4.39 8.8 4.39Z" fill="url(#paint_linear_2859_9080_0)" fill-opacity="1.000000" fill-rule="nonzero"/>
		<path id="矢量 302" d="M14.3 8.8L34.1 8.8C36.53 8.8 38.5 10.77 38.5 13.2L38.5 36.3C38.5 38.73 36.53 40.7 34.1 40.7L14.3 40.7C11.87 40.7 9.9 38.73 9.9 36.3L9.9 13.2C9.9 10.77 11.87 8.8 14.3 8.8Z" fill="#FFB7B5" fill-opacity="0.750000" fill-rule="nonzero"/>
		<path id="矢量 302" d="M34.1 8.8L14.3 8.8C11.87 8.8 9.9 10.77 9.9 13.2L9.9 36.3C9.9 38.73 11.87 40.7 14.3 40.7L34.1 40.7C36.53 40.7 38.5 38.73 38.5 36.3L38.5 13.2C38.5 10.77 36.53 8.8 34.1 8.8ZM14.3 8.97L34.1 8.97C34.41 8.97 34.72 9.01 35.03 9.08C35.27 9.13 35.51 9.21 35.74 9.3C35.98 9.4 36.2 9.52 36.41 9.66C36.65 9.82 36.87 10 37.08 10.21C37.29 10.42 37.47 10.64 37.63 10.88C37.77 11.09 37.89 11.32 37.99 11.55C38.08 11.78 38.16 12.02 38.21 12.26C38.28 12.57 38.32 12.88 38.32 13.2L38.32 36.3C38.32 36.61 38.28 36.92 38.21 37.23C38.16 37.47 38.08 37.71 37.99 37.94C37.89 38.17 37.77 38.4 37.63 38.61C37.47 38.85 37.29 39.07 37.08 39.28C36.87 39.49 36.65 39.67 36.41 39.83C36.2 39.97 35.98 40.09 35.74 40.19C35.51 40.28 35.27 40.36 35.03 40.41C34.72 40.48 34.41 40.52 34.1 40.52L14.3 40.52C13.98 40.52 13.67 40.48 13.36 40.41C13.12 40.36 12.88 40.28 12.65 40.19C12.42 40.09 12.19 39.97 11.98 39.83C11.74 39.67 11.52 39.49 11.31 39.28C11.1 39.07 10.92 38.85 10.76 38.61C10.62 38.4 10.5 38.17 10.41 37.94C10.31 37.71 10.23 37.47 10.18 37.23C10.11 36.92 10.07 36.61 10.07 36.3L10.07 13.2C10.07 12.88 10.11 12.57 10.18 12.26C10.23 12.02 10.31 11.78 10.41 11.55C10.5 11.32 10.62 11.09 10.76 10.88C10.92 10.64 11.1 10.42 11.31 10.21C11.52 10 11.74 9.82 11.98 9.66C12.19 9.52 12.42 9.4 12.65 9.3C12.88 9.21 13.12 9.13 13.36 9.08C13.67 9.01 13.98 8.97 14.3 8.97Z" fill="url(#paint_linear_2859_9081_0)" fill-opacity="1.000000" fill-rule="evenodd"/>
		<path id="矢量 300" d="M14.85 19.79L23.65 19.79C24.56 19.79 25.29 20.53 25.29 21.45C25.29 22.36 24.56 23.1 23.65 23.1L14.85 23.1C13.93 23.1 13.2 22.36 13.2 21.45C13.2 20.53 13.93 19.79 14.85 19.79Z" fill="url(#paint_linear_2859_9082_0)" fill-opacity="1.000000" fill-rule="nonzero"/>
		<path id="矢量 300" d="M23.65 19.79L14.85 19.79C13.93 19.79 13.2 20.53 13.2 21.45C13.2 22.36 13.93 23.1 14.85 23.1L23.65 23.1C24.56 23.1 25.29 22.36 25.29 21.45C25.29 20.53 24.56 19.79 23.65 19.79ZM14.85 20L23.65 20C23.76 20 23.86 20.01 23.97 20.03C24.05 20.05 24.13 20.08 24.21 20.11C24.29 20.14 24.37 20.18 24.44 20.23C24.52 20.29 24.6 20.35 24.67 20.42C24.74 20.49 24.81 20.57 24.86 20.65C24.91 20.72 24.95 20.8 24.98 20.88C25.01 20.96 25.04 21.04 25.06 21.12C25.08 21.23 25.1 21.33 25.1 21.45C25.1 21.56 25.08 21.66 25.06 21.77C25.04 21.85 25.01 21.93 24.98 22.01C24.95 22.09 24.91 22.17 24.86 22.24C24.81 22.32 24.74 22.4 24.67 22.47C24.6 22.54 24.52 22.6 24.44 22.66C24.37 22.71 24.29 22.75 24.21 22.78C24.13 22.81 24.05 22.84 23.97 22.86C23.86 22.88 23.76 22.9 23.65 22.9L14.85 22.9C14.74 22.9 14.63 22.88 14.52 22.86C14.44 22.84 14.36 22.81 14.28 22.78C14.2 22.75 14.12 22.71 14.05 22.66C13.97 22.6 13.89 22.54 13.82 22.47C13.75 22.4 13.69 22.32 13.63 22.24C13.58 22.17 13.54 22.09 13.51 22.01C13.48 21.93 13.45 21.85 13.43 21.77C13.41 21.66 13.4 21.56 13.4 21.45C13.4 21.33 13.41 21.23 13.43 21.12C13.45 21.04 13.48 20.96 13.51 20.88C13.54 20.8 13.58 20.72 13.63 20.65C13.69 20.57 13.75 20.49 13.82 20.42C13.89 20.35 13.97 20.29 14.05 20.23C14.12 20.18 14.2 20.14 14.28 20.11C14.36 20.08 14.44 20.05 14.52 20.03C14.63 20.01 14.74 20 14.85 20Z" fill="url(#paint_linear_2859_9082_1)" fill-opacity="1.000000" fill-rule="evenodd"/>
		<path id="矢量 299" d="M28.59 12.1L33 12.1C33.6 12.1 34.09 12.59 34.09 13.2L34.09 19.94C34.09 20.82 33.12 21.34 32.38 20.85L31.41 20.2C31.04 19.96 30.55 19.96 30.18 20.2L29.21 20.85C28.47 21.34 27.5 20.82 27.5 19.94L27.5 13.2C27.5 12.59 27.99 12.1 28.59 12.1Z" fill="url(#paint_linear_2859_9083_0)" fill-opacity="1.000000" fill-rule="nonzero"/>
		<path id="矢量 299" d="M28.59 12.1L33 12.1C33.6 12.1 34.09 12.59 34.09 13.2L34.09 19.94C34.09 20.82 33.12 21.34 32.38 20.85L31.41 20.2C31.04 19.96 30.55 19.96 30.18 20.2L29.21 20.85C28.47 21.34 27.5 20.82 27.5 19.94L27.5 13.2C27.5 12.59 27.99 12.1 28.59 12.1ZM28.59 12.3L33 12.3C33.06 12.3 33.13 12.3 33.2 12.32C33.25 12.33 33.3 12.35 33.35 12.37C33.4 12.39 33.44 12.41 33.49 12.44C33.54 12.47 33.59 12.51 33.63 12.56C33.68 12.6 33.72 12.65 33.75 12.7C33.78 12.75 33.8 12.8 33.82 12.84C33.84 12.89 33.86 12.94 33.87 12.99C33.89 13.06 33.9 13.13 33.9 13.2L33.9 19.94C33.9 20.05 33.88 20.15 33.84 20.24C33.82 20.3 33.79 20.36 33.76 20.42C33.73 20.47 33.68 20.53 33.64 20.57C33.58 20.64 33.5 20.69 33.42 20.73C33.34 20.78 33.25 20.81 33.16 20.83C33.1 20.84 33.03 20.84 32.97 20.84C32.9 20.84 32.84 20.83 32.78 20.82C32.68 20.79 32.59 20.75 32.5 20.69L31.52 20.04C31.41 19.96 31.29 19.91 31.17 19.87C31.05 19.84 30.93 19.82 30.79 19.82C30.66 19.82 30.54 19.84 30.42 19.87C30.3 19.91 30.18 19.96 30.07 20.04L29.09 20.69C29 20.75 28.91 20.79 28.81 20.82C28.75 20.83 28.69 20.84 28.62 20.84C28.56 20.84 28.49 20.84 28.43 20.83C28.34 20.81 28.25 20.78 28.17 20.73C28.09 20.69 28.02 20.64 27.95 20.57C27.91 20.53 27.87 20.47 27.83 20.42C27.79 20.36 27.77 20.3 27.75 20.24C27.71 20.15 27.7 20.05 27.7 19.94L27.7 13.2C27.7 13.13 27.7 13.06 27.72 12.99C27.73 12.94 27.75 12.89 27.77 12.84C27.79 12.8 27.81 12.75 27.84 12.7C27.87 12.65 27.91 12.6 27.96 12.56C28 12.51 28.05 12.47 28.1 12.44C28.15 12.41 28.2 12.39 28.25 12.37C28.29 12.35 28.34 12.33 28.39 12.32C28.46 12.3 28.53 12.3 28.59 12.3Z" fill="url(#paint_linear_2859_9083_1)" fill-opacity="1.000000" fill-rule="evenodd"/>
		<path id="矢量 301" d="M14.85 25.3L21.45 25.3C22.36 25.3 23.1 26.03 23.1 26.95C23.1 27.86 22.36 28.6 21.45 28.6L14.85 28.6C13.93 28.6 13.2 27.86 13.2 26.95C13.2 26.03 13.93 25.3 14.85 25.3Z" fill="url(#paint_linear_2859_9084_0)" fill-opacity="1.000000" fill-rule="nonzero"/>
		<path id="矢量 301" d="M21.45 25.3L14.85 25.3C13.93 25.3 13.2 26.03 13.2 26.95C13.2 27.86 13.93 28.6 14.85 28.6L21.45 28.6C22.36 28.6 23.1 27.86 23.1 26.95C23.1 26.03 22.36 25.3 21.45 25.3ZM14.85 25.5L21.45 25.5C21.56 25.5 21.66 25.51 21.77 25.53C21.85 25.55 21.93 25.58 22.01 25.61C22.09 25.64 22.17 25.68 22.24 25.73C22.32 25.79 22.4 25.85 22.47 25.92C22.54 25.99 22.61 26.07 22.66 26.15C22.71 26.22 22.75 26.3 22.78 26.38C22.81 26.46 22.84 26.54 22.86 26.62C22.88 26.73 22.9 26.83 22.9 26.95C22.9 27.06 22.88 27.16 22.86 27.27C22.84 27.35 22.81 27.43 22.78 27.51C22.75 27.59 22.71 27.67 22.66 27.74C22.61 27.82 22.54 27.9 22.47 27.97C22.4 28.04 22.32 28.1 22.24 28.16C22.17 28.21 22.09 28.25 22.01 28.28C21.93 28.31 21.85 28.34 21.77 28.36C21.66 28.38 21.56 28.4 21.45 28.4L14.85 28.4C14.74 28.4 14.63 28.38 14.52 28.36C14.44 28.34 14.36 28.31 14.28 28.28C14.2 28.25 14.12 28.21 14.05 28.16C13.97 28.1 13.89 28.04 13.82 27.97C13.75 27.9 13.69 27.82 13.63 27.74C13.58 27.67 13.54 27.59 13.51 27.51C13.48 27.43 13.45 27.35 13.43 27.27C13.41 27.16 13.4 27.06 13.4 26.95C13.4 26.83 13.41 26.73 13.43 26.62C13.45 26.54 13.48 26.46 13.51 26.38C13.54 26.3 13.58 26.22 13.63 26.15C13.69 26.07 13.75 25.99 13.82 25.92C13.89 25.85 13.97 25.79 14.05 25.73C14.12 25.68 14.2 25.64 14.28 25.61C14.36 25.58 14.44 25.55 14.52 25.53C14.63 25.51 14.74 25.5 14.85 25.5Z" fill="url(#paint_linear_2859_9084_1)" fill-opacity="1.000000" fill-rule="evenodd"/>
	</g>
</svg>
