<svg width="44.000000" height="44.000000" viewBox="0 0 44 44" fill="none" xmlns="http://www.w3.org/2000/svg" xmlns:xlink="http://www.w3.org/1999/xlink">
	<desc>
			Created with Pixso.
	</desc>
	<defs>
		<clipPath id="clip2513_71687">
			<rect id="Icon/Alpha/users-add" width="44.000000" height="44.000000" fill="white" fill-opacity="0"/>
		</clipPath>
		<linearGradient x1="8.662101" y1="14.142326" x2="38.638298" y2="26.557663" id="paint_linear_2859_75493_0" gradientUnits="userSpaceOnUse">
			<stop stop-color="#FA904F"/>
			<stop offset="1.000000" stop-color="#FF6100"/>
		</linearGradient>
		<linearGradient x1="3.221428" y1="7.700024" x2="43.096420" y2="45.649963" id="paint_linear_2859_75494_0" gradientUnits="userSpaceOnUse">
			<stop stop-color="#FFFFFF"/>
			<stop offset="1.000000" stop-color="#FFFFFF" stop-opacity="0.000000"/>
		</linearGradient>
		<linearGradient x1="23.099609" y1="31.900002" x2="31.899609" y2="31.900002" id="paint_linear_2859_75495_0" gradientUnits="userSpaceOnUse">
			<stop stop-color="#FFFFFF" stop-opacity="0.901961"/>
			<stop offset="1.000000" stop-color="#FFFFFF" stop-opacity="0.301961"/>
		</linearGradient>
		<linearGradient x1="22.471037" y1="28.300001" x2="33.471035" y2="37.500000" id="paint_linear_2859_75495_1" gradientUnits="userSpaceOnUse">
			<stop stop-color="#FFFFFF"/>
			<stop offset="1.000000" stop-color="#FFFFFF" stop-opacity="0.000000"/>
		</linearGradient>
	</defs>
	<g clip-path="url(#clip2513_71687)">
		<path id="矢量 316" d="M23.76 2.2C19.14 2.2 15.4 5.89 15.4 10.45C15.4 15 19.14 18.7 23.76 18.7C28.38 18.7 32.13 15 32.13 10.45C32.13 5.89 28.38 2.2 23.76 2.2ZM14.29 38.5L33 38.5C36.64 38.5 39.6 35.54 39.6 31.9L39.6 30.8C39.6 25.33 35.16 20.9 29.7 20.9L17.6 20.9C12.13 20.9 7.7 25.33 7.7 30.8L7.7 31.9C7.7 35.54 10.65 38.5 14.29 38.5Z" fill="url(#paint_linear_2859_75493_0)" fill-opacity="1.000000" fill-rule="evenodd"/>
		<path id="矢量 317" d="M21.11 20.9C25.66 20.9 29.36 17.2 29.36 12.65C29.36 8.09 25.66 4.4 21.11 4.4C16.55 4.4 12.86 8.09 12.86 12.65C12.86 17.2 16.55 20.9 21.11 20.9ZM12.09 40.7L30.79 40.7C34.44 40.7 37.4 37.74 37.4 34.09L37.4 33C37.4 27.53 32.96 23.1 27.5 23.1L15.4 23.1C9.93 23.1 5.5 27.53 5.5 33L5.5 34.09C5.5 37.74 8.45 40.7 12.09 40.7Z" fill="#FBAC7B" fill-opacity="0.750000" fill-rule="evenodd"/>
		<path id="矢量 317" d="M21.11 20.9C25.66 20.9 29.36 17.2 29.36 12.65C29.36 8.09 25.66 4.4 21.11 4.4C16.55 4.4 12.86 8.09 12.86 12.65C12.86 17.2 16.55 20.9 21.11 20.9ZM28.97 10.89C29.09 11.46 29.16 12.05 29.16 12.65C29.16 13.24 29.09 13.83 28.97 14.4C28.86 14.87 28.71 15.33 28.52 15.78C28.33 16.22 28.11 16.65 27.85 17.05C27.54 17.51 27.2 17.94 26.8 18.34C26.4 18.73 25.97 19.08 25.51 19.38C25.11 19.65 24.69 19.87 24.24 20.06C23.79 20.25 23.33 20.4 22.86 20.5C22.29 20.63 21.7 20.7 21.11 20.7C20.51 20.7 19.92 20.63 19.35 20.5C18.89 20.4 18.43 20.25 17.97 20.06C17.53 19.87 17.1 19.65 16.7 19.38C16.24 19.08 15.81 18.73 15.42 18.34C15.02 17.94 14.67 17.51 14.37 17.05C14.11 16.65 13.88 16.22 13.69 15.78C13.5 15.33 13.35 14.87 13.25 14.4C13.12 13.83 13.06 13.24 13.06 12.65C13.06 12.05 13.12 11.46 13.25 10.89C13.35 10.42 13.5 9.96 13.69 9.51C13.88 9.07 14.11 8.64 14.37 8.24C14.67 7.78 15.02 7.35 15.42 6.95C15.81 6.56 16.24 6.21 16.7 5.91C17.1 5.64 17.53 5.42 17.97 5.23C18.43 5.04 18.89 4.89 19.36 4.79C19.92 4.66 20.51 4.6 21.11 4.6C21.7 4.6 22.29 4.66 22.86 4.79C23.33 4.89 23.79 5.04 24.24 5.23C24.69 5.42 25.11 5.64 25.51 5.91C25.97 6.21 26.4 6.56 26.8 6.95C27.2 7.35 27.54 7.78 27.85 8.24C28.11 8.64 28.33 9.07 28.52 9.51C28.71 9.96 28.86 10.42 28.97 10.89ZM12.09 40.7L30.79 40.7C34.44 40.7 37.4 37.74 37.4 34.09L37.4 33C37.4 27.53 32.96 23.1 27.5 23.1L15.4 23.1C9.93 23.1 5.5 27.53 5.5 33L5.5 34.09C5.5 37.74 8.45 40.7 12.09 40.7ZM32.21 40.34C31.75 40.44 31.28 40.5 30.79 40.5L12.09 40.5C11.61 40.5 11.14 40.44 10.68 40.34C10.32 40.26 9.96 40.14 9.6 39.99C9.25 39.84 8.91 39.66 8.59 39.45C8.22 39.21 7.88 38.93 7.57 38.62C7.26 38.31 6.98 37.97 6.74 37.6C6.53 37.28 6.35 36.94 6.2 36.59C6.05 36.23 5.93 35.87 5.85 35.51C5.75 35.05 5.7 34.58 5.7 34.09L5.7 33C5.7 32.26 5.77 31.55 5.93 30.86C6.06 30.3 6.23 29.75 6.46 29.22C6.69 28.68 6.96 28.16 7.28 27.68C7.64 27.13 8.06 26.61 8.54 26.14C9.01 25.66 9.52 25.24 10.08 24.88C10.56 24.56 11.08 24.29 11.62 24.06C12.15 23.83 12.7 23.66 13.26 23.53C13.95 23.37 14.66 23.3 15.4 23.3L27.5 23.3C28.23 23.3 28.94 23.37 29.63 23.53C30.19 23.66 30.74 23.83 31.27 24.06C31.82 24.29 32.33 24.56 32.82 24.88C33.37 25.24 33.88 25.66 34.35 26.14C34.83 26.61 35.25 27.13 35.61 27.68C35.93 28.16 36.2 28.68 36.43 29.22C36.66 29.75 36.83 30.3 36.96 30.86C37.12 31.55 37.2 32.27 37.2 33L37.2 34.09C37.2 34.58 37.14 35.05 37.04 35.51C36.96 35.87 36.84 36.23 36.69 36.59C36.54 36.94 36.36 37.28 36.15 37.6C35.91 37.97 35.63 38.31 35.32 38.62C35.01 38.93 34.67 39.21 34.3 39.45C33.98 39.66 33.64 39.84 33.29 39.99C32.93 40.14 32.57 40.26 32.21 40.34Z" fill="url(#paint_linear_2859_75494_0)" fill-opacity="1.000000" fill-rule="evenodd"/>
		<path id="矢量 318" d="M26.39 30.8L26.39 28.6C26.39 27.99 26.89 27.5 27.5 27.5C28.1 27.5 28.59 27.99 28.59 28.6L28.59 30.8L30.79 30.8C31.4 30.8 31.89 31.29 31.89 31.9C31.89 32.5 31.4 33 30.79 33L28.59 33L28.59 35.2C28.59 35.8 28.1 36.3 27.5 36.3C26.89 36.3 26.39 35.8 26.39 35.2L26.39 33L24.19 33C23.59 33 23.09 32.5 23.09 31.9C23.09 31.29 23.59 30.8 24.19 30.8L26.39 30.8Z" fill="url(#paint_linear_2859_75495_0)" fill-opacity="1.000000" fill-rule="evenodd"/>
		<path id="矢量 318" d="M28.59 30.6L28.59 28.6C28.59 27.99 28.1 27.5 27.5 27.5C26.89 27.5 26.39 27.99 26.39 28.6L26.39 30.8L24.19 30.8C23.59 30.8 23.09 31.29 23.09 31.9C23.09 32.5 23.59 33 24.19 33L26.39 33L26.39 35.2C26.39 35.8 26.89 36.3 27.5 36.3C28.1 36.3 28.59 35.8 28.59 35.2L28.59 33L30.79 33C31.4 33 31.89 32.5 31.89 31.9C31.89 31.29 31.4 30.8 30.79 30.8L28.59 30.8L28.59 30.6ZM26.59 31L26.59 28.6C26.59 28.53 26.6 28.46 26.62 28.39C26.63 28.34 26.64 28.29 26.66 28.24C26.69 28.2 26.71 28.15 26.74 28.1C26.77 28.05 26.81 28 26.86 27.96C26.9 27.91 26.95 27.87 27 27.84C27.05 27.81 27.09 27.79 27.14 27.77C27.19 27.75 27.24 27.73 27.29 27.72C27.36 27.7 27.43 27.7 27.5 27.7C27.56 27.7 27.63 27.7 27.7 27.72C27.75 27.73 27.8 27.75 27.84 27.77C27.89 27.79 27.94 27.81 27.99 27.84C28.04 27.87 28.09 27.91 28.13 27.96C28.18 28 28.21 28.05 28.25 28.1C28.28 28.15 28.3 28.2 28.32 28.24C28.34 28.29 28.36 28.34 28.37 28.39C28.39 28.46 28.39 28.53 28.39 28.6L28.39 31L30.79 31C30.86 31 30.93 31 31 31.02C31.05 31.03 31.1 31.05 31.14 31.07C31.19 31.09 31.24 31.11 31.29 31.14C31.34 31.17 31.39 31.21 31.43 31.26C31.48 31.3 31.51 31.35 31.55 31.4C31.58 31.45 31.6 31.5 31.62 31.54C31.64 31.59 31.66 31.64 31.67 31.69C31.69 31.76 31.69 31.83 31.69 31.9C31.69 31.96 31.69 32.03 31.67 32.1C31.66 32.15 31.64 32.2 31.62 32.25C31.6 32.3 31.58 32.34 31.55 32.39C31.51 32.44 31.48 32.49 31.43 32.53C31.39 32.58 31.34 32.62 31.29 32.65C31.24 32.68 31.19 32.7 31.14 32.72C31.1 32.74 31.05 32.76 31 32.77C30.93 32.79 30.86 32.8 30.79 32.8L28.39 32.8L28.39 35.2C28.39 35.26 28.39 35.33 28.37 35.4C28.36 35.45 28.34 35.5 28.32 35.55C28.3 35.59 28.28 35.64 28.25 35.69C28.21 35.74 28.18 35.79 28.13 35.83C28.09 35.88 28.04 35.92 27.99 35.95C27.94 35.98 27.89 36 27.84 36.02C27.8 36.04 27.75 36.06 27.7 36.07C27.63 36.09 27.56 36.09 27.5 36.09C27.43 36.09 27.36 36.09 27.29 36.07C27.24 36.06 27.19 36.04 27.14 36.02C27.09 36 27.05 35.98 27 35.95C26.95 35.92 26.9 35.88 26.86 35.83C26.81 35.79 26.77 35.74 26.74 35.69C26.71 35.64 26.69 35.59 26.66 35.55C26.64 35.5 26.63 35.45 26.62 35.4C26.6 35.33 26.59 35.26 26.59 35.2L26.59 32.8L24.19 32.8C24.13 32.8 24.06 32.79 23.99 32.77C23.94 32.76 23.89 32.74 23.84 32.72C23.79 32.7 23.75 32.68 23.7 32.65C23.65 32.62 23.6 32.58 23.56 32.53C23.51 32.49 23.47 32.44 23.44 32.39C23.41 32.34 23.39 32.3 23.37 32.25C23.34 32.2 23.33 32.15 23.32 32.1C23.3 32.03 23.29 31.96 23.29 31.9C23.29 31.83 23.3 31.76 23.32 31.69C23.33 31.64 23.34 31.59 23.37 31.54C23.39 31.5 23.41 31.45 23.44 31.4C23.47 31.35 23.51 31.3 23.56 31.26C23.6 31.21 23.65 31.17 23.7 31.14C23.75 31.11 23.79 31.09 23.84 31.07C23.89 31.05 23.94 31.03 23.99 31.02C24.06 31 24.13 31 24.19 31L26.59 31Z" fill="url(#paint_linear_2859_75495_1)" fill-opacity="1.000000" fill-rule="evenodd"/>
	</g>
</svg>
