<svg width="44.000000" height="44.000000" viewBox="0 0 44 44" fill="none" xmlns="http://www.w3.org/2000/svg" xmlns:xlink="http://www.w3.org/1999/xlink">
	<desc>
			Created with Pixso.
	</desc>
	<defs>
		<clipPath id="clip2_39">
			<rect id="Icon/Alpha/File" width="44.000000" height="44.000000" fill="white" fill-opacity="0"/>
		</clipPath>
		<linearGradient x1="5.295589" y1="15.256659" x2="33.204460" y2="26.543333" id="paint_linear_2_404_0" gradientUnits="userSpaceOnUse">
			<stop stop-color="#80CCFE"/>
			<stop offset="1.000000" stop-color="#009AFE"/>
		</linearGradient>
		<linearGradient x1="7.857164" y1="11.653603" x2="43.607155" y2="44.469460" id="paint_linear_2_405_0" gradientUnits="userSpaceOnUse">
			<stop stop-color="#FFFFFF"/>
			<stop offset="1.000000" stop-color="#FFFFFF" stop-opacity="0.000000"/>
		</linearGradient>
		<linearGradient x1="13.200012" y1="30.800003" x2="35.200008" y2="30.800003" id="paint_linear_2_406_0" gradientUnits="userSpaceOnUse">
			<stop stop-color="#FFFFFF" stop-opacity="0.901961"/>
			<stop offset="1.000000" stop-color="#FFFFFF" stop-opacity="0.301961"/>
		</linearGradient>
		<linearGradient x1="11.628584" y1="17.900002" x2="39.128582" y2="34.000004" id="paint_linear_2_406_1" gradientUnits="userSpaceOnUse">
			<stop stop-color="#FFFFFF"/>
			<stop offset="1.000000" stop-color="#FFFFFF" stop-opacity="0.000000"/>
		</linearGradient>
	</defs>
	<rect id="Icon/Alpha/File" width="44.000000" height="44.000000" fill="#FFFFFF" fill-opacity="0"/>
	<g clip-path="url(#clip2_39)">
		<path id="矢量 119" d="M8.8 4.39C6.36 4.39 4.4 6.36 4.4 8.79L4.4 33C4.4 35.43 6.36 37.4 8.8 37.4L29.7 37.4C32.13 37.4 34.09 35.43 34.09 33L34.09 8.79C34.09 6.36 32.13 4.39 29.7 4.39L8.8 4.39Z" fill="url(#paint_linear_2_404_0)" fill-opacity="1.000000" fill-rule="evenodd"/>
		<path id="矢量 118" d="M14.3 8.8C11.86 8.8 9.9 10.77 9.9 13.2L9.9 35.78C9.9 38.21 11.86 40.18 14.3 40.18L34.09 40.18C36.53 40.18 38.5 38.21 38.5 35.78L38.5 13.2C38.5 10.77 36.53 8.8 34.09 8.8L14.3 8.8Z" fill="#AADEFF" fill-opacity="0.750000" fill-rule="evenodd"/>
		<path id="矢量 118" d="M9.9 13.2C9.9 10.77 11.86 8.8 14.3 8.8L34.09 8.8C36.53 8.8 38.5 10.77 38.5 13.2L38.5 35.78C38.5 38.21 36.53 40.18 34.09 40.18L14.3 40.18C11.86 40.18 9.9 38.21 9.9 35.78L9.9 13.2ZM10.1 35.78L10.1 13.2C10.1 12.88 10.13 12.57 10.2 12.27C10.25 12.03 10.33 11.79 10.43 11.56C10.52 11.33 10.64 11.1 10.78 10.89C10.94 10.65 11.12 10.43 11.33 10.23C11.53 10.02 11.75 9.84 11.99 9.68C12.2 9.54 12.43 9.42 12.66 9.33C12.89 9.23 13.13 9.15 13.37 9.1C13.67 9.03 13.98 9 14.3 9L34.09 9C34.41 9 34.72 9.03 35.02 9.1C35.26 9.15 35.5 9.23 35.73 9.33C35.96 9.42 36.19 9.54 36.4 9.68C36.64 9.84 36.86 10.02 37.06 10.23C37.27 10.43 37.45 10.65 37.61 10.89C37.75 11.1 37.87 11.33 37.97 11.56C38.06 11.79 38.14 12.03 38.19 12.27C38.26 12.57 38.3 12.88 38.3 13.2L38.3 35.78C38.3 36.1 38.26 36.41 38.19 36.71C38.14 36.95 38.06 37.19 37.97 37.42C37.87 37.65 37.75 37.88 37.61 38.09C37.45 38.33 37.27 38.55 37.06 38.75C36.86 38.96 36.64 39.14 36.4 39.3C36.19 39.44 35.96 39.55 35.73 39.65C35.5 39.75 35.26 39.83 35.02 39.88C34.72 39.95 34.41 39.98 34.09 39.98L14.3 39.98C13.98 39.98 13.67 39.95 13.37 39.88C13.13 39.83 12.89 39.75 12.66 39.65C12.43 39.55 12.2 39.44 11.99 39.3C11.75 39.14 11.53 38.96 11.33 38.75C11.12 38.55 10.94 38.33 10.78 38.09C10.64 37.88 10.52 37.65 10.43 37.42C10.33 37.19 10.25 36.95 10.2 36.71C10.13 36.41 10.1 36.1 10.1 35.78Z" fill="url(#paint_linear_2_405_0)" fill-opacity="1.000000" fill-rule="evenodd"/>
		<linearGradient x1="13.200012" y1="30.800003" x2="35.200008" y2="30.800003" id="paint_linear_2_4060_0" gradientUnits="userSpaceOnUse">
			<stop stop-color="#FFFFFF" stop-opacity="0.901961"/>
			<stop offset="1.000000" stop-color="#FFFFFF" stop-opacity="0.301961"/>
		</linearGradient>
		<path id="矢量 117" d="M13.2 17.6C13.2 18.2 13.69 18.7 14.3 18.7C14.9 18.7 15.4 18.2 15.4 17.6C15.4 16.99 14.9 16.5 14.3 16.5C13.69 16.5 13.2 16.99 13.2 17.6Z" fill="url(#paint_linear_2_4060_0)" fill-opacity="1.000000" fill-rule="nonzero"/>
		<linearGradient x1="13.200012" y1="30.800003" x2="35.200008" y2="30.800003" id="paint_linear_2_4061_1" gradientUnits="userSpaceOnUse">
			<stop stop-color="#FFFFFF" stop-opacity="0.901961"/>
			<stop offset="1.000000" stop-color="#FFFFFF" stop-opacity="0.301961"/>
		</linearGradient>
		<path id="矢量 117" d="M13.2 22C13.2 22.6 13.69 23.1 14.3 23.1C14.9 23.1 15.4 22.6 15.4 22C15.4 21.39 14.9 20.9 14.3 20.9C13.69 20.9 13.2 21.39 13.2 22Z" fill="url(#paint_linear_2_4061_1)" fill-opacity="1.000000" fill-rule="nonzero"/>
		<linearGradient x1="13.200012" y1="30.800003" x2="35.200008" y2="30.800003" id="paint_linear_2_4062_2" gradientUnits="userSpaceOnUse">
			<stop stop-color="#FFFFFF" stop-opacity="0.901961"/>
			<stop offset="1.000000" stop-color="#FFFFFF" stop-opacity="0.301961"/>
		</linearGradient>
		<path id="矢量 117" d="M13.2 26.4C13.2 27 13.69 27.5 14.3 27.5C14.9 27.5 15.4 27 15.4 26.4C15.4 25.79 14.9 25.3 14.3 25.3C13.69 25.3 13.2 25.79 13.2 26.4Z" fill="url(#paint_linear_2_4062_2)" fill-opacity="1.000000" fill-rule="nonzero"/>
		<linearGradient x1="13.200012" y1="30.800003" x2="35.200008" y2="30.800003" id="paint_linear_2_4063_3" gradientUnits="userSpaceOnUse">
			<stop stop-color="#FFFFFF" stop-opacity="0.901961"/>
			<stop offset="1.000000" stop-color="#FFFFFF" stop-opacity="0.301961"/>
		</linearGradient>
		<path id="矢量 117" d="M13.2 30.8C13.2 31.4 13.69 31.9 14.3 31.9C14.9 31.9 15.4 31.4 15.4 30.8C15.4 30.19 14.9 29.7 14.3 29.7C13.69 29.7 13.2 30.19 13.2 30.8Z" fill="url(#paint_linear_2_4063_3)" fill-opacity="1.000000" fill-rule="nonzero"/>
		<linearGradient x1="13.200011" y1="30.799995" x2="35.200008" y2="30.799995" id="paint_linear_2_4064_4" gradientUnits="userSpaceOnUse">
			<stop stop-color="#FFFFFF" stop-opacity="0.901961"/>
			<stop offset="1.000000" stop-color="#FFFFFF" stop-opacity="0.301961"/>
		</linearGradient>
		<path id="矢量 117" d="M17.6 17.6C17.6 18.2 18.09 18.7 18.7 18.7L34.09 18.7C34.7 18.7 35.2 18.2 35.2 17.6C35.2 16.99 34.7 16.5 34.09 16.5C27.33 16.5 25.46 16.5 18.7 16.5C18.09 16.5 17.6 16.99 17.6 17.6Z" fill="url(#paint_linear_2_4064_4)" fill-opacity="1.000000" fill-rule="nonzero"/>
		<linearGradient x1="13.200011" y1="30.799995" x2="35.200008" y2="30.799995" id="paint_linear_2_4065_5" gradientUnits="userSpaceOnUse">
			<stop stop-color="#FFFFFF" stop-opacity="0.901961"/>
			<stop offset="1.000000" stop-color="#FFFFFF" stop-opacity="0.301961"/>
		</linearGradient>
		<path id="矢量 117" d="M17.6 22C17.6 22.6 18.09 23.1 18.7 23.1L34.09 23.1C34.7 23.1 35.2 22.6 35.2 22C35.2 21.39 34.7 20.9 34.09 20.9C27.33 20.9 25.46 20.9 18.7 20.9C18.09 20.9 17.6 21.39 17.6 22Z" fill="url(#paint_linear_2_4065_5)" fill-opacity="1.000000" fill-rule="nonzero"/>
		<linearGradient x1="13.200011" y1="30.799995" x2="35.200008" y2="30.799995" id="paint_linear_2_4066_6" gradientUnits="userSpaceOnUse">
			<stop stop-color="#FFFFFF" stop-opacity="0.901961"/>
			<stop offset="1.000000" stop-color="#FFFFFF" stop-opacity="0.301961"/>
		</linearGradient>
		<path id="矢量 117" d="M17.6 26.4C17.6 27 18.09 27.5 18.7 27.5L34.09 27.5C34.7 27.5 35.2 27 35.2 26.4C35.2 25.79 34.7 25.3 34.09 25.3C27.33 25.3 25.46 25.3 18.7 25.3C18.09 25.3 17.6 25.79 17.6 26.4Z" fill="url(#paint_linear_2_4066_6)" fill-opacity="1.000000" fill-rule="nonzero"/>
		<linearGradient x1="13.200011" y1="30.799995" x2="35.200008" y2="30.799995" id="paint_linear_2_4067_7" gradientUnits="userSpaceOnUse">
			<stop stop-color="#FFFFFF" stop-opacity="0.901961"/>
			<stop offset="1.000000" stop-color="#FFFFFF" stop-opacity="0.301961"/>
		</linearGradient>
		<path id="矢量 117" d="M17.6 30.8C17.6 31.4 18.09 31.9 18.7 31.9L34.09 31.9C34.7 31.9 35.2 31.4 35.2 30.8C35.2 30.19 34.7 29.7 34.09 29.7C27.33 29.7 25.46 29.7 18.7 29.7C18.09 29.7 17.6 30.19 17.6 30.8Z" fill="url(#paint_linear_2_4067_7)" fill-opacity="1.000000" fill-rule="nonzero"/>
		<path id="矢量 117" d="M14.3 18.7C13.69 18.7 13.2 18.2 13.2 17.6C13.2 16.99 13.69 16.5 14.3 16.5C14.9 16.5 15.4 16.99 15.4 17.6C15.4 18.2 14.9 18.7 14.3 18.7ZM18.7 18.7C18.09 18.7 17.6 18.2 17.6 17.6C17.6 16.99 18.09 16.5 18.7 16.5L34.09 16.5C34.7 16.5 35.2 16.99 35.2 17.6C35.2 18.2 34.7 18.7 34.09 18.7L18.7 18.7ZM13.42 17.8C13.4 17.73 13.4 17.66 13.4 17.6C13.4 17.53 13.4 17.46 13.42 17.39C13.43 17.34 13.45 17.29 13.47 17.24C13.49 17.2 13.51 17.15 13.54 17.1C13.57 17.05 13.61 17 13.66 16.96C13.7 16.91 13.75 16.87 13.8 16.84C13.85 16.81 13.9 16.79 13.94 16.77C13.99 16.75 14.04 16.73 14.09 16.72C14.16 16.7 14.23 16.7 14.3 16.7C14.36 16.7 14.43 16.7 14.5 16.72C14.55 16.73 14.6 16.75 14.65 16.77C14.7 16.79 14.74 16.81 14.79 16.84C14.84 16.87 14.89 16.91 14.93 16.96C14.98 17 15.02 17.05 15.05 17.1C15.08 17.15 15.1 17.2 15.12 17.24C15.14 17.29 15.16 17.34 15.17 17.39C15.19 17.46 15.2 17.53 15.2 17.6C15.2 17.66 15.19 17.73 15.17 17.8C15.16 17.85 15.14 17.9 15.12 17.95C15.1 18 15.08 18.04 15.05 18.09C15.02 18.14 14.98 18.19 14.93 18.23C14.89 18.28 14.84 18.32 14.79 18.35C14.74 18.38 14.7 18.4 14.65 18.42C14.6 18.44 14.55 18.46 14.5 18.47C14.43 18.49 14.36 18.5 14.3 18.5C14.23 18.5 14.16 18.49 14.09 18.47C14.04 18.46 13.99 18.44 13.94 18.42C13.9 18.4 13.85 18.38 13.8 18.35C13.75 18.32 13.7 18.28 13.66 18.23C13.61 18.19 13.57 18.14 13.54 18.09C13.51 18.04 13.49 18 13.47 17.95C13.45 17.9 13.43 17.85 13.42 17.8ZM34.3 18.47C34.23 18.49 34.16 18.5 34.09 18.5L18.7 18.5C18.63 18.5 18.56 18.49 18.49 18.47C18.44 18.46 18.39 18.44 18.34 18.42C18.29 18.4 18.25 18.38 18.2 18.35C18.15 18.32 18.1 18.28 18.06 18.23C18.01 18.19 17.97 18.14 17.94 18.09C17.91 18.04 17.89 18 17.87 17.95C17.85 17.9 17.83 17.85 17.82 17.8C17.8 17.73 17.79 17.66 17.79 17.6C17.79 17.53 17.8 17.46 17.82 17.4C17.83 17.35 17.84 17.3 17.87 17.25C17.89 17.2 17.91 17.15 17.94 17.11C17.97 17.06 18.01 17.01 18.06 16.96C18.11 16.91 18.15 16.88 18.2 16.84C18.25 16.81 18.3 16.79 18.35 16.77C18.4 16.74 18.45 16.73 18.5 16.72C18.57 16.7 18.63 16.7 18.7 16.7L34.09 16.7C34.16 16.7 34.22 16.7 34.29 16.72C34.34 16.73 34.39 16.74 34.44 16.77C34.49 16.79 34.54 16.81 34.59 16.84C34.64 16.88 34.68 16.91 34.73 16.96C34.78 17.01 34.82 17.06 34.85 17.11C34.88 17.15 34.9 17.2 34.92 17.25C34.95 17.3 34.96 17.35 34.97 17.4C34.99 17.46 35 17.53 35 17.6C35 17.66 34.99 17.73 34.97 17.8C34.96 17.85 34.94 17.9 34.92 17.95C34.9 18 34.88 18.04 34.85 18.09C34.82 18.14 34.78 18.19 34.73 18.23C34.69 18.28 34.64 18.32 34.59 18.35C34.54 18.38 34.5 18.4 34.45 18.42C34.4 18.44 34.35 18.46 34.3 18.47ZM14.3 23.1C13.69 23.1 13.2 22.6 13.2 22C13.2 21.39 13.69 20.9 14.3 20.9C14.9 20.9 15.4 21.39 15.4 22C15.4 22.6 14.9 23.1 14.3 23.1ZM18.7 23.1C18.09 23.1 17.6 22.6 17.6 22C17.6 21.39 18.09 20.9 18.7 20.9L34.09 20.9C34.7 20.9 35.2 21.39 35.2 22C35.2 22.6 34.7 23.1 34.09 23.1L18.7 23.1ZM13.42 22.2C13.4 22.13 13.4 22.06 13.4 22C13.4 21.93 13.4 21.86 13.42 21.79C13.43 21.74 13.45 21.69 13.47 21.64C13.49 21.6 13.51 21.55 13.54 21.5C13.57 21.45 13.61 21.4 13.66 21.36C13.7 21.31 13.75 21.27 13.8 21.24C13.85 21.21 13.9 21.19 13.94 21.17C13.99 21.15 14.04 21.13 14.09 21.12C14.16 21.1 14.23 21.1 14.3 21.1C14.36 21.1 14.43 21.1 14.5 21.12C14.55 21.13 14.6 21.15 14.65 21.17C14.7 21.19 14.74 21.21 14.79 21.24C14.84 21.27 14.89 21.31 14.93 21.36C14.98 21.4 15.02 21.45 15.05 21.5C15.08 21.55 15.1 21.6 15.12 21.64C15.14 21.69 15.16 21.74 15.17 21.79C15.19 21.86 15.2 21.93 15.2 22C15.2 22.06 15.19 22.13 15.17 22.2C15.16 22.25 15.14 22.3 15.12 22.35C15.1 22.4 15.08 22.44 15.05 22.49C15.02 22.54 14.98 22.59 14.93 22.63C14.89 22.68 14.84 22.72 14.79 22.75C14.74 22.78 14.7 22.8 14.65 22.82C14.6 22.84 14.55 22.86 14.5 22.87C14.43 22.89 14.36 22.9 14.3 22.9C14.23 22.9 14.16 22.89 14.09 22.87C14.04 22.86 13.99 22.84 13.94 22.82C13.9 22.8 13.85 22.78 13.8 22.75C13.75 22.72 13.7 22.68 13.66 22.63C13.61 22.59 13.57 22.54 13.54 22.49C13.51 22.44 13.49 22.4 13.47 22.35C13.45 22.3 13.43 22.25 13.42 22.2ZM34.3 22.87C34.23 22.89 34.16 22.9 34.09 22.9L18.7 22.9C18.63 22.9 18.56 22.89 18.49 22.87C18.44 22.86 18.39 22.84 18.34 22.82C18.29 22.8 18.25 22.78 18.2 22.75C18.15 22.72 18.1 22.68 18.06 22.63C18.01 22.59 17.97 22.54 17.94 22.49C17.91 22.44 17.89 22.4 17.87 22.35C17.85 22.3 17.83 22.25 17.82 22.2C17.8 22.13 17.79 22.06 17.79 22C17.79 21.93 17.8 21.86 17.82 21.8C17.83 21.75 17.84 21.7 17.87 21.65C17.89 21.6 17.91 21.55 17.94 21.51C17.97 21.46 18.01 21.41 18.06 21.36C18.11 21.31 18.15 21.28 18.2 21.24C18.25 21.21 18.3 21.19 18.35 21.17C18.4 21.14 18.45 21.13 18.5 21.12C18.57 21.1 18.63 21.1 18.7 21.1L34.09 21.1C34.16 21.1 34.22 21.1 34.29 21.12C34.34 21.13 34.39 21.14 34.44 21.17C34.49 21.19 34.54 21.21 34.59 21.24C34.64 21.28 34.68 21.31 34.73 21.36C34.78 21.41 34.82 21.46 34.85 21.51C34.88 21.55 34.9 21.6 34.92 21.65C34.95 21.7 34.96 21.75 34.97 21.8C34.99 21.86 35 21.93 35 22C35 22.06 34.99 22.13 34.97 22.2C34.96 22.25 34.94 22.3 34.92 22.35C34.9 22.4 34.88 22.44 34.85 22.49C34.82 22.54 34.78 22.59 34.73 22.63C34.69 22.68 34.64 22.72 34.59 22.75C34.54 22.78 34.5 22.8 34.45 22.82C34.4 22.84 34.35 22.86 34.3 22.87ZM14.3 27.5C13.69 27.5 13.2 27 13.2 26.4C13.2 25.79 13.69 25.3 14.3 25.3C14.9 25.3 15.4 25.79 15.4 26.4C15.4 27 14.9 27.5 14.3 27.5ZM18.7 27.5C18.09 27.5 17.6 27 17.6 26.4C17.6 25.79 18.09 25.3 18.7 25.3L34.09 25.3C34.7 25.3 35.2 25.79 35.2 26.4C35.2 27 34.7 27.5 34.09 27.5L18.7 27.5ZM13.42 26.6C13.4 26.53 13.4 26.46 13.4 26.4C13.4 26.33 13.4 26.26 13.42 26.19C13.43 26.14 13.45 26.09 13.47 26.04C13.49 26 13.51 25.95 13.54 25.9C13.57 25.85 13.61 25.8 13.66 25.76C13.7 25.71 13.75 25.67 13.8 25.64C13.85 25.61 13.9 25.59 13.94 25.57C13.99 25.55 14.04 25.53 14.09 25.52C14.16 25.5 14.23 25.5 14.3 25.5C14.36 25.5 14.43 25.5 14.5 25.52C14.55 25.53 14.6 25.55 14.65 25.57C14.7 25.59 14.74 25.61 14.79 25.64C14.84 25.67 14.89 25.71 14.93 25.76C14.98 25.8 15.02 25.85 15.05 25.9C15.08 25.95 15.1 26 15.12 26.04C15.14 26.09 15.16 26.14 15.17 26.19C15.19 26.26 15.2 26.33 15.2 26.4C15.2 26.46 15.19 26.53 15.17 26.6C15.16 26.65 15.14 26.7 15.12 26.75C15.1 26.8 15.08 26.84 15.05 26.89C15.02 26.94 14.98 26.99 14.93 27.03C14.89 27.08 14.84 27.12 14.79 27.15C14.74 27.18 14.7 27.2 14.65 27.22C14.6 27.24 14.55 27.26 14.5 27.27C14.43 27.29 14.36 27.3 14.3 27.3C14.23 27.3 14.16 27.29 14.09 27.27C14.04 27.26 13.99 27.24 13.94 27.22C13.9 27.2 13.85 27.18 13.8 27.15C13.75 27.12 13.7 27.08 13.66 27.03C13.61 26.99 13.57 26.94 13.54 26.89C13.51 26.84 13.49 26.8 13.47 26.75C13.45 26.7 13.43 26.65 13.42 26.6ZM34.3 27.27C34.23 27.29 34.16 27.3 34.09 27.3L18.7 27.3C18.63 27.3 18.56 27.29 18.49 27.27C18.44 27.26 18.39 27.24 18.34 27.22C18.29 27.2 18.25 27.18 18.2 27.15C18.15 27.12 18.1 27.08 18.06 27.03C18.01 26.99 17.97 26.94 17.94 26.89C17.91 26.84 17.89 26.8 17.87 26.75C17.85 26.7 17.83 26.65 17.82 26.6C17.8 26.53 17.79 26.46 17.79 26.4C17.79 26.33 17.8 26.26 17.82 26.2C17.83 26.15 17.84 26.1 17.87 26.05C17.89 26 17.91 25.95 17.94 25.91C17.97 25.86 18.01 25.81 18.06 25.76C18.11 25.71 18.15 25.68 18.2 25.64C18.25 25.61 18.3 25.59 18.35 25.57C18.4 25.54 18.45 25.53 18.5 25.52C18.57 25.5 18.63 25.5 18.7 25.5L34.09 25.5C34.16 25.5 34.22 25.5 34.29 25.52C34.34 25.53 34.39 25.54 34.44 25.57C34.49 25.59 34.54 25.61 34.59 25.64C34.64 25.68 34.68 25.71 34.73 25.76C34.78 25.81 34.82 25.86 34.85 25.91C34.88 25.95 34.9 26 34.92 26.05C34.95 26.1 34.96 26.15 34.97 26.2C34.99 26.26 35 26.33 35 26.4C35 26.46 34.99 26.53 34.97 26.6C34.96 26.65 34.94 26.7 34.92 26.75C34.9 26.8 34.88 26.84 34.85 26.89C34.82 26.94 34.78 26.99 34.73 27.03C34.69 27.08 34.64 27.12 34.59 27.15C34.54 27.18 34.5 27.2 34.45 27.22C34.4 27.24 34.35 27.26 34.3 27.27ZM14.3 31.9C13.69 31.9 13.2 31.4 13.2 30.8C13.2 30.19 13.69 29.7 14.3 29.7C14.9 29.7 15.4 30.19 15.4 30.8C15.4 31.4 14.9 31.9 14.3 31.9ZM18.7 31.9C18.09 31.9 17.6 31.4 17.6 30.8C17.6 30.19 18.09 29.7 18.7 29.7L34.09 29.7C34.7 29.7 35.2 30.19 35.2 30.8C35.2 31.4 34.7 31.9 34.09 31.9L18.7 31.9ZM13.42 31C13.4 30.93 13.4 30.86 13.4 30.8C13.4 30.73 13.4 30.66 13.42 30.59C13.43 30.54 13.45 30.49 13.47 30.44C13.49 30.4 13.51 30.35 13.54 30.3C13.57 30.25 13.61 30.2 13.66 30.16C13.7 30.11 13.75 30.07 13.8 30.04C13.85 30.01 13.9 29.99 13.94 29.97C13.99 29.95 14.04 29.93 14.09 29.92C14.16 29.9 14.23 29.9 14.3 29.9C14.36 29.9 14.43 29.9 14.5 29.92C14.55 29.93 14.6 29.95 14.65 29.97C14.7 29.99 14.74 30.01 14.79 30.04C14.84 30.07 14.89 30.11 14.93 30.16C14.98 30.2 15.02 30.25 15.05 30.3C15.08 30.35 15.1 30.4 15.12 30.44C15.14 30.49 15.16 30.54 15.17 30.59C15.19 30.66 15.2 30.73 15.2 30.8C15.2 30.86 15.19 30.93 15.17 31C15.16 31.05 15.14 31.1 15.12 31.15C15.1 31.2 15.08 31.24 15.05 31.29C15.02 31.34 14.98 31.39 14.93 31.43C14.89 31.48 14.84 31.52 14.79 31.55C14.74 31.58 14.7 31.6 14.65 31.62C14.6 31.64 14.55 31.66 14.5 31.67C14.43 31.69 14.36 31.7 14.3 31.7C14.23 31.7 14.16 31.69 14.09 31.67C14.04 31.66 13.99 31.64 13.94 31.62C13.9 31.6 13.85 31.58 13.8 31.55C13.75 31.52 13.7 31.48 13.66 31.43C13.61 31.39 13.57 31.34 13.54 31.29C13.51 31.24 13.49 31.2 13.47 31.15C13.45 31.1 13.43 31.05 13.42 31ZM34.3 31.67C34.23 31.69 34.16 31.7 34.09 31.7L18.7 31.7C18.63 31.7 18.56 31.69 18.49 31.67C18.44 31.66 18.39 31.64 18.34 31.62C18.29 31.6 18.25 31.58 18.2 31.55C18.15 31.52 18.1 31.48 18.06 31.43C18.01 31.39 17.97 31.34 17.94 31.29C17.91 31.24 17.89 31.2 17.87 31.15C17.85 31.1 17.83 31.05 17.82 31C17.8 30.93 17.79 30.86 17.79 30.8C17.79 30.73 17.8 30.66 17.82 30.6C17.83 30.55 17.84 30.5 17.87 30.45C17.89 30.4 17.91 30.35 17.94 30.31C17.97 30.26 18.01 30.21 18.06 30.16C18.11 30.11 18.15 30.08 18.2 30.04C18.25 30.01 18.3 29.99 18.35 29.97C18.4 29.94 18.45 29.93 18.5 29.92C18.57 29.9 18.63 29.9 18.7 29.9L34.09 29.9C34.16 29.9 34.22 29.9 34.29 29.92C34.34 29.93 34.39 29.94 34.44 29.97C34.49 29.99 34.54 30.01 34.59 30.04C34.64 30.08 34.68 30.11 34.73 30.16C34.78 30.21 34.82 30.26 34.85 30.31C34.88 30.35 34.9 30.4 34.92 30.45C34.95 30.5 34.96 30.55 34.97 30.6C34.99 30.66 35 30.73 35 30.8C35 30.86 34.99 30.93 34.97 31C34.96 31.05 34.94 31.1 34.92 31.15C34.9 31.2 34.88 31.24 34.85 31.29C34.82 31.34 34.78 31.39 34.73 31.43C34.69 31.48 34.64 31.52 34.59 31.55C34.54 31.58 34.5 31.6 34.45 31.62C34.4 31.64 34.35 31.66 34.3 31.67Z" fill="url(#paint_linear_2_406_8)" fill-opacity="1.000000" fill-rule="evenodd"/>
	</g>
</svg>
