<svg width="44.000000" height="44.000000" viewBox="0 0 44 44" fill="none" xmlns="http://www.w3.org/2000/svg" xmlns:xlink="http://www.w3.org/1999/xlink">
	<desc>
			Created with Pixso.
	</desc>
	<defs>
		<clipPath id="clip2_42">
			<rect id="Icon/Alpha/user" width="44.000000" height="44.000000" fill="white" fill-opacity="0"/>
		</clipPath>
		<linearGradient x1="6.495075" y1="24.837784" x2="37.504929" y2="32.362228" id="paint_linear_2_401_0" gradientUnits="userSpaceOnUse">
			<stop stop-color="#917FFB"/>
			<stop offset="1.000000" stop-color="#3F2DAF"/>
		</linearGradient>
		<linearGradient x1="3.142857" y1="23.599998" x2="44.392849" y2="42.000000" id="paint_linear_2_402_0" gradientUnits="userSpaceOnUse">
			<stop stop-color="#FFFFFF"/>
			<stop offset="1.000000" stop-color="#FFFFFF" stop-opacity="0.000000"/>
		</linearGradient>
		<linearGradient x1="11.942869" y1="3.800011" x2="33.942863" y2="22.200012" id="paint_linear_2_403_0" gradientUnits="userSpaceOnUse">
			<stop stop-color="#FFFFFF"/>
			<stop offset="1.000000" stop-color="#FFFFFF" stop-opacity="0.000000"/>
		</linearGradient>
	</defs>
	<g clip-path="url(#clip2_42)">
		<path id="矢量 183" d="M5.5 30.8C5.5 35.66 9.26 39.59 13.9 39.59L30.1 39.59C34.73 39.59 38.5 35.66 38.5 30.8C38.5 23.5 32.85 17.6 25.89 17.6C23.2 17.6 20.79 17.6 18.1 17.6C11.14 17.6 5.5 23.5 5.5 30.8Z" fill="url(#paint_linear_2_401_0)" fill-opacity="1.000000" fill-rule="nonzero"/>
		<path id="矢量 182" d="M5.5 33C5.5 36.64 8.45 39.59 12.1 39.59L31.9 39.59C35.54 39.59 38.5 36.64 38.5 33L38.5 31.9C38.5 26.43 34.06 22 28.59 22C23.77 22 20.22 22 15.4 22C9.93 22 5.5 26.43 5.5 31.9L5.5 33Z" fill="#BFB5FF" fill-opacity="0.750000" fill-rule="nonzero"/>
		<path id="矢量 182" d="M12.1 39.59C8.45 39.59 5.5 36.64 5.5 33L5.5 31.9C5.5 26.43 9.93 22 15.4 22L28.59 22C34.06 22 38.5 26.43 38.5 31.9L38.5 33C38.5 36.64 35.54 39.59 31.9 39.59L12.1 39.59ZM33.31 39.24C32.85 39.34 32.38 39.4 31.9 39.4L12.1 39.4C11.61 39.4 11.14 39.34 10.68 39.24C10.32 39.16 9.96 39.04 9.6 38.89C9.25 38.74 8.91 38.56 8.59 38.35C8.22 38.11 7.88 37.83 7.57 37.52C7.26 37.21 6.98 36.87 6.74 36.5C6.53 36.18 6.35 35.84 6.2 35.49C6.05 35.13 5.93 34.77 5.85 34.41C5.75 33.95 5.7 33.48 5.7 33L5.7 31.9C5.7 31.17 5.77 30.46 5.93 29.76C6.05 29.2 6.23 28.66 6.46 28.12C6.69 27.58 6.96 27.07 7.28 26.58C7.64 26.03 8.06 25.51 8.54 25.04C9.01 24.56 9.53 24.14 10.08 23.78C10.56 23.46 11.08 23.19 11.62 22.96C12.16 22.73 12.71 22.55 13.27 22.43C13.96 22.27 14.67 22.2 15.4 22.2L22 22.2L28.59 22.2C29.32 22.2 30.03 22.27 30.72 22.43C31.28 22.55 31.83 22.73 32.37 22.96C32.91 23.19 33.43 23.46 33.91 23.78C34.46 24.14 34.98 24.56 35.45 25.04C35.93 25.51 36.35 26.03 36.71 26.58C37.03 27.07 37.3 27.58 37.53 28.12C37.76 28.66 37.94 29.2 38.06 29.76C38.22 30.46 38.3 31.17 38.3 31.9L38.3 33C38.3 33.48 38.24 33.95 38.14 34.41C38.06 34.77 37.94 35.13 37.79 35.49C37.64 35.84 37.46 36.18 37.25 36.5C37.01 36.87 36.73 37.21 36.42 37.52C36.11 37.83 35.77 38.11 35.4 38.35C35.08 38.56 34.74 38.74 34.39 38.89C34.03 39.04 33.67 39.16 33.31 39.24Z" fill="url(#paint_linear_2_402_0)" fill-opacity="1.000000" fill-rule="evenodd"/>
		<path id="矢量 181" d="M13.2 11C13.2 6.13 17.13 2.2 22 2.2C26.86 2.2 30.8 6.13 30.8 11C30.8 15.86 26.86 19.79 22 19.79C17.13 19.79 13.2 15.86 13.2 11Z" fill="#BFB5FF" fill-opacity="0.750000" fill-rule="evenodd"/>
		<path id="矢量 181" d="M22 2.2C17.13 2.2 13.2 6.13 13.2 11C13.2 15.86 17.13 19.79 22 19.79C26.86 19.79 30.8 15.86 30.8 11C30.8 6.13 26.86 2.2 22 2.2ZM20.1 2.6C20.72 2.46 21.35 2.4 22 2.4C22.64 2.4 23.27 2.46 23.89 2.6C24.38 2.71 24.87 2.87 25.34 3.07C25.82 3.27 26.28 3.52 26.71 3.8C27.2 4.12 27.65 4.49 28.08 4.91C28.5 5.34 28.87 5.79 29.19 6.28C29.47 6.71 29.72 7.17 29.92 7.65C30.12 8.12 30.28 8.61 30.39 9.1C30.53 9.72 30.6 10.35 30.6 11C30.6 11.64 30.53 12.27 30.39 12.89C30.28 13.38 30.12 13.87 29.92 14.34C29.72 14.82 29.47 15.28 29.19 15.71C28.87 16.2 28.5 16.65 28.08 17.08C27.65 17.5 27.2 17.87 26.71 18.19C26.28 18.47 25.82 18.72 25.34 18.92C24.87 19.12 24.38 19.28 23.89 19.39C23.27 19.53 22.64 19.6 22 19.6C21.35 19.6 20.72 19.53 20.1 19.39C19.61 19.28 19.12 19.12 18.65 18.92C18.17 18.72 17.71 18.47 17.28 18.19C16.79 17.87 16.34 17.5 15.91 17.08C15.49 16.65 15.12 16.2 14.8 15.71C14.52 15.28 14.27 14.82 14.07 14.34C13.87 13.87 13.71 13.38 13.6 12.89C13.46 12.27 13.4 11.64 13.4 11C13.4 10.35 13.46 9.72 13.6 9.1C13.71 8.61 13.87 8.12 14.07 7.65C14.27 7.17 14.52 6.71 14.8 6.28C15.12 5.79 15.49 5.34 15.91 4.91C16.34 4.49 16.79 4.12 17.28 3.8C17.71 3.52 18.17 3.27 18.65 3.07C19.12 2.87 19.61 2.71 20.1 2.6Z" fill="url(#paint_linear_2_403_0)" fill-opacity="1.000000" fill-rule="evenodd"/>
	</g>
</svg>
