<svg width="40" height="40" viewBox="0 0 40 40" fill="none" xmlns="http://www.w3.org/2000/svg">
<path d="M4 8C4 5.79086 5.79086 4 8 4H32C34.2091 4 36 5.79086 36 8V32C36 34.2091 34.2091 36 32 36H8C5.79086 36 4 34.2091 4 32V8Z" fill="url(#paint0_linear_2973_34295)"/>
<path d="M16.2658 27.8087C16.3509 27.5604 16.5843 27.3936 16.8468 27.3936H23.1533C23.4157 27.3936 23.6492 27.5604 23.7342 27.8087C23.9288 28.3768 23.2763 28.8577 22.7912 28.5036L22.5113 28.2992C22.1188 28.0127 21.5736 28.0675 21.2459 28.4263L20.9255 28.777C20.4285 29.3212 19.5715 29.3212 19.0745 28.777L18.7542 28.4263C18.4265 28.0675 17.8813 28.0127 17.4888 28.2992L17.2088 28.5036C16.7238 28.8577 16.0713 28.3768 16.2658 27.8087Z" fill="url(#paint1_linear_2973_34295)" stroke="url(#paint2_linear_2973_34295)" stroke-width="0.229629"/>
<mask id="path-3-inside-1_2973_34295" fill="white">
<path fill-rule="evenodd" clip-rule="evenodd" d="M25.1202 22.3195C24.9354 25.1541 24.0421 26.1134 19.8768 26.1134C15.717 26.1134 14.9882 25.1567 14.8605 22.3308L12.9321 23.4569C12.5772 23.6642 12.1495 23.3365 12.2573 22.9398L13.0491 20.027C13.0893 19.879 13.1778 19.7486 13.3005 19.6566L14.9562 18.4148C15.4709 14.3721 17.5355 10.0394 19.8768 10.0394C22.2161 10.0394 24.4633 14.3648 25.0301 18.4045L26.6995 19.6566C26.8223 19.7486 26.9107 19.879 26.951 20.027L27.7427 22.9398C27.8505 23.3365 27.4229 23.6642 27.0679 23.4569L25.1202 22.3195Z"/>
</mask>
<path fill-rule="evenodd" clip-rule="evenodd" d="M25.1202 22.3195C24.9354 25.1541 24.0421 26.1134 19.8768 26.1134C15.717 26.1134 14.9882 25.1567 14.8605 22.3308L12.9321 23.4569C12.5772 23.6642 12.1495 23.3365 12.2573 22.9398L13.0491 20.027C13.0893 19.879 13.1778 19.7486 13.3005 19.6566L14.9562 18.4148C15.4709 14.3721 17.5355 10.0394 19.8768 10.0394C22.2161 10.0394 24.4633 14.3648 25.0301 18.4045L26.6995 19.6566C26.8223 19.7486 26.9107 19.879 26.951 20.027L27.7427 22.9398C27.8505 23.3365 27.4229 23.6642 27.0679 23.4569L25.1202 22.3195Z" fill="#FFB7B5" fill-opacity="0.75"/>
<path d="M25.1202 22.3195L25.236 22.1212L24.9153 21.9339L24.8911 22.3046L25.1202 22.3195ZM14.8605 22.3308L15.0899 22.3204L15.0727 21.941L14.7447 22.1325L14.8605 22.3308ZM12.9321 23.4569L13.0479 23.6552H13.0479L12.9321 23.4569ZM12.2573 22.9398L12.4789 23.0001H12.4789L12.2573 22.9398ZM13.0491 20.027L13.2706 20.0873H13.2706L13.0491 20.027ZM13.3005 19.6566L13.1627 19.4729L13.3005 19.6566ZM14.9562 18.4148L15.094 18.5985L15.1717 18.5402L15.184 18.4438L14.9562 18.4148ZM25.0301 18.4045L24.8027 18.4364L24.816 18.531L24.8923 18.5882L25.0301 18.4045ZM26.6995 19.6566L26.8373 19.4729L26.6995 19.6566ZM26.951 20.027L26.7294 20.0873V20.0873L26.951 20.027ZM27.7427 22.9398L27.9643 22.8796H27.9643L27.7427 22.9398ZM27.0679 23.4569L27.1837 23.2586L27.0679 23.4569ZM24.8911 22.3046C24.7993 23.7124 24.5335 24.5689 23.8506 25.0979C23.1509 25.6398 21.9595 25.8838 19.8768 25.8838V26.3431C21.9593 26.3431 23.2972 26.1074 24.1318 25.461C24.9831 24.8017 25.2563 23.7613 25.3494 22.3345L24.8911 22.3046ZM19.8768 25.8838C17.7944 25.8838 16.651 25.6395 16.0027 25.1047C15.3687 24.5817 15.1537 23.7323 15.0899 22.3204L14.6311 22.3412C14.695 23.7551 14.9082 24.7971 15.7105 25.4589C16.4984 26.109 17.7993 26.3431 19.8768 26.3431V25.8838ZM13.0479 23.6552L14.9763 22.5291L14.7447 22.1325L12.8163 23.2586L13.0479 23.6552ZM12.0358 22.8796C11.874 23.4746 12.5155 23.9661 13.0479 23.6552L12.8163 23.2586C12.6388 23.3622 12.425 23.1984 12.4789 23.0001L12.0358 22.8796ZM12.8275 19.9668L12.0358 22.8796L12.4789 23.0001L13.2706 20.0873L12.8275 19.9668ZM13.1627 19.4729C12.9991 19.5956 12.8811 19.7694 12.8275 19.9668L13.2706 20.0873C13.2975 19.9886 13.3565 19.9017 13.4383 19.8403L13.1627 19.4729ZM14.8185 18.2311L13.1627 19.4729L13.4383 19.8403L15.094 18.5985L14.8185 18.2311ZM15.184 18.4438C15.4383 16.4467 16.0755 14.3813 16.9327 12.8217C17.3614 12.0417 17.84 11.3978 18.3447 10.9516C18.8494 10.5053 19.3655 10.269 19.8768 10.269V9.80977C19.2173 9.80977 18.5974 10.1151 18.0405 10.6075C17.4835 11.1 16.9747 11.7919 16.5303 12.6005C15.6412 14.2179 14.9888 16.3402 14.7284 18.3858L15.184 18.4438ZM19.8768 10.269C20.3885 10.269 20.9166 10.5058 21.44 10.9529C21.9628 11.3996 22.4654 12.0437 22.9197 12.8227C23.8283 14.3807 24.523 16.443 24.8027 18.4364L25.2575 18.3726C24.9704 16.3263 24.2581 14.206 23.3165 12.5914C22.8457 11.7841 22.3125 11.0943 21.7383 10.6038C21.1647 10.1137 20.5346 9.80977 19.8768 9.80977V10.269ZM24.8923 18.5882L26.5618 19.8403L26.8373 19.4729L25.1679 18.2208L24.8923 18.5882ZM26.5618 19.8403C26.6436 19.9017 26.7026 19.9886 26.7294 20.0873L27.1726 19.9668C27.1189 19.7694 27.0009 19.5956 26.8373 19.4729L26.5618 19.8403ZM26.7294 20.0873L27.5211 23.0001L27.9643 22.8796L27.1726 19.9668L26.7294 20.0873ZM27.5211 23.0001C27.575 23.1984 27.3612 23.3622 27.1837 23.2586L26.9521 23.6552C27.4845 23.9661 28.126 23.4746 27.9643 22.8796L27.5211 23.0001ZM27.1837 23.2586L25.236 22.1212L25.0044 22.5178L26.9521 23.6552L27.1837 23.2586Z" fill="url(#paint3_linear_2973_34295)" mask="url(#path-3-inside-1_2973_34295)"/>
<circle cx="20" cy="15.7801" r="2.18147" fill="url(#paint4_linear_2973_34295)" stroke="url(#paint5_linear_2973_34295)" stroke-width="0.229629"/>
<defs>
<linearGradient id="paint0_linear_2973_34295" x1="4.96492" y1="14.5277" x2="35.0351" y2="25.4723" gradientUnits="userSpaceOnUse">
<stop stop-color="#FF8383"/>
<stop offset="1" stop-color="#F52828"/>
</linearGradient>
<linearGradient id="paint1_linear_2973_34295" x1="20" y1="29.088" x2="19.9835" y2="27.2789" gradientUnits="userSpaceOnUse">
<stop stop-color="white" stop-opacity="0.9"/>
<stop offset="1" stop-color="white" stop-opacity="0.3"/>
</linearGradient>
<linearGradient id="paint2_linear_2973_34295" x1="14.7514" y1="27.5226" x2="18.7347" y2="34.5665" gradientUnits="userSpaceOnUse">
<stop stop-color="white"/>
<stop offset="1" stop-color="white" stop-opacity="0"/>
</linearGradient>
<linearGradient id="paint3_linear_2973_34295" x1="11.1319" y1="11.5007" x2="33.3794" y2="22.5912" gradientUnits="userSpaceOnUse">
<stop stop-color="white"/>
<stop offset="1" stop-color="white" stop-opacity="0"/>
</linearGradient>
<linearGradient id="paint4_linear_2973_34295" x1="20.7162" y1="17.7783" x2="20.2486" y2="13.7968" gradientUnits="userSpaceOnUse">
<stop stop-color="white" stop-opacity="0.9"/>
<stop offset="1" stop-color="white" stop-opacity="0.3"/>
</linearGradient>
<linearGradient id="paint5_linear_2973_34295" x1="17.3757" y1="13.9013" x2="23.8654" y2="17.2521" gradientUnits="userSpaceOnUse">
<stop stop-color="white"/>
<stop offset="1" stop-color="white" stop-opacity="0"/>
</linearGradient>
</defs>
</svg>
