<svg width="40" height="41" viewBox="0 0 40 41" fill="none" xmlns="http://www.w3.org/2000/svg">
<path d="M2 30.1641C2 32.3732 3.79086 34.1641 6 34.1641H34C36.2091 34.1641 38 32.3732 38 30.1641V10.1641C38 7.95492 36.2091 6.16406 34 6.16406H6C3.79086 6.16406 2 7.95492 2 10.1641V30.1641Z" fill="url(#paint0_linear_2433_31479)"/>
<path d="M5.1 12.1641C5.1 10.5624 6.39837 9.26406 8 9.26406C9.60163 9.26406 10.9 10.5624 10.9 12.1641V27.1641C10.9 28.7657 9.60163 30.0641 8 30.0641C6.39837 30.0641 5.1 28.7657 5.1 27.1641V12.1641Z" fill="#AADEFF" fill-opacity="0.75" stroke="url(#paint1_linear_2433_31479)" stroke-width="0.2"/>
<path d="M5.1 27.1641C5.1 25.5624 6.39837 24.2641 8 24.2641H32C33.6016 24.2641 34.9 25.5624 34.9 27.1641C34.9 28.7657 33.6016 30.0641 32 30.0641H8C6.39838 30.0641 5.1 28.7657 5.1 27.1641Z" fill="#AADEFF" fill-opacity="0.75" stroke="url(#paint2_linear_2433_31479)" stroke-width="0.2"/>
<rect x="9.93333" y="11.2307" width="0.866667" height="2.86667" rx="0.433333" transform="rotate(90 9.93333 11.2307)" fill="url(#paint3_linear_2433_31479)" fill-opacity="0.9" stroke="url(#paint4_linear_2433_31479)" stroke-width="0.133333"/>
<rect x="9.93333" y="13.2307" width="0.866667" height="1.86667" rx="0.433333" transform="rotate(90 9.93333 13.2307)" fill="url(#paint5_linear_2433_31479)" fill-opacity="0.9" stroke="url(#paint6_linear_2433_31479)" stroke-width="0.133333"/>
<rect x="9.93333" y="15.2307" width="0.866667" height="2.86667" rx="0.433333" transform="rotate(90 9.93333 15.2307)" fill="url(#paint7_linear_2433_31479)" fill-opacity="0.9" stroke="url(#paint8_linear_2433_31479)" stroke-width="0.133333"/>
<rect x="9.93333" y="17.2307" width="0.866667" height="1.86667" rx="0.433333" transform="rotate(90 9.93333 17.2307)" fill="url(#paint9_linear_2433_31479)" fill-opacity="0.9" stroke="url(#paint10_linear_2433_31479)" stroke-width="0.133333"/>
<rect x="9.93333" y="19.2307" width="0.866667" height="2.86667" rx="0.433333" transform="rotate(90 9.93333 19.2307)" fill="url(#paint11_linear_2433_31479)" fill-opacity="0.9" stroke="url(#paint12_linear_2433_31479)" stroke-width="0.133333"/>
<rect x="9.93333" y="21.2307" width="0.866667" height="1.86667" rx="0.433333" transform="rotate(90 9.93333 21.2307)" fill="url(#paint13_linear_2433_31479)" fill-opacity="0.9" stroke="url(#paint14_linear_2433_31479)" stroke-width="0.133333"/>
<rect x="13.9333" y="25.2307" width="1.86667" height="0.866667" rx="0.433333" transform="rotate(90 13.9333 25.2307)" fill="url(#paint15_linear_2433_31479)" fill-opacity="0.9" stroke="url(#paint16_linear_2433_31479)" stroke-width="0.133333"/>
<rect x="15.9333" y="25.2307" width="2.86667" height="0.866667" rx="0.433333" transform="rotate(90 15.9333 25.2307)" fill="url(#paint17_linear_2433_31479)" fill-opacity="0.9" stroke="url(#paint18_linear_2433_31479)" stroke-width="0.133333"/>
<rect x="17.9333" y="25.2307" width="1.86667" height="0.866667" rx="0.433333" transform="rotate(90 17.9333 25.2307)" fill="url(#paint19_linear_2433_31479)" fill-opacity="0.9" stroke="url(#paint20_linear_2433_31479)" stroke-width="0.133333"/>
<rect x="19.9333" y="25.2307" width="2.86667" height="0.866667" rx="0.433333" transform="rotate(90 19.9333 25.2307)" fill="url(#paint21_linear_2433_31479)" fill-opacity="0.9" stroke="url(#paint22_linear_2433_31479)" stroke-width="0.133333"/>
<rect x="21.9333" y="25.2307" width="1.86667" height="0.866667" rx="0.433333" transform="rotate(90 21.9333 25.2307)" fill="url(#paint23_linear_2433_31479)" fill-opacity="0.9" stroke="url(#paint24_linear_2433_31479)" stroke-width="0.133333"/>
<rect x="23.9333" y="25.2307" width="2.86667" height="0.866667" rx="0.433333" transform="rotate(90 23.9333 25.2307)" fill="url(#paint25_linear_2433_31479)" fill-opacity="0.9" stroke="url(#paint26_linear_2433_31479)" stroke-width="0.133333"/>
<rect x="25.9333" y="25.2307" width="1.86667" height="0.866667" rx="0.433333" transform="rotate(90 25.9333 25.2307)" fill="url(#paint27_linear_2433_31479)" fill-opacity="0.9" stroke="url(#paint28_linear_2433_31479)" stroke-width="0.133333"/>
<rect x="27.9333" y="25.2307" width="2.86667" height="0.866667" rx="0.433333" transform="rotate(90 27.9333 25.2307)" fill="url(#paint29_linear_2433_31479)" fill-opacity="0.9" stroke="url(#paint30_linear_2433_31479)" stroke-width="0.133333"/>
<rect x="29.9333" y="25.2307" width="1.86667" height="0.866667" rx="0.433333" transform="rotate(90 29.9333 25.2307)" fill="url(#paint31_linear_2433_31479)" fill-opacity="0.9" stroke="url(#paint32_linear_2433_31479)" stroke-width="0.133333"/>
<rect x="31.9333" y="25.2307" width="2.86667" height="0.866667" rx="0.433333" transform="rotate(90 31.9333 25.2307)" fill="url(#paint33_linear_2433_31479)" fill-opacity="0.9" stroke="url(#paint34_linear_2433_31479)" stroke-width="0.133333"/>
<path d="M31.636 11.1127C32.0132 11.464 32.0343 12.0546 31.6831 12.4318L25.4747 19.1001C24.3827 20.273 22.5516 20.3525 21.3621 19.2786L19.2943 17.4118C18.853 17.0135 18.1712 17.0527 17.7786 17.4991L14.0131 21.7805C13.6726 22.1675 13.0829 22.2053 12.6958 21.8649C12.3088 21.5245 12.271 20.9347 12.6114 20.5477L16.3769 16.2664C17.4566 15.0387 19.3316 14.9307 20.5452 16.0263L22.613 17.8931C23.0455 18.2836 23.7114 18.2547 24.1085 17.8282L30.3169 11.1599C30.6681 10.7826 31.2587 10.7615 31.636 11.1127Z" fill="url(#paint35_linear_2433_31479)" fill-opacity="0.9" stroke="url(#paint36_linear_2433_31479)" stroke-width="0.133333"/>
<defs>
<linearGradient id="paint0_linear_2433_31479" x1="4.25" y1="14.9141" x2="20.9451" y2="38.9904" gradientUnits="userSpaceOnUse">
<stop stop-color="#80CCFE"/>
<stop offset="1" stop-color="#009AFE"/>
</linearGradient>
<linearGradient id="paint1_linear_2433_31479" x1="4.57143" y1="11.0732" x2="15.0815" y2="12.6236" gradientUnits="userSpaceOnUse">
<stop stop-color="white"/>
<stop offset="1" stop-color="white" stop-opacity="0"/>
</linearGradient>
<linearGradient id="paint2_linear_2433_31479" x1="2.85714" y1="24.7095" x2="9.86237" y2="42.7944" gradientUnits="userSpaceOnUse">
<stop stop-color="white"/>
<stop offset="1" stop-color="white" stop-opacity="0"/>
</linearGradient>
<linearGradient id="paint3_linear_2433_31479" x1="11.7497" y1="10.81" x2="11.4156" y2="13.769" gradientUnits="userSpaceOnUse">
<stop stop-color="white" stop-opacity="0"/>
<stop offset="0.979167" stop-color="white"/>
</linearGradient>
<linearGradient id="paint4_linear_2433_31479" x1="10.5" y1="11.1641" x2="10.5" y2="14.1641" gradientUnits="userSpaceOnUse">
<stop stop-color="white" stop-opacity="0"/>
<stop offset="1" stop-color="white"/>
</linearGradient>
<linearGradient id="paint5_linear_2433_31479" x1="11.7497" y1="12.928" x2="11.6001" y2="14.9145" gradientUnits="userSpaceOnUse">
<stop stop-color="white" stop-opacity="0"/>
<stop offset="0.979167" stop-color="white"/>
</linearGradient>
<linearGradient id="paint6_linear_2433_31479" x1="10.5" y1="13.1641" x2="10.5" y2="15.1641" gradientUnits="userSpaceOnUse">
<stop stop-color="white" stop-opacity="0"/>
<stop offset="1" stop-color="white"/>
</linearGradient>
<linearGradient id="paint7_linear_2433_31479" x1="11.7497" y1="14.81" x2="11.4156" y2="17.769" gradientUnits="userSpaceOnUse">
<stop stop-color="white" stop-opacity="0"/>
<stop offset="0.979167" stop-color="white"/>
</linearGradient>
<linearGradient id="paint8_linear_2433_31479" x1="10.5" y1="15.1641" x2="10.5" y2="18.1641" gradientUnits="userSpaceOnUse">
<stop stop-color="white" stop-opacity="0"/>
<stop offset="1" stop-color="white"/>
</linearGradient>
<linearGradient id="paint9_linear_2433_31479" x1="11.7497" y1="16.928" x2="11.6001" y2="18.9145" gradientUnits="userSpaceOnUse">
<stop stop-color="white" stop-opacity="0"/>
<stop offset="0.979167" stop-color="white"/>
</linearGradient>
<linearGradient id="paint10_linear_2433_31479" x1="10.5" y1="17.1641" x2="10.5" y2="19.1641" gradientUnits="userSpaceOnUse">
<stop stop-color="white" stop-opacity="0"/>
<stop offset="1" stop-color="white"/>
</linearGradient>
<linearGradient id="paint11_linear_2433_31479" x1="11.7497" y1="18.81" x2="11.4156" y2="21.769" gradientUnits="userSpaceOnUse">
<stop stop-color="white" stop-opacity="0"/>
<stop offset="0.979167" stop-color="white"/>
</linearGradient>
<linearGradient id="paint12_linear_2433_31479" x1="10.5" y1="19.1641" x2="10.5" y2="22.1641" gradientUnits="userSpaceOnUse">
<stop stop-color="white" stop-opacity="0"/>
<stop offset="1" stop-color="white"/>
</linearGradient>
<linearGradient id="paint13_linear_2433_31479" x1="11.7497" y1="20.928" x2="11.6001" y2="22.9145" gradientUnits="userSpaceOnUse">
<stop stop-color="white" stop-opacity="0"/>
<stop offset="0.979167" stop-color="white"/>
</linearGradient>
<linearGradient id="paint14_linear_2433_31479" x1="10.5" y1="21.1641" x2="10.5" y2="23.1641" gradientUnits="userSpaceOnUse">
<stop stop-color="white" stop-opacity="0"/>
<stop offset="1" stop-color="white"/>
</linearGradient>
<linearGradient id="paint15_linear_2433_31479" x1="17.4993" y1="25.046" x2="17.4805" y2="26.0446" gradientUnits="userSpaceOnUse">
<stop stop-color="white" stop-opacity="0"/>
<stop offset="0.979167" stop-color="white"/>
</linearGradient>
<linearGradient id="paint16_linear_2433_31479" x1="15" y1="25.1641" x2="15" y2="26.1641" gradientUnits="userSpaceOnUse">
<stop stop-color="white" stop-opacity="0"/>
<stop offset="1" stop-color="white"/>
</linearGradient>
<linearGradient id="paint17_linear_2433_31479" x1="21.249" y1="25.046" x2="21.2365" y2="26.0448" gradientUnits="userSpaceOnUse">
<stop stop-color="white" stop-opacity="0"/>
<stop offset="0.979167" stop-color="white"/>
</linearGradient>
<linearGradient id="paint18_linear_2433_31479" x1="17.5" y1="25.1641" x2="17.5" y2="26.1641" gradientUnits="userSpaceOnUse">
<stop stop-color="white" stop-opacity="0"/>
<stop offset="1" stop-color="white"/>
</linearGradient>
<linearGradient id="paint19_linear_2433_31479" x1="21.4993" y1="25.046" x2="21.4805" y2="26.0446" gradientUnits="userSpaceOnUse">
<stop stop-color="white" stop-opacity="0"/>
<stop offset="0.979167" stop-color="white"/>
</linearGradient>
<linearGradient id="paint20_linear_2433_31479" x1="19" y1="25.1641" x2="19" y2="26.1641" gradientUnits="userSpaceOnUse">
<stop stop-color="white" stop-opacity="0"/>
<stop offset="1" stop-color="white"/>
</linearGradient>
<linearGradient id="paint21_linear_2433_31479" x1="25.249" y1="25.046" x2="25.2365" y2="26.0448" gradientUnits="userSpaceOnUse">
<stop stop-color="white" stop-opacity="0"/>
<stop offset="0.979167" stop-color="white"/>
</linearGradient>
<linearGradient id="paint22_linear_2433_31479" x1="21.5" y1="25.1641" x2="21.5" y2="26.1641" gradientUnits="userSpaceOnUse">
<stop stop-color="white" stop-opacity="0"/>
<stop offset="1" stop-color="white"/>
</linearGradient>
<linearGradient id="paint23_linear_2433_31479" x1="25.4993" y1="25.046" x2="25.4805" y2="26.0446" gradientUnits="userSpaceOnUse">
<stop stop-color="white" stop-opacity="0"/>
<stop offset="0.979167" stop-color="white"/>
</linearGradient>
<linearGradient id="paint24_linear_2433_31479" x1="23" y1="25.1641" x2="23" y2="26.1641" gradientUnits="userSpaceOnUse">
<stop stop-color="white" stop-opacity="0"/>
<stop offset="1" stop-color="white"/>
</linearGradient>
<linearGradient id="paint25_linear_2433_31479" x1="29.249" y1="25.046" x2="29.2365" y2="26.0448" gradientUnits="userSpaceOnUse">
<stop stop-color="white" stop-opacity="0"/>
<stop offset="0.979167" stop-color="white"/>
</linearGradient>
<linearGradient id="paint26_linear_2433_31479" x1="25.5" y1="25.1641" x2="25.5" y2="26.1641" gradientUnits="userSpaceOnUse">
<stop stop-color="white" stop-opacity="0"/>
<stop offset="1" stop-color="white"/>
</linearGradient>
<linearGradient id="paint27_linear_2433_31479" x1="29.4993" y1="25.046" x2="29.4805" y2="26.0446" gradientUnits="userSpaceOnUse">
<stop stop-color="white" stop-opacity="0"/>
<stop offset="0.979167" stop-color="white"/>
</linearGradient>
<linearGradient id="paint28_linear_2433_31479" x1="27" y1="25.1641" x2="27" y2="26.1641" gradientUnits="userSpaceOnUse">
<stop stop-color="white" stop-opacity="0"/>
<stop offset="1" stop-color="white"/>
</linearGradient>
<linearGradient id="paint29_linear_2433_31479" x1="33.249" y1="25.046" x2="33.2365" y2="26.0448" gradientUnits="userSpaceOnUse">
<stop stop-color="white" stop-opacity="0"/>
<stop offset="0.979167" stop-color="white"/>
</linearGradient>
<linearGradient id="paint30_linear_2433_31479" x1="29.5" y1="25.1641" x2="29.5" y2="26.1641" gradientUnits="userSpaceOnUse">
<stop stop-color="white" stop-opacity="0"/>
<stop offset="1" stop-color="white"/>
</linearGradient>
<linearGradient id="paint31_linear_2433_31479" x1="33.4993" y1="25.046" x2="33.4805" y2="26.0446" gradientUnits="userSpaceOnUse">
<stop stop-color="white" stop-opacity="0"/>
<stop offset="0.979167" stop-color="white"/>
</linearGradient>
<linearGradient id="paint32_linear_2433_31479" x1="31" y1="25.1641" x2="31" y2="26.1641" gradientUnits="userSpaceOnUse">
<stop stop-color="white" stop-opacity="0"/>
<stop offset="1" stop-color="white"/>
</linearGradient>
<linearGradient id="paint33_linear_2433_31479" x1="37.249" y1="25.046" x2="37.2365" y2="26.0448" gradientUnits="userSpaceOnUse">
<stop stop-color="white" stop-opacity="0"/>
<stop offset="0.979167" stop-color="white"/>
</linearGradient>
<linearGradient id="paint34_linear_2433_31479" x1="33.5" y1="25.1641" x2="33.5" y2="26.1641" gradientUnits="userSpaceOnUse">
<stop stop-color="white" stop-opacity="0"/>
<stop offset="1" stop-color="white"/>
</linearGradient>
<linearGradient id="paint35_linear_2433_31479" x1="46.7593" y1="9.45404" x2="46.5126" y2="20.8044" gradientUnits="userSpaceOnUse">
<stop stop-color="white" stop-opacity="0"/>
<stop offset="0.979167" stop-color="white"/>
</linearGradient>
<linearGradient id="paint36_linear_2433_31479" x1="22.1561" y1="10.7958" x2="22.1561" y2="22.1641" gradientUnits="userSpaceOnUse">
<stop stop-color="white" stop-opacity="0"/>
<stop offset="1" stop-color="white"/>
</linearGradient>
</defs>
</svg>
