<svg width="40.000000" height="40.000000" viewBox="0 0 40 40" fill="none" xmlns="http://www.w3.org/2000/svg" xmlns:xlink="http://www.w3.org/1999/xlink">
	<desc>
			Created with Pixso.
	</desc>
	<defs>
		<clipPath id="clip5633_93417">
			<rect id="Icon/Alpha/规范" rx="0.000000" width="39.900005" height="39.900005" transform="translate(0.050000 0.050000)" fill="white" fill-opacity="0"/>
		</clipPath>
		<clipPath id="clip5633_93458">
			<rect id="Icon/Alpha/Score" width="40.000004" height="40.000004" fill="white" fill-opacity="0"/>
		</clipPath>
		<linearGradient x1="6.723691" y1="14.869694" x2="29.276318" y2="25.130302" id="paint_linear_5633_93456_0" gradientUnits="userSpaceOnUse">
			<stop stop-color="#FA904F"/>
			<stop offset="1.000000" stop-color="#FF6100"/>
		</linearGradient>
		<linearGradient x1="7.419067" y1="19.200760" x2="28.000122" y2="19.200760" id="paint_linear_5633_93452_0" gradientUnits="userSpaceOnUse">
			<stop stop-color="#FFFFFF" stop-opacity="0.901961"/>
			<stop offset="1.000000" stop-color="#FFFFFF" stop-opacity="0.301961"/>
		</linearGradient>
		<linearGradient x1="5.948990" y1="10.036507" x2="31.675308" y2="33.456280" id="paint_linear_5633_93452_1" gradientUnits="userSpaceOnUse">
			<stop stop-color="#FFFFFF"/>
			<stop offset="1.000000" stop-color="#FFFFFF" stop-opacity="0.000000"/>
		</linearGradient>
		<linearGradient x1="18.785713" y1="18.441845" x2="40.035713" y2="36.214577" id="paint_linear_5633_93426_0" gradientUnits="userSpaceOnUse">
			<stop stop-color="#FFFFFF"/>
			<stop offset="1.000000" stop-color="#FFFFFF" stop-opacity="0.000000"/>
		</linearGradient>
		<linearGradient x1="29.912161" y1="29.261591" x2="29.853670" y2="20.925968" id="paint_linear_5633_93453_0" gradientUnits="userSpaceOnUse">
			<stop stop-color="#FFFFFF" stop-opacity="0.901961"/>
			<stop offset="1.000000" stop-color="#FFFFFF" stop-opacity="0.301961"/>
		</linearGradient>
		<linearGradient x1="23.094212" y1="21.784184" x2="34.600410" y2="30.769646" id="paint_linear_5633_93453_1" gradientUnits="userSpaceOnUse">
			<stop stop-color="#FFFFFF"/>
			<stop offset="1.000000" stop-color="#FFFFFF" stop-opacity="0.000000"/>
		</linearGradient>
	</defs>
	<rect id="Icon/Alpha/Score" width="40.000004" height="40.000004" fill="#FFFFFF" fill-opacity="0"/>
	<g clip-path="url(#clip5633_93458)">
		<g opacity="0.100000">
			<g clip-path="url(#clip5633_93417)">
				<rect id="Rectangle 2007" x="2.050049" y="6.049988" width="35.900002" height="27.900000" stroke="#FF00E5" stroke-opacity="1.000000" stroke-width="0.100000"/>
				<rect id="Rectangle 2008" x="4.050049" y="4.049988" width="31.900000" height="31.900000" stroke="#FF00E5" stroke-opacity="1.000000" stroke-width="0.100000"/>
				<rect id="Rectangle 2009" x="6.050049" y="2.049988" width="27.900000" height="35.900002" stroke="#FF00E5" stroke-opacity="1.000000" stroke-width="0.100000"/>
				<circle id="Ellipse 84" cx="20.000000" cy="20.000000" r="17.950001" stroke="#FF00E5" stroke-opacity="1.000000" stroke-width="0.100000"/>
			</g>
			<rect id="Icon/Alpha/规范" rx="0.000000" width="39.900005" height="39.900005" transform="translate(0.050000 0.050000)" stroke="#FF00E5" stroke-opacity="1.000000" stroke-width="0.100000"/>
		</g>
		<path id="矢量 354" d="M10 5L26 5C28.2 5 30 6.79 30 9L30 31C30 33.2 28.2 35 26 35L10 35C7.79 35 6 33.2 6 31L6 9C6 6.79 7.79 5 10 5Z" fill="url(#paint_linear_5633_93456_0)" fill-opacity="1.000000" fill-rule="nonzero"/>
		<path id="矢量 350" d="M25 9.5L25 11L26.5 11C27.32 11 28 11.67 28 12.5C28 13.32 27.32 14 26.5 14L25 14L25 15.5C25 16.32 24.32 17 23.5 17C22.67 17 22 16.32 22 15.5L22 14L20.5 14C19.67 14 19 13.32 19 12.5C19 11.67 19.67 11 20.5 11L22 11L22 9.5C22 8.67 22.67 8 23.5 8C24.32 8 25 8.67 25 9.5ZM22.32 28.38L16.51 12.4C16.26 11.73 15.58 11.34 14.89 11.43C14.22 11.36 13.56 11.74 13.32 12.41L7.5 28.38C7.22 29.16 7.62 30.02 8.4 30.31C9.18 30.59 10.04 30.19 10.32 29.41L12.29 24L17.53 24L19.5 29.4C19.79 30.18 20.65 30.58 21.42 30.3C22.2 30.02 22.6 29.16 22.32 28.38ZM16.44 21L13.39 21L14.91 16.8L16.44 21Z" fill="url(#paint_linear_5633_93452_0)" fill-opacity="1.000000" fill-rule="evenodd"/>
		<path id="矢量 350" d="M25.2 14L26.5 14C27.32 14 28 13.32 28 12.5C28 11.67 27.32 11 26.5 11L25 11L25 9.5C25 8.67 24.32 8 23.5 8C22.67 8 22 8.67 22 9.5L22 11L20.5 11C19.67 11 19 11.67 19 12.5C19 13.32 19.67 14 20.5 14L22 14L22 15.5C22 16.32 22.67 17 23.5 17C24.32 17 25 16.32 25 15.5L25 14L25.2 14ZM24.8 9.5L24.8 11.2L26.5 11.2C26.59 11.2 26.69 11.21 26.78 11.23C26.86 11.24 26.93 11.27 27 11.3C27.07 11.33 27.14 11.36 27.21 11.41C27.28 11.46 27.35 11.51 27.41 11.58C27.48 11.64 27.54 11.71 27.58 11.78C27.63 11.85 27.66 11.92 27.69 11.99C27.72 12.06 27.75 12.13 27.76 12.2C27.78 12.3 27.8 12.4 27.8 12.5C27.8 12.59 27.78 12.69 27.76 12.79C27.75 12.86 27.72 12.93 27.69 13C27.66 13.07 27.63 13.14 27.58 13.21C27.54 13.28 27.48 13.35 27.41 13.41C27.35 13.48 27.28 13.54 27.21 13.58C27.14 13.63 27.07 13.66 27 13.69C26.93 13.72 26.86 13.75 26.78 13.76C26.69 13.78 26.59 13.8 26.5 13.8L24.8 13.8L24.8 15.5C24.8 15.59 24.78 15.69 24.76 15.79C24.75 15.86 24.72 15.93 24.69 16C24.66 16.07 24.63 16.14 24.58 16.21C24.54 16.28 24.48 16.35 24.41 16.41C24.35 16.48 24.28 16.54 24.21 16.58C24.14 16.63 24.07 16.66 24 16.69C23.93 16.72 23.86 16.75 23.78 16.76C23.69 16.78 23.59 16.79 23.5 16.79C23.4 16.79 23.3 16.78 23.2 16.76C23.13 16.75 23.06 16.72 22.99 16.69C22.92 16.66 22.85 16.63 22.78 16.58C22.71 16.54 22.64 16.48 22.58 16.41C22.51 16.35 22.46 16.28 22.41 16.21C22.36 16.14 22.33 16.07 22.3 16C22.27 15.93 22.24 15.86 22.23 15.79C22.21 15.69 22.2 15.59 22.2 15.5L22.2 13.8L20.5 13.8C20.4 13.8 20.3 13.78 20.2 13.76C20.13 13.75 20.06 13.72 19.99 13.69C19.92 13.66 19.85 13.63 19.78 13.58C19.71 13.54 19.64 13.48 19.58 13.41C19.51 13.35 19.46 13.28 19.41 13.21C19.36 13.14 19.33 13.07 19.3 13C19.27 12.93 19.24 12.86 19.23 12.79C19.21 12.69 19.2 12.59 19.2 12.5C19.2 12.4 19.21 12.3 19.23 12.2C19.24 12.13 19.27 12.06 19.3 11.99C19.33 11.92 19.36 11.85 19.41 11.78C19.46 11.71 19.51 11.64 19.58 11.58C19.64 11.51 19.71 11.46 19.78 11.41C19.85 11.36 19.92 11.33 19.99 11.3C20.06 11.27 20.13 11.24 20.2 11.23C20.3 11.21 20.4 11.2 20.5 11.2L22.2 11.2L22.2 9.5C22.2 9.4 22.21 9.3 22.23 9.2C22.24 9.13 22.27 9.06 22.3 8.99C22.33 8.92 22.36 8.85 22.41 8.78C22.46 8.71 22.51 8.64 22.58 8.58C22.64 8.51 22.71 8.46 22.78 8.41C22.85 8.36 22.92 8.33 22.99 8.3C23.06 8.27 23.13 8.24 23.2 8.23C23.3 8.21 23.4 8.2 23.5 8.2C23.59 8.2 23.69 8.21 23.78 8.23C23.86 8.24 23.93 8.27 24 8.3C24.07 8.33 24.14 8.36 24.21 8.41C24.28 8.45 24.35 8.51 24.41 8.58C24.48 8.64 24.54 8.71 24.58 8.78C24.63 8.85 24.66 8.92 24.69 8.99C24.72 9.06 24.75 9.13 24.76 9.2C24.78 9.3 24.8 9.4 24.8 9.5ZM17.53 24L19.5 29.4C19.79 30.18 20.65 30.58 21.42 30.3C22.2 30.02 22.6 29.16 22.32 28.38L16.51 12.4C16.26 11.73 15.58 11.34 14.89 11.43C14.22 11.36 13.56 11.74 13.32 12.41L7.5 28.38C7.22 29.16 7.62 30.02 8.4 30.31C9.18 30.59 10.04 30.19 10.32 29.41L12.29 24L17.53 24ZM16.1 12.08C16.19 12.2 16.27 12.33 16.32 12.47L22.13 28.45C22.17 28.54 22.19 28.63 22.2 28.73C22.21 28.81 22.21 28.88 22.21 28.96C22.21 29.04 22.2 29.11 22.18 29.19C22.16 29.27 22.13 29.36 22.09 29.44C22.05 29.52 22.01 29.6 21.95 29.67C21.91 29.73 21.85 29.79 21.8 29.84C21.74 29.9 21.68 29.94 21.62 29.98C21.54 30.04 21.45 30.08 21.36 30.11C21.26 30.15 21.17 30.17 21.07 30.18C21 30.19 20.92 30.19 20.85 30.19C20.77 30.19 20.69 30.18 20.62 30.16C20.53 30.14 20.44 30.11 20.36 30.07C20.28 30.03 20.2 29.99 20.13 29.93C20.07 29.89 20.01 29.83 19.96 29.78C19.91 29.72 19.86 29.66 19.82 29.6C19.77 29.52 19.72 29.43 19.69 29.34L17.67 23.8L12.15 23.8L10.14 29.34C10.1 29.43 10.06 29.52 10.01 29.6C9.97 29.67 9.92 29.73 9.87 29.78C9.81 29.84 9.76 29.89 9.69 29.94C9.62 29.99 9.55 30.04 9.46 30.07C9.38 30.11 9.3 30.14 9.21 30.16C9.14 30.18 9.06 30.19 8.98 30.19C8.9 30.2 8.83 30.2 8.75 30.19C8.66 30.17 8.56 30.15 8.47 30.12C8.38 30.08 8.29 30.04 8.21 29.99C8.14 29.95 8.09 29.9 8.03 29.85C7.97 29.8 7.92 29.74 7.87 29.68C7.82 29.6 7.77 29.53 7.74 29.45C7.7 29.36 7.67 29.28 7.65 29.19C7.63 29.12 7.62 29.04 7.62 28.96C7.61 28.89 7.61 28.81 7.62 28.74C7.64 28.64 7.66 28.54 7.69 28.45L13.51 12.48C13.56 12.33 13.63 12.2 13.72 12.09C13.81 11.98 13.92 11.89 14.05 11.81C14.18 11.73 14.32 11.68 14.46 11.65C14.59 11.62 14.73 11.61 14.87 11.63L14.9 11.63L14.92 11.63C15.07 11.61 15.21 11.61 15.34 11.64C15.49 11.67 15.63 11.72 15.76 11.8C15.89 11.88 16.01 11.97 16.1 12.08ZM14.91 16.21L13.2 20.93L13.1 21.2L16.73 21.2L14.91 16.21ZM13.6 21L13.39 21L13.46 20.8L14.81 17.09L14.91 16.8L15.02 17.09L16.37 20.8L16.44 21L13.6 21Z" fill="url(#paint_linear_5633_93452_1)" fill-opacity="1.000000" fill-rule="evenodd"/>
		<rect id="Frame 122" width="17.000000" height="17.000000" transform="translate(20.000000 17.000000)" fill="#FFFFFF" fill-opacity="0"/>
		<circle id="Ellipse 89" cx="28.500000" cy="25.396393" r="8.500000" fill="#FFB7B5" fill-opacity="0.750000"/>
		<circle id="Ellipse 89" cx="28.500000" cy="25.396393" r="8.400000" stroke="url(#paint_linear_5633_93426_0)" stroke-opacity="1.000000" stroke-width="0.200000"/>
		<rect id="Frame 121" width="12.000000" height="12.000000" transform="translate(22.500000 19.396393)" fill="#FFFFFF" fill-opacity="0"/>
		<path id="矢量 351" d="M32.19 22.98L31.16 21.69C31.02 21.52 31.04 21.26 31.2 21.11C31.39 20.94 31.67 20.97 31.83 21.16L32.86 22.45C33 22.62 32.98 22.88 32.81 23.03C32.63 23.2 32.34 23.18 32.19 22.98ZM30.91 22.12C30.7 21.93 30.43 21.86 30.18 21.9C29.82 21.97 29.56 22.28 29.25 22.49C28.93 22.71 28.59 22.89 28.22 23.03L27.11 23.44C26.25 23.75 25.47 24.27 25.05 25.08C24.93 25.32 24.85 25.57 24.76 25.82L23.92 28.22C23.83 28.46 23.76 28.78 23.75 29.05L27.02 26.26C27.13 26.17 27.29 26.18 27.38 26.29C27.47 26.39 27.46 26.56 27.35 26.65L23.92 29.57C23.98 29.6 24.06 29.6 24.15 29.57L28.04 28.76C28.99 28.47 29.57 27.57 30.05 26.69L30.35 26.13C30.72 25.46 31.16 24.83 31.66 24.25C31.98 23.89 31.96 23.33 31.62 23L30.91 22.12Z" fill="url(#paint_linear_5633_93453_0)" fill-opacity="1.000000" fill-rule="evenodd"/>
		<path id="矢量 351" d="M32.19 22.98L31.16 21.69C31.02 21.52 31.04 21.26 31.2 21.11C31.39 20.94 31.67 20.97 31.83 21.16L32.86 22.45C33 22.62 32.98 22.88 32.81 23.03C32.63 23.2 32.34 23.18 32.19 22.98ZM32.34 22.86L31.31 21.57L31.31 21.57C31.29 21.55 31.28 21.52 31.27 21.49C31.26 21.47 31.26 21.44 31.26 21.41C31.27 21.38 31.27 21.35 31.29 21.33C31.3 21.3 31.32 21.28 31.34 21.26C31.36 21.23 31.39 21.22 31.42 21.21C31.45 21.2 31.48 21.2 31.51 21.2C31.54 21.2 31.57 21.21 31.6 21.22C31.63 21.24 31.65 21.26 31.67 21.28L32.7 22.57C32.72 22.6 32.73 22.62 32.74 22.65C32.75 22.67 32.75 22.7 32.75 22.73C32.75 22.76 32.74 22.79 32.73 22.81C32.72 22.84 32.7 22.86 32.68 22.88C32.65 22.91 32.63 22.92 32.6 22.93C32.57 22.94 32.54 22.95 32.51 22.94C32.47 22.94 32.44 22.93 32.42 22.92C32.39 22.9 32.36 22.88 32.34 22.86ZM31.62 23L30.91 22.12C30.7 21.93 30.43 21.86 30.18 21.9C29.82 21.97 29.56 22.28 29.25 22.49C28.93 22.71 28.59 22.89 28.22 23.03L27.11 23.44C26.25 23.75 25.47 24.27 25.05 25.08C24.93 25.32 24.85 25.57 24.76 25.82L23.92 28.22C23.86 28.38 23.81 28.57 23.78 28.76C23.76 28.86 23.75 28.96 23.75 29.05L23.96 28.87L27.02 26.26C27.13 26.17 27.29 26.18 27.38 26.29C27.47 26.39 27.46 26.56 27.35 26.65L24.16 29.37L23.92 29.57C23.98 29.6 24.06 29.6 24.15 29.57L24.26 29.55L28.04 28.76C28.99 28.47 29.57 27.57 30.05 26.69L30.35 26.13C30.72 25.46 31.16 24.83 31.66 24.25C31.98 23.89 31.96 23.33 31.62 23ZM27.99 28.57C28.38 28.44 28.74 28.19 29.07 27.81C29.32 27.53 29.58 27.12 29.88 26.59L30.18 26.04C30.36 25.7 30.57 25.36 30.79 25.05C31.01 24.72 31.25 24.41 31.51 24.12C31.57 24.05 31.61 23.98 31.64 23.9C31.68 23.82 31.69 23.72 31.69 23.62C31.68 23.51 31.66 23.42 31.62 23.33C31.58 23.26 31.54 23.2 31.48 23.14L31.47 23.13L30.76 22.26C30.71 22.22 30.66 22.18 30.61 22.15C30.57 22.14 30.54 22.12 30.51 22.11C30.46 22.1 30.41 22.09 30.36 22.09C30.32 22.09 30.27 22.09 30.22 22.1C30.13 22.12 30.03 22.16 29.93 22.22C29.87 22.26 29.77 22.34 29.64 22.45C29.52 22.54 29.43 22.61 29.37 22.65C29.2 22.77 29.03 22.88 28.85 22.97C28.67 23.06 28.48 23.14 28.29 23.21L27.18 23.63C26.74 23.79 26.36 23.99 26.04 24.23C25.68 24.5 25.41 24.82 25.23 25.17C25.17 25.29 25.1 25.47 25.01 25.72C24.98 25.79 24.97 25.85 24.95 25.89L24.1 28.28C24.07 28.37 24.05 28.46 24.02 28.55L26.89 26.11C26.94 26.07 26.99 26.04 27.05 26.02C27.1 26 27.16 25.99 27.22 26C27.28 26 27.34 26.02 27.39 26.05C27.45 26.07 27.49 26.11 27.53 26.16C27.57 26.21 27.6 26.26 27.62 26.31C27.64 26.37 27.64 26.43 27.64 26.49C27.63 26.55 27.62 26.61 27.59 26.66C27.57 26.71 27.53 26.76 27.48 26.8L24.57 29.28L27.99 28.57Z" fill="url(#paint_linear_5633_93453_1)" fill-opacity="1.000000" fill-rule="evenodd"/>
	</g>
</svg>
