<svg width="40.000000" height="40.000000" viewBox="0 0 40 40" fill="none" xmlns="http://www.w3.org/2000/svg" xmlns:xlink="http://www.w3.org/1999/xlink">
	<desc>
			Created with Pixso.
	</desc>
	<defs>
		<clipPath id="clip5633_93431">
			<rect rx="0.000000" width="39.900005" height="39.900005" transform="translate(0.050000 0.050000)" fill="white" fill-opacity="0"/>
		</clipPath>
		<clipPath id="clip5633_93459">
			<rect width="40.000004" height="40.000004" fill="white" fill-opacity="0"/>
		</clipPath>
		<linearGradient x1="6.723691" y1="14.869694" x2="29.276318" y2="25.130302" id="paint_linear_5633_93457_0" gradientUnits="userSpaceOnUse">
			<stop stop-color="#FA904F"/>
			<stop offset="1.000000" stop-color="#FF6100"/>
		</linearGradient>
		<linearGradient x1="7.999756" y1="19.200775" x2="28.580811" y2="19.200775" id="paint_linear_5633_93455_0" gradientUnits="userSpaceOnUse">
			<stop stop-color="#FFFFFF" stop-opacity="0.901961"/>
			<stop offset="1.000000" stop-color="#FFFFFF" stop-opacity="0.301961"/>
		</linearGradient>
		<linearGradient x1="6.529678" y1="10.036507" x2="32.255997" y2="33.456314" id="paint_linear_5633_93455_1" gradientUnits="userSpaceOnUse">
			<stop stop-color="#FFFFFF"/>
			<stop offset="1.000000" stop-color="#FFFFFF" stop-opacity="0.000000"/>
		</linearGradient>
		<linearGradient x1="19.785713" y1="18.545452" x2="41.035713" y2="36.318184" id="paint_linear_5633_93440_0" gradientUnits="userSpaceOnUse">
			<stop stop-color="#FFFFFF"/>
			<stop offset="1.000000" stop-color="#FFFFFF" stop-opacity="0.000000"/>
		</linearGradient>
		<linearGradient x1="24.093872" y1="25.163679" x2="34.964478" y2="25.163679" id="paint_linear_5633_93454_0" gradientUnits="userSpaceOnUse">
			<stop stop-color="#FFFFFF" stop-opacity="0.901961"/>
			<stop offset="1.000000" stop-color="#FFFFFF" stop-opacity="0.301961"/>
		</linearGradient>
		<linearGradient x1="24.352695" y1="20.999897" x2="35.676243" y2="32.499771" id="paint_linear_5633_93454_1" gradientUnits="userSpaceOnUse">
			<stop stop-color="#FFFFFF"/>
			<stop offset="1.000000" stop-color="#FFFFFF" stop-opacity="0.000000"/>
		</linearGradient>
	</defs>
	<rect width="40.000004" height="40.000004" fill="#FFFFFF" fill-opacity="0"/>
	<g clip-path="url(#clip5633_93459)">
		<g opacity="0.100000">
			<g clip-path="url(#clip5633_93431)">
				<rect x="2.050049" y="6.049988" width="35.900002" height="27.900000" stroke="#FF00E5" stroke-opacity="1.000000" stroke-width="0.100000"/>
				<rect x="4.050049" y="4.049988" width="31.900000" height="31.900000" stroke="#FF00E5" stroke-opacity="1.000000" stroke-width="0.100000"/>
				<rect x="6.050049" y="2.049988" width="27.900000" height="35.900002" stroke="#FF00E5" stroke-opacity="1.000000" stroke-width="0.100000"/>
				<circle cx="20.000000" cy="20.000000" r="17.950001" stroke="#FF00E5" stroke-opacity="1.000000" stroke-width="0.100000"/>
			</g>
			<rect rx="0.000000" width="39.900005" height="39.900005" transform="translate(0.050000 0.050000)" stroke="#FF00E5" stroke-opacity="1.000000" stroke-width="0.100000"/>
		</g>
		<path d="M10 5L26 5C28.2 5 30 6.79 30 9L30 31C30 33.2 28.2 35 26 35L10 35C7.79 35 6 33.2 6 31L6 9C6 6.79 7.79 5 10 5Z" fill="url(#paint_linear_5633_93457_0)" fill-opacity="1.000000" fill-rule="nonzero"/>
		<path d="M25.58 9.5L25.58 11L27.08 11C27.9 11 28.58 11.67 28.58 12.5C28.58 13.32 27.9 14 27.08 14L25.58 14L25.58 15.5C25.58 16.32 24.9 17 24.08 17C23.25 17 22.58 16.32 22.58 15.5L22.58 14L21.08 14C20.25 14 19.58 13.32 19.58 12.5C19.58 11.67 20.25 11 21.08 11L22.58 11L22.58 9.5C22.58 8.67 23.25 8 24.08 8C24.9 8 25.58 8.67 25.58 9.5ZM22.9 28.38L17.09 12.4C16.84 11.73 16.16 11.34 15.47 11.43C14.8 11.36 14.14 11.74 13.9 12.41L8.09 28.38C7.8 29.16 8.2 30.02 8.98 30.31C9.76 30.59 10.62 30.19 10.9 29.41L12.88 24L18.11 24L20.08 29.4C20.37 30.18 21.23 30.58 22 30.3C22.78 30.02 23.18 29.16 22.9 28.38ZM17.02 21L13.97 21L15.49 16.8L17.02 21Z" fill="url(#paint_linear_5633_93455_0)" fill-opacity="1.000000" fill-rule="evenodd"/>
		<path d="M25.78 14L27.08 14C27.9 14 28.58 13.32 28.58 12.5C28.58 11.67 27.9 11 27.08 11L25.58 11L25.58 9.5C25.58 8.67 24.9 8 24.08 8C23.25 8 22.58 8.67 22.58 9.5L22.58 11L21.08 11C20.25 11 19.58 11.67 19.58 12.5C19.58 13.32 20.25 14 21.08 14L22.58 14L22.58 15.5C22.58 16.32 23.25 17 24.08 17C24.9 17 25.58 16.32 25.58 15.5L25.58 14L25.78 14ZM25.38 9.5L25.38 11.2L27.08 11.2C27.17 11.2 27.27 11.21 27.37 11.23C27.44 11.24 27.51 11.27 27.58 11.3C27.65 11.33 27.72 11.36 27.79 11.41C27.86 11.46 27.93 11.51 28 11.58C28.06 11.64 28.12 11.71 28.16 11.78C28.21 11.85 28.24 11.92 28.27 11.99C28.3 12.06 28.33 12.13 28.34 12.2C28.37 12.3 28.38 12.4 28.38 12.5C28.38 12.59 28.37 12.69 28.34 12.79C28.33 12.86 28.3 12.93 28.27 13C28.24 13.07 28.21 13.14 28.16 13.21C28.12 13.28 28.06 13.35 28 13.41C27.93 13.48 27.86 13.54 27.79 13.58C27.72 13.63 27.65 13.66 27.58 13.69C27.51 13.72 27.44 13.75 27.37 13.76C27.27 13.78 27.17 13.8 27.08 13.8L25.38 13.8L25.38 15.5C25.38 15.59 25.37 15.69 25.34 15.79C25.33 15.86 25.3 15.93 25.27 16C25.24 16.07 25.21 16.14 25.16 16.21C25.12 16.28 25.06 16.35 25 16.41C24.93 16.48 24.86 16.54 24.79 16.58C24.72 16.63 24.65 16.66 24.58 16.69C24.51 16.72 24.44 16.75 24.37 16.76C24.27 16.78 24.17 16.79 24.08 16.79C23.98 16.79 23.88 16.78 23.79 16.76C23.71 16.75 23.64 16.72 23.57 16.69C23.5 16.66 23.43 16.63 23.36 16.58C23.29 16.54 23.22 16.48 23.16 16.41C23.09 16.35 23.04 16.28 22.99 16.21C22.94 16.14 22.91 16.07 22.88 16C22.85 15.93 22.82 15.86 22.81 15.79C22.79 15.69 22.78 15.59 22.78 15.5L22.78 13.8L21.08 13.8C20.98 13.8 20.88 13.78 20.79 13.76C20.71 13.75 20.64 13.72 20.57 13.69C20.5 13.66 20.43 13.63 20.36 13.58C20.29 13.54 20.22 13.48 20.16 13.41C20.09 13.35 20.04 13.28 19.99 13.21C19.94 13.14 19.91 13.07 19.88 13C19.85 12.93 19.82 12.86 19.81 12.79C19.79 12.69 19.78 12.59 19.78 12.5C19.78 12.4 19.79 12.3 19.81 12.2C19.82 12.13 19.85 12.06 19.88 11.99C19.91 11.92 19.94 11.85 19.99 11.78C20.04 11.71 20.09 11.64 20.16 11.58C20.22 11.51 20.29 11.46 20.36 11.41C20.43 11.36 20.5 11.33 20.57 11.3C20.64 11.27 20.71 11.24 20.79 11.23C20.88 11.21 20.98 11.2 21.08 11.2L22.78 11.2L22.78 9.5C22.78 9.4 22.79 9.3 22.81 9.2C22.82 9.13 22.85 9.06 22.88 8.99C22.91 8.92 22.94 8.85 22.99 8.78C23.04 8.71 23.09 8.64 23.16 8.58C23.22 8.51 23.29 8.46 23.36 8.41C23.43 8.36 23.5 8.33 23.57 8.3C23.64 8.27 23.71 8.24 23.79 8.23C23.88 8.21 23.98 8.2 24.08 8.2C24.17 8.2 24.27 8.21 24.37 8.23C24.44 8.24 24.51 8.27 24.58 8.3C24.65 8.33 24.72 8.36 24.79 8.41C24.86 8.45 24.93 8.51 25 8.58C25.06 8.64 25.12 8.71 25.16 8.78C25.21 8.85 25.24 8.92 25.27 8.99C25.3 9.06 25.33 9.13 25.34 9.2C25.37 9.3 25.38 9.4 25.38 9.5ZM18.11 24L20.08 29.4C20.37 30.18 21.23 30.58 22 30.3C22.78 30.02 23.18 29.16 22.9 28.38L17.09 12.4C16.84 11.73 16.16 11.34 15.47 11.43C14.8 11.36 14.14 11.74 13.9 12.41L8.09 28.38C7.8 29.16 8.2 30.02 8.98 30.31C9.76 30.59 10.62 30.19 10.9 29.41L12.88 24L18.11 24ZM16.68 12.08C16.77 12.2 16.85 12.33 16.9 12.47L16.9 12.47L22.71 28.45C22.75 28.54 22.77 28.63 22.78 28.73C22.79 28.81 22.79 28.88 22.79 28.96C22.79 29.04 22.78 29.11 22.76 29.19C22.74 29.27 22.71 29.36 22.67 29.44C22.63 29.52 22.59 29.6 22.53 29.67C22.49 29.73 22.43 29.79 22.38 29.84C22.32 29.9 22.26 29.94 22.2 29.98C22.12 30.04 22.03 30.08 21.94 30.11C21.84 30.15 21.75 30.17 21.65 30.18C21.58 30.19 21.5 30.19 21.43 30.19C21.35 30.19 21.27 30.18 21.2 30.16C21.11 30.14 21.02 30.11 20.94 30.07C20.86 30.03 20.78 29.99 20.71 29.93C20.65 29.89 20.59 29.83 20.54 29.78C20.49 29.72 20.44 29.66 20.4 29.6C20.35 29.52 20.3 29.43 20.27 29.34L18.25 23.8L12.74 23.8L10.72 29.34C10.68 29.43 10.64 29.52 10.59 29.6C10.55 29.67 10.5 29.73 10.45 29.78C10.39 29.84 10.34 29.89 10.27 29.94C10.2 29.99 10.13 30.04 10.04 30.07C9.96 30.11 9.88 30.14 9.79 30.16C9.72 30.18 9.64 30.19 9.56 30.19C9.48 30.2 9.41 30.2 9.33 30.19C9.24 30.17 9.14 30.15 9.05 30.12C8.96 30.08 8.87 30.04 8.79 29.99C8.73 29.95 8.67 29.9 8.61 29.85C8.55 29.8 8.5 29.74 8.45 29.68C8.4 29.6 8.36 29.53 8.32 29.45C8.28 29.36 8.25 29.28 8.23 29.19C8.21 29.12 8.2 29.04 8.2 28.96C8.19 28.89 8.2 28.81 8.2 28.74C8.22 28.64 8.24 28.54 8.27 28.45L14.09 12.48C14.14 12.33 14.21 12.2 14.3 12.09C14.39 11.98 14.5 11.89 14.63 11.81C14.76 11.73 14.9 11.68 15.04 11.65C15.17 11.62 15.31 11.61 15.45 11.63L15.48 11.63L15.5 11.63C15.65 11.61 15.79 11.61 15.92 11.64C16.07 11.67 16.21 11.72 16.34 11.8C16.47 11.88 16.59 11.97 16.68 12.08ZM15.49 16.21L13.78 20.93L13.68 21.2L17.31 21.2L15.49 16.21ZM14.18 21L13.97 21L14.04 20.8L15.39 17.09L15.49 16.8L15.6 17.09L16.95 20.8L17.02 21L14.18 21Z" fill="url(#paint_linear_5633_93455_1)" fill-opacity="1.000000" fill-rule="evenodd"/>
		<circle cx="29.500000" cy="25.500000" r="8.500000" fill="#FBAC7B" fill-opacity="0.750000"/>
		<circle cx="29.500000" cy="25.500000" r="8.411141" stroke="url(#paint_linear_5633_93440_0)" stroke-opacity="1.000000" stroke-width="0.177717"/>
		<path d="M31.92 22.29C31.92 22.97 31.62 23.57 31.14 23.99C30.97 24.14 30.86 24.34 30.86 24.56L30.86 26.5C30.86 26.86 31.15 27.15 31.5 27.15L33.41 27.15C33.76 27.15 34.05 27.44 34.05 27.79L34.05 29.05C34.05 29.41 33.76 29.7 33.41 29.7L25.64 29.7C25.28 29.7 24.99 29.41 24.99 29.05L24.99 27.79C24.99 27.44 25.28 27.15 25.64 27.15L27.54 27.15C27.9 27.15 28.19 26.86 28.19 26.5L28.19 24.56C28.19 24.34 28.08 24.14 27.91 23.99C27.43 23.57 27.13 22.97 27.13 22.29C27.13 21.02 28.2 19.99 29.52 19.99C30.85 19.99 31.92 21.02 31.92 22.29ZM33.73 30.35L25.32 30.35C25.14 30.35 24.99 30.49 24.99 30.67C24.99 30.85 25.14 30.99 25.32 30.99L33.73 30.99C33.91 30.99 34.05 30.85 34.05 30.67C34.05 30.49 33.91 30.35 33.73 30.35Z" fill="url(#paint_linear_5633_93454_0)" fill-opacity="1.000000" fill-rule="evenodd"/>
		<path d="M31.92 22.29C31.92 22.97 31.62 23.57 31.14 23.99C30.97 24.14 30.86 24.34 30.86 24.56L30.86 26.5C30.86 26.86 31.15 27.15 31.5 27.15L33.41 27.15C33.76 27.15 34.05 27.44 34.05 27.79L34.05 29.05C34.05 29.41 33.76 29.7 33.41 29.7L25.64 29.7C25.28 29.7 24.99 29.41 24.99 29.05L24.99 27.79C24.99 27.44 25.28 27.15 25.64 27.15L27.54 27.15C27.9 27.15 28.19 26.86 28.19 26.5L28.19 24.56C28.19 24.34 28.08 24.14 27.91 23.99C27.43 23.57 27.13 22.97 27.13 22.29C27.13 21.02 28.2 19.99 29.52 19.99C30.85 19.99 31.92 21.02 31.92 22.29ZM31.4 23.45C31.3 23.61 31.18 23.75 31.03 23.87L31.03 23.87C30.93 23.96 30.85 24.06 30.79 24.17C30.79 24.17 30.79 24.17 30.79 24.17C30.74 24.27 30.71 24.36 30.7 24.46C30.7 24.49 30.7 24.53 30.7 24.56L30.7 26.5C30.7 26.61 30.71 26.71 30.75 26.81C30.79 26.91 30.85 26.99 30.93 27.07C31.01 27.15 31.1 27.21 31.19 27.25C31.29 27.29 31.39 27.31 31.5 27.31L33.41 27.31C33.47 27.31 33.54 27.32 33.59 27.34C33.65 27.37 33.7 27.4 33.75 27.45C33.8 27.5 33.83 27.55 33.86 27.61C33.88 27.66 33.89 27.73 33.89 27.79L33.89 29.05C33.89 29.12 33.88 29.18 33.86 29.24C33.83 29.3 33.8 29.35 33.75 29.4C33.7 29.44 33.65 29.48 33.59 29.5C33.54 29.53 33.47 29.54 33.41 29.54L25.64 29.54C25.57 29.54 25.51 29.53 25.46 29.5C25.4 29.48 25.35 29.44 25.3 29.4C25.25 29.35 25.22 29.3 25.19 29.24C25.17 29.18 25.16 29.12 25.16 29.05L25.16 27.79C25.16 27.73 25.17 27.66 25.19 27.61C25.22 27.55 25.25 27.5 25.3 27.45C25.35 27.4 25.4 27.37 25.46 27.34C25.51 27.32 25.57 27.31 25.64 27.31L27.54 27.31C27.66 27.31 27.76 27.29 27.86 27.25C27.95 27.21 28.04 27.15 28.12 27.07C28.2 26.99 28.25 26.91 28.29 26.81C28.33 26.71 28.35 26.61 28.35 26.5L28.35 24.56C28.35 24.53 28.35 24.49 28.35 24.46C28.34 24.36 28.3 24.27 28.26 24.17C28.26 24.17 28.26 24.17 28.25 24.17C28.2 24.06 28.12 23.96 28.02 23.87C27.87 23.75 27.75 23.61 27.65 23.45C27.58 23.36 27.53 23.27 27.48 23.17C27.42 23.03 27.37 22.89 27.34 22.75C27.3 22.6 27.29 22.45 27.29 22.29C27.29 22.15 27.3 22 27.33 21.86C27.36 21.72 27.41 21.59 27.46 21.46C27.5 21.37 27.55 21.28 27.6 21.2C27.7 21.05 27.81 20.91 27.94 20.78C28.03 20.7 28.12 20.62 28.22 20.56C28.35 20.46 28.5 20.39 28.65 20.33C28.76 20.28 28.87 20.25 28.99 20.22C29.16 20.18 29.34 20.16 29.52 20.16C29.71 20.16 29.89 20.18 30.06 20.22C30.18 20.25 30.29 20.28 30.4 20.33C30.55 20.39 30.69 20.46 30.83 20.56C30.93 20.62 31.02 20.7 31.11 20.78C31.24 20.91 31.35 21.05 31.45 21.2C31.5 21.28 31.55 21.37 31.59 21.46C31.64 21.59 31.69 21.72 31.72 21.86C31.75 22 31.76 22.15 31.76 22.29C31.76 22.45 31.74 22.6 31.71 22.75C31.68 22.89 31.63 23.03 31.56 23.17C31.52 23.27 31.46 23.36 31.4 23.45ZM33.73 30.35L25.32 30.35C25.14 30.35 24.99 30.49 24.99 30.67C24.99 30.85 25.14 30.99 25.32 30.99L33.73 30.99C33.91 30.99 34.05 30.85 34.05 30.67C34.05 30.49 33.91 30.35 33.73 30.35ZM25.26 30.52C25.28 30.51 25.3 30.51 25.32 30.51L33.73 30.51C33.75 30.51 33.77 30.51 33.79 30.52C33.81 30.53 33.83 30.54 33.84 30.56C33.86 30.57 33.87 30.59 33.88 30.61C33.89 30.63 33.89 30.65 33.89 30.67C33.89 30.69 33.89 30.71 33.88 30.73C33.87 30.75 33.86 30.77 33.84 30.79C33.83 30.8 33.81 30.81 33.79 30.82C33.77 30.83 33.75 30.83 33.73 30.83L25.32 30.83C25.3 30.83 25.28 30.83 25.26 30.82C25.24 30.81 25.22 30.8 25.2 30.79C25.19 30.77 25.18 30.75 25.17 30.73C25.16 30.71 25.16 30.69 25.16 30.67C25.16 30.65 25.16 30.63 25.17 30.61C25.18 30.59 25.19 30.57 25.2 30.56C25.22 30.54 25.24 30.53 25.26 30.52Z" fill="url(#paint_linear_5633_93454_1)" fill-opacity="1.000000" fill-rule="evenodd"/>
	</g>
</svg>
