<svg width="40" height="40" viewBox="0 0 40 40" fill="none" xmlns="http://www.w3.org/2000/svg">
<path d="M4 8C4 5.79086 5.79086 4 8 4H26C28.2091 4 30 5.79086 30 8V30C30 32.2091 28.2091 34 26 34H8C5.79086 34 4 32.2091 4 30V8Z" fill="url(#paint0_linear_2433_31590)"/>
<path d="M10.1 10C10.1 7.84609 11.8461 6.1 14 6.1H32C34.1539 6.1 35.9 7.84609 35.9 10V32C35.9 34.1539 34.1539 35.9 32 35.9H14C11.8461 35.9 10.1 34.1539 10.1 32V10Z" fill="#BFB5FF" fill-opacity="0.75" stroke="url(#paint1_linear_2433_31590)" stroke-width="0.2"/>
<mask id="path-3-inside-1_2433_31590" fill="white">
<path d="M26.7059 14.5526C26.7059 15.633 26.2028 16.6008 25.409 17.2524C25.2003 17.4237 25.0589 17.6651 25.0589 17.9286V21.2632C25.0589 21.6992 25.4276 22.0526 25.8824 22.0526H29.1765C29.6313 22.0526 30 22.4061 30 22.8421V25.2105C30 25.6465 29.6313 26 29.1765 26H16.8236C16.3687 26 16 25.6465 16 25.2105V22.8421C16 22.4061 16.3687 22.0526 16.8236 22.0526H20.1177C20.5725 22.0526 20.9412 21.6992 20.9412 21.2632V17.9286C20.9412 17.6651 20.7998 17.4237 20.5911 17.2524C19.7972 16.6008 19.2941 15.633 19.2941 14.5526C19.2941 12.5906 20.9533 11 23 11C25.0467 11 26.7059 12.5906 26.7059 14.5526Z"/>
<path d="M16 27.5C16 27.2239 16.1844 27 16.4118 27H29.5882C29.8156 27 30 27.2239 30 27.5C30 27.7761 29.8156 28 29.5882 28H16.4118C16.1844 28 16 27.7761 16 27.5Z"/>
</mask>
<path d="M26.7059 14.5526C26.7059 15.633 26.2028 16.6008 25.409 17.2524C25.2003 17.4237 25.0589 17.6651 25.0589 17.9286V21.2632C25.0589 21.6992 25.4276 22.0526 25.8824 22.0526H29.1765C29.6313 22.0526 30 22.4061 30 22.8421V25.2105C30 25.6465 29.6313 26 29.1765 26H16.8236C16.3687 26 16 25.6465 16 25.2105V22.8421C16 22.4061 16.3687 22.0526 16.8236 22.0526H20.1177C20.5725 22.0526 20.9412 21.6992 20.9412 21.2632V17.9286C20.9412 17.6651 20.7998 17.4237 20.5911 17.2524C19.7972 16.6008 19.2941 15.633 19.2941 14.5526C19.2941 12.5906 20.9533 11 23 11C25.0467 11 26.7059 12.5906 26.7059 14.5526Z" fill="url(#paint2_linear_2433_31590)"/>
<path d="M16 27.5C16 27.2239 16.1844 27 16.4118 27H29.5882C29.8156 27 30 27.2239 30 27.5C30 27.7761 29.8156 28 29.5882 28H16.4118C16.1844 28 16 27.7761 16 27.5Z" fill="url(#paint3_linear_2433_31590)"/>
<path d="M20.5911 17.2524L20.7179 17.0978L20.5911 17.2524ZM25.409 17.2524L25.5359 17.407L25.409 17.2524ZM25.5359 17.407C26.3727 16.7201 26.9059 15.6971 26.9059 14.5526H26.5059C26.5059 15.5689 26.033 16.4814 25.2821 17.0978L25.5359 17.407ZM25.2589 21.2632V17.9286H24.8589V21.2632H25.2589ZM25.8824 22.2526H29.1765V21.8526H25.8824V22.2526ZM29.8 22.8421V25.2105H30.2V22.8421H29.8ZM29.1765 25.8H16.8236V26.2H29.1765V25.8ZM16.2 25.2105V22.8421H15.8V25.2105H16.2ZM16.8236 22.2526H20.1177V21.8526H16.8236V22.2526ZM20.7412 17.9286V21.2632H21.1412V17.9286H20.7412ZM19.0941 14.5526C19.0941 15.6971 19.6274 16.7201 20.4642 17.407L20.7179 17.0978C19.967 16.4814 19.4941 15.5689 19.4941 14.5526H19.0941ZM23 10.8C20.8509 10.8 19.0941 12.4722 19.0941 14.5526H19.4941C19.4941 12.7089 21.0557 11.2 23 11.2V10.8ZM26.9059 14.5526C26.9059 12.4722 25.1491 10.8 23 10.8V11.2C24.9443 11.2 26.5059 12.7089 26.5059 14.5526H26.9059ZM21.1412 17.9286C21.1412 17.5913 20.961 17.2972 20.7179 17.0978L20.4642 17.407C20.6386 17.5502 20.7412 17.739 20.7412 17.9286H21.1412ZM20.1177 22.2526C20.6749 22.2526 21.1412 21.8175 21.1412 21.2632H20.7412C20.7412 21.5808 20.4701 21.8526 20.1177 21.8526V22.2526ZM16.2 22.8421C16.2 22.5244 16.4711 22.2526 16.8236 22.2526V21.8526C16.2663 21.8526 15.8 22.2878 15.8 22.8421H16.2ZM29.8 25.2105C29.8 25.5282 29.5289 25.8 29.1765 25.8V26.2C29.7337 26.2 30.2 25.7649 30.2 25.2105H29.8ZM29.1765 22.2526C29.5289 22.2526 29.8 22.5244 29.8 22.8421H30.2C30.2 22.2878 29.7337 21.8526 29.1765 21.8526V22.2526ZM24.8589 21.2632C24.8589 21.8175 25.3251 22.2526 25.8824 22.2526V21.8526C25.53 21.8526 25.2589 21.5808 25.2589 21.2632H24.8589ZM16.8236 25.8C16.4711 25.8 16.2 25.5282 16.2 25.2105H15.8C15.8 25.7649 16.2663 26.2 16.8236 26.2V25.8ZM25.2821 17.0978C25.0391 17.2972 24.8589 17.5913 24.8589 17.9286H25.2589C25.2589 17.739 25.3614 17.5502 25.5359 17.407L25.2821 17.0978ZM16.4118 27.2H29.5882V26.8H16.4118V27.2ZM29.5882 27.8H16.4118V28.2H29.5882V27.8ZM16.4118 27.8C16.3294 27.8 16.2 27.7038 16.2 27.5H15.8C15.8 27.8485 16.0393 28.2 16.4118 28.2V27.8ZM29.8 27.5C29.8 27.7038 29.6706 27.8 29.5882 27.8V28.2C29.9607 28.2 30.2 27.8485 30.2 27.5H29.8ZM29.5882 27.2C29.6706 27.2 29.8 27.2962 29.8 27.5H30.2C30.2 27.1515 29.9607 26.8 29.5882 26.8V27.2ZM16.4118 26.8C16.0393 26.8 15.8 27.1515 15.8 27.5H16.2C16.2 27.2962 16.3294 27.2 16.4118 27.2V26.8Z" fill="url(#paint4_linear_2433_31590)" mask="url(#path-3-inside-1_2433_31590)"/>
<defs>
<linearGradient id="paint0_linear_2433_31590" x1="11.5" y1="10.5625" x2="31.9889" y2="16.669" gradientUnits="userSpaceOnUse">
<stop stop-color="#917FFB"/>
<stop offset="1" stop-color="#3F2DAF"/>
</linearGradient>
<linearGradient id="paint1_linear_2433_31590" x1="8.14286" y1="8.72727" x2="46.914" y2="26.0767" gradientUnits="userSpaceOnUse">
<stop stop-color="white"/>
<stop offset="1" stop-color="white" stop-opacity="0"/>
</linearGradient>
<linearGradient id="paint2_linear_2433_31590" x1="16.2764" y1="19.9474" x2="29.9332" y2="18.9918" gradientUnits="userSpaceOnUse">
<stop stop-color="white" stop-opacity="0.9"/>
<stop offset="1" stop-color="white" stop-opacity="0.3"/>
</linearGradient>
<linearGradient id="paint3_linear_2433_31590" x1="16" y1="27.5" x2="20.7069" y2="20.8862" gradientUnits="userSpaceOnUse">
<stop stop-color="white" stop-opacity="0.9"/>
<stop offset="1" stop-color="white" stop-opacity="0.3"/>
</linearGradient>
<linearGradient id="paint4_linear_2433_31590" x1="15" y1="12.5455" x2="36.2204" y2="21.5686" gradientUnits="userSpaceOnUse">
<stop stop-color="white"/>
<stop offset="1" stop-color="white" stop-opacity="0"/>
</linearGradient>
</defs>
</svg>
