<svg width="40.000000" height="40.000000" viewBox="0 0 40 40" fill="none" xmlns="http://www.w3.org/2000/svg" xmlns:xlink="http://www.w3.org/1999/xlink">
	<desc>
			Created with Pixso.
	</desc>
	<defs>
		<clipPath id="clip1519_30475">
			<rect id="Icon/Alpha/Chat" width="40.000000" height="40.000000" transform="translate(-0.500000 0.000000)" fill="white" fill-opacity="0"/>
		</clipPath>
		<linearGradient x1="4.223690" y1="13.566767" x2="26.776312" y2="21.433237" id="paint_linear_1519_30476_0" gradientUnits="userSpaceOnUse">
			<stop stop-color="#80CCFE"/>
			<stop offset="1.000000" stop-color="#009AFE"/>
		</linearGradient>
		<linearGradient x1="10.857141" y1="16.000004" x2="39.607140" y2="39.000008" id="paint_linear_1519_30477_0" gradientUnits="userSpaceOnUse">
			<stop stop-color="#FFFFFF"/>
			<stop offset="1.000000" stop-color="#FFFFFF" stop-opacity="0.000000"/>
		</linearGradient>
		<linearGradient x1="16.500000" y1="23.000000" x2="20.500000" y2="23.000000" id="paint_linear_1519_30478_0" gradientUnits="userSpaceOnUse">
			<stop stop-color="#FFFFFF" stop-opacity="0.901961"/>
			<stop offset="1.000000" stop-color="#FFFFFF" stop-opacity="0.301961"/>
		</linearGradient>
		<linearGradient x1="16.214285" y1="21.363636" x2="21.214287" y2="25.545456" id="paint_linear_1519_30478_1" gradientUnits="userSpaceOnUse">
			<stop stop-color="#FFFFFF"/>
			<stop offset="1.000000" stop-color="#FFFFFF" stop-opacity="0.000000"/>
		</linearGradient>
		<linearGradient x1="22.500000" y1="23.000000" x2="26.500000" y2="23.000000" id="paint_linear_1519_30479_0" gradientUnits="userSpaceOnUse">
			<stop stop-color="#FFFFFF" stop-opacity="0.901961"/>
			<stop offset="1.000000" stop-color="#FFFFFF" stop-opacity="0.301961"/>
		</linearGradient>
		<linearGradient x1="22.214287" y1="21.363636" x2="27.214287" y2="25.545456" id="paint_linear_1519_30479_1" gradientUnits="userSpaceOnUse">
			<stop stop-color="#FFFFFF"/>
			<stop offset="1.000000" stop-color="#FFFFFF" stop-opacity="0.000000"/>
		</linearGradient>
		<linearGradient x1="28.500000" y1="23.000000" x2="32.500000" y2="23.000000" id="paint_linear_1519_30480_0" gradientUnits="userSpaceOnUse">
			<stop stop-color="#FFFFFF" stop-opacity="0.901961"/>
			<stop offset="1.000000" stop-color="#FFFFFF" stop-opacity="0.301961"/>
		</linearGradient>
		<linearGradient x1="28.214287" y1="21.363636" x2="33.214287" y2="25.545456" id="paint_linear_1519_30480_1" gradientUnits="userSpaceOnUse">
			<stop stop-color="#FFFFFF"/>
			<stop offset="1.000000" stop-color="#FFFFFF" stop-opacity="0.000000"/>
		</linearGradient>
	</defs>
	<rect id="compenents Contained" rx="4.000000" width="40.000000" height="40.000000" transform="translate(-0.500000 0.000000)" fill="#FFFFFF" fill-opacity="1.000000"/>
	<rect id="Icon/Alpha/Chat" width="40.000000" height="40.000000" transform="translate(-0.500000 0.000000)" fill="#FFFFFF" fill-opacity="0"/>
	<g clip-path="url(#clip1519_30475)">
		<path id="矢量 55" d="M7.5 6L23.5 6C25.7 6 27.5 7.79 27.5 10L27.5 21.71C27.5 23.92 25.7 25.71 23.5 25.71L10.08 25.71L6.66 28.86C6.32 29.18 5.77 28.9 5.82 28.43L6.11 25.46C4.58 24.9 3.5 23.43 3.5 21.71L3.5 10C3.5 7.79 5.29 6 7.5 6Z" fill="url(#paint_linear_1519_30476_0)" fill-opacity="1.000000" fill-rule="evenodd"/>
		<path id="矢量 54" d="M31.5 14C33.7 14 35.5 15.79 35.5 18L35.5 28.85C35.5 30.54 34.46 31.98 32.98 32.57L33.27 35.45C33.31 35.9 32.79 36.17 32.46 35.87L29.18 32.85L16.5 32.85C14.29 32.85 12.5 31.06 12.5 28.85L12.5 18C12.5 15.79 14.29 14 16.5 14L31.5 14Z" fill="#AADEFF" fill-opacity="0.750000" fill-rule="nonzero"/>
		<path id="矢量 54" d="M31.5 14L16.5 14C14.29 14 12.5 15.79 12.5 18L12.5 28.85C12.5 31.06 14.29 32.85 16.5 32.85L29.18 32.85L32.46 35.87C32.79 36.17 33.31 35.9 33.27 35.45L32.98 32.57C34.46 31.98 35.5 30.54 35.5 28.85L35.5 18C35.5 15.79 33.7 14 31.5 14Z" stroke="url(#paint_linear_1519_30477_0)" stroke-opacity="1.000000" stroke-width="0.200000"/>
		<path id="矢量 53" d="M16.5 23C16.5 21.89 17.39 21 18.5 21C19.6 21 20.5 21.89 20.5 23C20.5 24.1 19.6 25 18.5 25C17.39 25 16.5 24.1 16.5 23Z" fill="url(#paint_linear_1519_30478_0)" fill-opacity="1.000000" fill-rule="evenodd"/>
		<path id="矢量 53" d="M18.5 21C17.39 21 16.5 21.89 16.5 23C16.5 24.1 17.39 25 18.5 25C19.6 25 20.5 24.1 20.5 23C20.5 21.89 19.6 21 18.5 21ZM18.09 21.24C18.23 21.21 18.36 21.2 18.5 21.2C18.63 21.2 18.76 21.21 18.9 21.24C19 21.26 19.1 21.29 19.2 21.34C19.3 21.38 19.39 21.43 19.48 21.49C19.58 21.56 19.68 21.63 19.77 21.72C19.86 21.81 19.93 21.91 20 22.01C20.06 22.1 20.11 22.19 20.15 22.29C20.2 22.39 20.23 22.49 20.25 22.59C20.28 22.72 20.29 22.86 20.29 23C20.29 23.13 20.28 23.27 20.25 23.4C20.23 23.5 20.2 23.6 20.15 23.7C20.11 23.8 20.06 23.89 20 23.98C19.93 24.08 19.86 24.18 19.77 24.27C19.68 24.36 19.58 24.43 19.48 24.5C19.39 24.56 19.3 24.61 19.2 24.65C19.1 24.7 19 24.73 18.9 24.75C18.76 24.78 18.63 24.8 18.5 24.8C18.36 24.8 18.23 24.78 18.09 24.75C17.99 24.73 17.89 24.7 17.79 24.65C17.69 24.61 17.6 24.56 17.51 24.5C17.41 24.43 17.31 24.36 17.22 24.27C17.13 24.18 17.06 24.08 16.99 23.98C16.93 23.89 16.88 23.8 16.84 23.7C16.79 23.6 16.76 23.5 16.74 23.4C16.71 23.27 16.7 23.13 16.7 23C16.7 22.86 16.71 22.72 16.74 22.59C16.76 22.49 16.79 22.39 16.84 22.29C16.88 22.19 16.93 22.1 16.99 22.01C17.06 21.91 17.13 21.81 17.22 21.72C17.31 21.63 17.41 21.56 17.51 21.49C17.6 21.43 17.69 21.38 17.79 21.34C17.89 21.29 17.99 21.26 18.09 21.24Z" fill="url(#paint_linear_1519_30478_1)" fill-opacity="1.000000" fill-rule="evenodd"/>
		<path id="矢量 52" d="M22.5 23C22.5 21.89 23.39 21 24.5 21C25.6 21 26.5 21.89 26.5 23C26.5 24.1 25.6 25 24.5 25C23.39 25 22.5 24.1 22.5 23Z" fill="url(#paint_linear_1519_30479_0)" fill-opacity="1.000000" fill-rule="evenodd"/>
		<path id="矢量 52" d="M24.5 21C23.39 21 22.5 21.89 22.5 23C22.5 24.1 23.39 25 24.5 25C25.6 25 26.5 24.1 26.5 23C26.5 21.89 25.6 21 24.5 21ZM24.09 21.24C24.23 21.21 24.36 21.2 24.5 21.2C24.63 21.2 24.76 21.21 24.9 21.24C25 21.26 25.1 21.29 25.2 21.34C25.3 21.38 25.39 21.43 25.48 21.49C25.58 21.56 25.68 21.63 25.77 21.72C25.86 21.81 25.93 21.91 26 22.01C26.06 22.1 26.11 22.19 26.15 22.29C26.2 22.39 26.23 22.49 26.25 22.59C26.28 22.72 26.29 22.86 26.29 23C26.29 23.13 26.28 23.27 26.25 23.4C26.23 23.5 26.2 23.6 26.15 23.7C26.11 23.8 26.06 23.89 26 23.98C25.93 24.08 25.86 24.18 25.77 24.27C25.68 24.36 25.58 24.43 25.48 24.5C25.39 24.56 25.3 24.61 25.2 24.65C25.1 24.7 25 24.73 24.9 24.75C24.76 24.78 24.63 24.8 24.5 24.8C24.36 24.8 24.23 24.78 24.09 24.75C23.99 24.73 23.89 24.7 23.79 24.65C23.69 24.61 23.6 24.56 23.51 24.5C23.41 24.43 23.31 24.36 23.22 24.27C23.13 24.18 23.06 24.08 22.99 23.98C22.93 23.89 22.88 23.8 22.84 23.7C22.79 23.6 22.76 23.5 22.74 23.4C22.71 23.27 22.7 23.13 22.7 23C22.7 22.86 22.71 22.72 22.74 22.59C22.76 22.49 22.79 22.39 22.84 22.29C22.88 22.19 22.93 22.1 22.99 22.01C23.06 21.91 23.13 21.81 23.22 21.72C23.31 21.63 23.41 21.56 23.51 21.49C23.6 21.43 23.69 21.38 23.79 21.34C23.89 21.29 23.99 21.26 24.09 21.24Z" fill="url(#paint_linear_1519_30479_1)" fill-opacity="1.000000" fill-rule="evenodd"/>
		<path id="矢量 51" d="M28.5 23C28.5 21.89 29.39 21 30.5 21C31.6 21 32.5 21.89 32.5 23C32.5 24.1 31.6 25 30.5 25C29.39 25 28.5 24.1 28.5 23Z" fill="url(#paint_linear_1519_30480_0)" fill-opacity="1.000000" fill-rule="evenodd"/>
		<path id="矢量 51" d="M30.5 21C29.39 21 28.5 21.89 28.5 23C28.5 24.1 29.39 25 30.5 25C31.6 25 32.5 24.1 32.5 23C32.5 21.89 31.6 21 30.5 21ZM30.09 21.24C30.23 21.21 30.36 21.2 30.5 21.2C30.63 21.2 30.76 21.21 30.9 21.24C31 21.26 31.1 21.29 31.2 21.34C31.3 21.38 31.39 21.43 31.48 21.49C31.58 21.56 31.68 21.63 31.77 21.72C31.86 21.81 31.93 21.91 32 22.01C32.06 22.1 32.11 22.19 32.15 22.29C32.2 22.39 32.23 22.49 32.25 22.59C32.28 22.72 32.29 22.86 32.29 23C32.29 23.13 32.28 23.27 32.25 23.4C32.23 23.5 32.2 23.6 32.15 23.7C32.11 23.8 32.06 23.89 32 23.98C31.93 24.08 31.86 24.18 31.77 24.27C31.68 24.36 31.58 24.43 31.48 24.5C31.39 24.56 31.3 24.61 31.2 24.65C31.1 24.7 31 24.73 30.9 24.75C30.76 24.78 30.63 24.8 30.5 24.8C30.36 24.8 30.23 24.78 30.09 24.75C29.99 24.73 29.89 24.7 29.79 24.65C29.69 24.61 29.6 24.56 29.51 24.5C29.41 24.43 29.31 24.36 29.22 24.27C29.13 24.18 29.06 24.08 28.99 23.98C28.93 23.89 28.88 23.8 28.84 23.7C28.79 23.6 28.76 23.5 28.74 23.4C28.71 23.27 28.7 23.13 28.7 23C28.7 22.86 28.71 22.72 28.74 22.59C28.76 22.49 28.79 22.39 28.84 22.29C28.88 22.19 28.93 22.1 28.99 22.01C29.06 21.91 29.13 21.81 29.22 21.72C29.31 21.63 29.41 21.56 29.51 21.49C29.6 21.43 29.69 21.38 29.79 21.34C29.89 21.29 29.99 21.26 30.09 21.24Z" fill="url(#paint_linear_1519_30480_1)" fill-opacity="1.000000" fill-rule="evenodd"/>
	</g>
</svg>
