<svg width="48" height="48" viewBox="0 0 48 48" fill="none" xmlns="http://www.w3.org/2000/svg">
<path d="M28.7984 14.3968C31.4484 14.3968 33.5967 12.2485 33.5967 9.5984C33.5967 6.94835 31.4484 4.80005 28.7984 4.80005C26.1483 4.80005 24 6.94835 24 9.5984C24 12.2485 26.1483 14.3968 28.7984 14.3968Z" fill="url(#paint0_linear_1827_2614)"/>
<path d="M30.3673 31.3392L21.1879 34.3528L24.6854 29.662L24.6897 29.6562L24.693 29.6499L26.314 26.5342L30.5418 28.495L30.5417 28.4952L30.5477 28.4975C31.1595 28.7291 31.5949 29.348 31.5949 29.9597C31.5949 30.5628 31.0776 31.1819 30.3759 31.3369L30.3758 31.3365L30.3673 31.3392Z" fill="#6AE092" fill-opacity="0.75" stroke="url(#paint1_linear_1827_2614)" stroke-width="0.177717"/>
<path d="M4.8 39.6C4.8 38.9373 5.33726 38.4 6 38.4H42C42.6627 38.4 43.2 38.9373 43.2 39.6C43.2 40.2628 42.6627 40.8 42 40.8H5.99999C5.33725 40.8 4.8 40.2628 4.8 39.6Z" fill="url(#paint2_linear_1827_2614)"/>
<path fill-rule="evenodd" clip-rule="evenodd" d="M24.7602 14.6677L27.3412 15.81C28.0883 16.238 28.3909 16.7938 28.3989 17.4319L32.7161 19.8359L37.3562 15.8673C38.0986 15.2059 39.305 15.3949 39.9546 16.1508C40.6042 17.0012 40.5114 18.1351 39.769 18.7965L34.201 23.5209C33.8298 23.8044 33.4585 23.9934 32.9945 23.9934C32.7161 23.9934 32.4377 23.8989 32.1593 23.8044L26.8409 21.5861C25.6513 24.2807 23.9989 27.991 23.5353 28.8711C22.7872 30.2913 13.1365 42.2681 13.1365 42.2681C12.3686 43.2052 11.5321 43.3581 10.6118 43.0669C9.67667 42.6231 9.20912 41.558 9.67667 40.6704L21.4874 15.8216C22.0484 14.6677 23.5446 14.1351 24.7602 14.6677Z" fill="url(#paint3_linear_1827_2614)"/>
<path d="M14.9036 17.0811L14.8474 17.0735L14.8168 17.1212L11.6805 22.0155C11.3294 22.5635 10.7133 22.8383 10.1872 22.8383C10.0099 22.8383 9.83413 22.8152 9.68214 22.77C9.52906 22.7245 9.40661 22.6586 9.32885 22.5777L9.3212 22.5697L9.31184 22.5639C8.43644 22.0174 8.25604 20.8274 8.78614 20.0001L12.4759 14.2421C12.8278 13.6929 13.3519 13.4201 13.9667 13.4193L21.7269 13.8683C21.4565 13.9846 21.1896 14.1588 20.9471 14.3666C20.5467 14.7095 20.2033 15.1517 20.0125 15.5978L19.0813 17.648L14.9036 17.0811Z" fill="#6AE092" fill-opacity="0.75" stroke="url(#paint4_linear_1827_2614)" stroke-width="0.177717"/>
<defs>
<linearGradient id="paint0_linear_1827_2614" x1="26.1343" y1="8.21014" x2="35.358" y2="16.309" gradientUnits="userSpaceOnUse">
<stop stop-color="#75EDA1"/>
<stop offset="1" stop-color="#349256"/>
</linearGradient>
<linearGradient id="paint1_linear_1827_2614" x1="20.182" y1="27.1548" x2="33.2751" y2="36.1066" gradientUnits="userSpaceOnUse">
<stop stop-color="white"/>
<stop offset="1" stop-color="white" stop-opacity="0"/>
</linearGradient>
<linearGradient id="paint2_linear_1827_2614" x1="13.3403" y1="39.2528" x2="13.6698" y2="43.8819" gradientUnits="userSpaceOnUse">
<stop stop-color="#75EDA1"/>
<stop offset="1" stop-color="#349256"/>
</linearGradient>
<linearGradient id="paint3_linear_1827_2614" x1="16.3646" y1="24.6727" x2="44.1746" y2="50.9234" gradientUnits="userSpaceOnUse">
<stop stop-color="#75EDA1"/>
<stop offset="1" stop-color="#349256"/>
</linearGradient>
<linearGradient id="paint4_linear_1827_2614" x1="7.40986" y1="14.2029" x2="23.3523" y2="26.0928" gradientUnits="userSpaceOnUse">
<stop stop-color="white"/>
<stop offset="1" stop-color="white" stop-opacity="0"/>
</linearGradient>
</defs>
</svg>
