<svg width="48" height="48" viewBox="0 0 48 48" fill="none" xmlns="http://www.w3.org/2000/svg">
<path d="M2.39999 17.2172C2.39999 15.7643 3.18786 14.4256 4.4581 13.7202L14.7031 8.03116C15.6591 7.50032 16.7907 7.38396 17.8347 7.70917L37.9896 13.9877C39.6613 14.5084 40.8 16.0558 40.8 17.8067V36.7999C40.8 39.0091 39.0091 40.7999 36.8 40.7999H6.39999C4.19085 40.7999 2.39999 39.0091 2.39999 36.7999V17.2172Z" fill="url(#paint0_linear_1827_2793)"/>
<path d="M16.9 18.4484C16.9 15.8735 19.3513 14.0053 21.8341 14.688L42.6341 20.408C44.3269 20.8736 45.5 22.4128 45.5 24.1684V36.7999C45.5 38.9539 43.7539 40.6999 41.6 40.6999H20.8C18.6461 40.6999 16.9 38.9539 16.9 36.7999V18.4484Z" fill="#BFB5FF" fill-opacity="0.75" stroke="url(#paint1_linear_1827_2793)" stroke-width="0.2"/>
<path d="M27.7 35.4C27.7 37.6643 29.5356 39.5 31.8 39.5C34.0644 39.5 35.9 37.6643 35.9 35.4V33C35.9 30.7356 34.0644 28.9 31.8 28.9C29.5356 28.9 27.7 30.7356 27.7 33V35.4Z" fill="url(#paint2_linear_1827_2793)" stroke="url(#paint3_linear_1827_2793)" stroke-width="0.2"/>
<defs>
<linearGradient id="paint0_linear_1827_2793" x1="13.4769" y1="14.5499" x2="42.0169" y2="25.7667" gradientUnits="userSpaceOnUse">
<stop stop-color="#917FFB"/>
<stop offset="1" stop-color="#3F2DAF"/>
</linearGradient>
<linearGradient id="paint1_linear_1827_2793" x1="14.7429" y1="15.709" x2="54.6925" y2="37.2329" gradientUnits="userSpaceOnUse">
<stop stop-color="white"/>
<stop offset="1" stop-color="white" stop-opacity="0"/>
</linearGradient>
<linearGradient id="paint2_linear_1827_2793" x1="27.6" y1="34.2" x2="35.9491" y2="34.8517" gradientUnits="userSpaceOnUse">
<stop stop-color="white" stop-opacity="0.9"/>
<stop offset="1" stop-color="white" stop-opacity="0.3"/>
</linearGradient>
<linearGradient id="paint3_linear_1827_2793" x1="27" y1="38.6182" x2="39.9464" y2="33.4191" gradientUnits="userSpaceOnUse">
<stop stop-color="white"/>
<stop offset="1" stop-color="white" stop-opacity="0"/>
</linearGradient>
</defs>
</svg>
