<svg width="40" height="40" viewBox="0 0 40 40" fill="none" xmlns="http://www.w3.org/2000/svg">
<path d="M4 22C4 30.8366 11.1634 38 20 38C28.8366 38 36 30.8366 36 22C36 13.1634 28.8366 6 20 6C11.1634 6 4 13.1634 4 22Z" fill="url(#paint0_linear_1737_29417)"/>
<path d="M8.09363 22C8.09363 28.5757 13.4243 33.9064 20 33.9064C26.5757 33.9064 31.9064 28.5757 31.9064 22C31.9064 15.4243 26.5757 10.0936 20 10.0936C13.4243 10.0936 8.09363 15.4243 8.09363 22Z" fill="#AADEFF" fill-opacity="0.75" stroke="url(#paint1_linear_1737_29417)" stroke-width="0.187249"/>
<path d="M14.0936 4C14.0936 5.05286 14.9471 5.90638 16 5.90638L24 5.90638C25.0529 5.90638 25.9064 5.05286 25.9064 4C25.9064 2.94726 25.0509 2.09362 23.9979 2.09362L23.9789 2.09362L23.9599 2.09362L23.941 2.09362L23.9221 2.09362L23.9032 2.09362L23.8844 2.09362L23.8656 2.09362L23.8469 2.09362L23.8282 2.09362L23.8095 2.09362L23.7909 2.09362L23.7723 2.09362L23.7538 2.09362L23.7352 2.09362L23.7168 2.09362L23.6983 2.09362L23.6799 2.09362L23.6616 2.09362L23.6433 2.09362L23.625 2.09362L23.6067 2.09362L23.5885 2.09362L23.5703 2.09362L23.5522 2.09362L23.5341 2.09362L23.516 2.09362L23.498 2.09362L23.48 2.09362L23.462 2.09362L23.4441 2.09362L23.4262 2.09362L23.4084 2.09362L23.3905 2.09362L23.3728 2.09362L23.355 2.09362L23.3373 2.09362L23.3196 2.09362L23.302 2.09362L23.2844 2.09362L23.2668 2.09362L23.2492 2.09362L23.2317 2.09362L23.2143 2.09362L23.1968 2.09362L23.1794 2.09362L23.162 2.09362L23.1447 2.09362L23.1274 2.09362L23.1101 2.09362L23.0928 2.09362L23.0756 2.09362L23.0584 2.09362L23.0413 2.09362L23.0242 2.09362L23.0071 2.09362L22.99 2.09362L22.973 2.09362L22.956 2.09362L22.9391 2.09362L22.9221 2.09362L22.9052 2.09362L22.8884 2.09362L22.8715 2.09362L22.8547 2.09362L22.8379 2.09362L22.8212 2.09362L22.8045 2.09362L22.7878 2.09362L22.7711 2.09362L22.7545 2.09362L22.7379 2.09362L22.7213 2.09362L22.7048 2.09362L22.6883 2.09362L22.6718 2.09362L22.6553 2.09362L22.6389 2.09362L22.6225 2.09362L22.6061 2.09362L22.5898 2.09362L22.5734 2.09362L22.5572 2.09362L22.5409 2.09362L22.5247 2.09362L22.5084 2.09362L22.4923 2.09362L22.4761 2.09362L22.46 2.09362L22.4439 2.09362L22.4278 2.09362L22.4117 2.09362L22.3957 2.09362L22.3797 2.09362L22.3637 2.09362L22.3478 2.09362L22.3319 2.09362L22.316 2.09362L22.3001 2.09362L22.2843 2.09362L22.2684 2.09362L22.2526 2.09362L22.2369 2.09362L22.2211 2.09362L22.2054 2.09362L22.1897 2.09362L22.174 2.09362L22.1583 2.09362L22.1427 2.09362L22.1271 2.09362L22.1115 2.09362L22.0959 2.09362L22.0804 2.09362L22.0649 2.09362L22.0494 2.09362L22.0339 2.09362L22.0185 2.09362L22.003 2.09362L21.9876 2.09362L21.9722 2.09362L21.9569 2.09362L21.9415 2.09362L21.9262 2.09362L21.9109 2.09362L21.8956 2.09362L21.8804 2.09362L21.8651 2.09362L21.8499 2.09362L21.8347 2.09362L21.8195 2.09362L21.8044 2.09362L21.7892 2.09362L21.7741 2.09362L21.759 2.09362L21.7439 2.09362L21.7289 2.09362L21.7138 2.09362L21.6988 2.09362L21.6838 2.09362L21.6688 2.09362L21.6538 2.09362L21.6389 2.09362L21.6239 2.09362L21.609 2.09362L21.5941 2.09362L21.5793 2.09362L21.5644 2.09362L21.5495 2.09362L21.5347 2.09362L21.5199 2.09362L21.5051 2.09362L21.4903 2.09362L21.4756 2.09362L21.4608 2.09362L21.4461 2.09362L21.4314 2.09362L21.4167 2.09362L21.402 2.09362L21.3873 2.09362L21.3727 2.09362L21.3581 2.09362L21.3434 2.09362L21.3288 2.09362L21.3142 2.09362L21.2997 2.09362L21.2851 2.09362L21.2706 2.09362L21.256 2.09362L21.2415 2.09362L21.227 2.09362L21.2125 2.09362L21.198 2.09362L21.1836 2.09362L21.1691 2.09362L21.1547 2.09362L21.1402 2.09362L21.1258 2.09362L21.1114 2.09362L21.097 2.09362L21.0827 2.09362L21.0683 2.09362L21.0539 2.09362L21.0396 2.09362L21.0253 2.09362L21.011 2.09362L20.9967 2.09362L20.9824 2.09362L20.9681 2.09362L20.9538 2.09362L20.9395 2.09362L20.9253 2.09362L20.911 2.09362L20.8968 2.09362L20.8826 2.09362L20.8684 2.09362L20.8542 2.09362L20.84 2.09362L20.8258 2.09362L20.8116 2.09362L20.7975 2.09362L20.7833 2.09362L20.7692 2.09362L20.755 2.09362L20.7409 2.09362L20.7268 2.09362L20.7127 2.09362L20.6986 2.09362L20.6845 2.09362L20.6704 2.09362L20.6563 2.09362L20.6422 2.09362L20.6281 2.09362L20.6141 2.09362L20.6 2.09362L20.586 2.09362L20.5719 2.09362L20.5579 2.09362L20.5439 2.09362L20.5299 2.09362L20.5158 2.09362L20.5018 2.09362L20.4878 2.09362L20.4738 2.09362L20.4598 2.09362L20.4458 2.09362L20.4319 2.09362L20.4179 2.09362L20.4039 2.09362L20.3899 2.09362L20.376 2.09362L20.362 2.09362L20.3481 2.09362L20.3341 2.09362L20.3202 2.09362L20.3062 2.09362L20.2923 2.09362L20.2783 2.09362L20.2644 2.09362L20.2505 2.09362L20.2365 2.09362L20.2226 2.09362L20.2087 2.09362L20.1948 2.09362L20.1808 2.09362L20.1669 2.09362L20.153 2.09362L20.1391 2.09362L20.1252 2.09362L20.1113 2.09362L20.0973 2.09362L20.0834 2.09362L20.0695 2.09362L20.0556 2.09362L20.0417 2.09362L20.0278 2.09362L20.0139 2.09362L20 2.09362L19.9861 2.09362L19.9722 2.09362L19.9583 2.09362L19.9444 2.09362L19.9305 2.09362L19.9166 2.09362L19.9027 2.09362L19.8887 2.09362L19.8748 2.09362L19.8609 2.09362L19.847 2.09362L19.8331 2.09362L19.8192 2.09362L19.8052 2.09362L19.7913 2.09362L19.7774 2.09362L19.7635 2.09362L19.7495 2.09362L19.7356 2.09362L19.7217 2.09362L19.7077 2.09362L19.6938 2.09362L19.6798 2.09362L19.6659 2.09362L19.6519 2.09362L19.638 2.09362L19.624 2.09362L19.6101 2.09362L19.5961 2.09362L19.5821 2.09362L19.5681 2.09362L19.5542 2.09362L19.5402 2.09362L19.5262 2.09362L19.5122 2.09362L19.4982 2.09362L19.4842 2.09362L19.4701 2.09362L19.4561 2.09362L19.4421 2.09362L19.4281 2.09362L19.414 2.09362L19.4 2.09362L19.3859 2.09362L19.3719 2.09362L19.3578 2.09362L19.3437 2.09362L19.3296 2.09362L19.3155 2.09362L19.3014 2.09362L19.2873 2.09362L19.2732 2.09362L19.2591 2.09362L19.245 2.09362L19.2308 2.09362L19.2167 2.09362L19.2025 2.09362L19.1884 2.09362L19.1742 2.09362L19.16 2.09362L19.1458 2.09362L19.1316 2.09362L19.1174 2.09362L19.1032 2.09362L19.089 2.09362L19.0747 2.09362L19.0605 2.09362L19.0462 2.09362L19.0319 2.09362L19.0176 2.09362L19.0033 2.09362L18.989 2.09362L18.9747 2.09362L18.9604 2.09362L18.9461 2.09362L18.9317 2.09362L18.9173 2.09362L18.903 2.09362L18.8886 2.09362L18.8742 2.09362L18.8598 2.09362L18.8453 2.09362L18.8309 2.09362L18.8164 2.09362L18.802 2.09362L18.7875 2.09362L18.773 2.09362L18.7585 2.09362L18.744 2.09362L18.7294 2.09362L18.7149 2.09362L18.7003 2.09362L18.6858 2.09362L18.6712 2.09362L18.6566 2.09362L18.6419 2.09362L18.6273 2.09362L18.6127 2.09362L18.598 2.09362L18.5833 2.09362L18.5686 2.09362L18.5539 2.09362L18.5392 2.09362L18.5244 2.09362L18.5097 2.09362L18.4949 2.09362L18.4801 2.09362L18.4653 2.09362L18.4505 2.09362L18.4356 2.09362L18.4207 2.09362L18.4059 2.09362L18.391 2.09362L18.3761 2.09362L18.3611 2.09362L18.3462 2.09362L18.3312 2.09362L18.3162 2.09362L18.3012 2.09362L18.2862 2.09362L18.2711 2.09362L18.2561 2.09362L18.241 2.09362L18.2259 2.09362L18.2108 2.09362L18.1956 2.09362L18.1805 2.09362L18.1653 2.09362L18.1501 2.09362L18.1349 2.09362L18.1196 2.09362L18.1044 2.09362L18.0891 2.09362L18.0738 2.09362L18.0585 2.09362L18.0431 2.09362L18.0278 2.09362L18.0124 2.09362L17.997 2.09362L17.9815 2.09362L17.9661 2.09362L17.9506 2.09362L17.9351 2.09362L17.9196 2.09362L17.9041 2.09362L17.8885 2.09362L17.8729 2.09362L17.8573 2.09362L17.8417 2.09362L17.826 2.09362L17.8103 2.09362L17.7946 2.09362L17.7789 2.09362L17.7631 2.09362L17.7474 2.09362L17.7316 2.09362L17.7157 2.09362L17.6999 2.09362L17.684 2.09362L17.6681 2.09362L17.6522 2.09362L17.6363 2.09362L17.6203 2.09362L17.6043 2.09362L17.5883 2.09362L17.5722 2.09362L17.5561 2.09362L17.54 2.09362L17.5239 2.09362L17.5077 2.09362L17.4916 2.09362L17.4753 2.09362L17.4591 2.09362L17.4428 2.09362L17.4266 2.09362L17.4102 2.09362L17.3939 2.09362L17.3775 2.09362L17.3611 2.09362L17.3447 2.09362L17.3282 2.09362L17.3117 2.09362L17.2952 2.09362L17.2787 2.09362L17.2621 2.09362L17.2455 2.09362L17.2289 2.09362L17.2122 2.09362L17.1955 2.09362L17.1788 2.09362L17.1621 2.09362L17.1453 2.09362L17.1285 2.09362L17.1116 2.09362L17.0948 2.09362L17.0779 2.09362L17.0609 2.09362L17.044 2.09362L17.027 2.09362L17.01 2.09362L16.9929 2.09362L16.9758 2.09362L16.9587 2.09362L16.9416 2.09362L16.9244 2.09362L16.9072 2.09362L16.8899 2.09362L16.8726 2.09362L16.8553 2.09362L16.838 2.09362L16.8206 2.09362L16.8032 2.09362L16.7857 2.09362L16.7683 2.09362L16.7508 2.09362L16.7332 2.09362L16.7156 2.09362L16.698 2.09362L16.6804 2.09362L16.6627 2.09362L16.645 2.09362L16.6272 2.09362L16.6095 2.09362L16.5916 2.09362L16.5738 2.09362L16.5559 2.09362L16.538 2.09362L16.52 2.09362L16.502 2.09362L16.484 2.09362L16.4659 2.09362L16.4478 2.09362L16.4297 2.09362L16.4115 2.09362L16.3933 2.09362L16.375 2.09362L16.3567 2.09362L16.3384 2.09362L16.3201 2.09362L16.3017 2.09362L16.2832 2.09362L16.2648 2.09362L16.2462 2.09362L16.2277 2.09362L16.2091 2.09362L16.1905 2.09362L16.1718 2.09362L16.1531 2.09362L16.1344 2.09362L16.1156 2.09362L16.0968 2.09362L16.0779 2.09362L16.059 2.09362L16.0401 2.09362L16.0211 2.09362L16.0021 2.09362C14.9491 2.09362 14.0936 2.94726 14.0936 4Z" fill="#AADEFF" fill-opacity="0.75" stroke="url(#paint2_linear_1737_29417)" stroke-width="0.187249"/>
<path d="M27.1314 11.2326C27.6781 11.7793 28.5646 11.7793 29.1113 11.2326L31.2326 9.11126C31.7793 8.56453 31.7793 7.6781 31.2326 7.13136C30.6859 6.58466 29.7991 6.58495 29.2524 7.13171L29.2476 7.13643L29.2429 7.14115L29.2382 7.14585L29.2335 7.15055L29.2288 7.15525L29.2241 7.15993L29.2195 7.16461L29.2148 7.16929L29.2101 7.17395L29.2055 7.17861L29.2008 7.18326L29.1962 7.18791L29.1915 7.19255L29.1869 7.19719L29.1823 7.20181L29.1776 7.20643L29.173 7.21105L29.1684 7.21566L29.1638 7.22026L29.1592 7.22485L29.1546 7.22944L29.15 7.23403L29.1455 7.2386L29.1409 7.24317L29.1363 7.24774L29.1318 7.2523L29.1272 7.25685L29.1227 7.26139L29.1181 7.26593L29.1136 7.27047L29.1091 7.275L29.1046 7.27952L29.1 7.28403L29.0955 7.28854L29.091 7.29305L29.0865 7.29755L29.082 7.30204L29.0775 7.30652L29.0731 7.31101L29.0686 7.31548L29.0641 7.31995L29.0597 7.32441L29.0552 7.32887L29.0507 7.33332L29.0463 7.33777L29.0419 7.34221L29.0374 7.34665L29.033 7.35107L29.0286 7.3555L29.0242 7.35992L29.0197 7.36433L29.0153 7.36874L29.0109 7.37314L29.0065 7.37754L29.0021 7.38193L28.9978 7.38632L28.9934 7.3907L28.989 7.39507L28.9846 7.39944L28.9803 7.40381L28.9759 7.40817L28.9715 7.41252L28.9672 7.41687L28.9629 7.42121L28.9585 7.42555L28.9542 7.42989L28.9499 7.43422L28.9455 7.43854L28.9412 7.44286L28.9369 7.44717L28.9326 7.45148L28.9283 7.45579L28.924 7.46009L28.9197 7.46438L28.9154 7.46867L28.9111 7.47296L28.9068 7.47724L28.9026 7.48151L28.8983 7.48578L28.894 7.49005L28.8898 7.49431L28.8855 7.49856L28.8813 7.50282L28.877 7.50706L28.8728 7.51131L28.8685 7.51554L28.8643 7.51978L28.8601 7.52401L28.8558 7.52823L28.8516 7.53245L28.8474 7.53667L28.8432 7.54088L28.839 7.54508L28.8348 7.54929L28.8306 7.55348L28.8264 7.55768L28.8222 7.56187L28.818 7.56605L28.8138 7.57023L28.8097 7.57441L28.8055 7.57858L28.8013 7.58275L28.7971 7.58692L28.793 7.59108L28.7888 7.59524L28.7847 7.59939L28.7805 7.60354L28.7764 7.60768L28.7722 7.61182L28.7681 7.61596L28.764 7.62009L28.7598 7.62422L28.7557 7.62835L28.7516 7.63247L28.7475 7.63658L28.7434 7.6407L28.7393 7.64481L28.7352 7.64891L28.7311 7.65302L28.727 7.65712L28.7229 7.66121L28.7188 7.6653L28.7147 7.66939L28.7106 7.67348L28.7065 7.67756L28.7024 7.68164L28.6984 7.68571L28.6943 7.68978L28.6902 7.69385L28.6862 7.69791L28.6821 7.70197L28.678 7.70603L28.674 7.71008L28.6699 7.71414L28.6659 7.71818L28.6618 7.72223L28.6578 7.72627L28.6538 7.73031L28.6497 7.73434L28.6457 7.73837L28.6417 7.7424L28.6376 7.74643L28.6336 7.75045L28.6296 7.75447L28.6256 7.75849L28.6216 7.7625L28.6176 7.76651L28.6136 7.77052L28.6095 7.77452L28.6055 7.77852L28.6015 7.78252L28.5975 7.78652L28.5936 7.79051L28.5896 7.7945L28.5856 7.79849L28.5816 7.80248L28.5776 7.80646L28.5736 7.81044L28.5696 7.81442L28.5657 7.81839L28.5617 7.82237L28.5577 7.82634L28.5538 7.8303L28.5498 7.83427L28.5458 7.83823L28.5419 7.84219L28.5379 7.84615L28.534 7.8501L28.53 7.85406L28.5261 7.85801L28.5221 7.86196L28.5182 7.8659L28.5142 7.86985L28.5103 7.87379L28.5063 7.87773L28.5024 7.88166L28.4985 7.8856L28.4945 7.88953L28.4906 7.89346L28.4867 7.89739L28.4827 7.90132L28.4788 7.90524L28.4749 7.90917L28.471 7.91309L28.4671 7.91701L28.4631 7.92092L28.4592 7.92484L28.4553 7.92875L28.4514 7.93267L28.4475 7.93658L28.4436 7.94048L28.4397 7.94439L28.4358 7.94829L28.4319 7.9522L28.428 7.9561L28.4241 7.96L28.4202 7.9639L28.4163 7.96779L28.4124 7.97169L28.4085 7.97558L28.4046 7.97947L28.4007 7.98337L28.3968 7.98725L28.3929 7.99114L28.389 7.99503L28.3852 7.99891L28.3813 8.0028L28.3774 8.00668L28.3735 8.01056L28.3696 8.01444L28.3657 8.01832L28.3619 8.0222L28.358 8.02607L28.3541 8.02995L28.3502 8.03382L28.3464 8.03769L28.3425 8.04157L28.3386 8.04544L28.3348 8.04931L28.3309 8.05318L28.327 8.05704L28.3232 8.06091L28.3193 8.06478L28.3154 8.06864L28.3116 8.07251L28.3077 8.07637L28.3038 8.08023L28.3 8.08409L28.2961 8.08796L28.2923 8.09182L28.2884 8.09568L28.2845 8.09953L28.2807 8.10339L28.2768 8.10725L28.273 8.11111L28.2691 8.11496L28.2652 8.11882L28.2614 8.12268L28.2575 8.12653L28.2537 8.13039L28.2498 8.13424L28.246 8.13809L28.2421 8.14195L28.2383 8.1458L28.2344 8.14965L28.2306 8.15351L28.2267 8.15736L28.2229 8.16121L28.219 8.16506L28.2152 8.16891L28.2113 8.17277L28.2075 8.17662L28.2036 8.18047L28.1997 8.18432L28.1959 8.18817L28.192 8.19202L28.1882 8.19587L28.1843 8.19972L28.1805 8.20357L28.1766 8.20743L28.1728 8.21128L28.1689 8.21513L28.1651 8.21898L28.1612 8.22283L28.1574 8.22668L28.1535 8.23054L28.1497 8.23439L28.1458 8.23824L28.142 8.24209L28.1381 8.24595L28.1343 8.2498L28.1304 8.25366L28.1266 8.25751L28.1227 8.26137L28.1188 8.26522L28.115 8.26908L28.1111 8.27293L28.1073 8.27679L28.1034 8.28065L28.0996 8.28451L28.0957 8.28837L28.0918 8.29223L28.088 8.29609L28.0841 8.29995L28.0803 8.30381L28.0764 8.30767L28.0725 8.31154L28.0687 8.3154L28.0648 8.31927L28.0609 8.32313L28.0571 8.327L28.0532 8.33087L28.0493 8.33474L28.0455 8.3386L28.0416 8.34248L28.0377 8.34635L28.0338 8.35022L28.03 8.35409L28.0261 8.35797L28.0222 8.36185L28.0183 8.36572L28.0145 8.3696L28.0106 8.37348L28.0067 8.37736L28.0028 8.38125L27.9989 8.38513L27.9951 8.38901L27.9912 8.3929L27.9873 8.39679L27.9834 8.40068L27.9795 8.40457L27.9756 8.40846L27.9717 8.41235L27.9678 8.41625L27.9639 8.42014L27.96 8.42404L27.9561 8.42794L27.9522 8.43184L27.9483 8.43575L27.9444 8.43965L27.9405 8.44356L27.9366 8.44747L27.9327 8.45138L27.9288 8.45529L27.9249 8.4592L27.921 8.46312L27.917 8.46703L27.9131 8.47095L27.9092 8.47487L27.9053 8.4788L27.9013 8.48272L27.8974 8.48665L27.8935 8.49058L27.8896 8.49451L27.8856 8.49844L27.8817 8.50238L27.8778 8.50631L27.8738 8.51025L27.8699 8.5142L27.8659 8.51814L27.862 8.52209L27.858 8.52603L27.8541 8.52999L27.8501 8.53394L27.8462 8.53789L27.8422 8.54185L27.8383 8.54581L27.8343 8.54977L27.8303 8.55374L27.8264 8.55771L27.8224 8.56168L27.8184 8.56565L27.8144 8.56962L27.8105 8.5736L27.8065 8.57758L27.8025 8.58156L27.7985 8.58555L27.7945 8.58954L27.7905 8.59353L27.7865 8.59752L27.7825 8.60152L27.7786 8.60552L27.7745 8.60952L27.7705 8.61352L27.7665 8.61753L27.7625 8.62154L27.7585 8.62556L27.7545 8.62957L27.7505 8.63359L27.7465 8.63762L27.7424 8.64164L27.7384 8.64567L27.7344 8.6497L27.7303 8.65374L27.7263 8.65777L27.7223 8.66182L27.7182 8.66586L27.7142 8.66991L27.7101 8.67396L27.7061 8.67801L27.702 8.68207L27.6979 8.68613L27.6939 8.69019L27.6898 8.69426L27.6857 8.69833L27.6817 8.70241L27.6776 8.70648L27.6735 8.71057L27.6694 8.71465L27.6653 8.71874L27.6612 8.72283L27.6571 8.72693L27.653 8.73102L27.6489 8.73513L27.6448 8.73923L27.6407 8.74334L27.6366 8.74746L27.6325 8.75158L27.6284 8.7557L27.6242 8.75982L27.6201 8.76395L27.616 8.76808L27.6118 8.77222L27.6077 8.77636L27.6036 8.78051L27.5994 8.78465L27.5953 8.78881L27.5911 8.79296L27.5869 8.79712L27.5828 8.80129L27.5786 8.80546L27.5744 8.80963L27.5703 8.81381L27.5661 8.81799L27.5619 8.82217L27.5577 8.82636L27.5535 8.83056L27.5493 8.83476L27.5451 8.83896L27.5409 8.84317L27.5367 8.84738L27.5325 8.85159L27.5283 8.85581L27.524 8.86004L27.5198 8.86427L27.5156 8.8685L27.5113 8.87274L27.5071 8.87698L27.5028 8.88123L27.4986 8.88548L27.4943 8.88973L27.4901 8.894L27.4858 8.89826L27.4815 8.90253L27.4773 8.90681L27.473 8.91109L27.4687 8.91537L27.4644 8.91966L27.4601 8.92396L27.4558 8.92825L27.4515 8.93256L27.4472 8.93687L27.4429 8.94118L27.4386 8.9455L27.4342 8.94983L27.4299 8.95415L27.4256 8.95849L27.4212 8.96283L27.4169 8.96717L27.4125 8.97152L27.4082 8.97588L27.4038 8.98024L27.3995 8.9846L27.3951 8.98897L27.3907 8.99335L27.3863 8.99773L27.382 9.00211L27.3776 9.0065L27.3732 9.0109L27.3688 9.0153L27.3644 9.01971L27.3599 9.02412L27.3555 9.02854L27.3511 9.03297L27.3467 9.0374L27.3422 9.04183L27.3378 9.04627L27.3333 9.05072L27.3289 9.05517L27.3244 9.05963L27.32 9.06409L27.3155 9.06856L27.311 9.07304L27.3066 9.07752L27.3021 9.082L27.2976 9.0865L27.2931 9.09099L27.2886 9.0955L27.2841 9.10001L27.2795 9.10452L27.275 9.10905L27.2705 9.11357L27.266 9.11811L27.2614 9.12265L27.2569 9.12719L27.2523 9.13175L27.2478 9.1363L27.2432 9.14087L27.2386 9.14544L27.2341 9.15002L27.2295 9.1546L27.2249 9.15919L27.2203 9.16378L27.2157 9.16839L27.2111 9.17299L27.2065 9.17761L27.2018 9.18223L27.1972 9.18686L27.1926 9.19149L27.1879 9.19613L27.1833 9.20078L27.1786 9.20543L27.174 9.21009L27.1693 9.21476L27.1646 9.21943L27.16 9.22411L27.1553 9.2288L27.1506 9.23349L27.1459 9.23819L27.1412 9.2429L27.1365 9.24761L27.1317 9.25233C26.585 9.79909 26.5847 10.6859 27.1314 11.2326Z" fill="#AADEFF" fill-opacity="0.75" stroke="url(#paint3_linear_1737_29417)" stroke-width="0.2"/>
<path d="M18.6 20.5C18.6 21.2732 19.2268 21.9 20 21.9C20.7732 21.9 21.4 21.2732 21.4 20.5L21.4 13.5C21.4 12.7268 20.7732 12.1 20 12.1C19.2268 12.1 18.6 12.7268 18.6 13.5L18.6 20.5Z" fill="url(#paint4_linear_1737_29417)" stroke="url(#paint5_linear_1737_29417)" stroke-width="0.2"/>
<defs>
<linearGradient id="paint0_linear_1737_29417" x1="6" y1="16" x2="26.2397" y2="38.7018" gradientUnits="userSpaceOnUse">
<stop stop-color="#80CCFE"/>
<stop offset="1" stop-color="#009AFE"/>
</linearGradient>
<linearGradient id="paint1_linear_1737_29417" x1="6.28572" y1="31.8182" x2="40.1996" y2="14.3076" gradientUnits="userSpaceOnUse">
<stop stop-color="white"/>
<stop offset="1" stop-color="white" stop-opacity="0"/>
</linearGradient>
<linearGradient id="paint2_linear_1737_29417" x1="13.1429" y1="5.63636" x2="19.461" y2="-4.15033" gradientUnits="userSpaceOnUse">
<stop stop-color="white"/>
<stop offset="1" stop-color="white" stop-opacity="0"/>
</linearGradient>
<linearGradient id="paint3_linear_1737_29417" x1="27.6254" y1="12.4742" x2="27.5055" y2="5.0046" gradientUnits="userSpaceOnUse">
<stop stop-color="white"/>
<stop offset="1" stop-color="white" stop-opacity="0"/>
</linearGradient>
<linearGradient id="paint4_linear_1737_29417" x1="18.5" y1="17" x2="21.4973" y2="17.0902" gradientUnits="userSpaceOnUse">
<stop stop-color="white" stop-opacity="0.9"/>
<stop offset="1" stop-color="white" stop-opacity="0.3"/>
</linearGradient>
<linearGradient id="paint5_linear_1737_29417" x1="18.2857" y1="21.0909" x2="23.5293" y2="20.2787" gradientUnits="userSpaceOnUse">
<stop stop-color="white"/>
<stop offset="1" stop-color="white" stop-opacity="0"/>
</linearGradient>
</defs>
</svg>
