<svg width="40" height="40" viewBox="0 0 40 40" fill="none" xmlns="http://www.w3.org/2000/svg">
<path d="M4 8C4 5.79086 5.79086 4 8 4H32C34.2091 4 36 5.79086 36 8V13C36 13.5523 35.5523 14 35 14H5C4.44772 14 4 13.5523 4 13V8Z" fill="url(#paint0_linear_2315_33386)"/>
<path d="M4.08886 12C4.08886 9.83994 5.83994 8.08886 8 8.08886H32C34.1601 8.08886 35.9111 9.83994 35.9111 12V32C35.9111 34.1601 34.1601 35.9111 32 35.9111H8C5.83994 35.9111 4.08886 34.1601 4.08886 32V12Z" fill="#6AE092" fill-opacity="0.75" stroke="url(#paint1_linear_2315_33386)" stroke-width="0.177717"/>
<path d="M10.1 20.5C10.1 19.7268 10.7268 19.1 11.5 19.1H30.5C31.2732 19.1 31.9 19.7268 31.9 20.5C31.9 21.2732 31.2732 21.9 30.5 21.9H11.5C10.7268 21.9 10.1 21.2732 10.1 20.5Z" fill="url(#paint2_linear_2315_33386)" stroke="url(#paint3_linear_2315_33386)" stroke-width="0.2"/>
<path d="M9.01965 5.08661C9.92841 4.56193 11.0904 4.8733 11.6151 5.78205L13.3012 8.70244C13.8259 9.6112 13.5145 10.7732 12.6057 11.2979L11.3681 12.0124C10.4594 12.5371 9.29736 12.2257 8.77269 11.317L7.08661 8.39658C6.56194 7.48783 6.8733 6.32581 7.78205 5.80113L9.01965 5.08661Z" fill="url(#paint4_linear_2315_33386)" stroke="url(#paint5_linear_2315_33386)" stroke-width="0.2"/>
<path d="M10.1 26.5C10.1 25.7268 10.7268 25.1 11.5 25.1H19.5C20.2732 25.1 20.9 25.7268 20.9 26.5C20.9 27.2732 20.2732 27.9 19.5 27.9H11.5C10.7268 27.9 10.1 27.2732 10.1 26.5Z" fill="url(#paint6_linear_2315_33386)" stroke="url(#paint7_linear_2315_33386)" stroke-width="0.2"/>
<defs>
<linearGradient id="paint0_linear_2315_33386" x1="11.1169" y1="7.5534" x2="17.2406" y2="24.7594" gradientUnits="userSpaceOnUse">
<stop stop-color="#75EDA1"/>
<stop offset="1" stop-color="#349256"/>
</linearGradient>
<linearGradient id="paint1_linear_2315_33386" x1="1.71429" y1="10.5455" x2="44.1956" y2="35.6132" gradientUnits="userSpaceOnUse">
<stop stop-color="white"/>
<stop offset="1" stop-color="white" stop-opacity="0"/>
</linearGradient>
<linearGradient id="paint2_linear_2315_33386" x1="10" y1="20.5" x2="24.2699" y2="9.99724" gradientUnits="userSpaceOnUse">
<stop stop-color="white" stop-opacity="0.9"/>
<stop offset="1" stop-color="white" stop-opacity="0.3"/>
</linearGradient>
<linearGradient id="paint3_linear_2315_33386" x1="8.42857" y1="19.2727" x2="10.996" y2="28.9939" gradientUnits="userSpaceOnUse">
<stop stop-color="white"/>
<stop offset="1" stop-color="white" stop-opacity="0"/>
</linearGradient>
<linearGradient id="paint4_linear_2315_33386" x1="8.35084" y1="5.35726" x2="12.824" y2="11.1321" gradientUnits="userSpaceOnUse">
<stop stop-color="white" stop-opacity="0.9"/>
<stop offset="1" stop-color="white" stop-opacity="0.3"/>
</linearGradient>
<linearGradient id="paint5_linear_2315_33386" x1="6.23712" y1="5.42586" x2="16.4018" y2="10.1853" gradientUnits="userSpaceOnUse">
<stop stop-color="white"/>
<stop offset="1" stop-color="white" stop-opacity="0"/>
</linearGradient>
<linearGradient id="paint6_linear_2315_33386" x1="10" y1="26.5" x2="19.688" y2="22.9348" gradientUnits="userSpaceOnUse">
<stop stop-color="white" stop-opacity="0.9"/>
<stop offset="1" stop-color="white" stop-opacity="0.3"/>
</linearGradient>
<linearGradient id="paint7_linear_2315_33386" x1="9.21429" y1="25.2727" x2="13.509" y2="33.4034" gradientUnits="userSpaceOnUse">
<stop stop-color="white"/>
<stop offset="1" stop-color="white" stop-opacity="0"/>
</linearGradient>
</defs>
</svg>
