<svg width="40" height="40" viewBox="0 0 40 40" fill="none" xmlns="http://www.w3.org/2000/svg">
<path d="M37 19C37.5523 19 38 19.4477 38 20V29C38 29.5523 37.5523 30 37 30H3.00003C2.44775 30 2.00003 29.5523 2.00003 29V19C2.00003 18.4477 2.44775 18 3.00003 18H12C12.5523 18 13 17.5523 13 17V12C13 11.4477 13.4477 11 14 11H26C26.5523 11 27 11.4477 27 12V18C27 18.5523 27.4477 19 28 19H37Z" fill="url(#paint0_linear_7049_5892)"/>
<path d="M19.1 15V14.9L19 14.9C18.503 14.9 18.1 14.4971 18.1 14C18.1 13.5029 18.503 13.1 19 13.1H20C20.4971 13.1 20.9 13.5029 20.9 14L20.9 18V18.1L21 18.1C21.497 18.1002 21.9 18.5031 21.9 19C21.9 19.4971 21.4971 19.9 21 19.9L19 19.9C18.503 19.9 18.1 19.4971 18.1 19C18.1 18.5031 18.5031 18.1002 19.0001 18.1L19.1 18.1V18L19.1 15Z" fill="url(#paint1_linear_7049_5892)" stroke="url(#paint2_linear_7049_5892)" stroke-width="0.2"/>
<path d="M8.10003 23L8.10003 22.9H8.00003L6.00003 22.9C5.50297 22.9 5.10003 22.4971 5.10003 22C5.10003 21.503 5.50363 21.1 6.00079 21.1H8.99927C9.49643 21.1 9.90003 21.503 9.90003 22L9.90003 24C9.90003 24.4971 9.49709 24.9 9.00003 24.9L7.00003 24.9L6.90003 24.9V25L6.90003 26V26.1H7.00003L8.99927 26.1C9.49643 26.1 9.90003 26.503 9.90003 27C9.90003 27.4971 9.49709 27.9 9.00003 27.9L6.00003 27.9C5.50297 27.9 5.10003 27.4971 5.10003 27V25C5.10003 24.5029 5.50297 24.1 6.00003 24.1H8.00003H8.10003V24L8.10003 23Z" fill="url(#paint3_linear_7049_5892)" stroke="url(#paint4_linear_7049_5892)" stroke-width="0.2"/>
<circle cx="29.5" cy="25.5" r="8.4" fill="#6AE092" fill-opacity="0.75" stroke="url(#paint5_linear_7049_5892)" stroke-width="0.2"/>
<path d="M28.5151 27.8991L28.5858 27.9699L28.6565 27.8991L33.6046 22.951C33.9563 22.5993 34.5278 22.5981 34.8791 22.9494C35.2305 23.3009 35.2305 23.8707 34.8791 24.2222L29.2222 29.879C29.2002 29.9011 29.1773 29.9217 29.1538 29.9409C28.8004 30.2292 28.2789 30.2085 27.9494 29.879L25.121 27.0506C24.7695 26.6991 24.7695 26.1293 25.121 25.7778C25.4724 25.4264 26.0429 25.427 26.3945 25.7785L28.5151 27.8991Z" fill="url(#paint6_linear_7049_5892)" stroke="url(#paint7_linear_7049_5892)" stroke-width="0.2"/>
<defs>
<linearGradient id="paint0_linear_7049_5892" x1="3.08556" y1="17.2508" x2="29.0484" y2="35.1555" gradientUnits="userSpaceOnUse">
<stop stop-color="#75EDA1"/>
<stop offset="1" stop-color="#349256"/>
</linearGradient>
<linearGradient id="paint1_linear_7049_5892" x1="17" y1="19" x2="22.5013" y2="20.6564" gradientUnits="userSpaceOnUse">
<stop stop-color="white" stop-opacity="0.9"/>
<stop offset="1" stop-color="white" stop-opacity="0.3"/>
</linearGradient>
<linearGradient id="paint2_linear_7049_5892" x1="17.7143" y1="13.6364" x2="24.3002" y2="15.5795" gradientUnits="userSpaceOnUse">
<stop stop-color="white"/>
<stop offset="1" stop-color="white" stop-opacity="0"/>
</linearGradient>
<linearGradient id="paint3_linear_7049_5892" x1="5.00003" y1="26" x2="6.98008" y2="26.1987" gradientUnits="userSpaceOnUse">
<stop stop-color="white" stop-opacity="0.9"/>
<stop offset="1" stop-color="white" stop-opacity="0.3"/>
</linearGradient>
<linearGradient id="paint4_linear_7049_5892" x1="4.64289" y1="21.6364" x2="12.5204" y2="24.5416" gradientUnits="userSpaceOnUse">
<stop stop-color="white"/>
<stop offset="1" stop-color="white" stop-opacity="0"/>
</linearGradient>
<linearGradient id="paint5_linear_7049_5892" x1="19.7857" y1="18.5455" x2="43.8081" y2="30.9488" gradientUnits="userSpaceOnUse">
<stop stop-color="white"/>
<stop offset="1" stop-color="white" stop-opacity="0"/>
</linearGradient>
<linearGradient id="paint6_linear_7049_5892" x1="34.9497" y1="22.8787" x2="32.1358" y2="31.3619" gradientUnits="userSpaceOnUse">
<stop stop-color="white" stop-opacity="0.9"/>
<stop offset="1" stop-color="white" stop-opacity="0.3"/>
</linearGradient>
<linearGradient id="paint7_linear_7049_5892" x1="24.0084" y1="23.2826" x2="36.5191" y2="32.1293" gradientUnits="userSpaceOnUse">
<stop stop-color="white"/>
<stop offset="1" stop-color="white" stop-opacity="0"/>
</linearGradient>
</defs>
</svg>
