<svg width="40" height="40" viewBox="0 0 40 40" fill="none" xmlns="http://www.w3.org/2000/svg">
<rect width="40" height="40" rx="4" fill="white"/>
<path d="M6 10C6 7.79086 7.79086 6 10 6H26C28.2091 6 30 7.79086 30 10V32C30 34.2091 28.2091 36 26 36H10C7.79086 36 6 34.2091 6 32V10Z" fill="url(#paint0_linear_6250_18429)"/>
<circle cx="27.5" cy="25.3964" r="8.4" fill="#6AE092" fill-opacity="0.75" stroke="url(#paint1_linear_6250_18429)" stroke-width="0.2"/>
<path d="M33.7338 30.568L33.7337 30.5683C33.6703 30.7657 33.4781 30.9 33.2654 30.9H24.3858C22.9455 30.9 21.8625 29.5666 22.145 28.1346L23.9074 20.0253C23.9886 19.6518 24.2984 19.373 24.6759 19.3327L26.8104 19.105C27.1591 19.0678 27.4967 19.2418 27.6701 19.5488L28.1097 20.3267C28.3324 20.721 28.2236 21.2204 27.8579 21.485L26.7891 22.2582C26.7103 22.3153 26.635 22.3262 26.5526 22.3076C26.4642 22.2877 26.3651 22.233 26.2496 22.1496C26.1621 22.0865 26.0718 22.012 25.9742 21.9314C25.9432 21.9059 25.9115 21.8797 25.8788 21.8531C25.7455 21.7443 25.6004 21.6308 25.4432 21.5345L25.1856 21.3767L25.2982 21.657C25.3141 21.6968 25.3487 21.8334 25.3957 22.0937C25.442 22.3497 25.499 22.7168 25.5616 23.2099C25.6869 24.1961 25.8347 25.6844 25.9648 27.7918C25.9748 27.9534 26.1657 28.0425 26.2949 27.9389C26.5659 27.7216 27.1681 27.2619 27.8867 26.857C28.6084 26.4503 29.433 26.1074 30.1524 26.1074C31.0789 26.1074 31.9962 26.5072 32.6929 27.1157C33.3902 27.7246 33.8559 28.5329 33.896 29.3401C33.9163 29.7713 33.8583 30.1845 33.7338 30.568Z" fill="url(#paint2_linear_6250_18429)" stroke="url(#paint3_linear_6250_18429)" stroke-width="0.2"/>
<path d="M16.2166 10.1C17.1358 10.1 17.9 10.9396 17.9 12C17.9 13.0604 17.1358 13.9 16.2166 13.9L11.7834 13.9C10.8642 13.9 10.1 13.0604 10.1 12C10.1 10.9396 10.8642 10.1 11.7834 10.1L16.2166 10.1Z" fill="#6AE092" fill-opacity="0.75" stroke="url(#paint4_linear_6250_18429)" stroke-width="0.2"/>
<path d="M16.2166 16.1C17.1358 16.1 17.9 16.9396 17.9 18C17.9 19.0604 17.1358 19.9 16.2166 19.9L11.7834 19.9C10.8642 19.9 10.1 19.0604 10.1 18C10.1 16.9396 10.8642 16.1 11.7834 16.1L16.2166 16.1Z" fill="#6AE092" fill-opacity="0.75" stroke="url(#paint5_linear_6250_18429)" stroke-width="0.2"/>
<defs>
<linearGradient id="paint0_linear_6250_18429" x1="6.72369" y1="15.8697" x2="30.2678" y2="22.7252" gradientUnits="userSpaceOnUse">
<stop stop-color="#75EDA1"/>
<stop offset="1" stop-color="#349256"/>
</linearGradient>
<linearGradient id="paint1_linear_6250_18429" x1="17.7857" y1="18.4418" x2="41.8081" y2="30.8452" gradientUnits="userSpaceOnUse">
<stop stop-color="white"/>
<stop offset="1" stop-color="white" stop-opacity="0"/>
</linearGradient>
<linearGradient id="paint2_linear_6250_18429" x1="30.663" y1="29.8205" x2="28.8548" y2="16.87" gradientUnits="userSpaceOnUse">
<stop stop-color="white" stop-opacity="0.9"/>
<stop offset="1" stop-color="white" stop-opacity="0.3"/>
</linearGradient>
<linearGradient id="paint3_linear_6250_18429" x1="21.1429" y1="20.0909" x2="38.0998" y2="28.8462" gradientUnits="userSpaceOnUse">
<stop stop-color="white"/>
<stop offset="1" stop-color="white" stop-opacity="0"/>
</linearGradient>
<linearGradient id="paint4_linear_6250_18429" x1="9.42857" y1="10.3636" x2="16.3578" y2="17.5191" gradientUnits="userSpaceOnUse">
<stop stop-color="white"/>
<stop offset="1" stop-color="white" stop-opacity="0"/>
</linearGradient>
<linearGradient id="paint5_linear_6250_18429" x1="9.42857" y1="16.3636" x2="16.3578" y2="23.5191" gradientUnits="userSpaceOnUse">
<stop stop-color="white"/>
<stop offset="1" stop-color="white" stop-opacity="0"/>
</linearGradient>
</defs>
</svg>
