<svg width="40" height="40" viewBox="0 0 40 40" fill="none" xmlns="http://www.w3.org/2000/svg">
<path d="M2 10C2 7.79086 3.79086 6 6 6H28C30.2091 6 32 7.79086 32 10V24C32 26.2091 30.2091 28 28 28H6C3.79086 28 2 26.2091 2 24V10Z" fill="url(#paint0_linear_2315_33689)"/>
<path d="M12 12.1H34C36.1539 12.1 37.9 13.8461 37.9 16V30C37.9 32.1539 36.1539 33.9 34 33.9H12C9.84609 33.9 8.1 32.1539 8.1 30V16C8.1 13.8461 9.84609 12.1 12 12.1Z" fill="#FFB7B5" fill-opacity="0.9" stroke="url(#paint1_linear_2315_33689)" stroke-width="0.2"/>
<path d="M19.1 27.0347V18.6921C19.1 17.1832 20.7741 16.2764 22.0379 17.1006L28.0342 21.0112C29.1437 21.7349 29.1909 23.3433 28.1256 24.1306L22.1293 28.5627C20.8752 29.4896 19.1 28.5943 19.1 27.0347Z" fill="url(#paint2_linear_2315_33689)" stroke="url(#paint3_linear_2315_33689)" stroke-width="0.2"/>
<defs>
<linearGradient id="paint0_linear_2315_33689" x1="7.40697" y1="22.1609" x2="33.0368" y2="35.3885" gradientUnits="userSpaceOnUse">
<stop stop-color="#FF8383"/>
<stop offset="1" stop-color="#F52828"/>
</linearGradient>
<linearGradient id="paint1_linear_2315_33689" x1="5.85714" y1="14" x2="41.7552" y2="39.2752" gradientUnits="userSpaceOnUse">
<stop stop-color="white"/>
<stop offset="1" stop-color="white" stop-opacity="0"/>
</linearGradient>
<linearGradient id="paint2_linear_2315_33689" x1="19" y1="23.5" x2="29.9538" y2="22.7886" gradientUnits="userSpaceOnUse">
<stop stop-color="white" stop-opacity="0.9"/>
<stop offset="1" stop-color="white" stop-opacity="0.3"/>
</linearGradient>
<linearGradient id="paint3_linear_2315_33689" x1="18.286" y1="17.8115" x2="33.5169" y2="24.177" gradientUnits="userSpaceOnUse">
<stop stop-color="white"/>
<stop offset="1" stop-color="white" stop-opacity="0"/>
</linearGradient>
</defs>
</svg>
