<svg width="25" height="25" viewBox="0 0 25 25" fill="none" xmlns="http://www.w3.org/2000/svg">
<path fill-rule="evenodd" clip-rule="evenodd" d="M1.5 3.5C1.5 2.94772 1.94772 2.5 2.5 2.5H22.5C23.0523 2.5 23.5 2.94772 23.5 3.5V18.5C23.5 19.0523 23.0523 19.5 22.5 19.5H15.4142L13.2071 21.7071C12.8166 22.0976 12.1834 22.0976 11.7929 21.7071L9.58579 19.5H2.5C1.94772 19.5 1.5 19.0523 1.5 18.5V3.5ZM12 10C11.4477 10 11 10.4477 11 11C11 11.5523 11.4477 12 12 12H13.0013C13.5535 12 14.0013 11.5523 14.0013 11C14.0013 10.4477 13.5535 10 13.0013 10H12ZM16.0005 11C16.0005 10.4477 16.4483 10 17.0005 10H18C18.5523 10 19 10.4477 19 11C19 11.5523 18.5523 12 18 12H17.0005C16.4483 12 16.0005 11.5523 16.0005 11ZM7.00049 10C6.4482 10 6.00049 10.4477 6.00049 11C6.00049 11.5523 6.4482 12 7.00049 12H7.99994C8.55222 12 8.99994 11.5523 8.99994 11C8.99994 10.4477 8.55222 10 7.99994 10H7.00049Z" fill="#8B8B8B"/>
<path fill-rule="evenodd" clip-rule="evenodd" d="M1.5 3.5C1.5 2.94772 1.94772 2.5 2.5 2.5H22.5C23.0523 2.5 23.5 2.94772 23.5 3.5V18.5C23.5 19.0523 23.0523 19.5 22.5 19.5H15.4142L13.2071 21.7071C12.8166 22.0976 12.1834 22.0976 11.7929 21.7071L9.58579 19.5H2.5C1.94772 19.5 1.5 19.0523 1.5 18.5V3.5ZM12 10C11.4477 10 11 10.4477 11 11C11 11.5523 11.4477 12 12 12H13.0013C13.5535 12 14.0013 11.5523 14.0013 11C14.0013 10.4477 13.5535 10 13.0013 10H12ZM16.0005 11C16.0005 10.4477 16.4483 10 17.0005 10H18C18.5523 10 19 10.4477 19 11C19 11.5523 18.5523 12 18 12H17.0005C16.4483 12 16.0005 11.5523 16.0005 11ZM7.00049 10C6.4482 10 6.00049 10.4477 6.00049 11C6.00049 11.5523 6.4482 12 7.00049 12H7.99994C8.55222 12 8.99994 11.5523 8.99994 11C8.99994 10.4477 8.55222 10 7.99994 10H7.00049Z" fill="url(#paint0_linear_3171_34202)"/>
<defs>
<linearGradient id="paint0_linear_3171_34202" x1="12.5" y1="2.5" x2="12.5" y2="22" gradientUnits="userSpaceOnUse">
<stop stop-color="#4DA282"/>
<stop offset="1" stop-color="#007A4D"/>
</linearGradient>
</defs>
</svg>
