<svg width="25" height="25" viewBox="0 0 25 25" fill="none" xmlns="http://www.w3.org/2000/svg">
<path fill-rule="evenodd" clip-rule="evenodd" d="M7.5 6.5C7.5 3.73858 9.73858 1.5 12.5 1.5C15.2614 1.5 17.5 3.73858 17.5 6.5C17.5 9.26142 15.2614 11.5 12.5 11.5C9.73858 11.5 7.5 9.26142 7.5 6.5ZM2.5 22.5C2.5 16.9772 6.97717 12.5 12.5 12.5C18.0228 12.5 22.5 16.9772 22.5 22.5C22.5 23.0523 22.0523 23.5 21.5 23.5C18.1878 23.5 12 23.5 12 23.5C12 23.5 6.65777 23.5 3.5 23.5C2.94772 23.5 2.5 23.0523 2.5 22.5Z" fill="#8B8B8B"/>
<path fill-rule="evenodd" clip-rule="evenodd" d="M7.5 6.5C7.5 3.73858 9.73858 1.5 12.5 1.5C15.2614 1.5 17.5 3.73858 17.5 6.5C17.5 9.26142 15.2614 11.5 12.5 11.5C9.73858 11.5 7.5 9.26142 7.5 6.5ZM2.5 22.5C2.5 16.9772 6.97717 12.5 12.5 12.5C18.0228 12.5 22.5 16.9772 22.5 22.5C22.5 23.0523 22.0523 23.5 21.5 23.5C18.1878 23.5 12 23.5 12 23.5C12 23.5 6.65777 23.5 3.5 23.5C2.94772 23.5 2.5 23.0523 2.5 22.5Z" fill="url(#paint0_linear_3174_4021)"/>
<defs>
<linearGradient id="paint0_linear_3174_4021" x1="12.5" y1="1.5" x2="12.5" y2="23.5" gradientUnits="userSpaceOnUse">
<stop stop-color="#4DA282"/>
<stop offset="1" stop-color="#007A4D"/>
</linearGradient>
</defs>
</svg>
