<svg width="25" height="25" viewBox="0 0 25 25" fill="none" xmlns="http://www.w3.org/2000/svg">
<path fill-rule="evenodd" clip-rule="evenodd" d="M11.8753 2.71913C12.2406 2.42696 12.7595 2.42696 13.1247 2.71913L20.6245 8.71897L23.1247 10.7191C23.556 11.0641 23.6259 11.6934 23.2809 12.1247C22.9359 12.556 22.3066 12.6259 21.8753 12.2809L21 11.5806V21.5C21 22.0523 20.5523 22.5 20 22.5H5.00004C4.44775 22.5 4.00004 22.0523 4.00004 21.5V11.5806L3.12473 12.2809C2.69347 12.6259 2.06418 12.556 1.71917 12.1247C1.37416 11.6934 1.44408 11.0641 1.87534 10.7191L4.37534 8.71913L11.8753 2.71913ZM6.00004 9.98062L12.5 4.78062L19 9.98062V20.5H16V15C16 14.4477 15.5523 14 15 14H10C9.44775 14 9.00004 14.4477 9.00004 15V20.5H6.00004V9.98062ZM11 20.5H14V16H11V20.5Z" fill="#8B8B8B"/>
</svg>
